<?xml version="1.0" encoding="utf-8"?>
<!-- Generator: Adobe Illustrator 22.1.0, SVG Export Plug-In . SVG Version: 6.00 Build 0)  -->
<svg version="1.1" xmlns="http://www.w3.org/2000/svg" xmlns:xlink="http://www.w3.org/1999/xlink" x="0px" y="0px"
	 viewBox="0 0 766.8 311" style="enable-background:new 0 0 766.8 311;" xml:space="preserve">
<style type="text/css">
	.st0{display:none;}
	.st1{opacity:0.8;}
	.st2{fill:#E1E6FB;}
	.st3{fill:#F4CDAF;}
	.st4{fill:#D1D1D1;}
	.st5{fill:#373791;}
	.st6{fill:#EFEFEF;}
	.st7{fill:#304269;}
	.st8{fill:#3F3FAA;}
	.st9{fill:#4B45BD;}
	.st10{fill:#DEDAE8;}
	.st11{fill:#BAC5F4;}
	.st12{fill:#3C4043;}
	.st13{fill:#FFFFFF;}
	.st14{fill:#F8F8FF;}
	.st15{fill:url(#SVGID_1_);}
	.st16{fill:url(#SVGID_2_);}
	.st17{fill:url(#SVGID_3_);}
	.st18{fill:url(#SVGID_4_);}
	.st19{fill:#F5F5FC;}
	.st20{fill:#F7F7F7;stroke:#E1E6FB;stroke-width:3;stroke-miterlimit:10;}
	.st21{fill:url(#SVGID_5_);}
	.st22{fill:url(#SVGID_6_);}
	.st23{fill:url(#SVGID_7_);}
	.st24{fill:url(#SVGID_8_);}
	.st25{fill:url(#SVGID_9_);}
	.st26{fill:#F7F7F7;}
	.st27{fill:url(#SVGID_10_);}
	.st28{fill:url(#SVGID_11_);}
	.st29{display:none;fill:#F7F7F7;}
	.st30{fill:url(#SVGID_12_);}
	.st31{fill:url(#SVGID_13_);}
	.st32{fill:url(#SVGID_14_);}
	.st33{fill:url(#SVGID_15_);}
	.st34{fill:url(#SVGID_16_);}
	.st35{fill:url(#SVGID_17_);}
	.st36{fill:#EAC5B0;}
	.st37{opacity:0.2;fill:#BAC5F4;}
	.st38{opacity:0.57;}
	.st39{fill:#E5E5E7;}
	.st40{fill:none;stroke:#D1D1D1;stroke-miterlimit:10;}
	.st41{fill:#47BEC4;}
	.st42{fill:none;stroke:#FFFFFF;stroke-width:2;stroke-miterlimit:10;}
	.st43{fill:#F77A4B;}
	.st44{fill:url(#SVGID_18_);}
	.st45{fill:url(#SVGID_19_);}
	.st46{fill:url(#SVGID_20_);}
	.st47{fill:url(#SVGID_21_);}
	.st48{fill:url(#SVGID_22_);}
	.st49{fill:url(#SVGID_23_);}
	.st50{fill:url(#SVGID_24_);}
	.st51{fill:url(#SVGID_25_);}
	.st52{fill:url(#SVGID_26_);}
	.st53{clip-path:url(#SVGID_28_);fill:#BAC5F4;}
	.st54{opacity:0.4;fill:#F1F2F2;}
	.st55{fill:#ACD9DD;}
	.st56{opacity:0.2;}
	.st57{fill:#FFFDF3;}
	.st58{fill:#232A35;}
	.st59{fill:#3B455A;}
	.st60{opacity:0.1;}
	.st61{fill:#000100;}
	.st62{fill:url(#SVGID_29_);}
	.st63{fill:url(#SVGID_30_);}
	.st64{fill:url(#SVGID_31_);}
	.st65{fill:url(#SVGID_32_);}
	.st66{fill:#BDBDBD;}
	.st67{fill:url(#SVGID_33_);}
	.st68{fill:#5A5A5C;}
	.st69{opacity:0.56;fill:url(#SVGID_34_);}
	.st70{opacity:0.66;fill:#FFFFFF;}
	.st71{fill:#C4DFE1;}
	.st72{fill:#33435A;}
	.st73{fill:#57859B;}
	.st74{fill:#427CCC;}
	.st75{fill:#FFBFA4;}
	.st76{fill:#141C2B;}
	.st77{fill:#BABCBC;}
	.st78{opacity:0.14;}
	.st79{fill:url(#SVGID_35_);}
	.st80{fill:url(#SVGID_36_);}
	.st81{fill:url(#SVGID_37_);}
	.st82{fill:url(#SVGID_38_);}
	.st83{fill:url(#SVGID_39_);}
	.st84{fill:url(#SVGID_40_);}
	.st85{display:inline;fill:url(#SVGID_41_);}
	.st86{display:inline;fill:url(#SVGID_42_);}
	.st87{display:inline;fill:url(#SVGID_43_);}
	.st88{display:inline;fill:url(#SVGID_44_);}
	.st89{display:inline;fill:url(#SVGID_45_);}
	.st90{display:inline;fill:url(#SVGID_46_);}
	.st91{fill:url(#SVGID_47_);}
	.st92{opacity:0.6;}
	.st93{fill:url(#SVGID_48_);}
	.st94{opacity:0.3;}
	.st95{fill:url(#SVGID_49_);}
	.st96{fill:url(#SVGID_50_);}
	.st97{fill:#DE937A;}
	.st98{fill:#28415A;}
	.st99{fill:#59595B;}
	.st100{fill:#39517C;}
	.st101{fill:#34383A;}
	.st102{fill:#F3CFC1;}
	.st103{fill:#FF6600;}
	.st104{fill:#D9E8F5;}
	.st105{fill:#F5CEB0;}
	.st106{fill:#F26101;}
	.st107{fill:#FFFFF2;}
	.st108{display:inline;}
	.st109{fill:#7DB5DB;}
	.st110{fill:#EFBFA5;}
	.st111{fill:#EACDB0;}
	.st112{fill:#4D4D4D;}
	.st113{display:inline;fill:#D8D8D8;stroke:#FFFFFF;stroke-miterlimit:10;}
	.st114{display:inline;fill:#BCBEC0;}
	.st115{display:inline;fill:#305399;}
	.st116{fill:#F0F1F1;}
	.st117{display:inline;opacity:0.1;fill:#000100;}
	.st118{display:inline;fill:#3B455A;}
	.st119{display:inline;fill:#7DB5DB;}
	.st120{fill:#98C7E2;}
	.st121{fill:#FFFDF0;}
	.st122{opacity:6.000000e-02;fill:#FFFFFF;}
	.st123{opacity:0.1;fill:#000100;}
	.st124{fill:url(#SVGID_51_);}
	.st125{fill:url(#SVGID_52_);}
	.st126{fill:url(#SVGID_53_);}
	.st127{fill:url(#SVGID_54_);}
	.st128{fill:url(#SVGID_55_);}
	.st129{fill:url(#SVGID_56_);}
	.st130{fill:url(#SVGID_57_);}
	.st131{fill:url(#SVGID_58_);}
	.st132{fill:#EAC1A4;}
	.st133{fill:#484F5B;}
	.st134{fill:#8CABEF;}
	.st135{fill:url(#SVGID_59_);}
	.st136{fill:url(#SVGID_60_);}
	.st137{fill:url(#SVGID_61_);}
	.st138{fill:url(#SVGID_62_);}
	.st139{fill:url(#SVGID_63_);}
	.st140{fill:url(#SVGID_64_);}
	.st141{fill:url(#SVGID_65_);}
	.st142{fill:url(#SVGID_66_);}
	.st143{fill:url(#SVGID_67_);}
	.st144{fill:url(#SVGID_68_);}
	.st145{fill:url(#SVGID_69_);}
	.st146{fill:url(#SVGID_70_);}
	.st147{fill:url(#SVGID_71_);}
	.st148{fill:url(#SVGID_72_);}
	.st149{fill:#BABCBE;}
	.st150{fill:#242449;}
	.st151{fill:#2F3787;}
	.st152{fill:#3D475B;}
	.st153{fill:#366362;}
	.st154{fill:#89B336;}
	.st155{fill:#96BD34;}
	.st156{opacity:7.000000e-02;}
	.st157{fill:#B5D381;}
	.st158{fill:#3B308A;}
	.st159{opacity:8.000000e-02;}
	.st160{fill:#F3E6DC;}
	.st161{fill:#92C59B;}
	.st162{fill:#88C9DA;}
	.st163{fill:#F9CD5B;}
	.st164{fill:#F6D5D5;}
	.st165{fill:#424DBF;}
	.st166{fill:#7EACF1;}
	.st167{fill:#F17187;}
	.st168{fill:#EAEAEA;}
	.st169{fill:#A0A2A6;}
	.st170{fill:#CE7361;}
	.st171{fill:#C7C8C9;}
	.st172{opacity:9.000000e-02;}
	.st173{opacity:0.15;}
	.st174{fill:#5B6475;}
	.st175{fill:#EDEDED;}
</style>
<g id="Слой_1" class="st0">
</g>
<g id="Слой_9">
	<g id="Слой_3__x28_копия2_x29_" class="st1">
	</g>
	<g id="Слой_10">
		<g id="Слой_11">
		</g>
		<g id="Слой_11__x28_копия_x29_">
			<g id="Слой_11_копия_2">
			</g>
			<g id="Слой_11_копия_3">
			</g>
		</g>
	</g>
</g>
<g id="poezdki">
	<g id="Слой_3__x28_копия_x29_" class="st1">
	</g>
	<g id="Слой_8">
	</g>
</g>
<g id="auto">
	<g id="Слой_3">
		<g id="Слой_4">
		</g>
	</g>
</g>
<g id="nastroiki">
</g>
<g id="otzivi">
</g>
<g id="history">
	<g id="Слой_18">
	</g>
</g>
<g id="driver_x5F_history">
	<g>
		<g class="st0">
			<g class="st108">
				<path class="st109" d="M469.4,169.5c0.1,0.2,0.2,0.4,0.1,0.6c0,0.2-0.2,0.3-0.3,0.4c-5.5,5-11.1,10-16.6,15
					c-2-3.5-3.9-7.1-5.9-10.6c-0.3-0.5-0.6-1.1-0.6-1.7c0-0.5,0.2-0.9,0.3-1.3c2.1-5.3,4.2-10.6,6.3-15.9c2.3-5.9,5.3-3.2,8.4,0.5
					C464.5,160.4,467.3,164.8,469.4,169.5z"/>
			</g>
			<g class="st108">
				<g>
					<g>
						<g id="XMLID_19_">
							<path id="XMLID_20_" class="st110" d="M452.7,260.9l0.3,15.9c-0.1,4.4,0.3,8.8,0.6,13.2c0.2,4.1-0.6,8.3,1.4,12.1
								c0.6,1.2,1.9,2,2.9,0.6c0.8-1.1,0.4-2.9,0.6-4.1c1.4-9.2,4-18.2,5.3-27.5C465.1,261.5,461.3,261.8,452.7,260.9z"/>
						</g>
						<polygon class="st59" points="453.6,299.4 452.6,302.1 457.6,306.5 462.2,306.7 463.7,304.3 457.5,298.9 						"/>
					</g>
					<g>
						<g id="XMLID_10_">
							<path id="XMLID_18_" class="st111" d="M441.4,261.1l-2.9,15.7c-1,7-3.3,13.8-4.3,20.8c-0.2,1.6-0.1,3.4-0.8,4.9
								c-0.7,1.5-1.9,1.5-3.1,0.5c-1.5-1.4-0.8-3.8-0.8-5.6c0.2-12.3-0.8-24.4-1-36.7c0-0.2,0-0.3,0.1-0.4c0.1-0.1,0.2-0.1,0.4-0.1
								C430.2,260.2,441.3,261.4,441.4,261.1z"/>
						</g>
						<polygon class="st112" points="429.5,300.1 427.9,302.4 431.8,307.9 436.3,309.1 438.3,307.1 433.4,300.4 						"/>
					</g>
					<polygon class="st59" points="469.1,271 466.9,248.3 465.9,233.5 462.3,221.4 443.3,218.5 419.8,222.5 418.7,227.1 
						423.2,269.3 445.9,271 445.6,244.7 449.1,261 448.9,271 					"/>
				</g>
				<path class="st13" d="M424.8,176.9c0,0.8-0.1,1.5-0.1,2.3c-0.3,15.6,0.6,31.4,0.7,47.2c8.1-1.3,16.2-2,24.4-2.1
					c1.9,0,10.5,1.3,11.7,0.2c1.6-1.5-0.2-1.2,0-3.2c0.2-2.6-1.1-4.7-0.6-7.7c0.6-3.6,1.6-7.1,2.3-10.7c1.3-7.2,2-14.5,2.3-21.8
					c0.2-6.5,0-13.2-2.8-19.1c-6.9-14.4-29-14.2-35.1,0.9C425.6,167.3,425,172.1,424.8,176.9z"/>
				<path class="st109" d="M449.8,156.7l-6,11c0.3,11.1,0.6,22.2,0.9,33.2c0.1,5.1,0.3,10.2,0.4,15.3c0.1,1.8,0.1,3.5,0.2,5.3
					c0,0.8-0.2,2.1,0.3,2.8c1,1.4,4.6,1,6.2,1.1c2.5,0.2,4.9,0.4,7.2,1.2c1.5,0.6,3,1.4,4.6,1.6c0.4,0.1,0.8,0.1,1.1-0.2
					c0.3-0.3,0.4-0.7,0.4-1.1c0.6-7.6,0.6-15.5,1-23.1c0.3-6.3,1.2-12.9,0.7-19.2c0-0.1,0-0.2,0-0.3c-1.9-10.5,2.1-18.5-5.6-27.9
					c-4.1-5.1-6.2-4.4-11.7-5.8c-1.4-0.3-4.4-1.4-3.6,1.3C446.3,153.5,448.8,155.4,449.8,156.7z"/>
				<path class="st109" d="M436.7,157.7l6,11c-0.1,0-0.8,26.9-0.8,28.7c-0.2,6.9-0.4,13.8-0.6,20.7c-0.1,1.9,0.2,4.2-0.2,6.1
					c-0.5,2.6-3.3,2.1-5.7,2.3c-5.2,0.5-10.6,1.3-15.8,1.1c-1.5-0.1,0.5-31.3,0.5-34.2c0-10.5-2.2-22.1,3.1-31.6
					c1.5-2.8,4.3-7.2,7.3-8.6c2.8-1.3,6.8-1.5,9.9-2.2l0.2,2L436.7,157.7z"/>
				<g>
					<g>
						<path class="st59" d="M449.8,131.1c0.9,1.7,1.4,3.6,1.5,5.5c0,0.5,0.1,1.1,0.5,1.4c0.4,0.3,0.1,1,0.4,0.6
							c0.3-0.4,1.5-1.9,1.5-2.5c0.1-1.3,0.1-2.6,0-3.8c-0.1-1.1-0.3-2.3-1.1-3.1c-0.4-0.5-1-0.8-1.6-1.2c-0.8-0.5-1.7-1-2.6-1.2
							c-1.6-0.3-2.6,0.3-1.2,1.4C448.3,129.1,449.1,130,449.8,131.1z"/>
						<g>
							<path class="st110" d="M439.7,152.8c0,0.8-0.1,1.6,0.5,2.2c0.3,0.3,0.8,0.4,1.2,0.5c1.1,0.2,2.3,0.1,3.4-0.2
								c0.4-0.1,0.9-0.3,1.2-0.7c0.4-0.4,0.4-0.7,0.4-1.3c0-0.6,0.1-1.2,0.2-1.8c0.2-1.3,0.2-2.6,0.3-3.9c1.9-0.3,4.2-1,4.9-3
								c0.2-0.6,0.2-1.3,0.2-2c0-2.8,0-5.6,0.1-8.4c0-1,0-2-0.3-2.9c-0.6-1.6-2.1-2.5-3.5-3.1c-3.7-1.5-8-1.5-11.5,0.7
								c-0.9,0.6-1.8,1.3-2.3,2.3c-0.8,1.5-0.7,3.4-0.6,5.2c0.1,1.6,0.2,3.3,0.3,4.9c0.1,1.9,0.4,4.1,1.9,5.1
								c0.8,0.5,1.8,0.6,2.5,1.3c1.2,1.2,0.6,3,1,4.4C439.7,152.4,439.7,152.6,439.7,152.8z"/>
						</g>
						<path class="st59" d="M452.8,141.5c0-0.5-0.3-2-1-1.1c-0.2,0.3-0.3,0.6-0.3,0.9c0,0.3,0,0.7-0.1,1c-0.2,0.7-1,1.1-1.8,1
							c-0.3,0-0.6-0.1-0.8-0.2c-0.2-0.1-0.4-0.4-0.6-0.6c-0.5-0.5-0.9-1-1.4-1.6c-0.8-0.9-2.3-0.5-3.4-0.4c-1.2,0.2-2.4,0.5-3.4,1.3
							c-0.1,0.1-0.2,0.2-0.3,0.3c-0.2,0.2-0.5,0.4-0.8,0.5c-0.9,0.5-2.1,0-2.8-0.9c-0.3-0.4-0.6-0.9-1.1-1c-0.4-0.1-0.7,0.2-0.9,0.6
							c-0.2,0.3-0.2,0.8-0.3,1.2c-0.1,1.5,0.1,2.9,0.7,4.2c1.4,2.8,4,3.1,6.7,3.1c1,0,2.1,0,3.1-0.1c1.9,0,3.9-0.1,5.6-1.2
							c1.4-1,2.3-2.7,2.6-4.4C452.8,143.3,452.8,142.4,452.8,141.5z M445.8,145.5c-1,0.7-2.1,0.7-3.2,0.4c-0.5-0.1-0.3-0.9,0.2-0.8
							c0.9,0.3,1.8,0.3,2.7-0.3C445.8,144.5,446.2,145.2,445.8,145.5z"/>
						<path class="st59" d="M453.2,126.3c0.2-0.7,0.3-1.4,0.4-2.1c-0.6,0.2-1.4,0.3-2,0.2c0-0.4,0-0.8,0-1.2c0-0.3-4.5-0.6-4.9-0.6
							c-3.5-0.3-6.6-0.6-9.7,1.3c-2.7,1.6-4.4,4-4.8,7c-0.4,2.9,0.6,6.8,2.3,9.2c0-0.8-0.5-2.6-0.3-3.4c0.1-0.7,0.4-1.5,0.7-2.1
							c0.7-1.3,1.8-2.4,3.1-3.2c2-1.3,4.4-1.9,6.7-2.3c2.2-0.3,4.8-0.6,6.9,0c1,0.3,1.2,0.5,1.8-0.5c0.1-0.2,1-2.3,0.9-2.3
							C453.9,126.3,453.5,126.3,453.2,126.3z"/>
					</g>
				</g>
			</g>
			<g class="st108">
				<g>
					<path class="st110" d="M423,160.7c-0.6-2.3-2.8-4.1-5.2-4.1c-1,0-2,0.3-2.9,0.5c-2.3,0.7-4.5,1.6-6.6,2.6c-1.1,0.6-4,3-5.3,2.6
						c-2.3-0.7-2.9-8.9-3.4-11c-0.5-2-1.6-4.6-1.4-6.7c0-0.4,1.4-3.7,1.3-3.8c0,0-0.7-0.5-0.7-0.5l-0.5,0.7l-0.6,0.1l0.9-2.5
						l-2.9-0.9l-2.7,2.3c0.6,2.1,1.7,4.2,1.8,6.4c0,0.9-0.1,1.9-0.2,2.8c-0.1,1.6,0,3.3,0.1,4.9c0,1.6-0.2,3.2-0.2,4.7
						c0.2,4.9-1,11.2,4.4,13.4c4,1.7,8.5,0.8,12.6-0.5c4.8-1.5,12.9-4.1,11.7-10.8C423,161,423,160.9,423,160.7z"/>
				</g>
				<path class="st109" d="M410.9,156.5c-0.2,0.1-0.4,0.2-0.5,0.4c-0.1,0.2-0.1,0.4-0.1,0.5c0.5,7.4,1,14.9,1.5,22.3
					c3.9-1.2,7.7-2.4,11.6-3.5c0.6-0.2,1.2-0.4,1.6-0.8c0.3-0.3,0.5-0.8,0.7-1.2c2.2-5.3,4.4-10.5,6.6-15.8c2.5-5.9-1.5-5.9-6.4-5.5
					C420.7,153.4,415.7,154.6,410.9,156.5z"/>
			</g>
			<g>
				<rect x="396.2" y="67.2" class="st113" width="12.9" height="11.8"/>
				<path class="st114" d="M411.5,78.6h-17.5c-5.6,0-10.2,4.6-10.2,10.2v8.8h37.9v-8.8C421.7,83.1,417.1,78.6,411.5,78.6z"/>
				<path class="st115" d="M429.4,104.3c0.8-1.7,0.3-3.7-1.3-4.8l-25.5-14.9l-25.5,14.9c-1.5,1.1-2.1,3.1-1.3,4.8l0.8,1.7
					c5.1,7.4,10.6,16.6,13.3,25.4l12.5-3.3l12.7,3.1c2.7-8.5,7.9-17.3,12.8-24.5L429.4,104.3z"/>
				<g class="st108">
					<g>
						
							<ellipse transform="matrix(0.2298 -0.9732 0.9732 0.2298 212.1391 458.7393)" class="st116" cx="395.9" cy="95.3" rx="3.2" ry="3.2"/>
					</g>
					<g>
						<path class="st109" d="M398.2,95.3c0,1.3-1,2.3-2.3,2.3s-2.3-1-2.3-2.3s1-2.3,2.3-2.3S398.2,94.1,398.2,95.3z"/>
					</g>
				</g>
				<g class="st108">
					<g>
						
							<ellipse transform="matrix(0.2298 -0.9732 0.9732 0.2298 222.6841 472.0635)" class="st116" cx="409.6" cy="95.3" rx="3.2" ry="3.2"/>
					</g>
					<g>
						<path class="st109" d="M411.9,95.3c0,1.3-1,2.3-2.3,2.3c-1.3,0-2.3-1-2.3-2.3s1-2.3,2.3-2.3C410.8,93.1,411.9,94.1,411.9,95.3
							z"/>
					</g>
				</g>
				<path class="st117" d="M428.2,99.5l-25.5-14.9v43.5l12.7,3.1c2.7-8.5,7.9-17.3,12.8-24.5l1.2-2.4
					C430.3,102.6,429.7,100.6,428.2,99.5z"/>
				<rect x="396.2" y="67.2" class="st118" width="12.9" height="3.5"/>
				<path class="st119" d="M428.7,132.4h-1.2c-3.3,0-6.4-1.7-8.3-4.4c-1.8,2.7-4.9,4.4-8.3,4.4c-3.4,0-6.4-1.7-8.3-4.4
					c-1.8,2.7-4.9,4.4-8.3,4.4c-3.2,0-6.2-1.7-8.2-4.5c-1.8,2.7-5,4.5-8.3,4.5h-1.2v-2.4h1.2c3.2,0,6.1-2,7.2-5
					c0.2-0.4,0.6-0.7,1.1-0.8c0.5,0,0.9,0.2,1.1,0.7c1.5,3.2,4.2,5,7.2,5c3.2,0,6-1.9,7.1-4.9c0.2-0.5,0.6-0.8,1.1-0.8
					s1,0.3,1.1,0.8c1.2,3,4,4.9,7.1,4.9c3.2,0,6.1-2,7.2-5c0.2-0.5,0.6-0.8,1.1-0.8l0,0c0.5,0,0.9,0.3,1.1,0.8c1.1,3,4,5,7.2,5h1.2
					V132.4z"/>
				<path class="st119" d="M428.7,140.4h-1.2c-3.3,0-6.4-1.7-8.3-4.4c-1.8,2.7-4.9,4.4-8.3,4.4c-3.4,0-6.4-1.7-8.3-4.4
					c-1.8,2.7-4.9,4.4-8.3,4.4c-3.2,0-6.2-1.7-8.2-4.5c-1.8,2.7-5,4.5-8.3,4.5h-1.2V138h1.2c3.2,0,6.1-2,7.2-5
					c0.2-0.4,0.6-0.7,1.1-0.8c0.5,0,0.9,0.2,1.1,0.7c1.5,3.2,4.2,5,7.2,5c3.2,0,6-1.9,7.1-4.9c0.2-0.5,0.6-0.8,1.1-0.8
					c0.5,0,1,0.3,1.1,0.8c1.2,3,4,4.9,7.1,4.9c3.2,0,6.1-2,7.2-5c0.2-0.5,0.6-0.8,1.1-0.8l0,0c0.5,0,0.9,0.3,1.1,0.8
					c1.1,3,4,5,7.2,5h1.2V140.4z"/>
			</g>
		</g>
		<g>
			<g>
				<path class="st3" d="M559.4,140.7l-1.3-3.7c-0.4-1.1-0.4-2.3-0.1-3.4l0,0c0.3-1.2,1.5-1.9,2.7-1.7h0c0.6,0.1,1,0.5,1.1,1
					l0.6,2.5l0.9-0.7c0.4-0.3,0.9-0.1,1,0.3l0,0c0,0.1,0,0.3,0,0.4l-1,3.3l-0.4,2.1L559.4,140.7z"/>
				<path class="st4" d="M582.8,170.1c-1-0.6-2-1.2-3.1-1.7c-3-1.4-6-2.9-8.9-4.5c-1.8-1-3.6-2-4.8-3.6c-0.7-0.9-1.1-2-1.6-3.1
					c-2.2-5.6-4.1-11.4-5.6-17.3c1.2-0.6,4.6-2.2,5.7-1.1c0.4,0.4,0.6,0.9,0.8,1.4c1,2.4,2,4.7,3,7.1c1.1,2.6,2.3,5.3,4,7.6
					c0.2,0.3,0.4,0.6,0.8,0.8c0.3,0.2,0.7,0.3,1.1,0.3c6,0.9,9.6-1.4,15.5,0.1c1.3,0.3,5.9,1.5,6.7,2.6c0.6,0.9-0.1,4.9,0,5.9
					c0.1,1.4,0,2.9-0.6,4.2c-0.8,1.5-2.3,2.4-3.9,2.9c-1.6,0.4-3.3,0.3-4.9,0.1C585.5,171.5,584.1,170.9,582.8,170.1z"/>
			</g>
			<g>
				<g id="XMLID_9_">
					<path class="st7" d="M597.8,304.6l0,1.1c0,1-0.5,1.8-1.4,2.3l-3.6,1.8c-1,0.5-2.1,0.3-2.9-0.5l0,0c-1.1-1.1-0.9-2.9,0.4-3.8
						l1.2-0.8H597.8z"/>
				</g>
				<g id="XMLID_8_">
					<path class="st7" d="M616.4,309.3L616.4,309.3c-0.8,0.8-1.9,0.9-2.9,0.5L610,308c-0.8-0.4-1.4-1.3-1.4-2.2l0-1.2h6.3l1.2,0.8
						C617.3,306.4,617.5,308.2,616.4,309.3z"/>
				</g>
				<g>
					<g>
						<path class="st8" d="M583.7,241.7c-0.1,5,0.3,9.9,1,14.8l0,0l6.9,48.1h6.3l3.4-55.3l-1.8-25.9c0,0-12.1-0.5-15.6,0.5
							L583.7,241.7z"/>
						<path class="st9" d="M597.1,223l1.5,9.7l3,22.9l0,0.3l6.9,48.8h6.3l7.6-73.8l0-4.3c-0.7-0.4-1.3-0.8-2.1-1.2L597.1,223z"/>
					</g>
				</g>
			</g>
			<g>
				<path class="st6" d="M608.6,154.8c0.1,0,0.1,0,0.2,0c1.8,0.2,3.6,0.8,4.9,2.1c0.6,0.7,1.1,1.5,1.6,2.3c1.2,2.2,2,4.5,2.9,6.8
					c2.5,6.7,4.5,13.6,6,20.6c0.7,3.4,4.9,41.8,2.4,41.7c-8.3-0.5-16.7-0.9-25-1.2c-7-0.2-14-0.3-21-0.4c-1-19.9-1.9-40.5,5.1-59.2
					c1.1-2.9,2.4-5.8,4.5-8.1C594.6,154.5,602.4,154.3,608.6,154.8z"/>
			</g>
			<g>
				<g>
					<g>
						<path class="st12" d="M596.7,135.4c-0.8,1.6-1.1,3.4-1.1,5.3c0,0.5,0,1-0.4,1.3c-0.4,0.3,0,1-0.3,0.6
							c-0.3-0.4-1.5-1.7-1.5-2.3c-0.2-1.2-0.2-2.4-0.2-3.6c0-1,0.2-2.1,0.8-3c0.4-0.5,0.9-0.9,1.4-1.2c0.7-0.5,1.5-1,2.4-1.2
							c1.5-0.4,2.4,0.1,1.2,1.3C598,133.4,597.3,134.3,596.7,135.4z"/>
					</g>
					<g>
						<g>
							<path class="st3" d="M607.1,155.4c-2.1,0.3-4.1,0.6-6.2,0.9c-0.4-1.8-0.7-3.6-0.8-5.5c-1.8-0.2-4-0.7-4.7-2.6
								c-0.2-0.6-0.3-1.2-0.3-1.9c-0.2-2.7-0.3-5.3-0.5-8c-0.1-0.9-0.1-1.9,0.2-2.7c0.5-1.5,1.8-2.5,3.1-3.1
								c3.4-1.6,7.4-1.8,10.7,0.1c0.9,0.5,1.7,1.2,2.2,2.1c0.8,1.4,0.8,3.2,0.8,4.9c0,1.6-0.1,3.1-0.1,4.7c0,1.8-0.2,3.9-1.5,4.9
								c-0.7,0.5-1.6,0.7-2.2,1.4C606.8,151.7,607.4,153.7,607.1,155.4z"/>
						</g>
					</g>
					<g>
						<path class="st12" d="M594.7,147.9c0.4,1.6,1.3,3.2,2.6,4c1.6,1,3.4,1,5.2,0.9c1,0,1.9-0.1,2.9-0.1c2.5-0.1,4.9-0.5,6-3.2
							c0.5-1.2,0.6-2.7,0.5-4c0-0.4-0.1-0.8-0.3-1.1c-0.2-0.3-0.5-0.5-0.9-0.5c-0.4,0.1-0.7,0.6-0.9,1c-0.6,0.8-1.6,1.4-2.5,1
							c-0.3-0.1-0.5-0.3-0.7-0.5c-0.1-0.1-0.2-0.2-0.3-0.2c-1-0.7-2.1-1-3.3-1.1c-1-0.1-2.5-0.4-3.1,0.5c-0.4,0.5-0.8,1-1.2,1.6
							c-0.2,0.2-0.3,0.4-0.6,0.6c-0.2,0.1-0.5,0.2-0.8,0.2c-0.7,0-1.4-0.2-1.7-0.9c-0.1-0.3-0.1-0.6-0.1-0.9c0-0.3-0.1-0.6-0.3-0.9
							c-0.8-0.9-0.9,0.6-0.9,1.1C594.4,146.2,594.5,147.1,594.7,147.9z M601.4,148c0.8,0.5,1.6,0.5,2.5,0.1c0.4-0.2,0.7,0.6,0.2,0.7
							c-1,0.4-2.1,0.4-3-0.2C600.7,148.5,601,147.8,601.4,148z"/>
					</g>
					<g>
						<path class="st12" d="M593.3,130.9c-0.2-0.6-0.4-1.3-0.5-1.9c0.6,0.2,1.3,0.2,1.9,0.1c0-0.4,0-0.8-0.1-1.1
							c0-0.3,4.2-0.8,4.5-0.8c3.2-0.4,6.1-0.8,9.1,0.8c2.6,1.4,4.3,3.5,4.8,6.4c0.5,2.8-0.2,6.4-1.7,8.8c0-0.7,0.3-2.5,0.1-3.2
							c-0.1-0.7-0.4-1.4-0.8-2c-0.7-1.2-1.8-2.2-3-2.9c-1.9-1.1-4.2-1.6-6.4-1.8c-2-0.2-4.5-0.3-6.4,0.3c-0.9,0.3-1.1,0.6-1.7-0.4
							c-0.1-0.2-1-2.1-0.9-2.1C592.6,131,593,131,593.3,130.9z"/>
					</g>
				</g>
			</g>
			<g>
				<g>
					<path class="st3" d="M617.2,205.1l3.6,1.2l-1.1,4.8c-0.2,0.8-0.8,1.4-1.5,1.6l-1.4,0.4c-0.7,0.2-1.5,0-2-0.5l0,0
						c-0.9-0.8-0.8-2.2,0-3l0,0c0.2-0.2,0.2-0.6-0.1-0.7l0,0l-0.4,0.2c-0.3,0.1-0.6,0-0.8-0.3l0,0c-0.1-0.2-0.1-0.5,0.1-0.7
						L617.2,205.1z"/>
				</g>
				<g>
					<g>
						<g>
							<path class="st4" d="M612.7,155.4c-1.2-0.3-2.5-0.3-3.7,0.1c-0.6,0.2-1.3,0.5-1.7,0.9c-0.5,0.5-0.8,1.1-1.1,1.8
								c-2.9,8.6,6,18.2,11.4,23.8c3.4,3.6,0.4,10.3-0.4,14.7c-0.4,2-2.3,7.9-1,9.2c0.2,0.2,2.5,1,3.8,1.5c0.5,0.2,1.1-0.1,1.3-0.5
								c1.9-4.3,3.9-8.6,5.8-12.9c1.5-3.4,3.6-6.5,5.1-10c0.5-1.3,1-2.7,0.8-4.1c-0.2-1.1-0.8-2.1-1.3-3c-2.9-4.7-5.9-9.2-9.3-13.5
								c-1.7-2.2-3.4-4.4-5.6-6.1C615.6,156.4,614.2,155.7,612.7,155.4z"/>
						</g>
					</g>
				</g>
			</g>
		</g>
		<g>
			<g>
				<path class="st59" d="M579.2,308.3l-12.3,0.1c-2.8,0-5.1-2.2-5.1-5.1l-0.1-28.2l22.5-0.1l0.1,28.2
					C584.3,306,582.1,308.3,579.2,308.3z"/>
				<path class="st59" d="M455.7,308.9l-14.8,0.1c-2.1,0-3.8-1.7-3.8-3.8l-0.1-29.5l22.5-0.1l0.1,29.5
					C459.5,307.2,457.8,308.9,455.7,308.9z"/>
				<path class="st9" d="M551,177.8l-79.2,0.4c-6.1,0-11.4,4.2-13.4,10.3l-13.1,41.3l0,0l-13.3,24.7c-0.5,1-0.8,2.1-0.8,3.2
					l0.1,26.3c0,3.7,3,6.7,6.7,6.7l144.2,0.6c3.8,0,6.8-3,6.8-6.8l-0.1-25.4c0-0.9-0.2-1.8-0.6-2.7l-12-27.5l-0.4,0l-11.3-40.6
					C562.9,182.2,557.3,177.8,551,177.8z"/>
				<path class="st120" d="M559.6,229.3l-99.6,0.5c-5.2,0-8.9-4.7-7.2-9.2l11.5-30.7c1-2.8,3.9-4.7,7.1-4.7l78-0.4
					c3.3,0,6.3,2,7.2,4.9l10.1,30.6C568.2,224.8,564.6,229.3,559.6,229.3z"/>
				<g class="st78">
					<path class="st121" d="M564.7,213.2c-6-3.4-58-26.2-62-28.4l-26.4,0.1c-1.1,0-2.2,0.3-3.2,0.9c0,0,0.1,0,0.1,0.1
						c4,2.2,76,39.8,82.7,43.7l4.7,0c4.3,0,7.4-4.5,6.2-9L564.7,213.2z"/>
					<path class="st121" d="M466.6,187.1c-1-0.7-6.5,14.1-6.5,14.1c2,1.3,36.5,21.7,49.1,28.2l31.2-0.2
						C534.3,225.8,469.2,188.5,466.6,187.1z"/>
				</g>
				<path class="st9" d="M573.3,223.1l4.6-2.3c0.8-0.4,1.8-0.5,2.7-0.3l5.8,1.3c1.4,0.3,2.6,1.4,2.9,2.9l0,0
					c0.5,1.9-0.5,3.8-2.2,4.6l-6.3,2.8c-0.6,0.3-1.2,0.4-1.8,0.3l-3.7-0.2c-1.7-0.1-3.2-1.3-3.6-3l-0.4-1.6
					C570.8,225.8,571.7,223.9,573.3,223.1z"/>
				<path class="st9" d="M447.2,223.7l-4.6-2.3c-0.8-0.4-1.8-0.5-2.7-0.3l-5.8,1.4c-1.4,0.3-2.6,1.5-2.9,2.9l0,0
					c-0.5,1.9,0.5,3.8,2.3,4.5l6.3,2.7c0.6,0.2,1.2,0.4,1.8,0.3l3.7-0.2c1.7-0.1,3.2-1.3,3.6-3l0.4-1.6
					C449.7,226.4,448.9,224.5,447.2,223.7z"/>
				<path class="st122" d="M589.1,268.8l0.1,15.9c0,3.8-3,6.8-6.8,6.8l-144.2-0.6c-3.7,0-6.7-3-6.7-6.7l0.4-14.2L589.1,268.8z"/>
				<polygon class="st123" points="437,290.8 459.4,291 459.5,298 437,293.4 				"/>
				<polygon class="st123" points="561.8,291.6 584.2,291.8 584.3,298.9 561.8,294.2 				"/>
				<g>
					<g>
						
							<ellipse transform="matrix(0.8101 -0.5863 0.5863 0.8101 -45.601 383.7199)" class="st26" cx="569.5" cy="262.3" rx="9.9" ry="9.9"/>
					</g>
					<path class="st123" d="M573.7,268.1c1.7-0.8,3.3-2.2,4-3.9c0.1,1.8-0.8,3.7-2.3,4.8c-0.5,0.4-1.1,0.7-1.6,0.9
						c-0.6,0.3-1.2,0.5-1.8,0.7c-1.7,0.4-3.6,0-5-1.2c0.4,0.4,2.4,0,2.9-0.1C571.2,269,572.5,268.6,573.7,268.1z"/>
				</g>
				<g>
					<g>
						
							<ellipse transform="matrix(0.1583 -0.9874 0.9874 0.1583 116.0327 667.3508)" class="st26" cx="449.5" cy="265.6" rx="9.9" ry="9.9"/>
					</g>
					<path class="st123" d="M453.6,271.4c1.7-0.8,3.3-2.2,4-3.9c0.1,1.8-0.8,3.7-2.3,4.8c-0.5,0.4-1.1,0.7-1.6,0.9
						c-0.6,0.3-1.2,0.5-1.8,0.7c-1.7,0.4-3.6,0-5-1.2c0.4,0.4,2.4,0,2.9-0.1C451.1,272.4,452.4,272,453.6,271.4z"/>
				</g>
			</g>
		</g>
		<g class="st0">
			<g class="st108">
				<g>
					<path class="st110" d="M466.6,182.3c-0.1,0-0.2-0.1-0.3-0.1c-1-0.5-1.1-1.4-1.9-2.2c-0.3-0.3-1.6-0.1-1.3-1.1
						c0.1-0.7,0.7-1.6-0.3-1.8c0.1-1.3,0.7-2.5,1.8-3.3c1.7-1.3,3.7-1,5,0.6c0.6,0.7,1.2,1.7,1.5,2.5c0.6,1.6-0.4,3.1-1.1,4.4
						c-0.2,0.3-0.3,0.6-0.6,0.8c-0.5,0.3-1.1,0.3-1.6,0.3C467.2,182.4,466.9,182.4,466.6,182.3z"/>
				</g>
			</g>
		</g>
		<g>
			<g>
				<g>
					<g>
						<g>
							<g>
								<path class="st110" d="M400.5,303.1c1.1,0,2.1-0.2,3.2-0.3c0.5-10.5-0.4-21.4-0.9-31.9c-2.7,0.1-5.4,0.3-8.1,0.4
									c1.9,5.6,3.2,11.4,4,17.3C398.9,289.6,400.4,303.1,400.5,303.1z"/>
							</g>
							<g>
								<path class="st59" d="M404,300.8c0.7-0.1,1.1,0.2,1.5,0.6c0.3,0.2,0.4,0.6,0.7,0.7c0.3,0.2,0.6,0.2,1,0.2
									c1.9,0.2,6.4,0.1,4,3.4c-2.2,2.9-7.9,1.8-11.2,1c-0.2-0.1-0.4-0.1-0.6-0.3s-0.3-0.4-0.3-0.7c-0.4-1.4-0.9-3.1,0.8-3.7
									c0.7-0.2,1.4,0.2,2.2,0C402.7,301.8,403.4,300.9,404,300.8z"/>
							</g>
						</g>
					</g>
					<path class="st7" d="M408.9,277.2c-5.5-0.1-11-0.2-16.4-0.3c-4.4-21.1-8.3-42.3-11.7-63.6c-0.3-1.7-0.5-3.4,0-5
						c0.9-3,4.1-4.8,7.3-5.3c4.8-0.9,13.7,0.4,16.2,5.4c2.6,5.3,2.2,14.8,2.8,20.7C408.7,245,409.3,261.1,408.9,277.2z"/>
				</g>
				<g>
					<g>
						<g>
							<g>
								<path class="st110" d="M377.6,303.1c-1.1,0-2.1-0.2-3.2-0.3c-0.5-10.5,0.4-21.4,0.9-31.9c2.7,0.1,5.4,0.3,8.1,0.4
									c-1.9,5.6-3.2,11.4-4,17.3C379.2,289.6,377.7,303.1,377.6,303.1z"/>
							</g>
							<g>
								<path class="st59" d="M378,300.8c0.7-0.1,1.1,0.2,1.5,0.6c0.3,0.2,0.4,0.6,0.7,0.7c0.3,0.2,0.6,0.2,1,0.2
									c1.9,0.2,6.4,0.1,4,3.4c-2.2,2.9-7.9,1.8-11.2,1c-0.2-0.1-0.4-0.1-0.6-0.3c-0.2-0.2-0.3-0.4-0.3-0.7
									c-0.4-1.4-0.9-3.1,0.8-3.7c0.7-0.2,1.4,0.2,2.2,0C376.7,301.8,377.3,300.9,378,300.8z"/>
							</g>
						</g>
					</g>
					<path class="st100" d="M369.9,277.2c3.5-0.1,9-0.2,16.4-0.3c4.4-21.1,8.3-42.3,11.7-63.6c0.3-1.7,0.5-3.4,0-5
						c-0.9-3-4.1-4.8-7.3-5.3c-4.8-0.9-13.7,0.4-16.2,5.4c-2.6,5.3-2.2,14.8-2.8,20.7C370.1,245,369.5,261.1,369.9,277.2z"/>
				</g>
			</g>
		</g>
	</g>
	<g id="Слой_21">
		<g>
			<g>
				<path class="st132" d="M409.1,152.5l3.6,0.3l1-4.7c0.2-0.7-0.1-1.5-0.7-2l-1.1-0.9c-0.5-0.4-1.3-0.6-1.9-0.3l0,0
					c-1.1,0.4-1.6,1.6-1.2,2.7l0.3,0.7l-0.7-0.1l-0.6-0.7c0,0-0.4-0.3-0.5-0.2c-0.2,0.1-0.2,0.8-0.2,0.8L409.1,152.5z"/>
			</g>
			<g>
				<g>
					<path class="st2" d="M398,186.6c-3.8-8.5-5.4-18.1-4.3-27.4c0.1-1.2,0.7-2.7,1.9-2.5c0.5,0.1,0.8,0.4,1.2,0.7
						c2.6,2.8,3.3,6.9,5.2,10.2c0.4,0.7,1.1,1.4,1.8,1c0.3-0.2,0.5-0.6,0.6-0.9c0.8-2.5,0.8-5.3,1.5-7.9c0.5-1.9,1.1-7.8,2.7-8.5
						c0.4-0.1,4.8,0.3,4.8,0.3c0,4.8,0,9.7,0,14.5c0,3.6,0,7.2,0,10.9c0,5.4-2.1,13.6-6.1,17.5c-0.7,0.7-1.7,1.3-2.7,1.2
						c-1.2-0.1-2-1.2-2.7-2.2C400.4,191.4,399.1,189,398,186.6z"/>
				</g>
			</g>
		</g>
		<g>
			<g id="XMLID_127_">
				<polyline id="XMLID_21_" class="st7" points="392.2,246.7 388.1,230.7 409.8,229.7 				"/>
			</g>
			<polygon class="st133" points="373.2,231.8 370.7,223.4 373.2,214 409.8,215.4 409.8,229.7 			"/>
		</g>
		<path class="st11" d="M392.1,155.4l-6.4-0.6c-4.2-0.4-8.1,1.9-9.9,5.7c-2.3,4.9-5.5,13.1-8.9,25.5c-6.4,23.6-1.7,44.5-1.7,44.5
			s20-3.9,48.3-0.4l-8.2-58.6l-6.1-11.4C397.9,157.5,395.2,155.7,392.1,155.4z"/>
		<g>
			<path class="st9" d="M402.6,211.4h-0.2v-3.7c0-2.3-1.8-4.1-4.1-4.1h-21.1c-2.3,0-4.1,1.8-4.1,4.1v3.7h-0.2
				c-0.7,0-1.2,0.6-1.2,1.2v2.4h6.4v-2.4c0-0.7-0.6-1.2-1.2-1.2h-0.5v-3c0-1,0.8-1.8,1.8-1.8h19.6c1,0,1.8,0.8,1.8,1.8v3h-0.6
				c-0.7,0-1.2,0.6-1.2,1.2v2.4h6.4v-2.4C403.9,211.9,403.3,211.4,402.6,211.4z"/>
			<g>
				<path class="st134" d="M416.3,275.7h-57.2c-6.5,0-11.7-5.2-11.7-11.7v-38.2c0-6.5,5.2-11.7,11.7-11.7h57.2
					c6.5,0,11.7,5.2,11.7,11.7V264C428.1,270.4,422.8,275.7,416.3,275.7z"/>
				<path class="st9" d="M363.1,276.5h-1.7c-0.7,0-1.2-0.5-1.2-1.2v-60.5c0-0.7,0.5-1.2,1.2-1.2h1.7c0.7,0,1.2,0.5,1.2,1.2v60.5
					C364.3,276,363.8,276.5,363.1,276.5z"/>
				<g>
					<path class="st9" d="M413,276.5h-0.4c-1,0-1.8-0.8-1.8-1.8v-59.3c0-1,0.8-1.8,1.8-1.8h0.4c1,0,1.8,0.8,1.8,1.8v59.3
						C414.8,275.7,414,276.5,413,276.5z"/>
				</g>
			</g>
		</g>
		<g>
			<g>
				<path class="st2" d="M387,170.2c-0.7,1.8-1.8,3.5-2.7,5.2c-3.3,6.1-5.2,12.8-7.1,19.5c-0.4,1.5-0.8,3-0.3,4.6
					c0.3,1.3,1,1.8,0.5,3.1c-1,3.2-3.2,3.4-5.4,1.5c-3.1-2.7-5.9-5.7-8.4-8.9c-0.6-0.7-1.1-1.5-1.3-2.4c-0.2-1,0-2,0.2-3
					c2.6-11,7.4-21.5,14-30.7c0.9-1.2,1.9-2.5,3.3-2.8c1.4-0.4,2.9,0.3,4.1,1.2c2.9,2.2,4.5,6.1,3.9,9.7
					C387.7,168.3,387.4,169.2,387,170.2z"/>
			</g>
			<polygon class="st132" points="376.3,202.2 374.3,204.9 378.7,209.1 382,208 382.6,204.9 379.8,204.4 380.2,203.9 381.1,203.8 
				381,202.9 			"/>
		</g>
	</g>
	<g>
		<g>
			<g>
				<path class="st110" d="M397.8,147.1c-0.8,1.8-2.2,3.3-3.3,5c-1.1,1.6-1.5,3.1-1.7,4.9c-0.2,1.4-0.7,2.4-2.3,2.6
					c-3.1,0.4-2.2-2.1-2.9-3.9c-0.8-2.1-2.5-3.8-3.7-5.7c-3.4-5.4-2.5-16.2,4.7-18.5C396.3,129,400.3,141.6,397.8,147.1z"/>
			</g>
		</g>
		<g>
			<path class="st59" d="M385.4,141.8c-0.9,0-1.9,0.1-2.5,0.7c-0.7,0.6-0.6,1.9,0.3,2c0.8,0.1,1.8-0.7,2.3-0.1
				c0.3,0.3,0,0.9-0.2,1.3c-0.8,1.6-1.1,3.4-0.7,5.1c-0.3,0.3-0.8,0-1.1-0.3c-1.4-1.5-2.5-3.4-3.2-5.3c-0.3,0.5-0.7,0.9-1.2,1.2
				c0.3-0.7,0.1-1.5-0.1-2.3c-0.7-2.8-1.1-6,0.8-8.2c1-1.2,2.6-1.9,4.2-2.2c1.6-0.3,3.2-0.2,4.8-0.1c0.7,0,1.5,0.2,1.7,0.8
				c-1.5,0.6-3,1.8-3.8,3.2C386.3,137.8,385.5,141.8,385.4,141.8z"/>
		</g>
		<g>
			<path class="st59" d="M388.5,135.2c-0.1,0-0.1,0.1-0.2,0.1c-0.7,0.5-1.3,1.1-2.1,1.4c-1.2,0.3-2.4-0.2-3.6,0.2
				c-1.3,0.4-2.1,2-3.1,2.9c-1.5,1.5-3.5,2.6-5.5,3.2c-1.1,0.3-2.1,0.5-3.2,0.6c-0.5,0-1.2,0.1-1.7,0c-0.7-0.2-0.6-0.5,0.1-0.7
				c2.2-0.7,2.9-3.8,2.7-5.8c-0.1-1.6-0.7-3.3-0.1-4.8c0.5-1.1,1.5-1.7,2.4-2.4c1.1-0.7,2.2-0.5,3.4-0.9c1.3-0.4,2.3-1.4,3.6-1.6
				c1.4-0.3,2.7,0.3,4.1,0.6c1.1,0.2,2.3,0.2,3.4,0c1-0.2,2-0.6,3-0.6c1.5,0,2.9,1,3.8,2.2c1.3,1.7,2.1,4.7,1.6,7
				c0.1-0.4-1.1-1.6-1.4-1.9c-0.5-0.6-1.1-1.1-1.9-1.2C392.1,133.2,389.9,134.1,388.5,135.2z"/>
		</g>
	</g>
	<g>
		<g>
			<g>
				<path class="st13" d="M484.4,238.6c0.3,0.3,0.4,0.6,0.4,1.1c0,0.5-0.1,0.8-0.4,1.1c-0.3,0.3-0.7,0.4-1.2,0.4h-4.1v13.7
					c0,0.5-0.2,0.8-0.5,1.1c-0.3,0.3-0.7,0.5-1.2,0.5c-0.5,0-0.9-0.2-1.2-0.5c-0.3-0.3-0.5-0.7-0.5-1.1v-13.7h-4.1
					c-0.5,0-0.9-0.1-1.2-0.4c-0.3-0.3-0.4-0.6-0.4-1.1c0-0.4,0.2-0.8,0.5-1.1c0.3-0.3,0.7-0.4,1.1-0.4h11.6
					C483.7,238.2,484.1,238.3,484.4,238.6z"/>
				<path class="st13" d="M493.2,242.7c0.4,0.3,0.5,0.6,0.5,1c0,0.5-0.1,0.9-0.4,1.2c-0.3,0.3-0.6,0.4-1,0.4c-0.3,0-0.6-0.1-0.9-0.2
					c-0.1,0-0.2-0.1-0.4-0.1c-0.2-0.1-0.4-0.1-0.6-0.1c-0.5,0-0.9,0.1-1.3,0.4c-0.4,0.3-0.8,0.7-1,1.3c-0.3,0.6-0.4,1.2-0.4,2v6.2
					c0,0.5-0.1,0.8-0.4,1.1c-0.3,0.3-0.7,0.5-1.1,0.5c-0.5,0-0.8-0.2-1.1-0.5c-0.3-0.3-0.4-0.7-0.4-1.1v-10.8c0-0.5,0.1-0.8,0.4-1.1
					c0.3-0.3,0.7-0.5,1.1-0.5c0.5,0,0.8,0.2,1.1,0.5c0.3,0.3,0.4,0.7,0.4,1.1v0.3c0.4-0.7,1-1.3,1.7-1.6c0.8-0.4,1.6-0.6,2.4-0.6
					C492.4,242.2,492.8,242.4,493.2,242.7z"/>
				<path class="st13" d="M495.6,240.5c-0.2-0.2-0.4-0.5-0.4-1V239c0-0.5,0.1-0.8,0.4-1c0.3-0.2,0.7-0.3,1.3-0.3
					c0.6,0,1,0.1,1.3,0.3c0.2,0.2,0.4,0.5,0.4,1v0.5c0,0.5-0.1,0.9-0.4,1c-0.3,0.2-0.7,0.3-1.3,0.3
					C496.2,240.8,495.8,240.7,495.6,240.5z M498,256.1c-0.3,0.3-0.7,0.5-1.1,0.5c-0.5,0-0.8-0.2-1.1-0.5c-0.3-0.3-0.4-0.7-0.4-1.1
					v-10.8c0-0.5,0.1-0.8,0.4-1.1c0.3-0.3,0.7-0.5,1.1-0.5c0.5,0,0.8,0.2,1.1,0.5c0.3,0.3,0.4,0.7,0.4,1.1v10.8
					C498.4,255.4,498.3,255.8,498,256.1z"/>
				<path class="st13" d="M512,243.2c1,0.6,1.8,1.5,2.3,2.6c0.6,1.1,0.9,2.4,0.9,3.8c0,1.4-0.3,2.7-0.8,3.8c-0.6,1.1-1.3,2-2.3,2.6
					c-1,0.6-2,0.9-3.2,0.9c-0.8,0-1.6-0.2-2.4-0.5c-0.7-0.3-1.4-0.8-1.8-1.2v5.1c0,0.5-0.1,0.8-0.4,1.1c-0.3,0.3-0.7,0.5-1.1,0.5
					c-0.5,0-0.8-0.1-1.1-0.4c-0.3-0.3-0.4-0.7-0.4-1.2v-16.1c0-0.5,0.1-0.8,0.4-1.1c0.3-0.3,0.7-0.5,1.1-0.5c0.5,0,0.8,0.2,1.1,0.5
					c0.3,0.3,0.4,0.7,0.4,1.1v0.1c0.4-0.5,1-1,1.8-1.4c0.8-0.4,1.5-0.6,2.4-0.6C509.9,242.2,511,242.5,512,243.2z M511.1,252.6
					c0.7-0.8,1.1-1.9,1.1-3.1c0-1.3-0.4-2.3-1.1-3.1c-0.7-0.8-1.6-1.2-2.8-1.2c-1.1,0-2.1,0.4-2.8,1.2c-0.7,0.8-1.1,1.9-1.1,3.1
					c0,1.3,0.4,2.3,1.1,3.1c0.7,0.8,1.6,1.3,2.8,1.3C509.4,253.9,510.3,253.5,511.1,252.6z"/>
				<path class="st13" d="M522.3,240.4c-0.2,0.3-0.4,0.7-0.4,1.1v1.2h2.4c0.4,0,0.8,0.1,1,0.4c0.3,0.3,0.4,0.6,0.4,1
					c0,0.4-0.1,0.8-0.4,1c-0.3,0.3-0.6,0.4-1,0.4H522v9.3c0,0.5-0.1,0.8-0.4,1.1c-0.3,0.3-0.7,0.5-1.1,0.5c-0.5,0-0.8-0.2-1.1-0.5
					c-0.3-0.3-0.4-0.7-0.4-1.1v-9.3h-1.4c-0.4,0-0.8-0.1-1-0.4c-0.3-0.3-0.4-0.6-0.4-1c0-0.4,0.1-0.8,0.4-1c0.3-0.3,0.6-0.4,1-0.4
					h1.4v-1.2c0-1.3,0.4-2.4,1.4-3.2c0.9-0.8,2.2-1.2,3.9-1.2c0.6,0,1.2,0.1,1.7,0.4c0.5,0.3,0.7,0.7,0.7,1.2c0,0.4-0.1,0.8-0.4,1
					c-0.2,0.3-0.5,0.4-0.9,0.4c-0.1,0-0.2,0-0.3,0c-0.1,0-0.2,0-0.3-0.1c-0.4-0.1-0.8-0.2-1-0.2C523,239.9,522.6,240.1,522.3,240.4z
					"/>
				<path class="st13" d="M539.2,250.2c-0.3,0.3-0.7,0.4-1.1,0.4h-8.7c0.2,1,0.7,1.8,1.4,2.4c0.8,0.6,1.6,0.9,2.5,0.9
					c0.7,0,1.3-0.1,1.7-0.2c0.4-0.1,0.7-0.3,1-0.4c0.2-0.1,0.4-0.2,0.5-0.3c0.3-0.2,0.6-0.2,0.9-0.2c0.4,0,0.7,0.1,0.9,0.4
					c0.3,0.3,0.4,0.6,0.4,0.9c0,0.5-0.2,0.9-0.7,1.3c-0.5,0.4-1.1,0.7-2,1c-0.8,0.3-1.7,0.4-2.5,0.4c-1.5,0-2.7-0.3-3.8-0.9
					c-1.1-0.6-1.9-1.5-2.5-2.5c-0.6-1.1-0.9-2.3-0.9-3.6c0-1.5,0.3-2.8,0.9-4c0.6-1.1,1.5-2,2.5-2.6c1-0.6,2.1-0.9,3.3-0.9
					c1.2,0,2.2,0.3,3.3,0.9c1,0.6,1.8,1.5,2.5,2.5c0.6,1.1,0.9,2.2,0.9,3.5C539.6,249.6,539.5,249.9,539.2,250.2z M529.4,248h6.9
					v-0.2c-0.1-0.7-0.4-1.4-1.1-1.9c-0.6-0.5-1.4-0.8-2.2-0.8C531,245.1,529.8,246.1,529.4,248z"/>
				<path class="st13" d="M550.5,242.7c0.4,0.3,0.5,0.6,0.5,1c0,0.5-0.1,0.9-0.4,1.2c-0.3,0.3-0.6,0.4-1,0.4c-0.3,0-0.6-0.1-0.9-0.2
					c-0.1,0-0.2-0.1-0.4-0.1c-0.2-0.1-0.4-0.1-0.6-0.1c-0.5,0-0.9,0.1-1.3,0.4c-0.4,0.3-0.8,0.7-1,1.3c-0.3,0.6-0.4,1.2-0.4,2v6.2
					c0,0.5-0.1,0.8-0.4,1.1c-0.3,0.3-0.7,0.5-1.1,0.5c-0.5,0-0.8-0.2-1.1-0.5c-0.3-0.3-0.4-0.7-0.4-1.1v-10.8c0-0.5,0.1-0.8,0.4-1.1
					c0.3-0.3,0.7-0.5,1.1-0.5c0.5,0,0.8,0.2,1.1,0.5c0.3,0.3,0.4,0.7,0.4,1.1v0.3c0.4-0.7,1-1.3,1.7-1.6c0.8-0.4,1.6-0.6,2.4-0.6
					C549.7,242.2,550.1,242.4,550.5,242.7z"/>
			</g>
		</g>
		<g>
			<g class="st1">
				<linearGradient id="SVGID_1_" gradientUnits="userSpaceOnUse" x1="511.5201" y1="187.5" x2="511.5201" y2="95.0108">
					<stop  offset="0" style="stop-color:#FFFFFF"/>
					<stop  offset="1" style="stop-color:#CFCFCF"/>
				</linearGradient>
				<path class="st15" d="M511.5,105.5c-11.2,0-20.3,9.1-20.3,20.3c0,2.9,0.6,5.7,1.8,8.3c5.1,11.1,14.8,22.8,17.6,26.1
					c0.2,0.3,0.5,0.4,0.9,0.4c0.3,0,0.6-0.1,0.9-0.4c2-2.4,7.5-8.9,12.3-16.5L518,137c-1.9,1.1-4.1,1.8-6.5,1.8
					c-7,0-12.7-5.7-12.7-12.7c0-7,5.7-12.7,12.7-12.7c7,0,12.7,5.7,12.7,12.7c0,2.4-0.6,4.6-1.8,6.5l5.5,5.5c0.7-1.3,1.4-2.7,2-4
					c1.2-2.6,1.8-5.4,1.8-8.3C531.8,114.6,522.7,105.5,511.5,105.5z"/>
			</g>
			<g>
				<linearGradient id="SVGID_2_" gradientUnits="userSpaceOnUse" x1="511.55" y1="147" x2="511.55" y2="114.9376">
					<stop  offset="0" style="stop-color:#FFFFFF"/>
					<stop  offset="1" style="stop-color:#CFCFCF"/>
				</linearGradient>
				<path class="st16" d="M521.1,126.1c0,5.3-4.3,9.5-9.5,9.5c-5.3,0-9.5-4.3-9.5-9.5c0-5.3,4.3-9.5,9.5-9.5
					C516.8,116.6,521.1,120.8,521.1,126.1z"/>
				<path class="st13" d="M504.1,126.1h2.1c0-2.9,2.4-5.3,5.3-5.3v-2.1C507.5,118.7,504.1,122,504.1,126.1z"/>
			</g>
		</g>
	</g>
	<g id="Слой_18__x28_копия_x29_">
		<g>
			<linearGradient id="SVGID_3_" gradientUnits="userSpaceOnUse" x1="361.0708" y1="67.4297" x2="361.0708" y2="-10.5731">
				<stop  offset="0" style="stop-color:#FFFFFF"/>
				<stop  offset="1" style="stop-color:#CFCFCF"/>
			</linearGradient>
			<path class="st17" d="M378.3,9.8c-4.4-5.1-10.8-8-17.5-7.9C354,2,347.7,5,343.4,10.2c-9.3,11.2-9.1,27.4,0.4,38.3l15.6,17.2
				c0.5,0.6,1.3,0.9,2,0.9c0.8,0,1.5-0.4,2-0.9l15.2-17.6C388,37,387.8,20.7,378.3,9.8z M361.9,42.3c-8.2,0.1-14.9-6.5-15-14.7
				c-0.1-8.2,6.5-14.9,14.7-15c8.2-0.1,14.9,6.5,15,14.7C376.6,35.5,370.1,42.2,361.9,42.3z"/>
		</g>
		<g>
			<linearGradient id="SVGID_4_" gradientUnits="userSpaceOnUse" x1="122.3441" y1="134.0964" x2="122.3441" y2="-11.9417">
				<stop  offset="0" style="stop-color:#FFFFFF"/>
				<stop  offset="1" style="stop-color:#CFCFCF"/>
			</linearGradient>
			<path class="st18" d="M156,20c-8.6-9.9-21.1-15.6-34.2-15.4c-13.1,0.1-25.5,6.1-33.8,16.2c-18.1,21.8-17.7,53.4,0.8,74.8
				l30.5,33.6c1,1.1,2.5,1.7,4,1.7s2.9-0.7,3.9-1.8l29.7-34.3C174.9,73,174.5,41.4,156,20z M123.9,83.5c-16,0.2-29.1-12.6-29.3-28.6
				c-0.2-16,12.6-29.1,28.6-29.3c16-0.2,29.1,12.6,29.3,28.6C152.7,70.2,139.9,83.3,123.9,83.5z"/>
		</g>
		<g>
			<linearGradient id="SVGID_5_" gradientUnits="userSpaceOnUse" x1="256.4242" y1="326.7631" x2="256.4242" y2="227.9861">
				<stop  offset="0.4826" style="stop-color:#FFFFFF"/>
				<stop  offset="1" style="stop-color:#CFCFCF"/>
			</linearGradient>
			<path class="st21" d="M271.1,247.8c-3.7-4.3-9.2-6.8-14.9-6.7c-5.7,0.1-11.1,2.7-14.8,7.1c-7.9,9.5-7.7,23.3,0.4,32.6l13.3,14.6
				c0.4,0.5,1.1,0.8,1.7,0.7s1.3-0.3,1.7-0.8l13-14.9C279.3,271,279.2,257.2,271.1,247.8z M257.1,275.5c-7,0.1-12.7-5.5-12.8-12.5
				c-0.1-7,5.5-12.7,12.5-12.8c7-0.1,12.7,5.5,12.8,12.5C269.7,269.7,264.1,275.4,257.1,275.5z"/>
		</g>
		<g>
			<linearGradient id="SVGID_6_" gradientUnits="userSpaceOnUse" x1="28.1499" y1="260.7631" x2="28.1499" y2="176.6335">
				<stop  offset="0" style="stop-color:#FFFFFF"/>
				<stop  offset="1" style="stop-color:#CFCFCF"/>
			</linearGradient>
			<path class="st22" d="M48,193.1c-5.1-5.9-12.4-9.2-20.2-9.1c-7.7,0.1-15,3.6-19.9,9.6c-10.7,12.8-10.4,31.5,0.5,44.1l18,19.8
				c0.6,0.6,1.4,1,2.3,1c0.9,0,1.7-0.4,2.3-1.1l17.5-20.2C59.1,224.4,58.9,205.7,48,193.1z M29.1,230.5c-9.4,0.1-17.2-7.4-17.3-16.9
				c-0.1-9.4,7.5-17.2,16.9-17.3c9.4-0.1,17.2,7.5,17.3,16.9C46.1,222.7,38.5,230.4,29.1,230.5z"/>
		</g>
		<g>
			<linearGradient id="SVGID_7_" gradientUnits="userSpaceOnUse" x1="749.4629" y1="66.7631" x2="749.4629" y2="-3.2655">
				<stop  offset="0" style="stop-color:#FFFFFF"/>
				<stop  offset="1" style="stop-color:#CFCFCF"/>
			</linearGradient>
			<path class="st23" d="M761.7,21.7c-3.1-3.6-7.7-5.7-12.4-5.6c-4.8,0.1-9.3,2.2-12.3,5.9c-6.6,7.9-6.4,19.4,0.3,27.2l11.1,12.2
				c0.4,0.4,0.9,0.6,1.4,0.6c0.5,0,1.1-0.2,1.4-0.7L762,48.9C768.6,41,768.4,29.5,761.7,21.7z M750,44.8
				c-5.8,0.1-10.6-4.6-10.6-10.4c-0.1-5.8,4.6-10.6,10.4-10.6c5.8-0.1,10.6,4.6,10.6,10.4C760.5,39.9,755.8,44.7,750,44.8z"/>
		</g>
		<g>
			<linearGradient id="SVGID_8_" gradientUnits="userSpaceOnUse" x1="696.793" y1="258.7631" x2="696.793" y2="155.1205">
				<stop  offset="0" style="stop-color:#FFFFFF"/>
				<stop  offset="1" style="stop-color:#CFCFCF"/>
			</linearGradient>
			<path class="st24" d="M721.8,175.8c-6.4-7.4-15.7-11.6-25.5-11.5c-9.8,0.1-19,4.5-25.2,12.1c-13.5,16.2-13.2,39.8,0.6,55.7
				l22.7,25c0.7,0.8,1.8,1.3,2.9,1.3s2.2-0.5,2.9-1.3l22.1-25.5C735.9,215.3,735.6,191.7,721.8,175.8z M698,223.1
				c-11.9,0.1-21.7-9.4-21.8-21.3c-0.1-11.9,9.4-21.7,21.3-21.8c11.9-0.1,21.7,9.4,21.8,21.3C719.4,213.2,709.9,222.9,698,223.1z"/>
		</g>
	</g>
</g>
<g id="user_x5F_poezdki">
</g>
</svg>
