<svg id="Слой_1_копия_" data-name="Слой 1 (копия)" xmlns="http://www.w3.org/2000/svg" viewBox="0 0 827.85 305.06"><defs><style>.cls-1,.cls-2{fill:#fff;}.cls-2{stroke:#fff;stroke-miterlimit:10;stroke-width:9px;}</style></defs><title>logo_white_white</title><path class="cls-1" d="M68.89,32.78V73.44H100.3v27.83H68.89v90.3q0,9.59,4,13.84t14.39,4.25a56.67,56.67,0,0,0,13-1.29v29.06A96.28,96.28,0,0,1,75,240.74q-46.05,0-46-47.78V101.27H-.33V73.44H28.94v-18Z" transform="translate(0.33)"/><rect class="cls-1" x="250.95" y="73.44" width="39.96" height="167.29"/><path class="cls-1" d="M476.08,158.79c0,25.88-6.25,43.43-18.75,58.83s-27.83,22.79-48.87,22.79c-19.52,0-36.58-5.7-48.31-17.76v82.41h-40V73.44h40l.07,15.47C374,79.58,388.79,73.38,409,73.38c21.7,0,39.13,8.18,48.62,19.78,12.39,15.15,18.5,36.31,18.5,63.31Zm-39.8-3.25q0-25-10.6-39.73t-30.34-14.69q-24.51,0-35.19,19v71.12q10.86,19.49,35.52,19.48,19.06,0,29.84-14.45C432.69,186.65,436.28,175.13,436.28,155.54Z" transform="translate(0.33)"/><path class="cls-1" d="M506.25,240.74V101.27H479.12V73.44h27.13V58.14q0-27.84,16.45-43T568.74,0A98.17,98.17,0,0,1,591.1,2.78V32.56a92,92,0,0,0-16.28-1.64c-19.82,0-28.61,8.81-28.61,27.68V73.44h36.17v27.83H546.21V240.74Z" transform="translate(0.33)"/><path class="cls-2" d="M686.52,130.63a2.81,2.81,0,0,0,2.67-3.68c-5.43-16.82-20.53-28.19-37.69-28.21a40.23,40.23,0,0,0-21,5.87C613.27,115.1,606.92,137,615,155.54c8.31,19.14,20.81,35.64,34.42,52.81a2.8,2.8,0,0,0,4.44-.06l26.79-35.67a1.44,1.44,0,0,1,2.59.91c-.16,4.32.16,8.62.16,12.86a43.44,43.44,0,0,1-6.7,23.73,30.2,30.2,0,0,1-2.35,3.14c-5,5.86-9.58,12.12-14.68,17.9-5.3,6-11,6.22-16.3.38-18.32-20.38-34.68-42.07-46.46-67.08-18.29-38.8,9.14-82.74,51-86,29.53-2.3,58.91,21.43,63,51.39.24,1.77.52,3.53.72,5.29,1.17,10.27-2.9,15.61-13.11,15.76H652.73c-6.84,0-11.5-4.62-11.34-10.39.16-5.58,4.67-9.86,11.23-9.86Z" transform="translate(0.33)"/><circle class="cls-1" cx="270.83" cy="32.78" r="22.61"/><path class="cls-1" d="M827.51,107.84a107.61,107.61,0,0,0-16.44-1.31q-27.47,0-37,19.79V240.74h-40V73.44h40V90.93c9.65-14.53,22.19-20.58,39.29-20.58a39.35,39.35,0,0,1,14.14,2.17Z" transform="translate(0.33)"/><path class="cls-1" d="M225.82,107.77a104.23,104.23,0,0,0-16.27-1.24q-27.47,0-37,19.79V240.74h-40V73.44h40V90.93c9.64-14.53,22.19-20.58,39.29-20.58A39.39,39.39,0,0,1,226,72.52Z" transform="translate(0.33)"/></svg>
