<?xml version="1.0" encoding="utf-8"?>
<!-- Generator: Adobe Illustrator 22.1.0, SVG Export Plug-In . SVG Version: 6.00 Build 0)  -->
<svg version="1.1" id="Слой_1__x28_копия_x29_"
	 xmlns="http://www.w3.org/2000/svg" xmlns:xlink="http://www.w3.org/1999/xlink" x="0px" y="0px" viewBox="0 0 827.8 305.1"
	 style="enable-background:new 0 0 827.8 305.1;" xml:space="preserve">
<style type="text/css">
	.st0{fill:#002F6C;}
	.st1{fill:#FF6F00;stroke:#FF6F00;stroke-width:9;stroke-miterlimit:10;}
	.st2{fill:#FF6F00;}
</style>
<g>
	<g>
		<path class="st0" d="M69.2,32.8v40.7h31.4v27.8H69.2v90.3c0,6.4,1.3,11,4,13.8c2.7,2.8,7.5,4.3,14.4,4.3c4.6,0,8.3-0.3,13-1.3
			v29.1c-9.1,2.4-16.9,3.3-25.4,3.3c-30.7,0-46-15.9-46-47.8v-91.7H0V73.4h29.3V55.4L69.2,32.8z"/>
		<rect x="250.9" y="73.4" class="st0" width="40" height="167.3"/>
		<path class="st0" d="M476.4,158.8c0,25.9-6.2,43.4-18.7,58.8c-12.5,15.4-27.8,22.8-48.9,22.8c-19.5,0-36.6-5.7-48.3-17.8v82.4h-40
			V73.4h40l0.1,15.5c13.8-9.3,28.6-15.5,48.7-15.5c21.7,0,39.1,8.2,48.6,19.8c12.4,15.2,18.5,36.3,18.5,63.3V158.8z M436.6,155.5
			c0-16.7-3.5-29.9-10.6-39.7c-7.1-9.8-17.2-14.7-30.3-14.7c-16.3,0-28.1,6.3-35.2,19v71.1c7.2,13,19.1,19.5,35.5,19.5
			c12.7,0,22.7-4.8,29.8-14.5C433,186.6,436.6,175.1,436.6,155.5z"/>
		<path class="st0" d="M506.6,240.7V101.3h-27.1V73.4h27.1V58.1c0-18.6,5.5-32.9,16.4-43C534,5.1,549.3,0,569.1,0
			c7,0,14.5,0.9,22.4,2.8v29.8c-4.4-0.8-10.5-1.6-16.3-1.6c-19.8,0-28.6,8.8-28.6,27.7v14.8h36.2v27.8h-36.2v139.5H506.6z"/>
		<path class="st1" d="M686.9,130.6c1.9,0,3.2-1.9,2.7-3.7c-5.4-16.8-20.5-28.2-37.7-28.2c-7.6,0-14.8,2.1-21,5.9
			c-17.3,10.5-23.6,32.4-15.6,50.9c8.3,19.1,20.8,35.6,34.4,52.8c1.1,1.4,3.3,1.4,4.4-0.1l26.8-35.7c0.8-1.1,2.6-0.5,2.6,0.9
			c-0.2,4.3,0.2,8.6,0.2,12.9c0,9.2-2.6,17.5-6.7,23.7c-0.7,1.1-1.5,2.2-2.4,3.1c-5,5.9-9.6,12.1-14.7,17.9c-5.3,6-11,6.2-16.3,0.4
			c-18.3-20.4-34.7-42.1-46.5-67.1c-18.3-38.8,9.1-82.7,51-86c29.5-2.3,58.9,21.4,63,51.4c0.2,1.8,0.5,3.5,0.7,5.3
			c1.2,10.3-2.9,15.6-13.1,15.8c-14.8,0-41,0-45.7,0c-6.8,0-11.5-4.6-11.3-10.4c0.2-5.6,4.7-9.9,11.2-9.9
			C662.3,130.6,678.9,130.6,686.9,130.6z"/>
		<circle class="st2" cx="270.8" cy="32.8" r="22.6"/>
		<path class="st0" d="M827.8,107.8c-5.3-0.8-10.9-1.3-16.4-1.3c-18.3,0-30.6,6.6-37,19.8v114.4h-40V73.4h40l0,17.5
			c9.6-14.5,22.2-20.6,39.3-20.6c5.7,0,10.4,0.7,14.1,2.2V107.8z"/>
		<path class="st0" d="M226.2,107.8c-5.3-0.8-10.7-1.2-16.3-1.2c-18.3,0-30.6,6.6-37,19.8v114.4h-40V73.4h40l0,17.5
			c9.6-14.5,22.2-20.6,39.3-20.6c5.7,0,10.4,0.7,14.1,2.2L226.2,107.8z"/>
	</g>
</g>
</svg>
