<svg id="Слой_3" data-name="Слой 3" xmlns="http://www.w3.org/2000/svg" viewBox="0 0 2115.6 637.21"><defs><style>.cls-1{fill:#fff;}</style></defs><title>logo_tripfer_white</title><path class="cls-1" d="M160,111.21H56.67c-31.34,0-56.67-16-56.67-46s25.33-46,56.67-46h316c31.33,0,56.67,16,56.67,46s-25.34,46-56.67,46H269.33v342c0,32.66-21.33,54.66-54.67,54.66S160,485.87,160,453.21Z"/><path class="cls-1" d="M433.94,187.21c0-29.33,19.33-45.34,44-45.34s44,16,44,45.34v37.33h1.33c11.33-40.66,33.33-82.67,80.67-82.67,30.66,0,53.33,20,53.33,47.34,0,36-24,48.67-48,48.67H591.93c-39.33,0-60.66,27.33-60.66,108V459.21c0,26-10.67,48.66-48.67,48.66s-48.66-22.67-48.66-48.66Z"/><path class="cls-1" d="M747.28,7.88a50.67,50.67,0,1,1-50.67,50.66A50.63,50.63,0,0,1,747.28,7.88Z"/><path class="cls-1" d="M698.61,190.54c0-26,10.67-48.67,48.67-48.67s48.66,22.67,48.66,48.67V459.21c0,26-10.67,48.66-48.66,48.66s-48.67-22.67-48.67-48.66Z"/><path class="cls-1" d="M872,187.88c0-30,14-46,44-46,28.66,0,44,16,44,46v15.33h1.33c16-41.33,55.33-61.34,102.67-61.34,81.33,0,152.66,59.34,152.66,185.34,0,93.33-47.33,180.66-150,180.66-44.67,0-78-18-96-49.33h-1.34v130c0,32-19.33,48.67-48.66,48.67S872,620.54,872,588.54Zm170,30c-56.67,0-78,50.66-78,106,0,50,18.66,108.66,78,108,62,0,77.33-62.66,77.33-108C1119.28,266.54,1094,219.21,1042,217.88Z"/><path class="cls-1" d="M1303.29,214.54h-22c-27.33,0-38.67-10.66-38.67-32s11.34-32,38.67-32h22V101.88c0-61.34,50.66-94,107.33-94,35.33,0,64,14,64,46.67,0,18-14,33.33-31.33,33.33-7.34,0-14-2-21.34-2-14,0-21.33,9.33-21.33,22.66v42h30c28.67,0,44,8.67,44,32s-15.33,32-44,32h-30V459.21c0,32-19.33,48.66-48.67,48.66s-48.66-16.66-48.66-48.66Z"/><path class="cls-1" d="M1844.13,172.9l-67.83-67.83a18.72,18.72,0,0,0-26.47,26.47l26,26h-63.08a17.85,17.85,0,1,0,0,35.7h63.08l-26,26a18.71,18.71,0,0,0,26.47,26.46l67.83-67.83a3.54,3.54,0,0,0,1-2.51A3.59,3.59,0,0,0,1844.13,172.9Z"/><path class="cls-1" d="M1892.27,187.21c0-29.33,19.33-45.34,44-45.34s44,16,44,45.34l1.33,22.66c11.33-40.66,33.33-68,80.67-68,30.66,0,53.33,20,53.33,47.34,0,36-24,48.67-48,48.67h-17.34c-39.33,0-60.66,27.33-60.66,108V459.21c0,26-10.67,48.66-48.67,48.66s-48.66-22.67-48.66-48.66Z"/><path class="cls-1" d="M1530.74,190.67c0-37.1,19.32-48.8,48.8-48.8h195.7c24.4,0,42.2,7.12,42.2,33.56s-17.8,33.54-42.2,33.54H1614.1v79.3h141.32c21.86,0,39.14,6.1,39.14,32s-17.28,32-39.14,32H1614.1v88.45h165.21c24.4,0,42.19,7.12,42.19,33.55s-17.79,33.55-42.19,33.55H1579.54c-29.48,0-48.8-11.69-48.8-48.8Z"/></svg>