<svg xmlns="http://www.w3.org/2000/svg" xmlns:xlink="http://www.w3.org/1999/xlink" viewBox="0 0 348.3 275.47"><defs><style>.cls-1{fill:url(#linear-gradient);}.cls-2{fill:url(#linear-gradient-2);}.cls-3{fill:none;}.cls-4{isolation:isolate;}.cls-5{clip-path:url(#clip-path);}.cls-6{mask:url(#mask);}.cls-7{fill:url(#linear-gradient-3);}.cls-8{opacity:0.05;}.cls-9{clip-path:url(#clip-path-2);}.cls-10{mask:url(#mask-2);}.cls-11{fill:#e8f0f7;}.cls-12{opacity:0.2;}.cls-13{fill:#5c9ce5;}.cls-14{opacity:0.5;}.cls-15,.cls-20,.cls-21,.cls-22{fill:#fff;}.cls-16{fill:#8fc6f9;}.cls-17{fill:#e0e3fa;}.cls-18{fill:#83b5e5;}.cls-19{fill:#d6e6f7;}.cls-20{opacity:0.35;}.cls-21,.cls-24,.cls-31{opacity:0.4;}.cls-22{opacity:0.6;}.cls-23{fill:#f60;}.cls-24{fill:#5ca3e5;}.cls-25{fill:#304269;}.cls-26{fill:#0e1424;}.cls-27{fill:#39517c;}.cls-28{fill:#f4cdaf;}.cls-29{fill:#3c4043;}.cls-30{fill:url(#New_Gradient_Swatch_copy_23);}.cls-32{fill:url(#New_Gradient_Swatch_copy_23-2);}.cls-33{fill:#0376c9;}.cls-34{fill:url(#New_Gradient_Swatch_copy_22);}.cls-35{opacity:0.07;}.cls-35,.cls-47,.cls-53{mix-blend-mode:multiply;}.cls-36{fill:#995624;}.cls-37{fill:#253761;}.cls-38{fill:url(#New_Gradient_Swatch_copy_23-3);}.cls-39{fill:url(#New_Gradient_Swatch_copy_23-4);}.cls-40{fill:url(#New_Gradient_Swatch_copy_23-5);}.cls-41{fill:#2b1a12;}.cls-42{fill:#4a2b1e;}.cls-43{fill:#140c09;}.cls-44{fill:#807976;}.cls-45{fill:#d6e0f7;}.cls-46{fill:#0d1a38;}.cls-47{fill:#b5a6fe;}.cls-48{fill:url(#linear-gradient-4);}.cls-49{fill:#3c5582;}.cls-50{fill:#f2edff;}.cls-51,.cls-53{fill:#b5d8ff;}.cls-52{fill:#9ab8d9;}.cls-54{fill:#ded1fd;}.cls-55{fill:url(#linear-gradient-5);}.cls-56{fill:#ccc;}.cls-57{fill:#999;}</style><linearGradient id="linear-gradient" x1="596.34" y1="186.65" x2="596.34" y2="-36.69" gradientUnits="userSpaceOnUse"><stop offset="0" stop-color="#fff"/><stop offset="1"/></linearGradient><linearGradient id="linear-gradient-2" x1="64.61" y1="218.36" x2="64.61" y2="-38.8" xlink:href="#linear-gradient"/><clipPath id="clip-path"><path class="cls-3" d="M439,200.27a137.88,137.88,0,0,0,17.14,16.82,218,218,0,0,0,82.7,43.11,218.66,218.66,0,0,0,147.86-13c9.67-4.52,16.69-14.55,20.46-24.55,2.09-5.56,1.84-12.4-2.18-16.77-4.21-4.59-12.18-6.45-13.1-12.61-1-6.68,7.1-10.45,13.22-13.29,33.77-15.68,65-107.55,27.29-116.22-39.5-9.07,3.91-39.69-15.72-81.38C701.38-50.08,445,11.69,436.73,58.73c-3,17-16.73,15.16-28.5,27.75-12.12,13-6.87,33.72-.9,50.43C416.57,162.76,423.51,182,439,200.27Z"/></clipPath><mask id="mask" x="322.78" y="-29.98" width="547.12" height="217.53" maskUnits="userSpaceOnUse"><rect class="cls-1" x="322.78" y="-29.98" width="547.12" height="217.53"/></mask><linearGradient id="linear-gradient-3" x1="596.34" y1="196" x2="596.34" y2="-30.23" gradientUnits="userSpaceOnUse"><stop offset="0" stop-color="#eaedfc"/><stop offset="0.84" stop-color="#aed1fc"/></linearGradient><clipPath id="clip-path-2"><path class="cls-3" d="M336.07,177.06c-20.43,38.44-67.1,66.3-111.86,79.77-63,19-131.92,7.9-182.73-27.49C-13.89,190.77-17.41,111.46,52.77,87.18c32.09-11.1,72.47-7.7,104.94-16.66,32.76-9,73.7-27.95,94.43-52.45C271.69-5,301.55-7.79,318.8,20.42,347.19,66.86,359.28,133.4,336.07,177.06Z"/></clipPath><mask id="mask-2" x="-221.7" y="-31.07" width="572.62" height="250.46" maskUnits="userSpaceOnUse"><rect class="cls-2" x="-221.7" y="-31.07" width="572.62" height="250.46"/></mask><linearGradient id="New_Gradient_Swatch_copy_23" x1="284.72" y1="224.4" x2="315.9" y2="224.4" gradientUnits="userSpaceOnUse"><stop offset="0" stop-color="#07234a"/><stop offset="1" stop-color="#020b17"/></linearGradient><linearGradient id="New_Gradient_Swatch_copy_23-2" x1="284.72" y1="220.01" x2="315.66" y2="220.01" xlink:href="#New_Gradient_Swatch_copy_23"/><linearGradient id="New_Gradient_Swatch_copy_22" x1="295.07" y1="209.11" x2="303.79" y2="209.11" gradientUnits="userSpaceOnUse"><stop offset="0" stop-color="#004093"/><stop offset="1" stop-color="#04162f"/></linearGradient><linearGradient id="New_Gradient_Swatch_copy_23-3" x1="270.65" y1="191.49" x2="272.46" y2="191.49" xlink:href="#New_Gradient_Swatch_copy_23"/><linearGradient id="New_Gradient_Swatch_copy_23-4" x1="278.01" y1="199.7" x2="284.44" y2="199.7" xlink:href="#New_Gradient_Swatch_copy_23"/><linearGradient id="New_Gradient_Swatch_copy_23-5" x1="264.6" y1="199.17" x2="269.04" y2="199.17" xlink:href="#New_Gradient_Swatch_copy_23"/><linearGradient id="linear-gradient-4" x1="40.31" y1="226.16" x2="56.24" y2="226.16" gradientUnits="userSpaceOnUse"><stop offset="0.02" stop-color="#fff"/><stop offset="1" stop-color="#dcd6e8"/></linearGradient><linearGradient id="linear-gradient-5" x1="143.67" y1="226.16" x2="159.6" y2="226.16" xlink:href="#linear-gradient-4"/></defs><title>illustration</title><g class="cls-4"><g id="Agency"><g id="_3" data-name="3"><g class="cls-5"><g class="cls-6"><rect class="cls-7" x="322.78" y="-29.98" width="547.12" height="217.53"/></g></g></g><g id="_2" data-name="2"><path class="cls-8" d="M336.07,177.06c-20.43,38.44-58.38,61.41-101.18,76.28-63.69,22.13-142.6,11.39-193.41-24C-13.89,190.77-9.4,118.13,36.42,91.41c29.34-17.1,88.82-11.93,121.29-20.89,32.76-9,73.7-27.95,94.43-52.45C271.69-5,301.55-7.79,318.8,20.42,347.19,66.86,359.28,133.4,336.07,177.06Z"/><g class="cls-9"><g class="cls-10"><rect class="cls-11" x="-221.7" y="-31.07" width="572.62" height="250.46"/></g><g class="cls-12"><rect class="cls-13" x="-26.67" y="105.39" width="54.87" height="114.58"/><g class="cls-14"><rect class="cls-15" x="22.15" y="110.85" width="2.53" height="3.28"/><rect class="cls-15" x="17.55" y="110.85" width="2.53" height="3.28"/><rect class="cls-15" x="12.94" y="110.85" width="2.53" height="3.28"/><rect class="cls-15" x="8.33" y="110.85" width="2.53" height="3.28"/><rect class="cls-15" x="3.72" y="110.85" width="2.53" height="3.28"/><rect class="cls-15" x="-0.88" y="110.85" width="2.53" height="3.28"/></g><g class="cls-14"><rect class="cls-15" x="22.15" y="117.76" width="2.53" height="3.28"/><rect class="cls-15" x="17.55" y="117.76" width="2.53" height="3.28"/><rect class="cls-15" x="12.94" y="117.76" width="2.53" height="3.28"/><rect class="cls-15" x="8.33" y="117.76" width="2.53" height="3.28"/><rect class="cls-15" x="3.72" y="117.76" width="2.53" height="3.28"/><rect class="cls-15" x="-0.88" y="117.76" width="2.53" height="3.28"/></g><g class="cls-14"><rect class="cls-15" x="22.15" y="124.66" width="2.53" height="3.28"/><rect class="cls-15" x="17.55" y="124.66" width="2.53" height="3.28"/><rect class="cls-15" x="12.94" y="124.66" width="2.53" height="3.28"/><rect class="cls-15" x="8.33" y="124.66" width="2.53" height="3.28"/><rect class="cls-15" x="3.72" y="124.66" width="2.53" height="3.28"/><rect class="cls-15" x="-0.88" y="124.66" width="2.53" height="3.28"/></g><g class="cls-14"><rect class="cls-15" x="22.15" y="131.57" width="2.53" height="3.28"/><rect class="cls-15" x="17.55" y="131.57" width="2.53" height="3.28"/><rect class="cls-15" x="12.94" y="131.57" width="2.53" height="3.28"/><rect class="cls-15" x="8.33" y="131.57" width="2.53" height="3.28"/><rect class="cls-15" x="3.72" y="131.57" width="2.53" height="3.28"/><rect class="cls-15" x="-0.88" y="131.57" width="2.53" height="3.28"/></g><g class="cls-14"><rect class="cls-15" x="22.15" y="138.48" width="2.53" height="3.28"/><rect class="cls-15" x="17.55" y="138.48" width="2.53" height="3.28"/><rect class="cls-15" x="12.94" y="138.48" width="2.53" height="3.28"/><rect class="cls-15" x="8.33" y="138.48" width="2.53" height="3.28"/><rect class="cls-15" x="3.72" y="138.48" width="2.53" height="3.28"/><rect class="cls-15" x="-0.88" y="138.48" width="2.53" height="3.28"/></g><g class="cls-14"><rect class="cls-15" x="22.15" y="145.39" width="2.53" height="3.28"/><rect class="cls-15" x="17.55" y="145.39" width="2.53" height="3.28"/><rect class="cls-15" x="12.94" y="145.39" width="2.53" height="3.28"/><rect class="cls-15" x="8.33" y="145.39" width="2.53" height="3.28"/><rect class="cls-15" x="3.72" y="145.39" width="2.53" height="3.28"/><rect class="cls-15" x="-0.88" y="145.39" width="2.53" height="3.28"/></g><g class="cls-14"><rect class="cls-15" x="22.15" y="152.3" width="2.53" height="3.28"/><rect class="cls-15" x="17.55" y="152.3" width="2.53" height="3.28"/><rect class="cls-15" x="12.94" y="152.3" width="2.53" height="3.28"/><rect class="cls-15" x="8.33" y="152.3" width="2.53" height="3.28"/><rect class="cls-15" x="3.72" y="152.3" width="2.53" height="3.28"/><rect class="cls-15" x="-0.88" y="152.3" width="2.53" height="3.28"/></g><g class="cls-14"><rect class="cls-15" x="22.15" y="159.21" width="2.53" height="3.28"/><rect class="cls-15" x="17.55" y="159.21" width="2.53" height="3.28"/><rect class="cls-15" x="12.94" y="159.21" width="2.53" height="3.28"/><rect class="cls-15" x="8.33" y="159.21" width="2.53" height="3.28"/><rect class="cls-15" x="3.72" y="159.21" width="2.53" height="3.28"/><rect class="cls-15" x="-0.88" y="159.21" width="2.53" height="3.28"/></g><g class="cls-14"><rect class="cls-15" x="22.15" y="166.11" width="2.53" height="3.28"/><rect class="cls-15" x="17.55" y="166.11" width="2.53" height="3.28"/><rect class="cls-15" x="12.94" y="166.11" width="2.53" height="3.28"/><rect class="cls-15" x="8.33" y="166.11" width="2.53" height="3.28"/><rect class="cls-15" x="3.72" y="166.11" width="2.53" height="3.28"/><rect class="cls-15" x="-0.88" y="166.11" width="2.53" height="3.28"/></g><g class="cls-14"><rect class="cls-15" x="22.15" y="173.02" width="2.53" height="3.28"/><rect class="cls-15" x="17.55" y="173.02" width="2.53" height="3.28"/><rect class="cls-15" x="12.94" y="173.02" width="2.53" height="3.28"/><rect class="cls-15" x="8.33" y="173.02" width="2.53" height="3.28"/><rect class="cls-15" x="3.72" y="173.02" width="2.53" height="3.28"/><rect class="cls-15" x="-0.88" y="173.02" width="2.53" height="3.28"/></g><g class="cls-14"><rect class="cls-15" x="22.15" y="179.93" width="2.53" height="3.28"/><rect class="cls-15" x="17.55" y="179.93" width="2.53" height="3.28"/><rect class="cls-15" x="12.94" y="179.93" width="2.53" height="3.28"/><rect class="cls-15" x="8.33" y="179.93" width="2.53" height="3.28"/><rect class="cls-15" x="3.72" y="179.93" width="2.53" height="3.28"/><rect class="cls-15" x="-0.88" y="179.93" width="2.53" height="3.28"/></g><g class="cls-14"><rect class="cls-15" x="22.15" y="186.84" width="2.53" height="3.28"/><rect class="cls-15" x="17.55" y="186.84" width="2.53" height="3.28"/><rect class="cls-15" x="12.94" y="186.84" width="2.53" height="3.28"/><rect class="cls-15" x="8.33" y="186.84" width="2.53" height="3.28"/><rect class="cls-15" x="3.72" y="186.84" width="2.53" height="3.28"/><rect class="cls-15" x="-0.88" y="186.84" width="2.53" height="3.28"/></g><g class="cls-14"><rect class="cls-15" x="22.15" y="193.75" width="2.53" height="3.28"/><rect class="cls-15" x="17.55" y="193.75" width="2.53" height="3.28"/><rect class="cls-15" x="12.94" y="193.75" width="2.53" height="3.28"/><rect class="cls-15" x="8.33" y="193.75" width="2.53" height="3.28"/><rect class="cls-15" x="3.72" y="193.75" width="2.53" height="3.28"/><rect class="cls-15" x="-0.88" y="193.75" width="2.53" height="3.28"/></g><g class="cls-14"><rect class="cls-15" x="22.15" y="200.66" width="2.53" height="3.28"/><rect class="cls-15" x="17.55" y="200.66" width="2.53" height="3.28"/><rect class="cls-15" x="12.94" y="200.66" width="2.53" height="3.28"/><rect class="cls-15" x="8.33" y="200.66" width="2.53" height="3.28"/><rect class="cls-15" x="3.72" y="200.66" width="2.53" height="3.28"/><rect class="cls-15" x="-0.88" y="200.66" width="2.53" height="3.28"/></g><g class="cls-14"><rect class="cls-15" x="22.15" y="207.57" width="2.53" height="3.28"/><rect class="cls-15" x="17.55" y="207.57" width="2.53" height="3.28"/><rect class="cls-15" x="12.94" y="207.57" width="2.53" height="3.28"/><rect class="cls-15" x="8.33" y="207.57" width="2.53" height="3.28"/><rect class="cls-15" x="3.72" y="207.57" width="2.53" height="3.28"/><rect class="cls-15" x="-0.88" y="207.57" width="2.53" height="3.28"/></g><rect class="cls-13" x="14.9" y="119" width="65.36" height="100.98"/><rect class="cls-16" x="14.9" y="119" width="20.36" height="100.98"/><g class="cls-14"><rect class="cls-15" x="73.05" y="124.09" width="3.01" height="15.08"/><rect class="cls-15" x="67.57" y="124.09" width="3.01" height="15.08"/><rect class="cls-15" x="62.08" y="124.09" width="3.01" height="15.08"/><rect class="cls-15" x="56.59" y="124.09" width="3.01" height="15.08"/><rect class="cls-15" x="51.1" y="124.09" width="3.01" height="15.08"/><rect class="cls-15" x="45.62" y="124.09" width="3.01" height="15.08"/><rect class="cls-15" x="40.13" y="124.09" width="3.01" height="15.08"/><rect class="cls-15" x="30.07" y="124.09" width="3.01" height="15.08"/><rect class="cls-15" x="24.58" y="124.09" width="3.01" height="15.08"/><rect class="cls-15" x="19.09" y="124.09" width="3.01" height="15.08"/></g><g class="cls-14"><rect class="cls-15" x="73.05" y="141.13" width="3.01" height="15.08"/><rect class="cls-15" x="67.57" y="141.13" width="3.01" height="15.08"/><rect class="cls-15" x="62.08" y="141.13" width="3.01" height="15.08"/><rect class="cls-15" x="56.59" y="141.13" width="3.01" height="15.08"/><rect class="cls-15" x="51.1" y="141.13" width="3.01" height="15.08"/><rect class="cls-15" x="45.62" y="141.13" width="3.01" height="15.08"/><rect class="cls-15" x="40.13" y="141.13" width="3.01" height="15.08"/><rect class="cls-15" x="30.07" y="141.13" width="3.01" height="15.08"/><rect class="cls-15" x="24.58" y="141.13" width="3.01" height="15.08"/><rect class="cls-15" x="19.09" y="141.13" width="3.01" height="15.08"/></g><g class="cls-14"><rect class="cls-15" x="73.05" y="158.18" width="3.01" height="15.08"/><rect class="cls-15" x="67.57" y="158.18" width="3.01" height="15.08"/><rect class="cls-15" x="62.08" y="158.18" width="3.01" height="15.08"/><rect class="cls-15" x="56.59" y="158.18" width="3.01" height="15.08"/><rect class="cls-15" x="51.1" y="158.18" width="3.01" height="15.08"/><rect class="cls-15" x="45.62" y="158.18" width="3.01" height="15.08"/><rect class="cls-15" x="40.13" y="158.18" width="3.01" height="15.08"/><rect class="cls-15" x="30.07" y="158.18" width="3.01" height="15.08"/><rect class="cls-15" x="24.58" y="158.18" width="3.01" height="15.08"/><rect class="cls-15" x="19.09" y="158.18" width="3.01" height="15.08"/></g><g class="cls-14"><rect class="cls-15" x="73.05" y="175.23" width="3.01" height="15.08"/><rect class="cls-15" x="67.57" y="175.23" width="3.01" height="15.08"/><rect class="cls-15" x="62.08" y="175.23" width="3.01" height="15.08"/><rect class="cls-15" x="56.59" y="175.23" width="3.01" height="15.08"/><rect class="cls-15" x="51.1" y="175.23" width="3.01" height="15.08"/><rect class="cls-15" x="45.62" y="175.23" width="3.01" height="15.08"/><rect class="cls-15" x="40.13" y="175.23" width="3.01" height="15.08"/><rect class="cls-15" x="30.07" y="175.23" width="3.01" height="15.08"/><rect class="cls-15" x="24.58" y="175.23" width="3.01" height="15.08"/><rect class="cls-15" x="19.09" y="175.23" width="3.01" height="15.08"/></g><g class="cls-14"><rect class="cls-15" x="73.05" y="192.27" width="3.01" height="15.08"/><rect class="cls-15" x="67.57" y="192.27" width="3.01" height="15.08"/><rect class="cls-15" x="62.08" y="192.27" width="3.01" height="15.08"/><rect class="cls-15" x="56.59" y="192.27" width="3.01" height="15.08"/><rect class="cls-15" x="51.1" y="192.27" width="3.01" height="15.08"/><rect class="cls-15" x="45.62" y="192.27" width="3.01" height="15.08"/><rect class="cls-15" x="40.13" y="192.27" width="3.01" height="15.08"/><rect class="cls-15" x="30.07" y="192.27" width="3.01" height="15.08"/><rect class="cls-15" x="24.58" y="192.27" width="3.01" height="15.08"/><rect class="cls-15" x="19.09" y="192.27" width="3.01" height="15.08"/></g><rect class="cls-13" x="178.69" y="83.5" width="65.36" height="136.47"/><rect class="cls-16" x="178.69" y="83.5" width="20.36" height="136.47"/><g class="cls-14"><rect class="cls-15" x="236.84" y="90" width="3.01" height="15.08"/><rect class="cls-15" x="231.35" y="90" width="3.01" height="15.08"/><rect class="cls-15" x="225.86" y="90" width="3.01" height="15.08"/><rect class="cls-15" x="220.38" y="90" width="3.01" height="15.08"/><rect class="cls-15" x="214.89" y="90" width="3.01" height="15.08"/><rect class="cls-15" x="209.4" y="90" width="3.01" height="15.08"/><rect class="cls-15" x="203.91" y="90" width="3.01" height="15.08"/><rect class="cls-15" x="193.85" y="90" width="3.01" height="15.08"/><rect class="cls-15" x="188.37" y="90" width="3.01" height="15.08"/><rect class="cls-15" x="182.88" y="90" width="3.01" height="15.08"/></g><g class="cls-14"><rect class="cls-15" x="236.84" y="107.04" width="3.01" height="15.08"/><rect class="cls-15" x="231.35" y="107.04" width="3.01" height="15.08"/><rect class="cls-15" x="225.86" y="107.04" width="3.01" height="15.08"/><rect class="cls-15" x="220.38" y="107.04" width="3.01" height="15.08"/><rect class="cls-15" x="214.89" y="107.04" width="3.01" height="15.08"/><rect class="cls-15" x="209.4" y="107.04" width="3.01" height="15.08"/><rect class="cls-15" x="203.91" y="107.04" width="3.01" height="15.08"/><rect class="cls-15" x="193.85" y="107.04" width="3.01" height="15.08"/><rect class="cls-15" x="188.37" y="107.04" width="3.01" height="15.08"/><rect class="cls-15" x="182.88" y="107.04" width="3.01" height="15.08"/></g><g class="cls-14"><rect class="cls-15" x="236.84" y="124.09" width="3.01" height="15.08"/><rect class="cls-15" x="231.35" y="124.09" width="3.01" height="15.08"/><rect class="cls-15" x="225.86" y="124.09" width="3.01" height="15.08"/><rect class="cls-15" x="220.38" y="124.09" width="3.01" height="15.08"/><rect class="cls-15" x="214.89" y="124.09" width="3.01" height="15.08"/><rect class="cls-15" x="209.4" y="124.09" width="3.01" height="15.08"/><rect class="cls-15" x="203.91" y="124.09" width="3.01" height="15.08"/><rect class="cls-15" x="193.85" y="124.09" width="3.01" height="15.08"/><rect class="cls-15" x="188.37" y="124.09" width="3.01" height="15.08"/><rect class="cls-15" x="182.88" y="124.09" width="3.01" height="15.08"/></g><g class="cls-14"><rect class="cls-15" x="236.84" y="141.13" width="3.01" height="15.08"/><rect class="cls-15" x="231.35" y="141.13" width="3.01" height="15.08"/><rect class="cls-15" x="225.86" y="141.13" width="3.01" height="15.08"/><rect class="cls-15" x="220.38" y="141.13" width="3.01" height="15.08"/><rect class="cls-15" x="214.89" y="141.13" width="3.01" height="15.08"/><rect class="cls-15" x="209.4" y="141.13" width="3.01" height="15.08"/><rect class="cls-15" x="203.91" y="141.13" width="3.01" height="15.08"/><rect class="cls-15" x="193.85" y="141.13" width="3.01" height="15.08"/><rect class="cls-15" x="188.37" y="141.13" width="3.01" height="15.08"/><rect class="cls-15" x="182.88" y="141.13" width="3.01" height="15.08"/></g><g class="cls-14"><rect class="cls-15" x="236.84" y="158.18" width="3.01" height="15.08"/><rect class="cls-15" x="231.35" y="158.18" width="3.01" height="15.08"/><rect class="cls-15" x="225.86" y="158.18" width="3.01" height="15.08"/><rect class="cls-15" x="220.38" y="158.18" width="3.01" height="15.08"/><rect class="cls-15" x="214.89" y="158.18" width="3.01" height="15.08"/><rect class="cls-15" x="209.4" y="158.18" width="3.01" height="15.08"/><rect class="cls-15" x="203.91" y="158.18" width="3.01" height="15.08"/><rect class="cls-15" x="193.85" y="158.18" width="3.01" height="15.08"/><rect class="cls-15" x="188.37" y="158.18" width="3.01" height="15.08"/><rect class="cls-15" x="182.88" y="158.18" width="3.01" height="15.08"/></g><g class="cls-14"><rect class="cls-15" x="236.84" y="175.23" width="3.01" height="15.08"/><rect class="cls-15" x="231.35" y="175.23" width="3.01" height="15.08"/><rect class="cls-15" x="225.86" y="175.23" width="3.01" height="15.08"/><rect class="cls-15" x="220.38" y="175.23" width="3.01" height="15.08"/><rect class="cls-15" x="214.89" y="175.23" width="3.01" height="15.08"/><rect class="cls-15" x="209.4" y="175.23" width="3.01" height="15.08"/><rect class="cls-15" x="203.91" y="175.23" width="3.01" height="15.08"/><rect class="cls-15" x="193.85" y="175.23" width="3.01" height="15.08"/><rect class="cls-15" x="188.37" y="175.23" width="3.01" height="15.08"/><rect class="cls-15" x="182.88" y="175.23" width="3.01" height="15.08"/></g><g class="cls-14"><rect class="cls-15" x="236.84" y="192.27" width="3.01" height="15.08"/><rect class="cls-15" x="231.35" y="192.27" width="3.01" height="15.08"/><rect class="cls-15" x="225.86" y="192.27" width="3.01" height="15.08"/><rect class="cls-15" x="220.38" y="192.27" width="3.01" height="15.08"/><rect class="cls-15" x="214.89" y="192.27" width="3.01" height="15.08"/><rect class="cls-15" x="209.4" y="192.27" width="3.01" height="15.08"/><rect class="cls-15" x="203.91" y="192.27" width="3.01" height="15.08"/><rect class="cls-15" x="193.85" y="192.27" width="3.01" height="15.08"/><rect class="cls-15" x="188.37" y="192.27" width="3.01" height="15.08"/><rect class="cls-15" x="182.88" y="192.27" width="3.01" height="15.08"/></g><rect class="cls-13" x="142.41" y="94.82" width="45.33" height="125.16"/><rect class="cls-16" x="142.41" y="94.82" width="14.12" height="125.16"/><g class="cls-14"><rect class="cls-15" x="142.41" y="101.66" width="45.33" height="1.05"/></g><g class="cls-14"><rect class="cls-15" x="142.41" y="109.93" width="45.33" height="1.05"/></g><g class="cls-14"><rect class="cls-15" x="142.41" y="118.19" width="45.33" height="1.05"/></g><g class="cls-14"><rect class="cls-15" x="142.41" y="126.45" width="45.33" height="1.05"/></g><g class="cls-14"><rect class="cls-15" x="142.41" y="134.71" width="45.33" height="1.05"/></g><g class="cls-14"><rect class="cls-15" x="142.41" y="142.97" width="45.33" height="1.05"/></g><g class="cls-14"><rect class="cls-15" x="142.41" y="151.23" width="45.33" height="1.05"/></g><g class="cls-14"><rect class="cls-15" x="142.41" y="159.49" width="45.33" height="1.05"/></g><g class="cls-14"><rect class="cls-15" x="142.41" y="167.75" width="45.33" height="1.05"/></g><g class="cls-14"><rect class="cls-15" x="142.41" y="176.02" width="45.33" height="1.05"/></g><g class="cls-14"><rect class="cls-15" x="142.41" y="184.28" width="45.33" height="1.05"/></g><g class="cls-14"><rect class="cls-15" x="142.41" y="192.54" width="45.33" height="1.05"/></g><g class="cls-14"><rect class="cls-15" x="142.41" y="200.8" width="45.33" height="1.05"/></g><g class="cls-14"><rect class="cls-15" x="142.41" y="209.06" width="45.33" height="1.05"/></g></g><g id="office"><path class="cls-17" d="M210.07,4.37a10.56,10.56,0,0,1,12.67-9,16.75,16.75,0,0,1,16.64-14.88,16.76,16.76,0,0,1,16.69,15.3,12.24,12.24,0,0,1,2.44-.24,12.53,12.53,0,0,1,7.57,2.53,12.29,12.29,0,0,1,23,6c0,.11,0,.21,0,.31Z"/><path class="cls-15" d="M212.5,4.37h.86L215-3.26a10.27,10.27,0,0,0-1,.72Z"/><path class="cls-15" d="M218.17-4.6a9.46,9.46,0,0,0-.91.26l-1.84,8.71h.86Z"/><path class="cls-15" d="M221.14-4.86l-.55,0h-.31l-1.95,9.24h.86Z"/><path class="cls-15" d="M225.62-12.27a17.21,17.21,0,0,0-1.36,2.36l-3,14.28h.86Z"/><path class="cls-15" d="M229.36-16.17c-.36.27-.7.55-1,.85L224.16,4.37H225Z"/><path class="cls-15" d="M232.69-18.12c-.33.15-.65.3-1,.46l-4.65,22h.86Z"/><path class="cls-15" d="M235.82-19.13c-.31.06-.61.14-.91.22L230,4.37h.86Z"/><path class="cls-15" d="M238.81-19.51l-.87.05-5,23.83h.86Z"/><path class="cls-15" d="M241.7-19.37l-.84-.09-5,23.83h.86Z"/><path class="cls-15" d="M244.48-18.74q-.4-.14-.81-.24L238.74,4.37h.86Z"/><path class="cls-15" d="M247.16-17.63l-.78-.38L241.66,4.37h.85Z"/><path class="cls-15" d="M249.73-16c-.25-.19-.49-.38-.75-.56l-4.41,20.9h.86Z"/><path class="cls-15" d="M252.15-13.65c-.23-.26-.46-.52-.7-.77l-4,18.79h.86Z"/><path class="cls-15" d="M254.36-10.33c-.19-.39-.4-.76-.62-1.12L250.4,4.37h.86Z"/><path class="cls-15" d="M256.06-4.58a16.35,16.35,0,0,0-.39-2.22L253.32,4.37h.86Z"/><path class="cls-15" d="M259-4.46h-.41l-.45,0-1.86,8.82h.86Z"/><path class="cls-15" d="M261.78-4c-.27-.07-.54-.14-.82-.19l-1.81,8.6H260Z"/><path class="cls-15" d="M264.47-3c-.25-.13-.51-.26-.78-.38l-1.63,7.74h.86Z"/><path class="cls-15" d="M267.62-4.06a11,11,0,0,0-1.2,1.61L265,4.37h.86Z"/><path class="cls-15" d="M271.11-6.82c-.33.18-.66.37-1,.58L267.89,4.37h.86Z"/><path class="cls-15" d="M274.27-8c-.31.07-.61.14-.91.23L270.81,4.37h.86Z"/><path class="cls-15" d="M277.24-8.23h-.86l-2.66,12.6h.86Z"/><path class="cls-15" d="M280.07-7.81c-.27-.07-.55-.14-.82-.19L276.64,4.37h.86Z"/><path class="cls-15" d="M282.75-6.73c-.25-.14-.51-.26-.77-.39L279.55,4.37h.86Z"/><path class="cls-15" d="M285.28-4.88c-.23-.22-.48-.44-.73-.64l-2.08,9.89h.86Z"/><path class="cls-15" d="M287.57-1.94a9.85,9.85,0,0,0-.64-1l-1.55,7.34h.86Z"/><path class="cls-15" d="M289.14,4.05a12.64,12.64,0,0,0-.25-2.48l-.59,2.8h.83C289.13,4.26,289.14,4.16,289.14,4.05Z"/><rect class="cls-18" x="175.29" y="202.99" width="175.49" height="16.4"/><rect class="cls-19" x="174.36" y="64.09" width="176.42" height="152.83"/><rect class="cls-18" x="174.36" y="64.09" width="4.94" height="153.14"/><rect class="cls-18" x="222.76" y="64.09" width="2.47" height="153.14"/><rect class="cls-18" x="261.94" y="-1.19" width="2.47" height="175.19" transform="translate(349.57 -176.78) rotate(90)"/><rect class="cls-18" x="278.8" y="64.09" width="2.47" height="72.81"/><rect class="cls-18" x="278.8" y="64.09" width="2.47" height="45.53"/><rect class="cls-18" x="334.84" y="64.09" width="2.47" height="153.14"/><rect class="cls-19" x="174.36" y="-34.43" width="176.42" height="152.57"/><polygon class="cls-20" points="234.18 42.58 243.84 42.58 254.02 -34.46 244.36 -34.46 234.18 42.58"/><polygon class="cls-20" points="250.73 42.58 254.81 42.58 264.99 -34.46 260.91 -34.46 250.73 42.58"/><polygon class="cls-21" points="195.27 19.92 195.27 16.37 196.75 19.59 197.94 19.22 193.9 6.31 192.71 6.68 193.91 13.39 193.91 13.4 193.9 13.4 193.9 19.92 183.04 19.92 183.04 43.6 210.63 43.6 210.63 19.92 195.27 19.92"/><path class="cls-21" d="M213.23,33s11.86-1.13,13.09-1.42,2.66-15.13,2.73-15.22a4.57,4.57,0,0,1,1.17,0l-1.89,16.1s1.59,12,.94,12.16l-.64.12-2.77-9.41h-10.3l-2.33,9.29-.95.12Z"/><polygon class="cls-21" points="296.1 19.92 296.1 16.37 297.58 19.59 298.77 19.22 294.73 6.31 293.54 6.68 294.74 13.39 294.74 13.4 294.73 13.4 294.73 19.92 283.87 19.92 283.87 43.6 311.46 43.6 311.46 19.92 296.1 19.92"/><path class="cls-21" d="M314.06,33s11.86-1.13,13.09-1.42,2.66-15.13,2.73-15.22a4.57,4.57,0,0,1,1.17,0l-1.89,16.1s1.58,12,.94,12.16l-.64.12-2.77-9.41h-10.3l-2.33,9.29-.95.12Z"/><rect class="cls-18" x="174.36" y="-34.43" width="4.94" height="152.88"/><rect class="cls-18" x="222.76" y="-34.43" width="2.47" height="152.88"/><rect class="cls-18" x="278.8" y="-34.43" width="2.47" height="152.88"/><rect class="cls-18" x="334.84" y="-34.43" width="2.47" height="152.88"/><rect class="cls-18" x="174.36" y="42.58" width="176.46" height="28.68"/><rect class="cls-18" x="222.76" y="89.62" width="113.32" height="128.06"/><rect class="cls-19" x="278.8" y="89.62" width="2.47" height="128.06"/><polygon class="cls-20" points="226.58 217.68 236.24 217.68 246.42 89.62 236.76 89.62 226.58 217.68"/><polygon class="cls-20" points="243.13 217.68 247.22 217.68 257.39 89.62 253.31 89.62 243.13 217.68"/><polygon class="cls-20" points="182.75 217.68 192.41 217.68 201.93 71.26 192.27 71.26 182.75 217.68"/><polygon class="cls-20" points="199.3 217.68 203.39 217.68 212.91 71.26 208.82 71.26 199.3 217.68"/><polygon class="cls-20" points="285.92 217.68 295.58 217.68 305.76 89.62 296.1 89.62 285.92 217.68"/><polygon class="cls-20" points="302.47 217.68 306.56 217.68 316.73 89.62 312.65 89.62 302.47 217.68"/><path class="cls-22" d="M272.28,160h0a4.05,4.05,0,0,1-4-4v-9.35a4.05,4.05,0,0,1,4-4.05h0a4,4,0,0,1,4.05,4.05V156A4,4,0,0,1,272.28,160Z"/><path class="cls-22" d="M289,160h0a4,4,0,0,1-4-4v-9.35a4,4,0,0,1,4-4.05h0a4,4,0,0,1,4.05,4.05V156A4,4,0,0,1,289,160Z"/><rect class="cls-18" x="169.41" y="214.8" width="181.38" height="4.59"/><path class="cls-15" d="M266.67,47.6a1.32,1.32,0,0,1,.41,1,1.26,1.26,0,0,1-.41,1,1.51,1.51,0,0,1-1.06.37h-3.8V62.66a1.35,1.35,0,0,1-.46,1.05,1.56,1.56,0,0,1-1.13.43,1.51,1.51,0,0,1-1.12-.43,1.4,1.4,0,0,1-.43-1.05V50h-3.8a1.47,1.47,0,0,1-1.06-.38,1.36,1.36,0,0,1-.41-1,1.29,1.29,0,0,1,.42-1,1.48,1.48,0,0,1,1.05-.39h10.74A1.47,1.47,0,0,1,266.67,47.6Z"/><path class="cls-15" d="M274.76,51.37a1.25,1.25,0,0,1,.5,1,1.48,1.48,0,0,1-.39,1.12,1.28,1.28,0,0,1-.92.38,2.45,2.45,0,0,1-.82-.17l-.33-.1a1.9,1.9,0,0,0-.54-.07,2.15,2.15,0,0,0-1.21.39,2.77,2.77,0,0,0-1,1.17,4.3,4.3,0,0,0-.37,1.87v5.73a1.46,1.46,0,0,1-.41,1.05,1.37,1.37,0,0,1-1,.43,1.36,1.36,0,0,1-1-.43,1.46,1.46,0,0,1-.41-1.05v-10a1.46,1.46,0,0,1,.41-1,1.36,1.36,0,0,1,1-.43,1.37,1.37,0,0,1,1,.43,1.46,1.46,0,0,1,.41,1V53a3.65,3.65,0,0,1,1.6-1.51,5,5,0,0,1,2.22-.52A1.87,1.87,0,0,1,274.76,51.37Z"/><path class="cls-15" d="M277,49.37a1.14,1.14,0,0,1-.34-.95V48A1.1,1.1,0,0,1,277,47a2.69,2.69,0,0,1,2.35,0,1.15,1.15,0,0,1,.33.94v.46a1.1,1.1,0,0,1-.35,1,2.08,2.08,0,0,1-1.19.25A2,2,0,0,1,277,49.37Zm2.22,14.34a1.36,1.36,0,0,1-1,.43,1.37,1.37,0,0,1-1-.43,1.46,1.46,0,0,1-.41-1.05v-10a1.46,1.46,0,0,1,.41-1,1.37,1.37,0,0,1,1-.43,1.36,1.36,0,0,1,1,.43,1.42,1.42,0,0,1,.41,1v10A1.42,1.42,0,0,1,279.21,63.71Z"/><path class="cls-15" d="M292.09,51.82a6,6,0,0,1,2.14,2.38,7.38,7.38,0,0,1,.79,3.46,7.7,7.7,0,0,1-.77,3.47,5.94,5.94,0,0,1-2.12,2.39,5.39,5.39,0,0,1-3,.86,5.29,5.29,0,0,1-2.19-.47,6,6,0,0,1-1.7-1.15V67.5a1.46,1.46,0,0,1-.41,1,1.4,1.4,0,0,1-1,.42,1.38,1.38,0,0,1-1-.41,1.41,1.41,0,0,1-.41-1.06V52.68a1.42,1.42,0,0,1,.41-1,1.36,1.36,0,0,1,1-.43,1.37,1.37,0,0,1,1,.43,1.46,1.46,0,0,1,.41,1v.09a4.86,4.86,0,0,1,1.62-1.26,4.51,4.51,0,0,1,2.17-.55A5.54,5.54,0,0,1,292.09,51.82Zm-.84,8.74a4.75,4.75,0,0,0,0-5.79,3.17,3.17,0,0,0-2.55-1.15,3.21,3.21,0,0,0-2.56,1.15,4.73,4.73,0,0,0,0,5.79,3.38,3.38,0,0,0,5.1,0Z"/><path class="cls-15" d="M301.64,49.28a1.72,1.72,0,0,0-.34,1v1.14h2.2a1.34,1.34,0,0,1,1,.37,1.39,1.39,0,0,1,0,1.91,1.34,1.34,0,0,1-1,.37h-2.2v8.56a1.46,1.46,0,0,1-.41,1.05,1.47,1.47,0,0,1-2.08,0,1.46,1.46,0,0,1-.41-1.05V54.1h-1.31a1.31,1.31,0,0,1-1-.37,1.36,1.36,0,0,1,0-1.91,1.31,1.31,0,0,1,1-.37h1.31V50.33a3.81,3.81,0,0,1,1.24-2.95,5.2,5.2,0,0,1,3.6-1.13,3.2,3.2,0,0,1,1.55.36,1.18,1.18,0,0,1,.67,1.11,1.29,1.29,0,0,1-.34.94,1.07,1.07,0,0,1-.82.37L304,49l-.27,0a4.5,4.5,0,0,0-1-.14A1.33,1.33,0,0,0,301.64,49.28Z"/><path class="cls-15" d="M317.17,58.31a1.55,1.55,0,0,1-1,.36h-8a3.58,3.58,0,0,0,1.33,2.24,3.7,3.7,0,0,0,2.34.81,5.25,5.25,0,0,0,1.55-.18,3.88,3.88,0,0,0,.88-.39l.45-.28a1.88,1.88,0,0,1,.82-.21,1.19,1.19,0,0,1,.87.36,1.16,1.16,0,0,1,.36.85,1.5,1.5,0,0,1-.67,1.18,5.63,5.63,0,0,1-1.82.94,7,7,0,0,1-2.29.39,7.09,7.09,0,0,1-3.55-.85,5.93,5.93,0,0,1-2.33-2.33,6.79,6.79,0,0,1-.82-3.35,7.44,7.44,0,0,1,.87-3.65,6.12,6.12,0,0,1,2.3-2.4,5.88,5.88,0,0,1,3-.84,5.63,5.63,0,0,1,3,.87,6.37,6.37,0,0,1,2.26,2.35,6.22,6.22,0,0,1,.85,3.19A1.24,1.24,0,0,1,317.17,58.31Zm-9-2.05h6.33v-.17a2.45,2.45,0,0,0-1-1.74,3.09,3.09,0,0,0-2-.73A3,3,0,0,0,308.2,56.26Z"/><path class="cls-15" d="M327.61,51.37a1.25,1.25,0,0,1,.5,1,1.48,1.48,0,0,1-.39,1.12,1.28,1.28,0,0,1-.92.38,2.5,2.5,0,0,1-.82-.17l-.33-.1a1.9,1.9,0,0,0-.54-.07,2.15,2.15,0,0,0-1.21.39,2.76,2.76,0,0,0-.95,1.17,4.3,4.3,0,0,0-.38,1.87v5.73a1.46,1.46,0,0,1-.41,1.05,1.47,1.47,0,0,1-2.08,0,1.46,1.46,0,0,1-.41-1.05v-10a1.46,1.46,0,0,1,.41-1,1.47,1.47,0,0,1,2.08,0,1.46,1.46,0,0,1,.41,1V53a3.65,3.65,0,0,1,1.6-1.51,5,5,0,0,1,2.22-.52A1.87,1.87,0,0,1,327.61,51.37Z"/><path class="cls-15" d="M240.87,43.54A8.92,8.92,0,0,0,232,52.45a8.66,8.66,0,0,0,.78,3.64,55.61,55.61,0,0,0,7.76,11.49.49.49,0,0,0,.37.18.51.51,0,0,0,.38-.18,66.46,66.46,0,0,0,5.41-7.24l-2.93-2.93a5.5,5.5,0,0,1-2.84.78,5.62,5.62,0,1,1,4.81-2.76l2.43,2.43c.31-.59.61-1.18.88-1.77a8.66,8.66,0,0,0,.78-3.64A8.93,8.93,0,0,0,240.87,43.54Z"/><path class="cls-23" d="M245.08,52.6a4.2,4.2,0,1,1-4.19-4.2A4.2,4.2,0,0,1,245.08,52.6Z"/><path class="cls-15" d="M237.62,52.6h.94a2.33,2.33,0,0,1,2.33-2.34v-.93A3.28,3.28,0,0,0,237.62,52.6Z"/></g></g><g class="cls-12"><rect class="cls-13" x="75.52" y="75.87" width="69.01" height="144.11"/><rect class="cls-16" x="75.52" y="75.87" width="21.5" height="144.11"/><g class="cls-14"><rect class="cls-15" x="136.92" y="82.73" width="3.18" height="4.13"/><rect class="cls-15" x="131.13" y="82.73" width="3.18" height="4.13"/><rect class="cls-15" x="125.33" y="82.73" width="3.18" height="4.13"/><rect class="cls-15" x="119.54" y="82.73" width="3.18" height="4.13"/><rect class="cls-15" x="113.75" y="82.73" width="3.18" height="4.13"/><rect class="cls-15" x="107.95" y="82.73" width="3.18" height="4.13"/><rect class="cls-15" x="102.16" y="82.73" width="3.18" height="4.13"/><rect class="cls-15" x="91.53" y="82.73" width="3.18" height="4.13"/><rect class="cls-15" x="85.74" y="82.73" width="3.18" height="4.13"/><rect class="cls-15" x="79.94" y="82.73" width="3.18" height="4.13"/></g><g class="cls-14"><rect class="cls-15" x="136.92" y="91.41" width="3.18" height="4.13"/><rect class="cls-15" x="131.13" y="91.41" width="3.18" height="4.13"/><rect class="cls-15" x="125.33" y="91.41" width="3.18" height="4.13"/><rect class="cls-15" x="119.54" y="91.41" width="3.18" height="4.13"/><rect class="cls-15" x="113.75" y="91.41" width="3.18" height="4.13"/><rect class="cls-15" x="107.95" y="91.41" width="3.18" height="4.13"/><rect class="cls-15" x="102.16" y="91.41" width="3.18" height="4.13"/><rect class="cls-15" x="91.53" y="91.41" width="3.18" height="4.13"/><rect class="cls-15" x="85.74" y="91.41" width="3.18" height="4.13"/><rect class="cls-15" x="79.94" y="91.41" width="3.18" height="4.13"/></g><g class="cls-14"><rect class="cls-15" x="136.92" y="100.1" width="3.18" height="4.13"/><rect class="cls-15" x="131.13" y="100.1" width="3.18" height="4.13"/><rect class="cls-15" x="125.33" y="100.1" width="3.18" height="4.13"/><rect class="cls-15" x="119.54" y="100.1" width="3.18" height="4.13"/><rect class="cls-15" x="113.75" y="100.1" width="3.18" height="4.13"/><rect class="cls-15" x="107.95" y="100.1" width="3.18" height="4.13"/><rect class="cls-15" x="102.16" y="100.1" width="3.18" height="4.13"/><rect class="cls-15" x="91.53" y="100.1" width="3.18" height="4.13"/><rect class="cls-15" x="85.74" y="100.1" width="3.18" height="4.13"/><rect class="cls-15" x="79.94" y="100.1" width="3.18" height="4.13"/></g><g class="cls-14"><rect class="cls-15" x="136.92" y="108.79" width="3.18" height="4.13"/><rect class="cls-15" x="131.13" y="108.79" width="3.18" height="4.13"/><rect class="cls-15" x="125.33" y="108.79" width="3.18" height="4.13"/><rect class="cls-15" x="119.54" y="108.79" width="3.18" height="4.13"/><rect class="cls-15" x="113.75" y="108.79" width="3.18" height="4.13"/><rect class="cls-15" x="107.95" y="108.79" width="3.18" height="4.13"/><rect class="cls-15" x="102.16" y="108.79" width="3.18" height="4.13"/><rect class="cls-15" x="91.53" y="108.79" width="3.18" height="4.13"/><rect class="cls-15" x="85.74" y="108.79" width="3.18" height="4.13"/><rect class="cls-15" x="79.94" y="108.79" width="3.18" height="4.13"/></g><g class="cls-14"><rect class="cls-15" x="136.92" y="117.48" width="3.18" height="4.13"/><rect class="cls-15" x="131.13" y="117.48" width="3.18" height="4.13"/><rect class="cls-15" x="125.33" y="117.48" width="3.18" height="4.13"/><rect class="cls-15" x="119.54" y="117.48" width="3.18" height="4.13"/><rect class="cls-15" x="113.75" y="117.48" width="3.18" height="4.13"/><rect class="cls-15" x="107.95" y="117.48" width="3.18" height="4.13"/><rect class="cls-15" x="102.16" y="117.48" width="3.18" height="4.13"/><rect class="cls-15" x="91.53" y="117.48" width="3.18" height="4.13"/><rect class="cls-15" x="85.74" y="117.48" width="3.18" height="4.13"/><rect class="cls-15" x="79.94" y="117.48" width="3.18" height="4.13"/></g><g class="cls-14"><rect class="cls-15" x="136.92" y="126.17" width="3.18" height="4.13"/><rect class="cls-15" x="131.13" y="126.17" width="3.18" height="4.13"/><rect class="cls-15" x="125.33" y="126.17" width="3.18" height="4.13"/><rect class="cls-15" x="119.54" y="126.17" width="3.18" height="4.13"/><rect class="cls-15" x="113.75" y="126.17" width="3.18" height="4.13"/><rect class="cls-15" x="107.95" y="126.17" width="3.18" height="4.13"/><rect class="cls-15" x="102.16" y="126.17" width="3.18" height="4.13"/><rect class="cls-15" x="91.53" y="126.17" width="3.18" height="4.13"/><rect class="cls-15" x="85.74" y="126.17" width="3.18" height="4.13"/><rect class="cls-15" x="79.94" y="126.17" width="3.18" height="4.13"/></g><g class="cls-14"><rect class="cls-15" x="136.92" y="134.86" width="3.18" height="4.13"/><rect class="cls-15" x="131.13" y="134.86" width="3.18" height="4.13"/><rect class="cls-15" x="125.33" y="134.86" width="3.18" height="4.13"/><rect class="cls-15" x="119.54" y="134.86" width="3.18" height="4.13"/><rect class="cls-15" x="113.75" y="134.86" width="3.18" height="4.13"/><rect class="cls-15" x="107.95" y="134.86" width="3.18" height="4.13"/><rect class="cls-15" x="102.16" y="134.86" width="3.18" height="4.13"/><rect class="cls-15" x="91.53" y="134.86" width="3.18" height="4.13"/><rect class="cls-15" x="85.74" y="134.86" width="3.18" height="4.13"/><rect class="cls-15" x="79.94" y="134.86" width="3.18" height="4.13"/></g><g class="cls-14"><rect class="cls-15" x="136.92" y="143.55" width="3.18" height="4.13"/><rect class="cls-15" x="131.13" y="143.55" width="3.18" height="4.13"/><rect class="cls-15" x="125.33" y="143.55" width="3.18" height="4.13"/><rect class="cls-15" x="119.54" y="143.55" width="3.18" height="4.13"/><rect class="cls-15" x="113.75" y="143.55" width="3.18" height="4.13"/><rect class="cls-15" x="107.95" y="143.55" width="3.18" height="4.13"/><rect class="cls-15" x="102.16" y="143.55" width="3.18" height="4.13"/><rect class="cls-15" x="91.53" y="143.55" width="3.18" height="4.13"/><rect class="cls-15" x="85.74" y="143.55" width="3.18" height="4.13"/><rect class="cls-15" x="79.94" y="143.55" width="3.18" height="4.13"/></g><g class="cls-14"><rect class="cls-15" x="136.92" y="152.23" width="3.18" height="4.13"/><rect class="cls-15" x="131.13" y="152.23" width="3.18" height="4.13"/><rect class="cls-15" x="125.33" y="152.23" width="3.18" height="4.13"/><rect class="cls-15" x="119.54" y="152.23" width="3.18" height="4.13"/><rect class="cls-15" x="113.75" y="152.23" width="3.18" height="4.13"/><rect class="cls-15" x="107.95" y="152.23" width="3.18" height="4.13"/><rect class="cls-15" x="102.16" y="152.23" width="3.18" height="4.13"/><rect class="cls-15" x="91.53" y="152.23" width="3.18" height="4.13"/><rect class="cls-15" x="85.74" y="152.23" width="3.18" height="4.13"/><rect class="cls-15" x="79.94" y="152.23" width="3.18" height="4.13"/></g><g class="cls-14"><rect class="cls-15" x="136.92" y="160.92" width="3.18" height="4.13"/><rect class="cls-15" x="131.13" y="160.92" width="3.18" height="4.13"/><rect class="cls-15" x="125.33" y="160.92" width="3.18" height="4.13"/><rect class="cls-15" x="119.54" y="160.92" width="3.18" height="4.13"/><rect class="cls-15" x="113.75" y="160.92" width="3.18" height="4.13"/><rect class="cls-15" x="107.95" y="160.92" width="3.18" height="4.13"/><rect class="cls-15" x="102.16" y="160.92" width="3.18" height="4.13"/><rect class="cls-15" x="91.53" y="160.92" width="3.18" height="4.13"/><rect class="cls-15" x="85.74" y="160.92" width="3.18" height="4.13"/><rect class="cls-15" x="79.94" y="160.92" width="3.18" height="4.13"/></g><g class="cls-14"><rect class="cls-15" x="136.92" y="169.61" width="3.18" height="4.13"/><rect class="cls-15" x="131.13" y="169.61" width="3.18" height="4.13"/><rect class="cls-15" x="125.33" y="169.61" width="3.18" height="4.13"/><rect class="cls-15" x="119.54" y="169.61" width="3.18" height="4.13"/><rect class="cls-15" x="113.75" y="169.61" width="3.18" height="4.13"/><rect class="cls-15" x="107.95" y="169.61" width="3.18" height="4.13"/><rect class="cls-15" x="102.16" y="169.61" width="3.18" height="4.13"/><rect class="cls-15" x="91.53" y="169.61" width="3.18" height="4.13"/><rect class="cls-15" x="85.74" y="169.61" width="3.18" height="4.13"/><rect class="cls-15" x="79.94" y="169.61" width="3.18" height="4.13"/></g><g class="cls-14"><rect class="cls-15" x="136.92" y="178.3" width="3.18" height="4.13"/><rect class="cls-15" x="131.13" y="178.3" width="3.18" height="4.13"/><rect class="cls-15" x="125.33" y="178.3" width="3.18" height="4.13"/><rect class="cls-15" x="119.54" y="178.3" width="3.18" height="4.13"/><rect class="cls-15" x="113.75" y="178.3" width="3.18" height="4.13"/><rect class="cls-15" x="107.95" y="178.3" width="3.18" height="4.13"/><rect class="cls-15" x="102.16" y="178.3" width="3.18" height="4.13"/><rect class="cls-15" x="91.53" y="178.3" width="3.18" height="4.13"/><rect class="cls-15" x="85.74" y="178.3" width="3.18" height="4.13"/><rect class="cls-15" x="79.94" y="178.3" width="3.18" height="4.13"/></g><g class="cls-14"><rect class="cls-15" x="136.92" y="186.99" width="3.18" height="4.13"/><rect class="cls-15" x="131.13" y="186.99" width="3.18" height="4.13"/><rect class="cls-15" x="125.33" y="186.99" width="3.18" height="4.13"/><rect class="cls-15" x="119.54" y="186.99" width="3.18" height="4.13"/><rect class="cls-15" x="113.75" y="186.99" width="3.18" height="4.13"/><rect class="cls-15" x="107.95" y="186.99" width="3.18" height="4.13"/><rect class="cls-15" x="102.16" y="186.99" width="3.18" height="4.13"/><rect class="cls-15" x="91.53" y="186.99" width="3.18" height="4.13"/><rect class="cls-15" x="85.74" y="186.99" width="3.18" height="4.13"/><rect class="cls-15" x="79.94" y="186.99" width="3.18" height="4.13"/></g><g class="cls-14"><rect class="cls-15" x="136.92" y="195.68" width="3.18" height="4.13"/><rect class="cls-15" x="131.13" y="195.68" width="3.18" height="4.13"/><rect class="cls-15" x="125.33" y="195.68" width="3.18" height="4.13"/><rect class="cls-15" x="119.54" y="195.68" width="3.18" height="4.13"/><rect class="cls-15" x="113.75" y="195.68" width="3.18" height="4.13"/><rect class="cls-15" x="107.95" y="195.68" width="3.18" height="4.13"/><rect class="cls-15" x="102.16" y="195.68" width="3.18" height="4.13"/><rect class="cls-15" x="91.53" y="195.68" width="3.18" height="4.13"/><rect class="cls-15" x="85.74" y="195.68" width="3.18" height="4.13"/><rect class="cls-15" x="79.94" y="195.68" width="3.18" height="4.13"/></g><g class="cls-14"><rect class="cls-15" x="136.92" y="204.37" width="3.18" height="4.13"/><rect class="cls-15" x="131.13" y="204.37" width="3.18" height="4.13"/><rect class="cls-15" x="125.33" y="204.37" width="3.18" height="4.13"/><rect class="cls-15" x="119.54" y="204.37" width="3.18" height="4.13"/><rect class="cls-15" x="113.75" y="204.37" width="3.18" height="4.13"/><rect class="cls-15" x="107.95" y="204.37" width="3.18" height="4.13"/><rect class="cls-15" x="102.16" y="204.37" width="3.18" height="4.13"/><rect class="cls-15" x="91.53" y="204.37" width="3.18" height="4.13"/><rect class="cls-15" x="85.74" y="204.37" width="3.18" height="4.13"/><rect class="cls-15" x="79.94" y="204.37" width="3.18" height="4.13"/></g><path class="cls-13" d="M134.84,75.87H85.21V69.75a4.58,4.58,0,0,1,4.58-4.58h40.47a4.58,4.58,0,0,1,4.58,4.58Z"/><path class="cls-16" d="M108,65.17H89.45a4.29,4.29,0,0,0-4.24,4.33v6.37H108Z"/></g><ellipse class="cls-24" cx="271.46" cy="272.34" rx="34.16" ry="3.13"/><g id="business_man"><path class="cls-25" d="M265.23,199.19l1.93,0a3.76,3.76,0,0,0,.72.48c2.53,1.31,5.23,1.29,7.89,1.38a18.91,18.91,0,0,0,6.8-.67c-.15,2.31-.62,7.91-1.65,10.8-1.31,3.71-7.07,15.88-6.6,22.47s-10.06,36.79-10.06,36.79l-3.47-.12Z"/><path class="cls-26" d="M264.35,270.85c0-.34,0-.59,0-.59s-9.5.09-10.28.47a.74.74,0,0,0-.33.67,1.44,1.44,0,0,0,1.51,1.44l7.33-.11A1.82,1.82,0,0,0,264.35,270.85Z"/><path class="cls-27" d="M269.45,200.22l15,70.12,3.5.12s2.4-30.44.11-37-.84-18.53-.55-22.24-.83-11.84-.83-11.84l-9.26-.1Z"/><path class="cls-25" d="M271.09,168.64c1.81-5.26-4.35-8.45-5.18-8.21s-1.88-.61-6.82,18.08a14.45,14.45,0,0,1-.51,2,79.08,79.08,0,0,1-6.92-6.36c-1.92-1.17-3.52-1.19-4.77,0,.41,1.06,1.75,6.86,13.33,15.71,2,1.54,4.94-2.29,5.52-4h0a19.35,19.35,0,0,0,1.46-4.19C267.61,180.93,270.71,169.74,271.09,168.64Z"/><path class="cls-27" d="M281.45,158.3H273a6.93,6.93,0,0,0-7.06,7.28l.53,17.68-2.77,25.65a13.6,13.6,0,0,0,4.58,2.47c1.21-2.18,2.51-4.75,2.51-4.75l1.94,5.57c8,.57,16.33-3,16.33-3l-2.75-31.27,2.34-12.19A7.3,7.3,0,0,0,281.45,158.3Z"/><path class="cls-27" d="M271.73,158s-6.12,2-6.64,2.82a4.45,4.45,0,0,0-.09,3l2.45.24.36-.53,2.2-1.38,1.05-1.58Z"/><path class="cls-27" d="M283.7,158.69s6.51,2.48,7.32,3.28.39,8.53.39,8.53-4.17,17.3-4,20.07c-1.56,2.11-6.06-5.28-6.09-7.89a28.22,28.22,0,0,0-.69-5.32l.69-6.73,2.39-4.46Z"/><path class="cls-15" d="M270.2,159.78l-.16,5.75s.9,7,.93,7,1.38,3.78,1.38,3.78l1.25-1.08a36.14,36.14,0,0,0,3.39-3.77c.15-.52,1.1-5.55,2.28-6.81s3.55-3.37,3.59-3.68-.43-.91-.43-.91-.49-1-1.12-1-3.5.41-3.84.41-1.08.05-1.58,0-1.08-.07-1.08-.07Z"/><polygon class="cls-23" points="274.54 162.05 271.51 174.99 272.35 176.34 273.87 175.1 275.61 162.21 274.54 162.05"/><path class="cls-28" d="M273.09,150.36l-.08,8.92a2.17,2.17,0,0,0,1.57,2.13c1.8.51,4.84.59,7.37-3.11-.58-2.14-.27-9-.27-9l-2-.37h-3Z"/><path class="cls-26" d="M289.59,271v0a1,1,0,0,0-.89-.79c-1.73-.09-5.94-.27-6.32,0a1.5,1.5,0,0,0-.28.79,1,1,0,0,0,.95,1.1h5.6A1,1,0,0,0,289.59,271Z"/><path class="cls-29" d="M270.55,145.87c-.12-.79-3.23-3.24-2.05-8.88,4.23.39,3.86,1.88,3.91,2s.76,2.1.76,2.1Z"/><path class="cls-23" d="M272.59,159.94s1.33,2.8,2.71,2.8,3.36-2.35,3.36-2.35l-3.22-1.12h-1.19Z"/><polygon class="cls-15" points="275.44 159.27 272.76 162.16 270.95 158.58 272.99 157.42 275.44 159.27"/><polygon class="cls-15" points="275.44 159.27 278.05 162.46 283.7 158.69 281.71 157.42 275.44 159.27"/><path class="cls-25" d="M271.73,158l.62,18.3s-3.71-5.62-3.71-5.81a24.41,24.41,0,0,1,1.14-2.19l-1.53-9.07Z"/><path class="cls-28" d="M296.28,206.18a1.83,1.83,0,0,1,2.46-.85,1.89,1.89,0,0,1,.55,2.58,1.84,1.84,0,0,1-2.47.85A1.88,1.88,0,0,1,296.28,206.18Z"/><path class="cls-30" d="M313.13,234.9H288a2.93,2.93,0,0,1-2.91-2.84l-.38-15.32a2.75,2.75,0,0,1,2.77-2.84h25.12a2.93,2.93,0,0,1,2.91,2.84l.38,15.32A2.77,2.77,0,0,1,313.13,234.9Z"/><path class="cls-31" d="M308.16,217c-6.72-.06-13.43,0-20.14-.65a3.16,3.16,0,0,1-.93-.22,24.6,24.6,0,0,0-2.37.68l.16,6.47a30.81,30.81,0,0,0,15.5,3.81c6.06,0,11.49-1.46,15.3-3.81l-.15-6.24C313.07,217.06,310.62,217,308.16,217Z"/><path class="cls-32" d="M312.61,213.9H287.49a2.75,2.75,0,0,0-2.77,2.84l.14,5.79c3.79,2.2,9.34,3.59,15.49,3.59s11.64-1.39,15.31-3.59l-.14-5.79A2.93,2.93,0,0,0,312.61,213.9Z"/><path class="cls-15" d="M301,228.07h-1a.63.63,0,0,1-.63-.61l-.06-2.45a.59.59,0,0,1,.59-.61h1.05a.63.63,0,0,1,.62.61l.06,2.45A.59.59,0,0,1,301,228.07Z"/><path class="cls-33" d="M305.88,215.49h-1.11l-.1-4a1.76,1.76,0,0,0-1.75-1.71H296a1.65,1.65,0,0,0-1.66,1.71l.1,4h-1.12l-.1-4a2.75,2.75,0,0,1,2.76-2.83h6.88a2.92,2.92,0,0,1,2.89,2.83Z"/><path class="cls-34" d="M302.86,210.8h-6.78a1,1,0,0,1-1-1l0-1.47a.93.93,0,0,1,.93-1h6.78a1,1,0,0,1,1,1l0,1.47A.93.93,0,0,1,302.86,210.8Z"/><g class="cls-35"><path class="cls-36" d="M286.52,214.08a2.77,2.77,0,0,0-1,.64l-.74,4.22.11,4.44Z"/><path class="cls-36" d="M289.14,213.9l-3.48,19.79a3.11,3.11,0,0,0,.76.73L290,213.9Z"/><polygon class="cls-36" points="293.51 213.9 292.62 213.9 288.92 234.9 289.81 234.9 293.51 213.9"/><polygon class="cls-36" points="296.99 213.9 296.1 213.9 292.4 234.9 293.29 234.9 296.99 213.9"/><polygon class="cls-36" points="300.47 213.9 299.58 213.9 295.88 234.9 296.77 234.9 300.47 213.9"/><polygon class="cls-36" points="303.95 213.9 303.06 213.9 299.36 234.9 300.25 234.9 303.95 213.9"/><polygon class="cls-36" points="307.43 213.9 306.54 213.9 302.84 234.9 303.73 234.9 307.43 213.9"/><polygon class="cls-36" points="310.91 213.9 310.02 213.9 306.32 234.9 307.21 234.9 310.91 213.9"/><path class="cls-36" d="M314.29,214.45a2.74,2.74,0,0,0-.82-.41L309.8,234.9h.89Z"/><path class="cls-36" d="M315.74,225.94l-.1-4.43-2.36,13.38a2.87,2.87,0,0,0,.93-.21Z"/></g><path class="cls-28" d="M296.87,208.27a3.39,3.39,0,0,1,2.81-4,3.59,3.59,0,0,1,3.57,3.44,3.38,3.38,0,0,1-2.8,4A3.6,3.6,0,0,1,296.87,208.27Z"/><path class="cls-15" d="M296.68,204.23l-.12,2H303s.25-1.85,0-1.85Z"/><path class="cls-27" d="M296.47,205h6.77c-.32-9.37-7-43.93-14.17-43.8-1.62,0-8.25-.18-2.51,10.14C287.76,173.47,297.1,197.17,296.47,205Z"/><path class="cls-37" d="M272.35,176.34s-.07,9.2-1.59,30.29Z"/><path class="cls-38" d="M270.87,206.64l-.22,0c1.5-20.84,1.58-30.19,1.58-30.28h.23C272.46,176.44,272.37,185.79,270.87,206.64Z"/><path class="cls-39" d="M283.94,201l-5.69-1.22a.3.3,0,0,1-.24-.35l.15-.76a.29.29,0,0,1,.35-.23l5.69,1.21a.32.32,0,0,1,.24.36l-.15.76A.3.3,0,0,1,283.94,201Z"/><path class="cls-40" d="M268.84,198.26a.3.3,0,0,0-.34-.22l-3.74.81-.16,1.45,4.22-.91a.28.28,0,0,0,.21-.34Z"/><path class="cls-25" d="M282.85,158.15l-10.51,18.16s6.75-5.58,6.85-5.76a16.37,16.37,0,0,0,0-2.18l6.18-8.65Z"/><path class="cls-41" d="M243.09,166.58l5.1,9.85a.91.91,0,0,0,1.16.42l3.87-1.57a.62.62,0,0,0,.33-.86l-5.11-9.86a.9.9,0,0,0-1.15-.42l-3.87,1.57A.63.63,0,0,0,243.09,166.58Z"/><path class="cls-42" d="M242.68,166.71l5.11,9.85A.91.91,0,0,0,249,177l3.86-1.57a.61.61,0,0,0,.33-.86l-5.1-9.86a.91.91,0,0,0-1.16-.42L243,165.84A.64.64,0,0,0,242.68,166.71Z"/><path class="cls-43" d="M243,166.63l1,2a.18.18,0,0,0,.23.08l.77-.31a.11.11,0,0,0,.06-.17l-1-2a.18.18,0,0,0-.23-.09l-.77.31A.14.14,0,0,0,243,166.63Z"/><path class="cls-44" d="M244.14,166.8a.33.33,0,0,1-.27.47.58.58,0,0,1-.56-.38.32.32,0,0,1,.27-.46A.56.56,0,0,1,244.14,166.8Z"/><path class="cls-44" d="M244.64,168a.28.28,0,0,1-.22.4.51.51,0,0,1-.47-.32.27.27,0,0,1,.22-.39A.48.48,0,0,1,244.64,168Z"/><path class="cls-28" d="M244.89,174.37c-.82-2.12,0-4.37,1.82-5s3.95.53,4.76,2.65,0,4.38-1.82,5S245.7,176.5,244.89,174.37Z"/><path class="cls-28" d="M276.25,159.15a3,3,0,0,0,3.25-2.84,4.12,4.12,0,0,1,.65-2.65c.54-.57,1.35-.65,2-1.09,1.19-.83,1.41-2.63,1.51-4.18l.27-4.06a8.21,8.21,0,0,0-.5-4.31,5,5,0,0,0-1.86-1.89,10.1,10.1,0,0,0-9.29-.51,4.76,4.76,0,0,0-2.84,2.58,6.94,6.94,0,0,0-.25,2.37c0,2.31.05,4.62.08,6.94a5.69,5.69,0,0,0,.19,1.65c.54,1.67,2.39,2.17,3.95,2.43,0,1,.11,2,.24,3a2.93,2.93,0,0,0,2.62,2.56Z"/><path class="cls-29" d="M268.85,150.85a5.69,5.69,0,0,0,2.13,3.61,7.86,7.86,0,0,0,4.5,1l2.55.05c2.14,0,4.28-.26,5.37-2.56a7.16,7.16,0,0,0,.58-3.49,2.17,2.17,0,0,0-.22-.95.76.76,0,0,0-.74-.45c-.38,0-.61.47-.85.8a1.87,1.87,0,0,1-2.24.73,3.19,3.19,0,0,1-.62-.44l-.24-.21a5.49,5.49,0,0,0-2.78-1.08c-.86-.1-2.12-.42-2.75.33l-1.11,1.3a2.07,2.07,0,0,1-.5.48,1.53,1.53,0,0,1-.66.16,1.42,1.42,0,0,1-1.43-.85,3.1,3.1,0,0,1-.08-.81,1.32,1.32,0,0,0-.22-.77c-.64-.79-.82.47-.84.9A8.58,8.58,0,0,0,268.85,150.85Zm5.85.37a2.32,2.32,0,0,0,2.14.22c.39-.12.56.54.17.66a2.92,2.92,0,0,1-2.63-.29C274,151.58,274.35,151,274.7,151.22Z"/><path class="cls-29" d="M268.32,136.06a11,11,0,0,1-.34-1.71,3.26,3.26,0,0,0,1.64.14v-1c0-.28,3.68-.5,4-.52,2.8-.25,5.36-.49,7.89,1a7.72,7.72,0,0,1,3.91,5.77,11.87,11.87,0,0,1-1.69,7.59,17.19,17.19,0,0,0,.06-2.77,5.43,5.43,0,0,0-.56-1.75,7.25,7.25,0,0,0-2.51-2.65,13.7,13.7,0,0,0-5.46-1.83,14.65,14.65,0,0,0-5.6,0c-.82.23-1,.44-1.47-.41a15.24,15.24,0,0,1-.73-1.89Z"/></g><g id="car"><ellipse class="cls-45" cx="96.37" cy="236.36" rx="86.76" ry="5.86"/><g id="car-2" data-name="car"><rect class="cls-46" x="54.02" y="228.85" width="100.82" height="3.28"/><path class="cls-46" d="M64.53,230.9c3.6,0-4.33,0-4.52,0-3.44-.06-27.93.61-28.38-.79s-7.73-12.41-3.1-15,10.69-6.77,10.69-6.77l14-4,11.16,9.62.48,7-.6,5.7Z"/><path class="cls-46" d="M36.42,226.16A11.86,11.86,0,1,1,48.27,238,11.86,11.86,0,0,1,36.42,226.16Z"/><path class="cls-47" d="M48.19,217c6.72,0,10.46,3.87,12.53,8-1.13-5.23-4.21-13.06-12.59-13.06-9.07,0-12,8.14-13,13.18A13.71,13.71,0,0,1,48.19,217Z"/><path class="cls-48" d="M40.31,226.16a8,8,0,1,1,8,8A8,8,0,0,1,40.31,226.16Z"/><path class="cls-46" d="M135.65,230.9c.38,0,32.38-.79,32.38-.79l2.34-5.66.71-7.24s-3-7.61-9-10.69-20.55-.6-20.55-.6l-2.14-1.3-7.48,5.82Z"/><path class="cls-47" d="M152.55,216.17c10,0,15.57,5.76,18.65,11.89-1.68-7.79-6.27-19.43-18.73-19.43-13.49,0-17.86,12.11-19.41,19.6C136.1,222.1,141.77,216.17,152.55,216.17Z"/><path class="cls-25" d="M166.55,230.11c1.21,0,18.4-.62,19-1.22s-.1-9.93-.71-11-1.42-1.22-1.57-1.48-.46-5.46-.69-5.89-9.68-10-42.51-14.56c-7.06-3.8-17.94-12.08-32-16.8a64,64,0,0,0-20.42-3.47c-24.09,0-42.19,6.5-59.87,18.19-1,2.44-4.88,7.6-5.7,9.14s-4.27,17.86-4.5,18.36a11.56,11.56,0,0,0-.85,2.68c0,.51.75.81.75.81a1.77,1.77,0,0,0,.74,2.48c1.63.88,12.93,2.67,15.51,2.71.37-1.6-.82-17.38,14.43-17.38S62.09,230.9,62.09,230.9h74.84s-3.36-18.05,15-18.05S166.55,230.11,166.55,230.11Z"/><path class="cls-23" d="M23,217.22c1.2-1.2,2.8-14.26,2.8-14.26l-3.32-.48c-.14.22-.25.41-.34.57-.55,1-2.34,9-3.5,14.1C20.17,217.56,22.25,217.93,23,217.22Z"/><path class="cls-49" d="M49.67,199c.83,2.13,4,7,6.56,11.26,3.29,4.06,5.44,8,7.84,10.61,13,1.06,59.05,4.26,71.64,5.07.29-3.22.83-7.66,4.48-10.34C124.88,212.94,52.93,199.84,49.67,199Z"/><path class="cls-50" d="M164.35,204.92c6.24-.61,18.24,5.63,18.24,5.63.23.43.54,5.64.69,5.89C176.25,214.2,164.59,206,164.35,204.92Z"/><path class="cls-51" d="M132,198.86s-28.4-4-43.7-4.33S55.6,194,45,191.37c1.49-1.16,13.24-12.58,41.19-12.58,0,0,14.66-.84,25.57,4.58S132,198.86,132,198.86Z"/><path class="cls-52" d="M86.2,184.4s14.66-.84,25.57,4.58a68.76,68.76,0,0,1,13.22,9c4.24.54,7,.93,7,.93s-9.29-10.07-20.2-15.49-25.57-4.58-25.57-4.58c-27.95,0-39.7,11.42-41.19,12.58,1.87.47,4,.86,6.2,1.19C57.45,188.92,68.62,184.4,86.2,184.4Z"/><path class="cls-53" d="M45.68,191.53c6.67,1.56,15.81,2.22,25.4,2.58A152.12,152.12,0,0,1,61,182.56a46.7,46.7,0,0,0-15,8Z"/><path class="cls-53" d="M92.74,178.88a58.18,58.18,0,0,0-6.54-.09h-.93c-.13,5.23.23,10.46.53,15.69l2.47.05c5.68.12,13.17.75,20.34,1.49A106.78,106.78,0,0,1,92.74,178.88Z"/><path class="cls-49" d="M88.42,178.74v1.19h0c4.13,0,14.64.43,22.82,4.5,7.32,3.64,14,9.49,17.41,12.78-8.08-1.07-28.34-3.61-40.36-3.86l-2.87-.06c-13.12-.27-27.86-.57-37.76-2.54a43.69,43.69,0,0,1,9.7-5.55C65.54,181.73,75.24,180,86.2,180h.07s.81,0,2.14,0v-1.19Zm0,0c-1.39,0-2.21,0-2.21,0-27.95,0-39.7,11.42-41.19,12.58,10.59,2.65,28,2.84,43.26,3.16s43.7,4.33,43.7,4.33-9.29-10.07-20.2-15.49c-8.33-4.14-18.85-4.63-23.36-4.63Z"/><path class="cls-54" d="M27.11,195.27c.28-.5.52-1,.69-1.36a111.43,111.43,0,0,1,25-12.62,9.42,9.42,0,0,1-3.83,4.18C45.2,187.67,34.34,196.79,27.11,195.27Z"/><path class="cls-51" d="M27.11,195.27c.28-.5.52-1,.69-1.36a111.43,111.43,0,0,1,25-12.62,9.42,9.42,0,0,1-3.83,4.18C45.2,187.67,34.34,196.79,27.11,195.27Z"/><path class="cls-49" d="M48.64,185c-.71.42-1.7,1.09-2.84,1.86-4.84,3.27-12.82,8.67-18.44,8-.19.34-.4.72-.63,1.1a8.25,8.25,0,0,0,1.59.14c5.93,0,13.46-5.09,18.14-8.26,1.13-.76,2.1-1.42,2.78-1.82a12.41,12.41,0,0,0,4.49-5h0l-1.65.57A10.86,10.86,0,0,1,48.64,185Z"/><path class="cls-51" d="M129.45,193.5c-7.22-6-16.77-10.57-19.11-11.79a5.89,5.89,0,0,1-2.26-2.52C122,183.84,132.75,192,139.8,195.84l0,.14h.21C139.8,196.82,134,196.34,129.45,193.5Z"/><path class="cls-49" d="M87.61,178.74c.93,3.41,3.21,11.77,4.27,15.92-1.27-.06-2.48-.1-3.61-.13l-4.21-.08L82.9,178.84c1.08,0,2.17-.05,3.3-.05C86.2,178.79,86.71,178.76,87.61,178.74Z"/><path class="cls-49" d="M115.94,227.19c-4.92,0-10.52,0-16.14-.13-9.07-.15-30.38-.63-32.23-1.94-1.62-1.14-6.31-7.39-10.1-13s-7.78-12.09-7.68-13.75c.18-3.17.23-3.27,2.43-5.48,2-2,4.35-4.83,4.35-8.67h.2c0,3.91-2.35,6.77-4.4,8.82s-2.2,2.25-2.38,5.34S64.57,222.76,67.68,225c1.26.88,13.27,1.59,32.13,1.89,14.89.24,30.25.14,31.9-.21,5.5-13.24.09-27.59,0-27.73l.19-.08c.05.15,5.51,14.61-.06,27.94l0,0h-.05C130.92,227.06,124.46,227.19,115.94,227.19Z"/><path class="cls-49" d="M88.28,226.68l-.2,0c3.82-22-2.92-47.55-3-47.81l.19-.05C85.35,179.05,92.11,204.66,88.28,226.68Z"/><path class="cls-49" d="M140.08,196l-.61-.33a17.75,17.75,0,0,1-9.74-2.54c-6.49-5.39-14.69-9.55-18.2-11.33l-1-.5a4.12,4.12,0,0,1-1.3-1.7l-1.28-.44,0,.12c.52,1.06,1.17,2.38,2.09,2.86l1,.5c3.48,1.77,11.64,5.91,18.05,11.24l0,0a19.33,19.33,0,0,0,9.44,2.74,5,5,0,0,0,1.68-.22,1,1,0,0,0,.48-.33Z"/><path class="cls-49" d="M132,198.86s-2.65-.38-6.77-.9a45.15,45.15,0,0,1,.76-4.81A80.68,80.68,0,0,1,132,198.86Z"/><path class="cls-49" d="M126.31,198a10.72,10.72,0,0,1-3.81.32,28.58,28.58,0,0,1-5.56-.74s-1.18-6.15,2.8-6.78,6.57,2.73,6.57,2.73Z"/><circle class="cls-46" cx="151.63" cy="226.16" r="11.85" transform="translate(-75.04 377.02) rotate(-89.81)"/><path class="cls-55" d="M143.67,226.16a8,8,0,1,1,8,8A8,8,0,0,1,143.67,226.16Z"/><path class="cls-15" d="M70.67,204.89a5.36,5.36,0,0,0-4.42,5.56,5,5,0,0,0,.45,1.88,33.49,33.49,0,0,0,4.64,6.86.3.3,0,0,0,.23.11.29.29,0,0,0,.22-.11A39.73,39.73,0,0,0,75,214.86l-1.75-1.75a3.3,3.3,0,0,1-2.33.41,3.34,3.34,0,1,1,4-3.55,3.26,3.26,0,0,1-.45,2l1.45,1.45c.19-.35.37-.7.53-1a5.21,5.21,0,0,0,.47-2.18A5.35,5.35,0,0,0,70.67,204.89Z"/><path class="cls-23" d="M74.08,210.23a2.51,2.51,0,1,1-2.51-2.5A2.51,2.51,0,0,1,74.08,210.23Z"/><path class="cls-15" d="M69.62,210.23h.56a1.4,1.4,0,0,1,1.39-1.39v-.55A2,2,0,0,0,69.62,210.23Z"/><path class="cls-15" d="M87,207.25a.78.78,0,0,1,.25.61.76.76,0,0,1-.25.6.88.88,0,0,1-.63.22H84.08v7.57a.83.83,0,0,1-.27.63,1,1,0,0,1-.68.25.93.93,0,0,1-.67-.25.86.86,0,0,1-.26-.63v-7.57H79.93a.89.89,0,0,1-.63-.23.84.84,0,0,1,0-1.2.92.92,0,0,1,.63-.23h6.42A.89.89,0,0,1,87,207.25Z"/><path class="cls-15" d="M91.82,209.5a.74.74,0,0,1,.3.58.87.87,0,0,1-.24.67.75.75,0,0,1-.55.23,1.7,1.7,0,0,1-.49-.1l-.19-.06a1.15,1.15,0,0,0-.33,0,1.23,1.23,0,0,0-.72.23,1.63,1.63,0,0,0-.57.7,2.54,2.54,0,0,0-.22,1.12v3.42a.89.89,0,0,1-.25.63.89.89,0,0,1-1.24,0,.85.85,0,0,1-.25-.63v-6a.87.87,0,0,1,1.49-.62.85.85,0,0,1,.25.62v.19a2.23,2.23,0,0,1,1-.9,2.89,2.89,0,0,1,1.33-.31A1.13,1.13,0,0,1,91.82,209.5Z"/><path class="cls-15" d="M93.15,208.3a.65.65,0,0,1-.2-.56v-.27a.68.68,0,0,1,.21-.57,1.63,1.63,0,0,1,1.41,0,.71.71,0,0,1,.2.57v.27a.66.66,0,0,1-.21.57,1.29,1.29,0,0,1-.72.15A1.11,1.11,0,0,1,93.15,208.3Zm1.33,8.58a.83.83,0,0,1-.62.25.81.81,0,0,1-.62-.25.85.85,0,0,1-.25-.63v-6a.87.87,0,0,1,.87-.88.85.85,0,0,1,.86.88v6A.88.88,0,0,1,94.48,216.88Z"/><path class="cls-15" d="M102.18,209.77a3.67,3.67,0,0,1,1.28,1.42,4.79,4.79,0,0,1,0,4.14,3.45,3.45,0,0,1-1.26,1.43,3.14,3.14,0,0,1-1.77.52,3.24,3.24,0,0,1-1.31-.28,3.51,3.51,0,0,1-1-.69v2.83a.88.88,0,0,1-.24.63.83.83,0,0,1-.62.25.84.84,0,0,1-.62-.24.86.86,0,0,1-.25-.64v-8.86a.87.87,0,0,1,.87-.88.85.85,0,0,1,.86.88v.06a3.19,3.19,0,0,1,1-.76,2.87,2.87,0,0,1,1.3-.32A3.32,3.32,0,0,1,102.18,209.77Zm-.51,5.22a2.55,2.55,0,0,0,.6-1.73,2.59,2.59,0,0,0-.59-1.73,1.93,1.93,0,0,0-1.52-.68,2,2,0,0,0-1.54.68,2.83,2.83,0,0,0,0,3.46,1.92,1.92,0,0,0,1.54.7A1.88,1.88,0,0,0,101.67,215Z"/><path class="cls-15" d="M107.88,208.25a1.09,1.09,0,0,0-.2.62v.68H109a.77.77,0,0,1,.57.22.82.82,0,0,1,0,1.14.78.78,0,0,1-.57.23h-1.32v5.11a.85.85,0,0,1-.25.63.81.81,0,0,1-.62.25.83.83,0,0,1-.62-.25.88.88,0,0,1-.24-.63v-5.11h-.78a.8.8,0,0,1-.58-.23.82.82,0,0,1,0-1.14.79.79,0,0,1,.58-.22H106v-.67a2.25,2.25,0,0,1,.74-1.76,3.1,3.1,0,0,1,2.15-.68,1.88,1.88,0,0,1,.93.22.71.71,0,0,1,.4.66.8.8,0,0,1-.21.57.65.65,0,0,1-.49.21h-.15l-.17,0a2.35,2.35,0,0,0-.57-.09A.83.83,0,0,0,107.88,208.25Z"/><path class="cls-15" d="M117.16,213.65a.87.87,0,0,1-.6.22h-4.77a2.18,2.18,0,0,0,.79,1.33,2.22,2.22,0,0,0,1.41.49,3.15,3.15,0,0,0,.92-.11,2.46,2.46,0,0,0,.53-.23l.27-.17a1.16,1.16,0,0,1,.49-.13.7.7,0,0,1,.52.22.69.69,0,0,1,.21.51.88.88,0,0,1-.4.7,3.57,3.57,0,0,1-1.09.57,4.33,4.33,0,0,1-1.37.23,4.2,4.2,0,0,1-2.11-.51,3.53,3.53,0,0,1-1.4-1.39,4,4,0,0,1-.49-2,4.43,4.43,0,0,1,.52-2.19,3.7,3.7,0,0,1,1.37-1.43,3.49,3.49,0,0,1,1.82-.5,3.33,3.33,0,0,1,1.8.52,3.91,3.91,0,0,1,1.86,3.31A.72.72,0,0,1,117.16,213.65Zm-5.36-1.23h3.79v-.1a1.53,1.53,0,0,0-.59-1,1.88,1.88,0,0,0-1.22-.43A1.8,1.8,0,0,0,111.8,212.42Z"/><path class="cls-15" d="M123.4,209.5a.74.74,0,0,1,.3.58.91.91,0,0,1-.23.67.76.76,0,0,1-.55.23,1.64,1.64,0,0,1-.49-.1l-.2-.06a1.12,1.12,0,0,0-.32,0,1.23,1.23,0,0,0-.72.23,1.63,1.63,0,0,0-.57.7,2.54,2.54,0,0,0-.23,1.12v3.42a.88.88,0,0,1-.24.63.91.91,0,0,1-1.25,0,.88.88,0,0,1-.24-.63v-6a.87.87,0,1,1,1.73,0v.19a2.2,2.2,0,0,1,1-.9,2.85,2.85,0,0,1,1.32-.31A1.11,1.11,0,0,1,123.4,209.5Z"/></g></g><g id="ava_04"><polygon class="cls-56" points="108.21 46.24 102.78 51.66 108.21 58.53 113.64 51.66 108.21 46.24"/><path class="cls-57" d="M102.78,51.66,105,54.4a10.45,10.45,0,0,0,3.13.47,10.61,10.61,0,0,0,3.49-.59l2.07-2.62-5.43-5.42Z"/><path class="cls-56" d="M108.08,32.49A10.52,10.52,0,1,0,118.6,43,10.53,10.53,0,0,0,108.08,32.49Zm0,20.47a9.95,9.95,0,1,1,10-10A10,10,0,0,1,108.08,53Z"/><path class="cls-56" d="M112.36,41.57a4.11,4.11,0,1,0-4.11,4.12A4.11,4.11,0,0,0,112.36,41.57Z"/><path class="cls-56" d="M111.45,44.73a4.71,4.71,0,0,1-6.52-.12,11,11,0,0,0-4.51,5.18,10.42,10.42,0,0,0,15.33,0A11.11,11.11,0,0,0,111.45,44.73Z"/></g><g id="ava_04-2" data-name="ava_04"><polygon class="cls-56" points="159.71 82.84 155.18 87.37 159.71 93.09 164.23 87.37 159.71 82.84"/><path class="cls-57" d="M155.18,87.37,157,89.65a8.63,8.63,0,0,0,2.61.39,8.76,8.76,0,0,0,2.91-.49l1.72-2.18-4.52-4.53Z"/><path class="cls-56" d="M159.6,71.38a8.77,8.77,0,1,0,8.77,8.77A8.78,8.78,0,0,0,159.6,71.38Zm0,17.07a8.3,8.3,0,1,1,8.3-8.3A8.3,8.3,0,0,1,159.6,88.45Z"/><path class="cls-56" d="M163.17,79a3.43,3.43,0,1,0-3.43,3.43A3.43,3.43,0,0,0,163.17,79Z"/><path class="cls-56" d="M162.41,81.59a4,4,0,0,1-5.43-.1,9.18,9.18,0,0,0-3.77,4.31,8.69,8.69,0,0,0,12.79,0A9.24,9.24,0,0,0,162.41,81.59Z"/></g><g id="ava_04-3" data-name="ava_04"><polygon class="cls-56" points="46.34 104.84 41.81 109.36 46.34 115.09 50.86 109.36 46.34 104.84"/><path class="cls-57" d="M41.81,109.36l1.81,2.29a9,9,0,0,0,2.61.39,8.76,8.76,0,0,0,2.91-.5l1.72-2.18-4.52-4.52Z"/><path class="cls-56" d="M46.23,93.38A8.77,8.77,0,1,0,55,102.15,8.77,8.77,0,0,0,46.23,93.38Zm0,17.06a8.3,8.3,0,1,1,8.3-8.29A8.29,8.29,0,0,1,46.23,110.44Z"/><path class="cls-56" d="M49.8,101a3.43,3.43,0,1,0-3.43,3.43A3.42,3.42,0,0,0,49.8,101Z"/><path class="cls-56" d="M49,103.58a3.93,3.93,0,0,1-5.43-.1,9.15,9.15,0,0,0-3.77,4.32,8.68,8.68,0,0,0,12.79,0A9.3,9.3,0,0,0,49,103.58Z"/></g></g></g></g></svg>