<svg xmlns="http://www.w3.org/2000/svg" xmlns:xlink="http://www.w3.org/1999/xlink" viewBox="0 0 348.71 294.15"><defs><style>.cls-1{fill:url(#linear-gradient);}.cls-2,.cls-27{fill:none;}.cls-3{isolation:isolate;}.cls-4{opacity:0.05;}.cls-5{clip-path:url(#clip-path);}.cls-6{fill:#eaf0f9;}.cls-7{fill:#c6d9e7;}.cls-8{fill:#a8c5e3;}.cls-9{mask:url(#mask);}.cls-10{fill:url(#linear-gradient-2);}.cls-11{fill:#ffbd29;}.cls-12{fill:#ffd454;}.cls-13{fill:#ffb127;}.cls-14{fill:#e38601;}.cls-15{fill:#304269;}.cls-16{fill:#bac5f4;}.cls-17{fill:#e1e6fb;}.cls-18{fill:#e1edf9;}.cls-19{fill:#fff;}.cls-20{fill:#8fcaf2;}.cls-21,.cls-24{fill:#5275a0;}.cls-21{opacity:0.25;}.cls-21,.cls-24,.cls-26,.cls-28{mix-blend-mode:multiply;}.cls-22,.cls-29{fill:#d1ebff;}.cls-22{opacity:0.34;}.cls-23{fill:#dfe3e5;}.cls-24,.cls-26{opacity:0.35;}.cls-25{fill:#e2f0fb;}.cls-26,.cls-28{fill:#b1dafc;}.cls-27{stroke:#8fcef9;stroke-miterlimit:10;}.cls-28{opacity:0.21;}.cls-30{fill:#ffa008;}.cls-31{fill:#fac61b;}.cls-32{fill:#fd9f00;}.cls-33{fill:#ffe1bd;}.cls-34{fill:#ffbfa4;}.cls-35{fill:#39517c;}.cls-36{fill:#28415a;}.cls-37{fill:#f4cdaf;}.cls-38{fill:#ff8533;}.cls-39{fill:#f60;}.cls-40{fill:#dedae8;}.cls-41{fill:#feaf84;}.cls-42{fill:#f7f7f7;}.cls-43{fill:#3c4043;}.cls-44{fill:#ffbe9d;}.cls-45{fill:#6262dd;}.cls-46{fill:#222b70;}</style><linearGradient id="linear-gradient" x1="195.44" y1="213.3" x2="195.44" y2="-10.04" gradientUnits="userSpaceOnUse"><stop offset="0" stop-color="#fff"/><stop offset="1"/></linearGradient><clipPath id="clip-path"><path class="cls-2" d="M38.11,226.92a137.88,137.88,0,0,0,17.14,16.82A218.11,218.11,0,0,0,138,286.86a218.72,218.72,0,0,0,147.86-13c9.67-4.52,16.69-14.55,20.45-24.55,2.1-5.56,1.85-12.4-2.17-16.77C299.88,228,291.91,226.12,291,220c-1-6.67,7.1-10.45,13.22-13.29C338,191,369.24,99.13,331.5,90.46c-39.5-9.08,3.91-39.7-15.72-81.39-15.3-32.5-271.7,29.27-279.95,76.31-3,17-16.73,15.16-28.5,27.75-12.12,13-6.88,33.72-.9,50.43C15.67,189.41,22.61,208.66,38.11,226.92Z"/></clipPath><mask id="mask" x="-78.12" y="-3.33" width="547.12" height="217.53" maskUnits="userSpaceOnUse"><rect class="cls-1" x="-78.12" y="-3.33" width="547.12" height="217.53"/></mask><linearGradient id="linear-gradient-2" x1="195.44" y1="222.65" x2="195.44" y2="-3.58" gradientUnits="userSpaceOnUse"><stop offset="0" stop-color="#eaedfc"/><stop offset="0.84" stop-color="#aed1fc"/></linearGradient></defs><title>illustration</title><g class="cls-3"><g id="Agency"><g id="_3" data-name="3"><path class="cls-4" d="M38.11,226.92a137.88,137.88,0,0,0,17.14,16.82A218.11,218.11,0,0,0,138,286.86a218.72,218.72,0,0,0,147.86-13c9.67-4.52,16.69-14.55,20.45-24.55,2.1-5.56,1.85-12.4-2.17-16.77C299.88,228,291.91,226.12,291,220c-1-6.67,7.1-10.45,13.22-13.29C338,191,369.24,99.13,331.5,90.46c-39.5-9.08,3.91-39.7-15.72-81.39-15.3-32.5-271.7,29.27-279.95,76.31-3,17-16.73,15.16-28.5,27.75-12.12,13-6.88,33.72-.9,50.43C15.67,189.41,22.61,208.66,38.11,226.92Z"/><g class="cls-5"><rect class="cls-6" x="39.96" y="20.28" width="99.41" height="193.26"/><rect class="cls-7" x="39.96" y="86.58" width="10.56" height="126.96"/><rect class="cls-7" x="49.05" y="138.89" width="11.79" height="74.65"/><rect class="cls-7" x="70.18" y="92.24" width="11.79" height="121.3"/><rect class="cls-7" x="100.4" y="106.57" width="19.41" height="106.97"/><rect class="cls-7" x="119.81" y="65.58" width="19.41" height="147.96"/><rect class="cls-7" x="80.5" y="51.25" width="22.6" height="162.29"/><rect class="cls-7" x="59.62" y="67.25" width="16.46" height="146.29"/><path class="cls-8" d="M139.22,214.11H39.81c-.3,0-.55-.33-.55-.74V20.11c0-.4.25-.73.55-.73h99.41c.3,0,.55.33.55.73V213.37C139.77,213.78,139.52,214.11,139.22,214.11Zm-98.86-1.48h98.31V20.85H40.36Z"/><path class="cls-8" d="M89.51,214.44c-.3,0-.55-.33-.55-.73V20.11c0-.4.25-.73.55-.73s.55.33.55.73v193.6C90.06,214.11,89.82,214.44,89.51,214.44Z"/><path class="cls-8" d="M64.66,214.44c-.3,0-.55-.33-.55-.73V20.11c0-.4.25-.73.55-.73s.55.33.55.73v193.6C65.21,214.11,65,214.44,64.66,214.44Z"/><rect class="cls-8" x="39.81" y="58.02" width="99.71" height="1.48"/><rect class="cls-8" x="39.81" y="96.66" width="99.71" height="1.48"/><rect class="cls-8" x="39.81" y="135.3" width="99.71" height="1.48"/><rect class="cls-8" x="39.81" y="173.94" width="99.71" height="1.48"/><path class="cls-8" d="M114.37,214.44c-.31,0-.55-.33-.55-.73V20.11c0-.4.24-.73.55-.73s.55.33.55.73v193.6C114.92,214.11,114.67,214.44,114.37,214.44Z"/><rect class="cls-6" x="251.51" y="20.28" width="99.41" height="193.26"/><rect class="cls-7" x="251.51" y="86.58" width="10.8" height="126.96"/><rect class="cls-7" x="260.6" y="138.89" width="14.87" height="74.65"/><rect class="cls-7" x="275.08" y="92.24" width="27.04" height="121.3"/><rect class="cls-7" x="325.35" y="106.57" width="24.48" height="106.97"/><rect class="cls-7" x="300.26" y="51.25" width="28.5" height="162.29"/><path class="cls-8" d="M350.77,214.11H251.36c-.31,0-.55-.33-.55-.74V20.11c0-.4.24-.73.55-.73h99.41c.3,0,.55.33.55.73V213.37C351.32,213.78,351.07,214.11,350.77,214.11Zm-98.86-1.48h98.31V20.85H251.91Z"/><path class="cls-8" d="M301.06,214.44c-.3,0-.55-.33-.55-.73V20.11c0-.4.25-.73.55-.73s.55.33.55.73v193.6C301.61,214.11,301.37,214.44,301.06,214.44Z"/><path class="cls-8" d="M276.21,214.44c-.3,0-.55-.33-.55-.73V20.11c0-.4.25-.73.55-.73s.55.33.55.73v193.6C276.76,214.11,276.51,214.44,276.21,214.44Z"/><path class="cls-8" d="M351.07,59.5H251.36c-.31,0-.55-.34-.55-.74s.24-.74.55-.74h99.71c.3,0,.55.33.55.74S351.37,59.5,351.07,59.5Z"/><path class="cls-8" d="M351.07,98.14H251.36c-.31,0-.55-.33-.55-.74s.24-.74.55-.74h99.71c.3,0,.55.33.55.74S351.37,98.14,351.07,98.14Z"/><path class="cls-8" d="M351.07,136.78H251.36c-.31,0-.55-.33-.55-.74s.24-.74.55-.74h99.71c.3,0,.55.33.55.74S351.37,136.78,351.07,136.78Z"/><path class="cls-8" d="M351.07,175.42H251.36c-.31,0-.55-.33-.55-.74s.24-.74.55-.74h99.71c.3,0,.55.33.55.74S351.37,175.42,351.07,175.42Z"/><path class="cls-8" d="M325.91,214.44c-.3,0-.55-.33-.55-.73V20.11c0-.4.25-.73.55-.73s.55.33.55.73v193.6C326.46,214.11,326.22,214.44,325.91,214.44Z"/><g class="cls-9"><rect class="cls-10" x="-78.12" y="-3.33" width="547.12" height="217.53"/></g></g><path class="cls-11" d="M28,246.46v7.15c0,2.48,11.13,4.49,24.87,4.49s24.86-2,24.86-4.49v-7.15Z"/><path class="cls-12" d="M77.74,246.33c0,2.48-11.14,4.48-24.86,4.48S28,248.81,28,246.33s11.13-4.49,24.87-4.49S77.74,243.85,77.74,246.33Z"/><path class="cls-13" d="M72.64,245.85c0,1.15-8.85,2.09-19.76,2.09s-19.77-.94-19.77-2.09,8.85-2.08,19.77-2.08S72.64,244.7,72.64,245.85Z"/><path class="cls-14" d="M34,246.46c2.47-.86,10-1.48,18.92-1.48s16.44.62,18.91,1.48c.55-.19.85-.4.85-.61,0-1.15-8.85-2.08-19.76-2.08s-19.77.93-19.77,2.08C33.11,246.06,33.41,246.27,34,246.46Z"/><path class="cls-11" d="M30.06,238.33v7.15c0,2.48,11.13,4.49,24.86,4.49s24.86-2,24.86-4.49v-7.15Z"/><path class="cls-12" d="M79.78,238.2c0,2.47-11.13,4.48-24.86,4.48s-24.86-2-24.86-4.48,11.13-4.49,24.86-4.49S79.78,235.72,79.78,238.2Z"/><path class="cls-13" d="M74.68,237.72c0,1.15-8.85,2.09-19.76,2.09s-19.77-.94-19.77-2.09,8.85-2.08,19.77-2.08S74.68,236.57,74.68,237.72Z"/><path class="cls-14" d="M36,238.33c2.47-.86,10-1.48,18.92-1.48s16.45.62,18.91,1.48c.55-.19.85-.4.85-.61,0-1.15-8.85-2.08-19.76-2.08s-19.77.93-19.77,2.08C35.15,237.93,35.45,238.14,36,238.33Z"/><path class="cls-11" d="M25.71,229.43v7.15c0,2.48,11.13,4.49,24.86,4.49s24.86-2,24.86-4.49v-7.15Z"/><path class="cls-12" d="M75.43,229.29c0,2.48-11.13,4.49-24.86,4.49s-24.86-2-24.86-4.49,11.13-4.48,24.86-4.48S75.43,226.82,75.43,229.29Z"/><path class="cls-13" d="M70.34,228.82c0,1.15-8.85,2.08-19.77,2.08s-19.76-.93-19.76-2.08,8.85-2.08,19.76-2.08S70.34,227.67,70.34,228.82Z"/><path class="cls-14" d="M31.66,229.43c2.46-.86,10-1.48,18.91-1.48s16.45.62,18.91,1.48c.56-.19.86-.4.86-.61,0-1.15-8.85-2.08-19.77-2.08s-19.76.93-19.76,2.08C30.81,229,31.11,229.24,31.66,229.43Z"/><path class="cls-11" d="M28,221.3v7.15c0,2.48,11.13,4.49,24.87,4.49s24.86-2,24.86-4.49V221.3Z"/><path class="cls-12" d="M77.74,221.16c0,2.48-11.14,4.49-24.86,4.49S28,223.64,28,221.16s11.13-4.48,24.87-4.48S77.74,218.68,77.74,221.16Z"/><path class="cls-13" d="M72.64,220.69c0,1.15-8.85,2.08-19.76,2.08s-19.77-.93-19.77-2.08,8.85-2.08,19.77-2.08S72.64,219.54,72.64,220.69Z"/><path class="cls-14" d="M34,221.3c2.47-.86,10-1.48,18.92-1.48s16.44.62,18.91,1.48c.55-.19.85-.4.85-.61,0-1.15-8.85-2.08-19.76-2.08s-19.77.93-19.77,2.08C33.11,220.9,33.41,221.11,34,221.3Z"/><path class="cls-11" d="M29.08,213.17v7.15c0,2.48,11.13,4.49,24.86,4.49s24.86-2,24.86-4.49v-7.15Z"/><path class="cls-12" d="M78.8,213c0,2.48-11.13,4.49-24.86,4.49s-24.86-2-24.86-4.49,11.13-4.49,24.86-4.49S78.8,210.55,78.8,213Z"/><path class="cls-13" d="M73.7,212.56c0,1.15-8.85,2.08-19.76,2.08s-19.77-.93-19.77-2.08,8.85-2.08,19.77-2.08S73.7,211.41,73.7,212.56Z"/><path class="cls-14" d="M35,213.17c2.47-.86,10-1.48,18.92-1.48s16.45.62,18.91,1.48c.55-.2.85-.4.85-.61,0-1.15-8.85-2.08-19.76-2.08s-19.77.93-19.77,2.08C34.17,212.77,34.47,213,35,213.17Z"/><path class="cls-11" d="M31.53,204.91v7.15c0,2.48,11.13,4.49,24.86,4.49s24.86-2,24.86-4.49v-7.15Z"/><path class="cls-12" d="M81.25,204.78c0,2.48-11.13,4.49-24.86,4.49s-24.86-2-24.86-4.49,11.13-4.49,24.86-4.49S81.25,202.3,81.25,204.78Z"/><path class="cls-13" d="M76.16,204.31c0,1.15-8.85,2.08-19.77,2.08s-19.76-.93-19.76-2.08,8.85-2.09,19.76-2.09S76.16,203.16,76.16,204.31Z"/><path class="cls-15" d="M163,104.77s2.81.74,7.05,6.52,13.63,27.37,13.63,27.37l-27,5.29s-12.11-25.59-12.92-26.64c-1.29-1.67-5.15-2-5.15-2l3.17-5.47Z"/><rect class="cls-16" x="173.2" y="241.21" width="24.74" height="17.02"/><path class="cls-17" d="M210.68,258H160.46a2.88,2.88,0,0,0,0,5.75h50.22a2.87,2.87,0,0,0,2.87-2.88h0A2.87,2.87,0,0,0,210.68,258Z"/><path class="cls-16" d="M213.55,260.83a2.87,2.87,0,0,1-2.87,2.87H160.46a2.87,2.87,0,0,1-2.87-2.87,2.63,2.63,0,0,1,.09-.7,2.86,2.86,0,0,0,2.78,2.18h50.22a2.86,2.86,0,0,0,2.78-2.18A2.63,2.63,0,0,1,213.55,260.83Z"/><path class="cls-16" d="M263,136.56H108.16a3,3,0,0,0-3,3V241.82a3,3,0,0,0,3,3H263a3,3,0,0,0,3-3V139.58a3,3,0,0,0-3-3Z"/><rect class="cls-18" x="107.66" y="139.58" width="155.83" height="93.01"/><rect class="cls-19" x="127.83" y="144.74" width="125.44" height="84.89" rx="4.09" ry="4.09"/><path class="cls-20" d="M250.24,144.48l-119.39.25a3,3,0,0,0-3,3v2.86l125.43-.26V147.5A3,3,0,0,0,250.24,144.48Z"/><path class="cls-19" d="M134.77,148.3a1,1,0,1,1-1-1A1,1,0,0,1,134.77,148.3Z"/><path class="cls-19" d="M139.06,148.29a1,1,0,1,1-1-1A1,1,0,0,1,139.06,148.29Z"/><path class="cls-19" d="M143.36,148.28a1,1,0,0,1-1,1,1,1,0,0,1,0-2A1,1,0,0,1,143.36,148.28Z"/><rect class="cls-21" x="117.83" y="143.41" width="125.44" height="84.89" rx="4.09" ry="4.09"/><rect class="cls-19" x="115.18" y="141.59" width="125.44" height="84.89" rx="4.09" ry="4.09"/><path class="cls-16" d="M237.59,141.33l-119.39.25a3,3,0,0,0-3,3v2.86l125.43-.26v-2.86A3,3,0,0,0,237.59,141.33Z"/><path class="cls-19" d="M122.13,145.15a1,1,0,1,1-1-1A1,1,0,0,1,122.13,145.15Z"/><path class="cls-19" d="M126.42,145.14a1,1,0,1,1-1-1A1,1,0,0,1,126.42,145.14Z"/><path class="cls-19" d="M130.71,145.13a1,1,0,1,1-1-1A1,1,0,0,1,130.71,145.13Z"/><rect class="cls-22" x="181.27" y="183.82" width="46.74" height="25.66" rx="1.65" ry="1.65"/><rect class="cls-20" x="120.1" y="152.89" width="12.38" height="1.98" rx="0.82" ry="0.82" transform="translate(-0.32 0.26) rotate(-0.12)"/><rect class="cls-20" x="120.1" y="172.35" width="7.81" height="1.98" rx="0.82" ry="0.82" transform="translate(-0.36 0.26) rotate(-0.12)"/><rect class="cls-20" x="120.1" y="156.35" width="23.13" height="1.98" rx="0.82" ry="0.82" transform="translate(-0.37 0.31) rotate(-0.13)"/><rect class="cls-23" x="120.1" y="162.63" width="28.47" height="0.72" rx="0.3" ry="0.3" transform="translate(-0.39 0.33) rotate(-0.14)"/><rect class="cls-23" x="120.1" y="161.04" width="28.47" height="0.72" rx="0.3" ry="0.3" transform="translate(-0.39 0.32) rotate(-0.14)"/><rect class="cls-23" x="120.1" y="164.21" width="28.47" height="0.72" rx="0.3" ry="0.3" transform="translate(-0.4 0.33) rotate(-0.14)"/><rect class="cls-23" x="120.1" y="165.79" width="28.47" height="0.72" rx="0.3" ry="0.3" transform="translate(-0.4 0.33) rotate(-0.14)"/><rect class="cls-23" x="120.1" y="167.38" width="21.33" height="0.72" rx="0.3" ry="0.3" transform="translate(-0.42 0.33) rotate(-0.14)"/><rect class="cls-23" x="158.95" y="217.33" width="21.58" height="0.72" rx="0.3" ry="0.3" transform="matrix(1, 0, 0, 1, -0.45, 0.35)"/><rect class="cls-23" x="158.95" y="215.74" width="21.58" height="0.72" rx="0.3" ry="0.3" transform="translate(-0.45 0.35) rotate(-0.12)"/><rect class="cls-23" x="158.95" y="218.91" width="21.58" height="0.72" rx="0.3" ry="0.3" transform="translate(-0.45 0.35) rotate(-0.12)"/><rect class="cls-23" x="158.95" y="220.49" width="21.58" height="0.72" rx="0.3" ry="0.3" transform="translate(-0.46 0.35) rotate(-0.12)"/><rect class="cls-23" x="158.96" y="222.07" width="16.65" height="0.72" rx="0.3" ry="0.3" transform="translate(-0.46 0.35) rotate(-0.12)"/><rect class="cls-23" x="183.05" y="217.34" width="21.58" height="0.72" rx="0.3" ry="0.3" transform="translate(-0.45 0.4) rotate(-0.12)"/><rect class="cls-23" x="183.05" y="215.75" width="21.58" height="0.72" rx="0.3" ry="0.3" transform="translate(-0.45 0.4) rotate(-0.12)"/><rect class="cls-23" x="183.06" y="218.92" width="21.58" height="0.72" rx="0.3" ry="0.3" transform="translate(-0.45 0.4) rotate(-0.12)"/><rect class="cls-23" x="183.06" y="220.5" width="21.58" height="0.72" rx="0.3" ry="0.3" transform="translate(-0.46 0.4) rotate(-0.12)"/><rect class="cls-23" x="183.06" y="222.09" width="16.65" height="0.72" rx="0.3" ry="0.3" transform="translate(-0.46 0.4) rotate(-0.12)"/><rect class="cls-23" x="207.16" y="217.34" width="21.58" height="0.72" rx="0.3" ry="0.3" transform="translate(-0.45 0.45) rotate(-0.12)"/><rect class="cls-23" x="207.16" y="215.75" width="21.58" height="0.72" rx="0.3" ry="0.3" transform="translate(-0.45 0.45) rotate(-0.12)"/><rect class="cls-23" x="207.16" y="218.92" width="21.58" height="0.72" rx="0.3" ry="0.3" transform="matrix(1, 0, 0, 1, -0.45, 0.45)"/><rect class="cls-23" x="207.16" y="220.5" width="21.58" height="0.72" rx="0.3" ry="0.3" transform="translate(-0.46 0.45) rotate(-0.12)"/><rect class="cls-23" x="207.16" y="222.09" width="16.65" height="0.72" rx="0.3" ry="0.3" transform="translate(-0.46 0.45) rotate(-0.12)"/><rect class="cls-23" x="118.09" y="222.34" width="8.03" height="0.72" rx="0.3" ry="0.3" transform="translate(-0.46 0.25) rotate(-0.12)"/><rect class="cls-23" x="129.15" y="222.33" width="8.03" height="0.72" rx="0.3" ry="0.3" transform="translate(-0.46 0.28) rotate(-0.12)"/><rect class="cls-23" x="140.22" y="222.33" width="8.03" height="0.72" rx="0.3" ry="0.3" transform="translate(-0.46 0.3) rotate(-0.12)"/><rect class="cls-24" x="155.52" y="154.09" width="78.98" height="56.37" rx="3.3" ry="3.3"/><rect class="cls-25" x="152.82" y="150.48" width="78.98" height="56.37" rx="3.3" ry="3.3"/><path class="cls-26" d="M158.62,179.23c2.23,0,4.7,17.53,12.58,17.53s15.29-24.42,20.69-24.42,6.42,18,10.7,18,9.42-19.75,13.6-19.75,9.59,14.52,9.59,14.52v17.53H158.62Z"/><rect class="cls-19" x="212.95" y="155.6" width="9.76" height="0.88"/><rect class="cls-19" x="212.95" y="157.21" width="9.76" height="0.88"/><rect class="cls-19" x="212.95" y="158.81" width="9.76" height="0.88"/><rect class="cls-19" x="206.62" y="155.6" width="4.42" height="0.88"/><rect class="cls-19" x="206.62" y="157.21" width="4.42" height="0.88"/><rect class="cls-19" x="206.62" y="158.81" width="4.42" height="0.88"/><path class="cls-27" d="M158.88,175.37c2.73,1.36,5.28,17.36,12.5,17.36S186,166.65,191,166.65s9.8,20.89,15.09,20.89,19.17-25.84,19.17-25.84"/><polyline class="cls-27" points="226.4 202.72 158.62 202.72 158.62 156.8"/><path class="cls-28" d="M158.62,189.63s8.51-17.73,12.81-17.73c3.46,0,3.56,9.25,6.47,9.25s6.16-18.72,8.9-18.72,2.12,22.25,5.89,22.25,4.62-14.69,7-14.69,4.9,20.39,7.46,20.39c5,0,9.92-24.62,12.71-24.62s5.91,15,5.91,15v21.9H158.62Z"/><circle class="cls-19" cx="158.88" cy="175.13" r="0.53"/><path class="cls-19" d="M166.11,188.66a.54.54,0,1,1-.53-.54A.53.53,0,0,1,166.11,188.66Z"/><path class="cls-19" d="M191.6,166.65a.54.54,0,1,1-.54-.53A.54.54,0,0,1,191.6,166.65Z"/><path class="cls-19" d="M184.92,175.21a.53.53,0,0,1-.53.54.54.54,0,0,1,0-1.07A.53.53,0,0,1,184.92,175.21Z"/><path class="cls-19" d="M219,173.42a.53.53,0,1,1-.53-.54A.53.53,0,0,1,219,173.42Z"/><path class="cls-19" d="M225.78,161.7a.54.54,0,1,1-.53-.54A.53.53,0,0,1,225.78,161.7Z"/><circle class="cls-19" cx="206.09" cy="187.47" r="0.53"/><path class="cls-19" d="M180.14,184.14a.53.53,0,0,1-.53.54.54.54,0,0,1,0-1.07A.53.53,0,0,1,180.14,184.14Z"/><path class="cls-19" d="M200.77,181a.54.54,0,1,1-.54-.53A.54.54,0,0,1,200.77,181Z"/><path class="cls-29" d="M126.28,215.05a1.84,1.84,0,0,1-.53.08,2.18,2.18,0,1,1,2.18-2.18,2.34,2.34,0,0,1-.09.59l2.72,1a5.06,5.06,0,1,0-4.81,3.49,5.17,5.17,0,0,0,1.19-.15Z"/><path class="cls-29" d="M142.69,212.41a2,2,0,0,1,.08.54,2.18,2.18,0,1,1-2.18-2.18,2.27,2.27,0,0,1,.59.09l1-2.72a5.06,5.06,0,1,0,3.49,4.81,5.17,5.17,0,0,0-.15-1.19Z"/><rect class="cls-22" x="119.11" y="177.94" width="30.17" height="12.9" rx="1.53" ry="1.53"/><rect class="cls-29" x="118.09" y="181.37" width="30.17" height="12.9" rx="1.53" ry="1.53"/><path class="cls-17" d="M188.56,238.31a3,3,0,1,1-3-3A3,3,0,0,1,188.56,238.31Z"/><path class="cls-30" d="M277.8,251.52v6.83c0,2.36,11.1,4.28,24.78,4.28s24.78-1.92,24.78-4.28v-6.83Z"/><path class="cls-31" d="M327.36,251.4c0,2.36-11.09,4.28-24.78,4.28s-24.78-1.92-24.78-4.28,11.1-4.29,24.78-4.29S327.36,249,327.36,251.4Z"/><path class="cls-32" d="M322.28,251c0,1.09-8.82,2-19.7,2s-19.7-.89-19.7-2,8.82-2,19.7-2S322.28,249.85,322.28,251Z"/><path class="cls-14" d="M283.73,251.52c2.46-.81,10-1.41,18.85-1.41s16.4.6,18.85,1.41c.55-.18.85-.37.85-.57,0-1.1-8.82-2-19.7-2s-19.7.89-19.7,2C282.88,251.15,283.18,251.34,283.73,251.52Z"/><path class="cls-30" d="M275,243.23v6.82c0,2.37,11.09,4.28,24.78,4.28s24.78-1.91,24.78-4.28v-6.82Z"/><ellipse class="cls-31" cx="299.77" cy="243.1" rx="24.78" ry="4.28"/><ellipse class="cls-32" cx="299.77" cy="242.65" rx="19.7" ry="1.99"/><path class="cls-14" d="M280.92,243.23c2.45-.81,10-1.41,18.85-1.41s16.4.6,18.85,1.41c.55-.18.85-.38.85-.58,0-1.09-8.82-2-19.7-2s-19.7.89-19.7,2C280.07,242.85,280.37,243.05,280.92,243.23Z"/><path class="cls-30" d="M277.07,234.49v6.82c0,2.37,11.1,4.28,24.78,4.28s24.78-1.91,24.78-4.28v-6.82Z"/><path class="cls-31" d="M326.63,234.36c0,2.37-11.09,4.28-24.78,4.28s-24.78-1.91-24.78-4.28,11.1-4.28,24.78-4.28S326.63,232,326.63,234.36Z"/><path class="cls-32" d="M321.55,233.91c0,1.1-8.82,2-19.7,2s-19.7-.89-19.7-2,8.82-2,19.7-2S321.55,232.81,321.55,233.91Z"/><path class="cls-14" d="M283,234.49c2.46-.82,10-1.41,18.85-1.41s16.4.59,18.85,1.41c.55-.18.85-.38.85-.58,0-1.1-8.82-2-19.7-2s-19.7.89-19.7,2C282.15,234.11,282.45,234.31,283,234.49Z"/><path class="cls-30" d="M275.28,225.93v6.82c0,2.36,11.1,4.28,24.78,4.28s24.78-1.92,24.78-4.28v-6.82Z"/><path class="cls-31" d="M324.84,225.8c0,2.36-11.09,4.28-24.78,4.28s-24.78-1.92-24.78-4.28,11.1-4.28,24.78-4.28S324.84,223.43,324.84,225.8Z"/><path class="cls-32" d="M319.76,225.35c0,1.1-8.82,2-19.7,2s-19.69-.89-19.69-2,8.82-2,19.69-2S319.76,224.25,319.76,225.35Z"/><path class="cls-14" d="M281.21,225.93c2.46-.82,10-1.41,18.85-1.41s16.4.59,18.86,1.41c.55-.19.84-.38.84-.58,0-1.1-8.82-2-19.7-2s-19.69.89-19.69,2C280.37,225.55,280.66,225.74,281.21,225.93Z"/><path class="cls-30" d="M277.37,217.93v6.82c0,2.36,11.1,4.28,24.78,4.28s24.78-1.92,24.78-4.28v-6.82Z"/><path class="cls-31" d="M326.93,217.8c0,2.36-11.09,4.28-24.78,4.28s-24.78-1.92-24.78-4.28,11.1-4.28,24.78-4.28S326.93,215.43,326.93,217.8Z"/><path class="cls-32" d="M321.85,217.35c0,1.1-8.82,2-19.7,2s-19.7-.89-19.7-2,8.82-2,19.7-2S321.85,216.25,321.85,217.35Z"/><path class="cls-14" d="M283.3,217.93c2.46-.82,10-1.41,18.85-1.41s16.4.59,18.85,1.41c.55-.19.85-.38.85-.58,0-1.1-8.82-2-19.7-2s-19.7.89-19.7,2C282.45,217.55,282.75,217.74,283.3,217.93Z"/><path class="cls-30" d="M275,209.32l.06,6.82c0,2.37,11.14,4.18,24.82,4.05s24.76-2.15,24.74-4.52l-.06-6.82Z"/><path class="cls-31" d="M324.52,208.72c0,2.37-11.06,4.39-24.74,4.52S275,211.56,275,209.19s11.05-4.38,24.74-4.51S324.5,206.36,324.52,208.72Z"/><path class="cls-32" d="M319.43,208.32c0,1.1-8.8,2.07-19.68,2.18s-19.7-.71-19.71-1.8,8.8-2.08,19.68-2.18S319.42,207.22,319.43,208.32Z"/><path class="cls-14" d="M280.89,209.27c2.45-.84,9.95-1.51,18.84-1.59s16.4.43,18.86,1.23c.55-.19.84-.39.84-.59,0-1.1-8.84-1.9-19.71-1.8S280,207.6,280,208.7C280,208.9,280.34,209.09,280.89,209.27Z"/><path class="cls-30" d="M277.38,201.54l.06,6.82c0,2.37,11.14,4.18,24.82,4S327,210.26,327,207.89l-.06-6.82Z"/><path class="cls-31" d="M326.94,200.94c0,2.37-11.06,4.39-24.74,4.52s-24.8-1.68-24.82-4,11.05-4.39,24.74-4.52S326.91,198.58,326.94,200.94Z"/><path class="cls-32" d="M321.85,200.54c0,1.1-8.8,2.07-19.68,2.18s-19.71-.71-19.72-1.8,8.8-2.07,19.68-2.18S321.84,199.45,321.85,200.54Z"/><path class="cls-14" d="M283.31,201.49c2.44-.84,9.95-1.51,18.83-1.59s16.41.44,18.87,1.23c.55-.19.84-.39.84-.59,0-1.09-8.84-1.9-19.72-1.8s-19.69,1.08-19.68,2.18C282.46,201.12,282.76,201.31,283.31,201.49Z"/><path class="cls-30" d="M277.38,193.22l.06,6.82c0,2.36,11.14,4.17,24.82,4S327,201.93,327,199.57l-.06-6.82Z"/><path class="cls-31" d="M326.94,192.62c0,2.36-11.06,4.38-24.74,4.51s-24.8-1.68-24.82-4,11.05-4.39,24.74-4.52S326.91,190.25,326.94,192.62Z"/><path class="cls-32" d="M321.85,192.22c0,1.09-8.8,2.07-19.68,2.17s-19.71-.7-19.72-1.8,8.8-2.07,19.68-2.17S321.84,191.12,321.85,192.22Z"/><path class="cls-11" d="M255.21,266.07v7.15c0,2.48,11.13,4.49,24.86,4.49s24.86-2,24.86-4.49v-7.15Z"/><path class="cls-12" d="M304.93,265.94c0,2.48-11.13,4.49-24.86,4.49s-24.86-2-24.86-4.49,11.13-4.49,24.86-4.49S304.93,263.46,304.93,265.94Z"/><path class="cls-13" d="M299.83,265.47c0,1.15-8.84,2.08-19.76,2.08s-19.76-.93-19.76-2.08,8.85-2.09,19.76-2.09S299.83,264.32,299.83,265.47Z"/><path class="cls-14" d="M261.16,266.07c2.46-.85,10-1.48,18.91-1.48s16.45.63,18.91,1.48c.55-.19.85-.39.85-.6,0-1.15-8.84-2.09-19.76-2.09s-19.76.94-19.76,2.09C260.31,265.68,260.61,265.88,261.16,266.07Z"/><path class="cls-11" d="M252.21,256.67v7.15c0,2.48,11.13,4.49,24.86,4.49s24.86-2,24.86-4.49v-7.15Z"/><path class="cls-12" d="M301.93,256.54c0,2.48-11.13,4.49-24.86,4.49s-24.86-2-24.86-4.49,11.13-4.49,24.86-4.49S301.93,254.06,301.93,256.54Z"/><path class="cls-13" d="M296.84,256.07c0,1.15-8.85,2.08-19.77,2.08s-19.76-.93-19.76-2.08,8.85-2.09,19.76-2.09S296.84,254.92,296.84,256.07Z"/><path class="cls-14" d="M258.16,256.67c2.46-.85,10-1.47,18.91-1.47s16.45.62,18.92,1.47c.55-.19.85-.39.85-.6,0-1.15-8.85-2.09-19.77-2.09s-19.76.94-19.76,2.09C257.31,256.28,257.61,256.48,258.16,256.67Z"/><path class="cls-11" d="M254.85,248.54v7.15c0,2.48,11.13,4.49,24.86,4.49s24.86-2,24.86-4.49v-7.15Z"/><path class="cls-12" d="M304.57,248.41c0,2.48-11.13,4.49-24.86,4.49s-24.86-2-24.86-4.49,11.13-4.49,24.86-4.49S304.57,245.93,304.57,248.41Z"/><path class="cls-13" d="M299.48,247.94c0,1.15-8.85,2.08-19.77,2.08S260,249.09,260,247.94s8.85-2.09,19.76-2.09S299.48,246.79,299.48,247.94Z"/><path class="cls-14" d="M260.8,248.54c2.46-.85,10-1.48,18.91-1.48s16.45.63,18.91,1.48c.56-.19.86-.39.86-.6,0-1.15-8.85-2.09-19.77-2.09s-19.76.94-19.76,2.09C260,248.15,260.25,248.35,260.8,248.54Z"/><path class="cls-11" d="M251.13,239.72v7.15c0,2.48,11.13,4.49,24.86,4.49s24.86-2,24.86-4.49v-7.15Z"/><path class="cls-12" d="M300.85,239.59c0,2.48-11.13,4.49-24.86,4.49s-24.86-2-24.86-4.49,11.13-4.49,24.86-4.49S300.85,237.11,300.85,239.59Z"/><ellipse class="cls-13" cx="275.99" cy="239.12" rx="19.76" ry="2.08"/><path class="cls-14" d="M257.08,239.72c2.46-.85,10-1.48,18.91-1.48s16.45.63,18.91,1.48c.55-.19.85-.39.85-.6,0-1.15-8.85-2.09-19.76-2.09s-19.77.94-19.77,2.09C256.22,239.33,256.52,239.53,257.08,239.72Z"/><path class="cls-11" d="M252.94,231v7.15c0,2.48,11.13,4.49,24.86,4.49s24.86-2,24.86-4.49V231Z"/><path class="cls-12" d="M302.66,230.85c0,2.48-11.13,4.49-24.86,4.49s-24.86-2-24.86-4.49,11.13-4.49,24.86-4.49S302.66,228.37,302.66,230.85Z"/><path class="cls-13" d="M297.57,230.38c0,1.15-8.85,2.08-19.77,2.08S258,231.53,258,230.38s8.85-2.09,19.76-2.09S297.57,229.22,297.57,230.38Z"/><path class="cls-14" d="M258.89,231c2.46-.85,10-1.48,18.91-1.48s16.45.63,18.91,1.48c.56-.19.86-.39.86-.6,0-1.16-8.85-2.09-19.77-2.09s-19.76.93-19.76,2.09C258,230.59,258.34,230.79,258.89,231Z"/><path class="cls-11" d="M250.1,222.85V230c0,2.48,11.13,4.49,24.86,4.49s24.86-2,24.86-4.49v-7.15Z"/><path class="cls-12" d="M299.82,222.72c0,2.48-11.13,4.49-24.86,4.49s-24.86-2-24.86-4.49,11.13-4.49,24.86-4.49S299.82,220.24,299.82,222.72Z"/><path class="cls-13" d="M294.72,222.24c0,1.16-8.85,2.09-19.76,2.09s-19.76-.93-19.76-2.09,8.84-2.08,19.76-2.08S294.72,221.09,294.72,222.24Z"/><path class="cls-14" d="M256.05,222.85c2.46-.85,10-1.48,18.91-1.48s16.45.63,18.91,1.48c.55-.19.85-.39.85-.61,0-1.15-8.85-2.08-19.76-2.08s-19.76.93-19.76,2.08C255.2,222.46,255.5,222.66,256.05,222.85Z"/><path class="cls-11" d="M252.52,214.72v7.15c0,2.48,11.13,4.49,24.86,4.49s24.86-2,24.86-4.49v-7.15Z"/><path class="cls-12" d="M302.24,214.59c0,2.48-11.13,4.48-24.86,4.48s-24.86-2-24.86-4.48,11.13-4.49,24.86-4.49S302.24,212.11,302.24,214.59Z"/><path class="cls-13" d="M297.14,214.11c0,1.15-8.85,2.09-19.76,2.09s-19.76-.94-19.76-2.09,8.84-2.08,19.76-2.08S297.14,213,297.14,214.11Z"/><path class="cls-14" d="M258.47,214.72c2.46-.86,10-1.48,18.91-1.48s16.45.62,18.91,1.48c.55-.19.85-.4.85-.61,0-1.15-8.85-2.08-19.76-2.08s-19.76.93-19.76,2.08C257.62,214.32,257.92,214.53,258.47,214.72Z"/><path class="cls-11" d="M250.1,205.83V213c0,2.48,11.13,4.48,24.86,4.48s24.86-2,24.86-4.48v-7.15Z"/><path class="cls-12" d="M299.82,205.69c0,2.48-11.13,4.49-24.86,4.49s-24.86-2-24.86-4.49,11.13-4.49,24.86-4.49S299.82,203.21,299.82,205.69Z"/><path class="cls-13" d="M294.72,205.22c0,1.15-8.85,2.08-19.76,2.08s-19.76-.93-19.76-2.08,8.84-2.08,19.76-2.08S294.72,204.07,294.72,205.22Z"/><path class="cls-14" d="M256.05,205.83c2.46-.86,10-1.48,18.91-1.48s16.45.62,18.91,1.48c.55-.2.85-.4.85-.61,0-1.15-8.85-2.08-19.76-2.08s-19.76.93-19.76,2.08C255.2,205.43,255.5,205.63,256.05,205.83Z"/><path class="cls-11" d="M254.85,198v7.15c0,2.48,11.13,4.49,24.86,4.49s24.86-2,24.86-4.49V198Z"/><path class="cls-12" d="M304.57,197.84c0,2.48-11.13,4.49-24.86,4.49s-24.86-2-24.86-4.49,11.13-4.48,24.86-4.48S304.57,195.37,304.57,197.84Z"/><path class="cls-13" d="M299.48,197.37c0,1.15-8.85,2.09-19.77,2.09S260,198.52,260,197.37s8.85-2.08,19.76-2.08S299.48,196.22,299.48,197.37Z"/><path class="cls-14" d="M260.8,198c2.46-.86,10-1.48,18.91-1.48s16.45.62,18.91,1.48c.56-.19.86-.4.86-.61,0-1.15-8.85-2.08-19.77-2.08s-19.76.93-19.76,2.08C260,197.58,260.25,197.79,260.8,198Z"/><path class="cls-11" d="M252.12,189.34v7.16c0,2.47,11.13,4.48,24.86,4.48s24.86-2,24.86-4.48v-7.16Z"/><path class="cls-12" d="M301.84,189.21c0,2.48-11.13,4.49-24.86,4.49s-24.86-2-24.86-4.49,11.13-4.49,24.86-4.49S301.84,186.73,301.84,189.21Z"/><path class="cls-13" d="M296.74,188.74c0,1.15-8.85,2.08-19.76,2.08s-19.77-.93-19.77-2.08,8.85-2.08,19.77-2.08S296.74,187.59,296.74,188.74Z"/><path class="cls-14" d="M258.07,189.34c2.46-.85,10-1.47,18.91-1.47s16.45.62,18.91,1.47c.55-.19.85-.39.85-.6,0-1.15-8.85-2.08-19.76-2.08s-19.77.93-19.77,2.08C257.21,189,257.51,189.15,258.07,189.34Z"/><path class="cls-11" d="M254.85,181.21v7.15c0,2.48,11.13,4.49,24.86,4.49s24.86-2,24.86-4.49v-7.15Z"/><path class="cls-12" d="M304.57,181.08c0,2.48-11.13,4.49-24.86,4.49s-24.86-2-24.86-4.49,11.13-4.49,24.86-4.49S304.57,178.6,304.57,181.08Z"/><path class="cls-13" d="M299.48,180.61c0,1.15-8.85,2.08-19.77,2.08S260,181.76,260,180.61s8.85-2.08,19.76-2.08S299.48,179.46,299.48,180.61Z"/><path class="cls-13" d="M252.08,236l-4.21-2-20,42.36,3.78,2.18c11.18,5.34,24.81.15,30.45-11.59S263.25,241.31,252.08,236Z"/><path class="cls-12" d="M259.26,265.52c-5.64,11.75-19.27,16.94-30.45,11.59s-15.67-19.2-10-30.94,19.28-16.93,30.45-11.59S264.9,253.78,259.26,265.52Z"/><path class="cls-13" d="M231.08,272.39c-8.33-4-11.54-14.64-7.16-23.76s14.72-13.3,23-9.32,11.54,14.64,7.16,23.76S239.4,276.37,231.08,272.39Z"/><path class="cls-12" d="M245.5,249a9.36,9.36,0,0,1,1.47,1.8,8,8,0,0,1,.86,1.85,5.59,5.59,0,0,1,.26,1.7,2.86,2.86,0,0,1-.3,1.37.49.49,0,0,1-.35.24.49.49,0,0,1-.41-.06l-3-1.82a1.33,1.33,0,0,1-.46-.4,1.8,1.8,0,0,1-.26-.5c0-.07-.05-.18-.09-.34a2.51,2.51,0,0,0-.24-.57,3.65,3.65,0,0,0-.53-.69,4.78,4.78,0,0,0-.93-.73,9,9,0,0,0-.87-.45,3.77,3.77,0,0,0-.81-.26,1.49,1.49,0,0,0-.7,0,.93.93,0,0,0-.6,1.08,2.43,2.43,0,0,0,.5.84,11.35,11.35,0,0,0,1.16,1.17l1.86,1.69a14.23,14.23,0,0,1,1.85,1.93,6.18,6.18,0,0,1,1,1.85,4,4,0,0,1,.19,1.85,5.21,5.21,0,0,1-.71,1.92,4.19,4.19,0,0,1-1.33,1.41,4.85,4.85,0,0,1-1.81.7,6.54,6.54,0,0,1-2.16,0,10.23,10.23,0,0,1-2.39-.7l-.89,1.51a.6.6,0,0,1-.42.3.76.76,0,0,1-.53-.1l-3-1.82a.76.76,0,0,1-.34-.43.63.63,0,0,1,.06-.52l.92-1.57a9.94,9.94,0,0,1-1.58-1.87,8.17,8.17,0,0,1-.93-1.91,4.79,4.79,0,0,1-.27-1.79,3.61,3.61,0,0,1,.4-1.53.49.49,0,0,1,.35-.24.57.57,0,0,1,.41.06l3,1.82a1.71,1.71,0,0,1,.46.38,2.11,2.11,0,0,1,.24.45c0,.09.06.24.11.44a2.92,2.92,0,0,0,.26.7,3.6,3.6,0,0,0,.57.82,4.49,4.49,0,0,0,1.07.85,8.16,8.16,0,0,0,2.17,1,1.07,1.07,0,0,0,1.33-.38.74.74,0,0,0,0-.72,3.52,3.52,0,0,0-.66-.93,14.79,14.79,0,0,0-1.31-1.28c-.56-.49-1.2-1.07-1.94-1.75a7.78,7.78,0,0,1-2.52-3.65,4.62,4.62,0,0,1,.63-3.59,4.12,4.12,0,0,1,1.14-1.25,4.81,4.81,0,0,1,1.6-.75,6.25,6.25,0,0,1,2-.16,8.28,8.28,0,0,1,2.24.46l.92-1.58a.62.62,0,0,1,.42-.29.73.73,0,0,1,.54.09l3,1.82a.81.81,0,0,1,.33.44.6.6,0,0,1-.05.51Z"/><path class="cls-11" d="M289.22,232.76l4.82-1.11,12.17,53-4.81,1.14c-12.8,2.95-25.9-6.53-29.27-21.16S276.42,235.7,289.22,232.76Z"/><path class="cls-12" d="M278,263.24c3.36,14.63,16.47,24.1,29.27,21.16s20.46-17.19,17.09-31.83-16.47-24.1-29.27-21.16S274.61,248.61,278,263.24Z"/><path class="cls-13" d="M305.9,278.51c9.54-2.19,15.17-13.22,12.55-24.58s-12.49-18.82-22-16.63-15.17,13.22-12.55,24.58S296.36,280.7,305.9,278.51Z"/><path class="cls-12" d="M301,246.55a9.06,9.06,0,0,1,2.47.18,8.62,8.62,0,0,1,2.08.72,6.17,6.17,0,0,1,1.56,1.12,3.42,3.42,0,0,1,.89,1.33.62.62,0,0,1-.05.48.54.54,0,0,1-.34.29l-3.56,1.09a1.28,1.28,0,0,1-.64.08,1.83,1.83,0,0,1-.58-.18l-.34-.19a2.51,2.51,0,0,0-.62-.24,3.6,3.6,0,0,0-.92-.1,4.45,4.45,0,0,0-1.24.22,7.84,7.84,0,0,0-1,.37,3.24,3.24,0,0,0-.78.48,1.59,1.59,0,0,0-.47.6,1,1,0,0,0,0,.75,1,1,0,0,0,.47.6,2.42,2.42,0,0,0,1,.24,12.21,12.21,0,0,0,1.75,0l2.66-.25a14.37,14.37,0,0,1,2.84,0,6.25,6.25,0,0,1,2.22.58,4.39,4.39,0,0,1,1.61,1.29,6.25,6.25,0,0,1,1.05,2.1,5.32,5.32,0,0,1,.21,2.22,5.74,5.74,0,0,1-.71,2.06,7.29,7.29,0,0,1-1.52,1.81,10.71,10.71,0,0,1-2.23,1.45l.59,1.93a.74.74,0,0,1-.06.58.71.71,0,0,1-.45.38l-3.55,1.09a.78.78,0,0,1-1-.5l-.62-2a9.68,9.68,0,0,1-2.61-.14,8.21,8.21,0,0,1-2.18-.71,5.56,5.56,0,0,1-1.63-1.18,4.24,4.24,0,0,1-1-1.54.6.6,0,0,1,.05-.47.59.59,0,0,1,.34-.3l3.56-1.09a1.51,1.51,0,0,1,.62-.09,1.94,1.94,0,0,1,.53.15l.43.26a4.41,4.41,0,0,0,.74.32,4,4,0,0,0,1.06.16,4.45,4.45,0,0,0,1.43-.23,8.32,8.32,0,0,0,2.31-1.05,1.23,1.23,0,0,0,.62-1.42.88.88,0,0,0-.57-.57,3.72,3.72,0,0,0-1.21-.18,16.48,16.48,0,0,0-1.94.11l-2.76.25a8,8,0,0,1-4.71-.74,5.56,5.56,0,0,1-2.43-3.34,4.9,4.9,0,0,1-.21-1.94,5.39,5.39,0,0,1,.52-1.93,6.57,6.57,0,0,1,1.23-1.77,9.07,9.07,0,0,1,1.93-1.52l-.62-2a.78.78,0,0,1,.51-1l3.56-1.09a.74.74,0,0,1,.58.06.75.75,0,0,1,.38.44Z"/><path class="cls-33" d="M111.43,138.75a9.28,9.28,0,0,0-.79,5.22,1.57,1.57,0,0,0,.28.78.55.55,0,0,0,.75.11.91.91,0,0,0,.21-.63c.15-1.57,1.1-2.94,1.52-4.46"/><path class="cls-15" d="M171.11,112.92c-2-3.8-4.83-6.7-7.22-7.77a24.73,24.73,0,0,0-8.45-2.08L150,104.18c-2.85.47-6,.81-8.7,2-6.66,2.88-11.69,9.21-16.92,14.06-3.6,3.34-7.22,6.81-9.48,11.17.85-.06,1.68.36,2.52.3a4.38,4.38,0,0,0,2-.83c4.9-3.09,9.53-5.53,14.22-8.94,4.46-3.24,6.74-5.38,8.66-5.62Z"/><path class="cls-11" d="M119.08,124.25l-2.63,1.91,19.34,26.4,2.6-1.59c7-5.08,8.36-15.18,3-22.56S126.09,119.17,119.08,124.25Z"/><ellipse class="cls-12" cx="126.94" cy="138.89" rx="15.67" ry="16.48" transform="translate(-56.67 97.77) rotate(-34.95)"/><path class="cls-13" d="M134.44,149.28c-5.21,3.79-12.83,2.2-17-3.53s-3.26-13.46,2-17.25,12.83-2.2,17,3.53S139.66,145.5,134.44,149.28Z"/><path class="cls-12" d="M124.89,132.63a6.29,6.29,0,0,1,1.59-.31,5.83,5.83,0,0,1,1.42.1,3.84,3.84,0,0,1,1.14.4,2.07,2.07,0,0,1,.74.65.36.36,0,0,1,0,.29.38.38,0,0,1-.18.23l-2.11,1.23a1.23,1.23,0,0,1-.4.16,1.31,1.31,0,0,1-.39,0l-.24-.05a1.4,1.4,0,0,0-.43,0,2.3,2.3,0,0,0-.6.09,3.18,3.18,0,0,0-.76.33,5.13,5.13,0,0,0-.57.38,2.84,2.84,0,0,0-.43.41,1.07,1.07,0,0,0-.22.44.62.62,0,0,0,.09.45.58.58,0,0,0,.37.28,1.67,1.67,0,0,0,.69,0,8,8,0,0,0,1.1-.32l1.66-.58a10.33,10.33,0,0,1,1.8-.5,4.33,4.33,0,0,1,1.48,0,2.67,2.67,0,0,1,1.2.5,3.56,3.56,0,0,1,.94,1.07,3,3,0,0,1,.43,1.29,3.45,3.45,0,0,1-.18,1.34,4.34,4.34,0,0,1-.73,1.32,7.92,7.92,0,0,1-1.22,1.24l.62,1.05a.39.39,0,0,1,.05.35.51.51,0,0,1-.24.3l-2.12,1.23a.5.5,0,0,1-.38.06.38.38,0,0,1-.29-.2l-.66-1.09a7.1,7.1,0,0,1-1.68.35,5.91,5.91,0,0,1-1.48-.07,3.58,3.58,0,0,1-1.19-.43,2.44,2.44,0,0,1-.8-.76.33.33,0,0,1,0-.29.42.42,0,0,1,.18-.23L125.2,142a1,1,0,0,1,.38-.15,1.09,1.09,0,0,1,.36,0l.31.08a2.32,2.32,0,0,0,.51.07,2.22,2.22,0,0,0,.69-.08,3,3,0,0,0,.88-.37,5.6,5.6,0,0,0,1.33-1,.77.77,0,0,0,.21-1,.54.54,0,0,0-.44-.25,2.86,2.86,0,0,0-.79.1c-.33.08-.74.21-1.22.38s-1.06.38-1.72.6a5.41,5.41,0,0,1-3.09.34,3.24,3.24,0,0,1-2-1.59,2.73,2.73,0,0,1-.39-1.12,3.44,3.44,0,0,1,.08-1.23,4.32,4.32,0,0,1,.55-1.26,6,6,0,0,1,1-1.21l-.66-1.1a.39.39,0,0,1,0-.35.51.51,0,0,1,.24-.3l2.11-1.23a.57.57,0,0,1,.38-.07.44.44,0,0,1,.3.21Z"/><path class="cls-34" d="M148.76,102.52s.61,2.25.76,2.89a1.83,1.83,0,0,0,1.88,1.41c4.8-.27,4.48-3.27,4.48-3.27-1-1.52-1.59-6-1.59-6"/><path class="cls-34" d="M142.54,143.51A12.07,12.07,0,0,1,140.7,146a4.36,4.36,0,0,1-2.08.84,5,5,0,0,0-2.23,1.71c-.3.37,0,.54.64.4s1.46-.63,1.72-.63.27.32,0,.91a6.36,6.36,0,0,1-1.44,1.9c-.43.34-1.64,1-1.77,1.41s0,.6.6.4a9.84,9.84,0,0,0,1.9-.73c.42-.21.9.18,2.38-.47a12.15,12.15,0,0,0,1.29-.75,2,2,0,0,0,.26-.06c.57-.23.87-2.21,1.17-2.75a26.12,26.12,0,0,1,2.5-2.53Z"/><path class="cls-35" d="M167.72,115.93c1.62-2.8-.55-6.65-3.61-6.66-4.6,0-6.75,4-6.4,4.64,0,1.84-3.43,12.71-3.54,12.88-5.16,7.43-12.07,17.06-12.07,17.06l3,2.59s9.83-10,14.19-14C163.85,128.13,166.1,118.74,167.72,115.93Z"/><path class="cls-34" d="M142.75,100.56a6.71,6.71,0,0,0,3.23,3,5.76,5.76,0,0,0,4.59-.37,7.16,7.16,0,0,0-.88-13.14c-2.43-.85-6.14-.21-7.84,1.92S141.53,98.48,142.75,100.56Z"/><path class="cls-36" d="M133.64,93.33c1.78,1.57,7.6,2.06,9.38,1.78s5.58-2.55,6.92-3.79c-.05,1.76,1.59,4.83,3.35,4.87a1.47,1.47,0,0,0,1,2.13,1.94,1.94,0,0,0,2.07-1.49c.23-.91,1.68-6.73.6-8.74s-2.38-3.84-6.45-4.76-8.58,3-10.82,5.2C138,90.27,130.27,90.37,133.64,93.33Z"/><path class="cls-34" d="M154.38,96.57c.1-.93-.5-2.21-1.33-2.35a1.3,1.3,0,0,0-1.66,1.16c-.11.94.49,2.48,1.31,2.62A1.51,1.51,0,0,0,154.38,96.57Z"/><path class="cls-37" d="M253.81,215.37a25.48,25.48,0,0,0,0,3.24c.14.85,2.88.68,3.16.21s.1-4.43.1-4.43"/><path class="cls-15" d="M257.76,219.66c0,.36,0,.83,0,1.28a1.62,1.62,0,0,1-1.3,1.57l-1.56.31s-1.15.15-2,.35a9.72,9.72,0,0,1-2.58.16c-2.35-.23-3.95-1-4-1.37-.28-1.42,6.47-2.49,6.86-3.39.28-.66.13-.82.51-.71a.91.91,0,0,1,.58.44,1.68,1.68,0,0,0,1.75.82,2,2,0,0,0,1.07-.57A1.17,1.17,0,0,1,257.76,219.66Z"/><path class="cls-15" d="M278,183.15c-4.21-.08-13.53,1.47-17.77,1.84.22,1.76-1.83,26.16-2.74,32.58,0,0-1.69,1.76-4.13,0-1.9-10.86-4.37-34-3.36-38.39,1.28-5.58,18.29-10,28.82-9.16"/><path class="cls-37" d="M264.25,218.7a25.84,25.84,0,0,0,.15,3.24c.17.84,2.9.57,3.16.09s-.06-4.43-.06-4.43"/><path class="cls-15" d="M268.35,222.84c0,.39,0,.91.06,1.39a1.49,1.49,0,0,1-1.15,1.48l-1.64.4s-1.14.19-2,.42a10.16,10.16,0,0,1-2.57.26c-2.36-.15-4-.88-4.07-1.22-.33-1.42,6.38-2.73,6.73-3.65.26-.67.11-.82.49-.73a.93.93,0,0,1,.6.42,1.68,1.68,0,0,0,1.77.76,2.07,2.07,0,0,0,1.06-.61A1.15,1.15,0,0,1,268.35,222.84Z"/><path class="cls-35" d="M294.52,170.53c1.1,2.56,1.83,7.19.72,9.17-1,1.74-1.43,2.82-3.08,3.37-7.06,2.34-10.41,1.88-18.38,1.39,0,8.9-4.62,28.39-5.36,36.47-3,1.32-4.67-.09-4.67-.09.33-16.43-3.33-40.89-1.11-44.82,1.35-2.39,17.43-5.54,17.75-5.49"/><path class="cls-37" d="M237.8,148.36l-1.93-.11a2.07,2.07,0,0,0-.92.18,11.92,11.92,0,0,1-1.63.56,8.11,8.11,0,0,1-3.65-.26c-.9-.16-.15-1,1.18-1.08s.62.19,1.26-.21-.6-1-1.61-1.35a16.74,16.74,0,0,1-1.85-.86c-1-.45-1.84-.75-2.41-1.07-.4-.23-.74-.62-.28-.73a35.7,35.7,0,0,1,3.78.65c.61,0,.94-.86,2.55-.87s3.21,1.7,4,2.12,3.62.19,3.62.19"/><path class="cls-38" d="M276.29,132.46s-3.83,0-6.2,1.66c-1.33.94-12.88,8.49-14.32,9.27s-19.18,1.79-19.18,1.79a3.18,3.18,0,0,0-.92,2,7.93,7.93,0,0,0,.39,2.36s17.54,1.63,21.23.87,18.48-7.07,18.48-7.07"/><path class="cls-39" d="M294.61,170.65c-1.91,4.63-12.09,2.95-17.51,3.15-4.85.18-6.05-1.49-6.05-1.49.18-6.93,1.32-12.08.23-17.13-1.85-8.59-2.91-19.11-1.19-21.06,3.39-2.58,12.4-4.48,19.46-2.28,5.31,1.65,7,3.2,6.67,7.19C296.11,140.36,296.74,164.38,294.61,170.65Z"/><polygon class="cls-40" points="286.98 171.82 261.31 169.81 276.2 176.57 286.98 171.82"/><polygon class="cls-16" points="276.11 177.18 286.83 172.72 286.98 171.82 276.07 176.29 276.11 177.18"/><path class="cls-41" d="M274.75,168l-2.17,1a3.59,3.59,0,0,0-4.11-.16c-2.16,1.41,0,5.95,1.55,5.62s6.2-3.3,6.2-3.3Z"/><path class="cls-38" d="M275.12,172.31a2.84,2.84,0,0,1-1.59-2.27,6.42,6.42,0,0,1,.17-2.15s6.05-3.6,10.34-6.87a31.81,31.81,0,0,1,6.29-3.86q-.54-5.53-1.07-11c-.2-2-.69-4.5-.42-6.45.36-2.61,1.35-6.83,4.53-6.31,5.67,1,4.32,12.92,4.12,17.29-.14,3,.13,8.07-1.72,10.6C293,165.06,275.12,172.31,275.12,172.31Z"/><path class="cls-16" d="M276.11,177.18l-23.58-3.83a1.69,1.69,0,0,1-1.41-1.59l-.72-16.65a1.41,1.41,0,0,1,1.63-1.46l22.08,3.58a1.43,1.43,0,0,1,1.19,1.34Z"/><path class="cls-42" d="M265.11,163.8a2,2,0,0,1-2.41,2,3,3,0,0,1-2.41-2.84,2,2,0,0,1,2.41-2A3,3,0,0,1,265.11,163.8Z"/><path class="cls-42" d="M262.69,158.17a4.19,4.19,0,0,0-5.13,4.22,5.48,5.48,0,0,0,.45,2.17,40.71,40.71,0,0,0,4.47,7.4.32.32,0,0,0,.21.13.23.23,0,0,0,.22-.06,30.28,30.28,0,0,0,3.11-3.61l-1.69-2a2.94,2.94,0,0,1-1.63.16,4,4,0,0,1-3.22-3.79,2.63,2.63,0,0,1,3.22-2.65,4,4,0,0,1,3.21,3.79,2.82,2.82,0,0,1-.44,1.55l1.39,1.64c.18-.31.36-.62.51-.93a4.4,4.4,0,0,0,.45-2A6.39,6.39,0,0,0,262.69,158.17Z"/><path class="cls-37" d="M283.05,133.89h-1.7a1.37,1.37,0,0,1-1.47-1.11,28.1,28.1,0,0,1-.45-4.1c-1.31-.21-3.31-2-3.31-2l-.16-1.38-.1-5.79.2-2,2.36-2.17,7.75.4,1.56,1.57.43,3.58L288,124.3l-1.24,3.49-1.65.92s-.13.73-.29,1.58C284.55,131.42,285,133.89,283.05,133.89Z"/><path class="cls-43" d="M275.63,126.41a4.72,4.72,0,0,0,1.79,3,6.67,6.67,0,0,0,3.76.81l2.12,0c1.79,0,3.57-.24,4.47-2.16a5.89,5.89,0,0,0,.47-2.91,1.87,1.87,0,0,0-.18-.79.65.65,0,0,0-.62-.38c-.32,0-.51.4-.71.67a1.57,1.57,0,0,1-1.86.62,2.35,2.35,0,0,1-.52-.37l-.2-.17a4.68,4.68,0,0,0-2.33-.89c-.72-.08-1.77-.34-2.29.29l-.92,1.08a1.76,1.76,0,0,1-.42.4,1.07,1.07,0,0,1-.55.14,1.16,1.16,0,0,1-1.19-.7,2.53,2.53,0,0,1-.08-.68,1.07,1.07,0,0,0-.18-.64c-.54-.65-.68.4-.7.75A7.43,7.43,0,0,0,275.63,126.41Zm4.87.28a2,2,0,0,0,1.8.19c.32-.11.46.44.14.54a2.45,2.45,0,0,1-2.2-.23C280,127,280.22,126.5,280.5,126.69Z"/><path class="cls-43" d="M275.13,114.07a9.66,9.66,0,0,1-.29-1.42,2.77,2.77,0,0,0,1.37.11v-.83c0-.24,3.06-.43,3.31-.45,2.33-.22,4.47-.43,6.59.82a6.47,6.47,0,0,1,3.28,4.8,10,10,0,0,1-1.48,6.35,14.17,14.17,0,0,0,.17-2.32,4.54,4.54,0,0,0-.51-1.46,5.91,5.91,0,0,0-2.1-2.2,7.47,7.47,0,0,0-4.29-1.36,12.21,12.21,0,0,0-4.91,1c-.64.32-.83-.69-1.26-1.4a12.2,12.2,0,0,1-.61-1.58Z"/><path class="cls-11" d="M72.53,138.32l3.24-.74L84,173.25l-3.23.77c-8.63,2-17.46-4.4-19.72-14.26S63.9,140.31,72.53,138.32Z"/><path class="cls-12" d="M65,158.86c2.26,9.85,11.09,16.23,19.72,14.25s13.77-11.58,11.51-21.44-11.1-16.23-19.72-14.25S62.69,149,65,158.86Z"/><path class="cls-13" d="M83.76,169.14c6.43-1.47,10.22-8.9,8.46-16.56s-8.42-12.67-14.84-11.2-10.22,8.91-8.46,16.56S77.34,170.62,83.76,169.14Z"/><path class="cls-12" d="M80.49,147.62a6.1,6.1,0,0,1,1.67.11,6.23,6.23,0,0,1,1.4.49,4.7,4.7,0,0,1,1,.75,2.58,2.58,0,0,1,.6.9.4.4,0,0,1,0,.32.38.38,0,0,1-.23.2l-2.39.74a1,1,0,0,1-.44.05,1.27,1.27,0,0,1-.38-.12l-.23-.13a1.62,1.62,0,0,0-.43-.16,2.25,2.25,0,0,0-.62-.07,2.81,2.81,0,0,0-.83.15,4.18,4.18,0,0,0-.65.25,2.26,2.26,0,0,0-.53.32,1,1,0,0,0-.31.41.71.71,0,0,0,0,.5.65.65,0,0,0,.32.4,1.59,1.59,0,0,0,.69.16,8.28,8.28,0,0,0,1.18,0l1.79-.17a10.33,10.33,0,0,1,1.91,0,4.47,4.47,0,0,1,1.49.4,3,3,0,0,1,1.09.86,4.39,4.39,0,0,1,.71,1.42,3.69,3.69,0,0,1,.14,1.5,3.85,3.85,0,0,1-.48,1.38,4.64,4.64,0,0,1-1,1.22,7.41,7.41,0,0,1-1.51,1l.4,1.3a.54.54,0,0,1-.34.65l-2.4.73a.45.45,0,0,1-.39,0,.44.44,0,0,1-.25-.3L81,161.41a7.21,7.21,0,0,1-1.76-.09,6.34,6.34,0,0,1-1.47-.48,3.9,3.9,0,0,1-1.09-.8,2.82,2.82,0,0,1-.64-1,.44.44,0,0,1,0-.32.41.41,0,0,1,.23-.2l2.4-.74a1.17,1.17,0,0,1,.42-.06,1.69,1.69,0,0,1,.35.1l.29.17a2.14,2.14,0,0,0,.5.22,2.18,2.18,0,0,0,.72.11,3,3,0,0,0,1-.15,5.62,5.62,0,0,0,1.55-.71.83.83,0,0,0,.42-1,.58.58,0,0,0-.38-.38,2.22,2.22,0,0,0-.82-.12,11.29,11.29,0,0,0-1.31.07l-1.85.17a5.33,5.33,0,0,1-3.17-.5,3.73,3.73,0,0,1-1.64-2.25,3.4,3.4,0,0,1-.15-1.31,3.89,3.89,0,0,1,.36-1.3,4.5,4.5,0,0,1,.83-1.19,5.88,5.88,0,0,1,1.3-1l-.42-1.36a.52.52,0,0,1,.34-.64l2.4-.74a.49.49,0,0,1,.39,0,.55.55,0,0,1,.26.3Z"/><g id="_Группа_" data-name="&lt;Группа&gt;"><path id="_Контур_" data-name="&lt;Контур&gt;" class="cls-36" d="M61.18,139s6.53.18,3.07,7.63S61.18,139,61.18,139Z"/><path id="_Контур_2" data-name="&lt;Контур&gt;" class="cls-37" d="M61.62,140.32s1.93.74,3,6.47c0,.2,1.39,4.34-1,7.35-.9,1.12-4.86,1.28-8.35.29s-5.45-5.5-4.65-8.65S57.43,138.53,61.62,140.32Z"/><path id="_Контур_3" data-name="&lt;Контур&gt;" class="cls-37" d="M61.44,151.44c-.85.93-1,2.79-.94,4.58l.06.9a28.73,28.73,0,0,0,.48,3.35l-6.25-.15a37.66,37.66,0,0,0-.15-6S63.45,149.26,61.44,151.44Z"/></g><g id="_Группа_2" data-name="&lt;Группа&gt;"><path id="_Контур_4" data-name="&lt;Контур&gt;" class="cls-44" d="M65,201.22l-9.77-10.53s-5.92,6.26-4.82,13.13c.54,3.38,1.52,5.14,1.84,6.75s1.07,22.38.64,23.85-2.7,5.44-3.92,9.76c-1.45,5.2-2.94,12.74-4.13,17.24s.77,10.5,1.19,9c3.61-13,13.07-27.94,14.62-34.46S63.39,217.26,65,201.22Z"/><path id="_Контур_5" data-name="&lt;Контур&gt;" class="cls-37" d="M49,261s-3,8.5-2.75,9.58c.14.66.81,2.88,1,3.19.06.13,2.21,1.83.78,1.8s-4.74-4.47-5.24-4.81a2.1,2.1,0,0,1-1-2.18,9.16,9.16,0,0,1,1.81-3.22,13.41,13.41,0,0,0,1.17-3.51Z"/><path id="_Контур_6" data-name="&lt;Контур&gt;" class="cls-45" d="M49.9,275.92a8.71,8.71,0,0,0-2.31-1.84h0c-.26-.34-.48-.55-.37-.34s-.77.55-1.24.16c-1.63-1.31-2.1-3.27-2.91-4.2a3.19,3.19,0,0,1-.22-3.35,7.68,7.68,0,0,0-2.35,1,4.48,4.48,0,0,0-1.25,1.39h0a3.81,3.81,0,0,0,1.06,4.31l3.62,3,.66.54a2.76,2.76,0,0,0,1.75.63h3.08a.7.7,0,0,0,.71-.79A1.54,1.54,0,0,0,49.9,275.92Z"/></g><g id="_Группа_3" data-name="&lt;Группа&gt;"><path id="_Контур_7" data-name="&lt;Контур&gt;" class="cls-37" d="M72.48,274.61c-.22-.28-2.71-.92-3.86-1.52a7,7,0,0,1-2.53-2.89,28.37,28.37,0,0,1,.31-5.3c1.09-9.44,4.42-22.64,5.17-28.16,1.31-9.57,1-19.62-1.36-35.39L57.38,189.53s-4.5,6.83-3.83,13.81c.39,4,3.64,4.95,4.06,6.55s6.51,27.29,6.51,27.29a47.09,47.09,0,0,0-2.74,11.14c-.53,5,.88,10.71.78,16.54,0,1.14-.1,3.86-.51,4.7-.5,1-1.66,2.17-1.72,3.5a2.06,2.06,0,0,0,1.4,2c1,.39,1.54-.12,1.88-.11,1.95.1,2.37,1.48,5.72,1.78a5.35,5.35,0,0,0,3.46-1.08A.73.73,0,0,0,72.48,274.61Z"/><path id="_Контур_8" data-name="&lt;Контур&gt;" class="cls-45" d="M72.66,275.82a2.5,2.5,0,0,1-.59.68,3.47,3.47,0,0,1-2.25.77H63a3.72,3.72,0,0,1-3.5-2.83h0a3.66,3.66,0,0,1,.16-1.73,8,8,0,0,1,1.46-2.3,3.17,3.17,0,0,0,2.3,2.46c1.21.21,2.81,1.43,4.91,1.4.6,0,1.23-.74.86-.9s.66,0,1.33.26a20.22,20.22,0,0,1,2.13,1.05C72.91,274.8,72.88,275.41,72.66,275.82Z"/></g><path id="_Контур_9" data-name="&lt;Контур&gt;" class="cls-37" d="M44.68,176.18s.66,3.38,1.07,4.77,2.46,10.24,4.4,10.08,12.54-9,12.54-9l-1.5-3-9.34,4.45S51,173.36,50.27,171Z"/><path id="_Контур_10" data-name="&lt;Контур&gt;" class="cls-17" d="M53.28,160.3a11.3,11.3,0,0,0-5.68,1.92c-4,3-3.08,14.38-3.08,14.38s-.2.59,2.49.44a19.12,19.12,0,0,0,4.84-.92L51.08,167Z"/><path class="cls-46" d="M49.23,243.35c1.51-4,3.59-8.28,3.67-8.93s-.49-4.57-.67-5.87a.16.16,0,0,1,0-.09c0-.45-2.19-17-2.92-19.52A20.94,20.94,0,0,1,48,200.47c.25-4.54,3.86-9.95,4.84-10.93l16.69-.27s2.88,6.8,3.16,11c.58,8.86.59,33.73.2,36.57-.5,3.68-5.82,32.87-5.82,32.87s-5.54.13-7.55-.78L62.83,237l-.74-7.79c0-.13-.06-.44-.1-.44a62.11,62.11,0,0,1-1.14,7.38c-.76,2.82-8.05,18.65-11,25.47-1,2.34-2.5,7.44-2.5,7.44s-4-1.85-4.95-3.39C42.45,265.66,47.73,247.34,49.23,243.35Z"/><g id="_Группа_4" data-name="&lt;Группа&gt;"><path class="cls-16" d="M69.25,186.61a22.46,22.46,0,0,1-.9-7.24c.21-1.33,1.39-2.05,1.92-5a11,11,0,0,0-1.75-8c-1.24-1.79-2.93-5.43-3.28-5.54-5.16-1.57-6-.82-9.46-.67a23.43,23.43,0,0,0-4.5.52c-1.87.42-4.1,1-4.49,3.57a25.53,25.53,0,0,0,1.1,11.58c.79,2.45,5.49,11,4.33,12.61a5.6,5.6,0,0,0-1,1.56c-.29,1.72,2.49,2.14,5.26,2.46a44.46,44.46,0,0,0,8,0C72.27,191.84,69.49,187.09,69.25,186.61Z"/></g><path class="cls-36" d="M53.29,159.61a5.55,5.55,0,0,0,2.26-2.22c.81-1.7.41-4.31.48-6.13s.21-4,1.5-5.45a4.57,4.57,0,0,1,3.1-1.35c.82-.1.88.21,1.53-.3a3.63,3.63,0,0,0,.91-2,3.44,3.44,0,0,0-1.14-2.72A4.75,4.75,0,0,0,58,138c-5.35.43-9,4-10,9.38-.46,2.58.36,5.31-.16,7.81-.33,1.53-1.18,2.63-1.4,4.25-.58,4.22-2.32,9.72-1.71,14a.63.63,0,0,0,.19.42c.26.19.6-.11.78-.37l3.23-4.64A8.19,8.19,0,0,0,50,166.84c.6-1.74,0-3.85,1-5.37A7.41,7.41,0,0,1,53.29,159.61Z"/><g id="_Группа_5" data-name="&lt;Группа&gt;"><path id="_Контур_11" data-name="&lt;Контур&gt;" class="cls-37" d="M67.24,173.45S75,185.9,77.75,185.9c2,0,13.19-13.37,13.19-13.37l-3.79-1L78,177.81l-5.55-9.14Z"/><path class="cls-37" d="M95.38,167.87c0-.23,0-.47,0-.7.09-.5.43-.93.55-1.43a8,8,0,0,0,.07-1.2c0-.45.31-1.21-.06-1.27.07-.29.19-.61.25-.9s0-.65-.22-.61-.79.55-1,.79-.81,1.13-1.09,1.47a4.18,4.18,0,0,1-1.4,1.11s.18-.32,0-.48-.9.19-1.66.3c-.39.05-1.35,1.23-1.67,1.57a11.58,11.58,0,0,0-.7,2.84,6.07,6.07,0,0,1-1.65,2.41l3.25,1.61c.08,0,.44-.43.49-.49a2.21,2.21,0,0,1,.73-.59c1-1,2.49-1.46,3.36-2.6a3.38,3.38,0,0,0,.71-1.8Z"/></g><g id="_Группа_6" data-name="&lt;Группа&gt;"><path class="cls-17" d="M60.44,159.82c1.65.09,7,.45,10.21,5.23a43.13,43.13,0,0,1,4.71,8.32c-.43,1.47-3.22,4.48-5.78,4.44-.12-.09-3.89-4.71-4.61-8.48Z"/></g><path class="cls-12" d="M102.49,229.14a12.25,12.25,0,0,0,10.69,13.79,12.57,12.57,0,0,0,13.91-10.85A12.24,12.24,0,0,0,116.4,218.3,12.56,12.56,0,0,0,102.49,229.14Z"/><path class="cls-13" d="M113.49,240.2a9.91,9.91,0,0,0,10.86-8.49A9.42,9.42,0,0,0,116.09,221a9.9,9.9,0,0,0-10.86,8.48A9.43,9.43,0,0,0,113.49,240.2Z"/><path class="cls-12" d="M116,225.6a4.79,4.79,0,0,1,1.14.4,4.24,4.24,0,0,1,.88.6,2.83,2.83,0,0,1,.57.7,1.57,1.57,0,0,1,.22.71.29.29,0,0,1-.09.21.28.28,0,0,1-.2.09l-1.85,0a.83.83,0,0,1-.31-.05A1.11,1.11,0,0,1,116,228a1.17,1.17,0,0,0-.26-.18,1.47,1.47,0,0,0-.42-.17,2,2,0,0,0-.62-.06,3,3,0,0,0-.52,0,1.69,1.69,0,0,0-.43.11.77.77,0,0,0-.31.21.44.44,0,0,0-.13.33.44.44,0,0,0,.14.33,1,1,0,0,0,.45.24,7,7,0,0,0,.83.21l1.29.23a7.74,7.74,0,0,1,1.35.35,3.14,3.14,0,0,1,1,.55,2.13,2.13,0,0,1,.58.79,2.91,2.91,0,0,1,.18,1.08,2.46,2.46,0,0,1-.23,1,2.89,2.89,0,0,1-.64.84,3.76,3.76,0,0,1-1,.61,5.51,5.51,0,0,1-1.27.36v1a.36.36,0,0,1-.11.25.4.4,0,0,1-.27.11l-1.84,0a.37.37,0,0,1-.27-.11.33.33,0,0,1-.11-.25v-1a4.72,4.72,0,0,1-1.22-.4,4,4,0,0,1-.92-.6,2.57,2.57,0,0,1-.6-.74,1.9,1.9,0,0,1-.22-.82.26.26,0,0,1,.1-.2.27.27,0,0,1,.2-.09l1.84,0a.83.83,0,0,1,.31,0,1,1,0,0,1,.23.14l.17.17a1.31,1.31,0,0,0,.3.24,1.88,1.88,0,0,0,.47.21,2.17,2.17,0,0,0,.71.08,4,4,0,0,0,1.25-.17c.33-.1.5-.29.5-.56a.37.37,0,0,0-.18-.32,1.72,1.72,0,0,0-.54-.24c-.25-.07-.56-.14-.94-.21l-1.34-.24a3.88,3.88,0,0,1-2.11-1,2.43,2.43,0,0,1-.66-1.81,2.34,2.34,0,0,1,.19-.9,2.59,2.59,0,0,1,.53-.8,3.48,3.48,0,0,1,.85-.63,4.16,4.16,0,0,1,1.14-.43v-1a.33.33,0,0,1,.12-.25.37.37,0,0,1,.27-.11l1.84,0a.39.39,0,0,1,.27.1.38.38,0,0,1,.11.25Z"/><path class="cls-16" d="M97.56,262.59a3.49,3.49,0,0,1-2.79-1.51,2.85,2.85,0,0,1-.66.11c-2,.15-3-.61-3.26-2.62a.5.5,0,0,1,.42-.56.49.49,0,0,1,.55.42c.18,1.25.52,1.92,2.22,1.79l.26,0a3.05,3.05,0,0,1-.15-1.63,1.86,1.86,0,0,1,.92-1.31,1.31,1.31,0,0,1,1.25.08,1.43,1.43,0,0,1,.75,1.61,3,3,0,0,1-1.37,1.74,2.38,2.38,0,0,0,2.24.9.49.49,0,0,1,.58.39.49.49,0,0,1-.39.57A2.76,2.76,0,0,1,97.56,262.59Zm-2-4.49a.23.23,0,0,0-.11,0,.92.92,0,0,0-.37.61,2.06,2.06,0,0,0,.09,1.09,2,2,0,0,0,.9-1.1.45.45,0,0,0-.26-.54A.54.54,0,0,0,95.6,258.1Z"/><path class="cls-17" d="M134,262.47h-2a15,15,0,0,0-6.65-8.59c-.31-1.78-.79-3.94-1.27-4.1s-2.58.76-4.22,1.87a34.69,34.69,0,0,0-5.73-.51c-10.24,0-18.54,6.9-18.54,15.41A14.43,14.43,0,0,0,102,278.16L103.2,283a1.08,1.08,0,0,0,1,.79h4a1.06,1.06,0,0,0,1.06-1.06v-1.29a22,22,0,0,0,4.78.52,22.8,22.8,0,0,0,4-.36v1.13a1.07,1.07,0,0,0,1.06,1.06h4.06a1.06,1.06,0,0,0,1-.79l1.09-4.19a15.76,15.76,0,0,0,6.5-7.77H134a1.8,1.8,0,0,0,1.81-1.8v-5A1.8,1.8,0,0,0,134,262.47Z"/><path class="cls-16" d="M117.83,278.21c-10.65,0-19.28-6.68-19.28-14.91a12.56,12.56,0,0,1,3.2-8.22,13.76,13.76,0,0,0,.2,23.08L103.2,283a1.08,1.08,0,0,0,1,.79h4a1.06,1.06,0,0,0,1.06-1.06v-1.29a22,22,0,0,0,4.78.52,22.8,22.8,0,0,0,4-.36v1.13a1.07,1.07,0,0,0,1.06,1.06h4.06a1.06,1.06,0,0,0,1-.79l1.09-4.19a17.66,17.66,0,0,0,3.31-2.72A30,30,0,0,1,117.83,278.21Z"/><path class="cls-18" d="M120.05,255.24a18.91,18.91,0,0,0-12.21,0c.09-.45.18-.9.3-1.34a20,20,0,0,1,11.61,0C119.87,254.34,120,254.79,120.05,255.24Z"/><path class="cls-16" d="M119.41,255a18.84,18.84,0,0,0-10.93,0c-.11-.38-.23-.76-.34-1.14a20,20,0,0,1,11.61,0C119.64,254.28,119.52,254.66,119.41,255Z"/><path class="cls-19" d="M127.44,262.79a1.28,1.28,0,1,1-1.28-1.27A1.28,1.28,0,0,1,127.44,262.79Z"/><circle class="cls-16" cx="126.44" cy="262.59" r="0.47"/><path class="cls-12" d="M111.05,253.79a.49.49,0,0,1-.49-.49V246a.5.5,0,0,1,1,0v7.3A.49.49,0,0,1,111.05,253.79Z"/><path class="cls-12" d="M113.94,251.92a.49.49,0,0,1-.49-.49v-7.3a.49.49,0,0,1,1,0v7.3A.49.49,0,0,1,113.94,251.92Z"/><path class="cls-12" d="M117.33,253.88a.49.49,0,0,1-.49-.5v-7.29a.49.49,0,0,1,1,0v7.29A.49.49,0,0,1,117.33,253.88Z"/><polygon class="cls-17" points="311.94 149.61 315.1 148.43 312.05 147.27 310.87 142.66 309.71 147.17 306.55 148.35 309.61 149.51 310.79 154.12 311.94 149.61"/><polygon class="cls-17" points="253.99 90.84 257.15 89.66 254.09 88.5 252.92 83.89 251.76 88.4 248.6 89.58 251.66 90.74 252.83 95.35 253.99 90.84"/><polygon class="cls-17" points="66.14 100.24 69.29 99.07 66.24 97.91 65.06 93.29 63.9 97.81 60.74 98.98 63.8 100.14 64.97 104.76 66.14 100.24"/><path class="cls-17" d="M6.82,171.22l.09,0a1,1,0,0,0,0-1.93h0a1,1,0,0,1-.64-.71l0-.2a1,1,0,0,0-2,0l0,.1a1,1,0,0,1-.63.71l-.09,0a1,1,0,0,0,0,1.93h0a1,1,0,0,1,.63.71l0,.2a1,1,0,0,0,2,0l0-.1A1,1,0,0,1,6.82,171.22Z"/><path class="cls-19" d="M231.12,29.22a.82.82,0,0,0,.66.8,20.21,20.21,0,0,1,5.34,1.86,17.66,17.66,0,0,1,4.33,3.1,13.25,13.25,0,0,1,2.65,3.67,10.38,10.38,0,0,1,1.05,3.59,1.53,1.53,0,0,1-.52,1.36,2,2,0,0,1-1.36.53h-4.89a2.85,2.85,0,0,1-1.78-.46,4.47,4.47,0,0,1-1.08-1.22,9.12,9.12,0,0,0-3.18-3A12.37,12.37,0,0,0,226,38.13a14.86,14.86,0,0,0-3.46.38,9.7,9.7,0,0,0-2.86,1.12,5.7,5.7,0,0,0-1.92,1.78,4.13,4.13,0,0,0-.7,2.37,4.18,4.18,0,0,0,.77,2.62,6,6,0,0,0,2.48,1.74,27,27,0,0,0,4.39,1.36q2.69.63,6.53,1.47a41.73,41.73,0,0,1,7.09,2.13A16,16,0,0,1,243.09,56,9.89,9.89,0,0,1,245.74,60a15,15,0,0,1,.81,5.1,12.48,12.48,0,0,1-1.05,5.1,13.05,13.05,0,0,1-3,4.25,16.66,16.66,0,0,1-4.85,3.15,23.78,23.78,0,0,1-5.79,1.64.82.82,0,0,0-.7.8v4a1.85,1.85,0,0,1-.56,1.33,1.8,1.8,0,0,1-1.32.55h-5.66a1.88,1.88,0,0,1-1.88-1.88V80a.81.81,0,0,0-.68-.79,24.62,24.62,0,0,1-5.22-1.53A19.38,19.38,0,0,1,211,74.84,13.87,13.87,0,0,1,207.66,71a10.83,10.83,0,0,1-1.39-4.85,1.54,1.54,0,0,1,.52-1.36,2,2,0,0,1,1.36-.53H213a3.23,3.23,0,0,1,1.81.42,3.17,3.17,0,0,1,1.05,1.26,13.38,13.38,0,0,0,1.19,1.81A6.41,6.41,0,0,0,219,69.33a11.51,11.51,0,0,0,3,1.15,18.42,18.42,0,0,0,4.43.45,25.38,25.38,0,0,0,4-.31,11.84,11.84,0,0,0,3.42-1.05,7.39,7.39,0,0,0,2.38-1.81,4.07,4.07,0,0,0,.9-2.69,3.4,3.4,0,0,0-1-2.51,8,8,0,0,0-3-1.68,41.13,41.13,0,0,0-4.92-1.32c-2-.42-4.21-1-6.77-1.61a36,36,0,0,1-6.11-2,14.32,14.32,0,0,1-4.33-2.83,10.56,10.56,0,0,1-2.55-3.94,15.61,15.61,0,0,1-.84-5.41,12,12,0,0,1,1.05-5,14,14,0,0,1,2.9-4.15A15.62,15.62,0,0,1,216,31.53a21.9,21.9,0,0,1,5-1.65.82.82,0,0,0,.66-.8V25a1.88,1.88,0,0,1,1.88-1.88h5.66a1.8,1.8,0,0,1,1.32.55,1.85,1.85,0,0,1,.56,1.33Z"/><path class="cls-19" d="M99.14,55.2a1,1,0,0,0,.82,1,11.93,11.93,0,0,1,2.88,1,10.76,10.76,0,0,1,2.66,1.92,7.88,7.88,0,0,1,1.64,2.25,6.39,6.39,0,0,1,.64,2.22.94.94,0,0,1-.32.83,1.2,1.2,0,0,1-.84.33h-3a1.82,1.82,0,0,1-1.09-.28,2.79,2.79,0,0,1-.67-.76A5.76,5.76,0,0,0,99.9,61.9,7.77,7.77,0,0,0,96,61.11a9.15,9.15,0,0,0-2.13.24,5.82,5.82,0,0,0-1.76.68,3.62,3.62,0,0,0-1.19,1.1,2.63,2.63,0,0,0-.43,1.46A2.55,2.55,0,0,0,91,66.2a3.61,3.61,0,0,0,1.52,1.08,17,17,0,0,0,2.71.84c1.1.25,2.44.56,4,.9a24.84,24.84,0,0,1,4.36,1.31,9.82,9.82,0,0,1,2.93,1.81,6.18,6.18,0,0,1,1.63,2.42,9.28,9.28,0,0,1,.49,3.14,7.67,7.67,0,0,1-.64,3.14,8.2,8.2,0,0,1-1.87,2.62,10.29,10.29,0,0,1-3,1.94,14.32,14.32,0,0,1-3.13.93,1,1,0,0,0-.87,1v2A1.16,1.16,0,0,1,98,90.55H94.5a1.13,1.13,0,0,1-.82-.34,1.11,1.11,0,0,1-.34-.82V87.33a1,1,0,0,0-.84-1,14.84,14.84,0,0,1-2.79-.86,12,12,0,0,1-3-1.74,8.59,8.59,0,0,1-2-2.39,6.57,6.57,0,0,1-.86-3,1,1,0,0,1,.32-.84,1.23,1.23,0,0,1,.84-.32h3a2,2,0,0,1,1.12.25,1.94,1.94,0,0,1,.64.78,9.68,9.68,0,0,0,.73,1.12,4,4,0,0,0,1.16,1,6.78,6.78,0,0,0,1.83.71,11.07,11.07,0,0,0,2.73.28,15.51,15.51,0,0,0,2.49-.19,7,7,0,0,0,2.11-.65,4.51,4.51,0,0,0,1.46-1.11,2.52,2.52,0,0,0,.56-1.66,2.12,2.12,0,0,0-.6-1.55,4.87,4.87,0,0,0-1.83-1,25.63,25.63,0,0,0-3-.81q-1.8-.39-4.17-1a22.13,22.13,0,0,1-3.76-1.23,8.77,8.77,0,0,1-2.66-1.74,6.41,6.41,0,0,1-1.57-2.43,9.47,9.47,0,0,1-.52-3.33,7.34,7.34,0,0,1,.65-3.09,8.43,8.43,0,0,1,1.78-2.56,9.62,9.62,0,0,1,2.73-1.89,13.92,13.92,0,0,1,2.66-.93,1,1,0,0,0,.82-1V53a1.11,1.11,0,0,1,.34-.82,1.13,1.13,0,0,1,.82-.34H98A1.16,1.16,0,0,1,99.14,53Z"/><path class="cls-19" d="M317.45,103.09a9.92,9.92,0,0,1,3,1,8.77,8.77,0,0,1,2.16,1.54,6.51,6.51,0,0,1,1.32,1.83,5.34,5.34,0,0,1,.52,1.79.78.78,0,0,1-.26.68,1,1,0,0,1-.68.26h-2.43a1.46,1.46,0,0,1-.89-.23,2.16,2.16,0,0,1-.54-.61,4.51,4.51,0,0,0-1.58-1.51,6.18,6.18,0,0,0-3.15-.64,7.43,7.43,0,0,0-1.72.19,4.79,4.79,0,0,0-1.42.56,2.82,2.82,0,0,0-1,.88,2.28,2.28,0,0,0,0,2.49,3,3,0,0,0,1.23.87,14.08,14.08,0,0,0,2.19.68l3.25.73a19.7,19.7,0,0,1,3.53,1.06,7.85,7.85,0,0,1,2.36,1.46,4.86,4.86,0,0,1,1.33,2,7.65,7.65,0,0,1,.4,2.54,6.21,6.21,0,0,1-.53,2.54,6.45,6.45,0,0,1-1.51,2.12,8.49,8.49,0,0,1-2.41,1.56,11.92,11.92,0,0,1-3.24.87v2.37a.94.94,0,0,1-.94.93H313.7a.94.94,0,0,1-.94-.93V127.7a12.28,12.28,0,0,1-2.94-.82,9.65,9.65,0,0,1-2.4-1.4,7,7,0,0,1-1.65-1.93,5.4,5.4,0,0,1-.7-2.42.78.78,0,0,1,.27-.68,1,1,0,0,1,.67-.26h2.44a1.62,1.62,0,0,1,.9.21,1.58,1.58,0,0,1,.52.63,7.7,7.7,0,0,0,.59.9,3.4,3.4,0,0,0,.94.8,5.86,5.86,0,0,0,1.48.57,9.14,9.14,0,0,0,2.21.23,12,12,0,0,0,2-.16,5.92,5.92,0,0,0,1.71-.52A3.52,3.52,0,0,0,320,122a2,2,0,0,0,.45-1.34,1.7,1.7,0,0,0-.48-1.25,3.87,3.87,0,0,0-1.48-.84,21.33,21.33,0,0,0-2.45-.66c-1-.21-2.1-.47-3.38-.8a18.4,18.4,0,0,1-3-1,6.92,6.92,0,0,1-2.15-1.41,5.23,5.23,0,0,1-1.27-2,7.73,7.73,0,0,1-.42-2.7,6,6,0,0,1,.52-2.5,7.28,7.28,0,0,1,1.44-2.07,8.05,8.05,0,0,1,2.21-1.53,11.33,11.33,0,0,1,2.82-.88v-2.37a1,1,0,0,1,.94-.94h2.81a1,1,0,0,1,.94.94Z"/></g></g></g></svg>