<svg id="Слой_1" data-name="Слой 1" xmlns="http://www.w3.org/2000/svg" viewBox="0 0 934.37 182.86"><defs><style>.cls-1{font-size:162.33px;font-family:Roboto-Regular, Roboto;}.cls-1,.cls-7{fill:#fff;}.cls-2{letter-spacing:-0.02em;}.cls-3{letter-spacing:0em;}.cls-4{letter-spacing:-0.04em;}.cls-5{letter-spacing:0em;}.cls-6{font-family:Roboto-Light, Roboto;}</style></defs><title>logo_white_svg</title><text class="cls-1" transform="translate(0 138.87)">S<tspan class="cls-2" x="96.31" y="0">T</tspan><tspan class="cls-3" x="190" y="0" xml:space="preserve">   </tspan><tspan class="cls-4" x="310.56" y="0">R</tspan><tspan class="cls-5" x="404.17" y="0">T</tspan><tspan class="cls-6" x="501.03" y="0">2</tspan><tspan x="591" y="0">TRIP</tspan></text><path class="cls-7" d="M459.29,476.36a.94.94,0,0,0,0-.16,1.94,1.94,0,0,0-.22-.43l0-.11a2.1,2.1,0,0,0-.47-.47l-.1-.07v0a0,0,0,0,1,0,0,.18.18,0,0,1-.07,0,2.22,2.22,0,0,0-.65-.24.68.68,0,0,0-.15,0,2.18,2.18,0,0,0-.57,0l-.24.05a2.54,2.54,0,0,0-.46.17,1.55,1.55,0,0,0-.22.12l-.15.08-103.4,76.6a2.17,2.17,0,0,0,1.18,3.91l40.76,2.1L414.94,587a.29.29,0,0,0,0,.08,1.82,1.82,0,0,0,.22.47,1.1,1.1,0,0,0,.14.21,2,2,0,0,0,.45.43s.06.07.09.08l0,0,.13.06a3.15,3.15,0,0,0,.45.17l.08,0h.1a3.86,3.86,0,0,0,.47,0h.19a2.28,2.28,0,0,0,.58-.17h0l0,0,.1,0a2.13,2.13,0,0,0,1.11-1.28l15.09-24.65L464,566.69a2.15,2.15,0,0,0,1.23-.18,2.22,2.22,0,0,0,.57-.39,2.15,2.15,0,0,0,.68-1.75l-7.09-87.61a1.85,1.85,0,0,0,0-.23s0-.07,0-.1a.19.19,0,0,0,0-.07Zm-17,23.14-31.16,56.64a1.48,1.48,0,0,0-.12.29l0,.09c0,.08,0,.14-.05.2a1.48,1.48,0,0,0,0,.19,2.34,2.34,0,0,0,0,.46.21.21,0,0,0,0,.08v0l2.74,20.11L398.3,555.76ZM418.44,580l-2.85-20.22,10.87,1.56,3.12.45L424,570.93Zm27.19-91.77-51,65.27-34.66-1.78ZM461.92,562l-39.49-5.67-6-.86,39.17-71.18Zm0,0" transform="translate(-173.63 -450.06)"/></svg>