<?xml version="1.0" encoding="utf-8"?>
<!-- Generator: Adobe Illustrator 22.1.0, SVG Export Plug-In . SVG Version: 6.00 Build 0)  -->
<svg version="1.1" xmlns="http://www.w3.org/2000/svg" xmlns:xlink="http://www.w3.org/1999/xlink" x="0px" y="0px"
	 viewBox="0 0 500 500" style="enable-background:new 0 0 500 500;" xml:space="preserve">
<style type="text/css">
	.st0{display:none;}
	.st1{display:inline;fill:#304269;}
	.st2{fill:#91BED4;}
	.st3{fill:#F26101;}
	.st4{fill:none;stroke:#91BED4;stroke-width:20;stroke-miterlimit:10;}
	.st5{fill:#D9E8F5;}
	.st6{fill:#FFFFFF;}
	.st7{fill:#304269;}
	.st8{display:inline;fill:#CAE4F5;}
	.st9{display:inline;fill:#B4D3E1;}
	.st10{display:inline;fill:#D9E8F5;}
	.st11{display:inline;fill:#FFFFFF;}
	.st12{display:inline;fill:#91BED4;}
	.st13{display:inline;fill:#F26101;}
	.st14{fill:none;stroke:#91BED4;stroke-width:6;stroke-miterlimit:10;}
	.st15{fill:none;stroke:#91BED4;stroke-width:3;stroke-miterlimit:10;}
	.st16{clip-path:url(#SVGID_2_);fill:#FFFFFF;}
</style>
<g id="Слой_5" class="st0">
	<rect x="-632" y="-628" class="st1" width="2271" height="1242"/>
</g>
<g id="route">
</g>
<g id="calendar__x28_копия_x29_">
	<g>
		<g>
			<path class="st4" d="M382.4,97c21.5,0,38.9,17.4,38.9,38.9v249.8c0,19.4-12.1,35.2-27,35.2H102.6c-14.9,0-27-15.8-27-35.2V135.9
				c0-21.5,17.4-38.9,38.9-38.9H382.4z"/>
		</g>
		<g>
			<g>
				<path class="st2" d="M248.4,221.1c-11.9,0-21.6,9.7-21.6,21.6c0,11.9,9.7,21.6,21.6,21.6s21.6-9.7,21.6-21.6
					C270,230.8,260.3,221.1,248.4,221.1z"/>
			</g>
		</g>
		<g>
			<g>
				<path class="st2" d="M196.1,221.1c-13.3-1.1-24.4,10-23.3,23.3c0.8,10.5,9.3,18.9,19.8,19.8c13.3,1.1,24.4-10,23.3-23.3
					C215.1,230.5,206.6,222,196.1,221.1z"/>
			</g>
		</g>
		<g>
			<g>
				<path class="st3" d="M142.1,221.1c-13.3-1.1-24.4,10-23.3,23.3c0.8,10.5,9.3,18.9,19.8,19.8c13.3,1.1,24.4-10,23.3-23.3
					C161.1,230.5,152.6,222,142.1,221.1z"/>
			</g>
		</g>
		<g>
			<g>
				<path class="st2" d="M302.4,221.1c-11.9,0-21.6,9.7-21.6,21.6c0,11.9,9.7,21.6,21.6,21.6c11.9,0,21.6-9.7,21.6-21.6
					C324,230.8,314.3,221.1,302.4,221.1z"/>
			</g>
		</g>
		<g>
			<g>
				<path class="st2" d="M356.4,221.1c-11.9,0-21.6,9.7-21.6,21.6c0,11.9,9.7,21.6,21.6,21.6c11.9,0,21.6-9.7,21.6-21.6
					C378,230.8,368.3,221.1,356.4,221.1z"/>
			</g>
		</g>
		<g>
			<g>
				<path class="st2" d="M386.1,114.7c-2.4-1.1-5-1.8-7.8-1.8c-3,0-5.9,0.8-8.4,2.1c-5.6,3-9.5,9-9.5,15.8c0,9.9,8,17.9,17.9,17.9
					s17.9-8,17.9-17.9C396.3,123.7,392.1,117.6,386.1,114.7z"/>
			</g>
		</g>
		<g>
			<g>
				<path class="st2" d="M126.9,114.6c-2.3-1.1-4.9-1.7-7.6-1.7c-3.1,0-6.1,0.8-8.6,2.2c-5.5,3.1-9.3,8.9-9.3,15.7
					c0,9.9,8,17.9,17.9,17.9s17.9-8,17.9-17.9C137.2,123.7,132.9,117.5,126.9,114.6z"/>
			</g>
		</g>
		<g>
			<g>
				<path class="st2" d="M248.4,275.1c-11.9,0-21.6,9.7-21.6,21.6s9.7,21.6,21.6,21.6s21.6-9.7,21.6-21.6S260.3,275.1,248.4,275.1z"
					/>
			</g>
		</g>
		<g>
			<g>
				<path class="st2" d="M194.4,275.1c-11.9,0-21.6,9.7-21.6,21.6s9.7,21.6,21.6,21.6c11.9,0,21.6-9.7,21.6-21.6
					S206.3,275.1,194.4,275.1z"/>
			</g>
		</g>
		<g>
			<g>
				<path class="st2" d="M140.4,275.1c-11.9,0-21.6,9.7-21.6,21.6s9.7,21.6,21.6,21.6s21.6-9.7,21.6-21.6S152.3,275.1,140.4,275.1z"
					/>
			</g>
		</g>
		<g>
			<g>
				<path class="st2" d="M356.4,275.1c-11.9,0-21.6,9.7-21.6,21.6s9.7,21.6,21.6,21.6c11.9,0,21.6-9.7,21.6-21.6
					S368.3,275.1,356.4,275.1z"/>
			</g>
		</g>
		<g>
			<g>
				<path class="st2" d="M302.4,275.1c-11.9,0-21.6,9.7-21.6,21.6s9.7,21.6,21.6,21.6c11.9,0,21.6-9.7,21.6-21.6
					S314.3,275.1,302.4,275.1z"/>
			</g>
		</g>
		<g>
			<g>
				<path class="st2" d="M194.4,329.1c-11.9,0-21.6,9.7-21.6,21.6s9.7,21.6,21.6,21.6c11.9,0,21.6-9.7,21.6-21.6
					S206.3,329.1,194.4,329.1z"/>
			</g>
		</g>
		<g>
			<g>
				<path class="st2" d="M140.4,329.1c-11.9,0-21.6,9.7-21.6,21.6s9.7,21.6,21.6,21.6s21.6-9.7,21.6-21.6S152.3,329.1,140.4,329.1z"
					/>
			</g>
		</g>
		<g>
			<g>
				<path class="st2" d="M302.4,329.1c-11.9,0-21.6,9.7-21.6,21.6s9.7,21.6,21.6,21.6c11.9,0,21.6-9.7,21.6-21.6
					S314.3,329.1,302.4,329.1z"/>
			</g>
		</g>
		<g>
			<g>
				<path class="st2" d="M248.4,329.1c-11.9,0-21.6,9.7-21.6,21.6s9.7,21.6,21.6,21.6s21.6-9.7,21.6-21.6S260.3,329.1,248.4,329.1z"
					/>
			</g>
		</g>
		<g>
			<g>
				<path class="st2" d="M356.4,329.1c-11.9,0-21.6,9.7-21.6,21.6s9.7,21.6,21.6,21.6c11.9,0,21.6-9.7,21.6-21.6
					S368.3,329.1,356.4,329.1z"/>
			</g>
		</g>
		<g>
			<path class="st3" d="M118.8,77.8c-4.5,0-8.1,3.6-8.1,8.1v37.8c0,4.5,3.6,8.1,8.1,8.1s8.1-3.6,8.1-8.1V85.9
				C126.9,81.4,123.2,77.8,118.8,77.8z"/>
		</g>
		<g>
			<path class="st3" d="M378,77.8c-4.5,0-8.1,3.6-8.1,8.1v37.8c0,4.5,3.6,8.1,8.1,8.1c4.5,0,8.1-3.6,8.1-8.1V85.9
				C386.1,81.4,382.5,77.8,378,77.8z"/>
		</g>
	</g>
	<line class="st4" x1="76" y1="172" x2="421" y2="172"/>
</g>
<g id="guide">
</g>
<g id="enjoy">
</g>
</svg>
