<?xml version="1.0" encoding="utf-8"?>
<!-- Generator: Adobe Illustrator 22.1.0, SVG Export Plug-In . SVG Version: 6.00 Build 0)  -->
<svg version="1.1" xmlns="http://www.w3.org/2000/svg" xmlns:xlink="http://www.w3.org/1999/xlink" x="0px" y="0px"
	 viewBox="0 0 500 500" style="enable-background:new 0 0 500 500;" xml:space="preserve">
<style type="text/css">
	.st0{display:none;}
	.st1{display:inline;fill:#304269;}
	.st2{fill:#91BED4;}
	.st3{fill:#F26101;}
	.st4{fill:none;stroke:#91BED4;stroke-width:20;stroke-miterlimit:10;}
	.st5{fill:#D9E8F5;}
	.st6{fill:#FFFFFF;}
	.st7{fill:#304269;}
	.st8{display:inline;fill:#CAE4F5;}
	.st9{display:inline;fill:#B4D3E1;}
	.st10{display:inline;fill:#D9E8F5;}
	.st11{display:inline;fill:#FFFFFF;}
	.st12{display:inline;fill:#91BED4;}
	.st13{display:inline;fill:#F26101;}
	.st14{fill:none;stroke:#91BED4;stroke-width:6;stroke-miterlimit:10;}
	.st15{fill:none;stroke:#91BED4;stroke-width:3;stroke-miterlimit:10;}
	.st16{clip-path:url(#SVGID_2_);fill:#FFFFFF;}
</style>
<g id="Слой_5" class="st0">
	<rect x="-1672" y="-628" class="st1" width="2271" height="1242"/>
</g>
<g id="route">
</g>
<g id="calendar__x28_копия_x29_">
</g>
<g id="guide">
</g>
<g id="enjoy">
	<g class="st0">
		<path class="st10" d="M7.1,332v69c0,5.4,3.2,10.3,8.1,12.5l31.6,14.1c2.7,1.2,5.6,1.8,8.5,1.8h418.1c10.7,0,19.3-8.6,19.3-19.3
			v-36.9c0-6.5-1.8-12.9-5.1-18.4l-2.3-3.7c-7.5-12.4-19.8-21.1-34-23.9l-65-12.9c-13.2-2.6-25.7-9.7-36.8-17.2l-47.1-31.8
			c-16.7-11.3-36.3-17.3-56.5-17.3h-86.5c-26.7,0-52.3,10.6-71.2,29.4l0,0c-13.8,13.8-31.4,23.3-50.5,27.3l-10.2,2.1
			C15.7,309.2,7.1,319.7,7.1,332L7.1,332z"/>
		<path class="st11" d="M67.7,327.7c0-4.3,2.4-8.2,6.2-10.1c11-5.7,21.1-13.1,30-22c14.9-14.9,34.7-23,55.8-23h86.5
			c15.8,0,31.2,4.7,44.2,13.5l47.1,31.8c3.1,2.1,6.3,4.1,9.6,5.9c4.3,2.4,7.1,6.9,7.1,11.8l0,0c0,1.9-1.6,3.5-3.5,3.5H79.1
			C72.8,339.1,67.7,334,67.7,327.7L67.7,327.7L67.7,327.7z"/>
		<path class="st11" d="M414.6,383.6c22.2,0,40.1,18,40.1,40.1c0,22.2-18,40.1-40.1,40.1c-22.2,0-40.1-18-40.1-40.1
			C374.5,401.5,392.4,383.6,414.6,383.6L414.6,383.6z"/>
		<path class="st11" d="M87.1,383.6c22.2,0,40.1,18,40.1,40.1c0,22.2-18,40.1-40.1,40.1c-22.2,0-40.1-18-40.1-40.1
			C47,401.5,65,383.6,87.1,383.6L87.1,383.6z"/>
		<path class="st8" d="M87.1,409.2c8,0,14.5,6.5,14.5,14.5s-6.5,14.5-14.5,14.5c-8,0-14.5-6.5-14.5-14.5S79.1,409.2,87.1,409.2
			L87.1,409.2z"/>
		<path class="st8" d="M414.6,409.2c8,0,14.5,6.5,14.5,14.5s-6.5,14.5-14.5,14.5c-8,0-14.5-6.5-14.5-14.5S406.6,409.2,414.6,409.2
			L414.6,409.2z"/>
		<path class="st12" d="M193.3,332v-52.3h52.9c14.4,0,28.3,4.3,40.3,12.3l47.1,31.8c3.3,2.2,6.7,4.3,10.1,6.2c0.9,0.5,1.6,1.2,2.2,2
			H193.3L193.3,332z M350.5,317.5c-3.1-1.7-6.1-3.6-9-5.5l-47.1-31.8c-14.3-9.7-31-14.8-48.2-14.8h-86.5c-23,0-44.6,8.9-60.8,25.1
			c-8.4,8.3-17.9,15.3-28.3,20.7c-6.2,3.2-10,9.5-10,16.4c0,10.2,8.3,18.5,18.5,18.5h29.5c3.9,0,7.1-3.2,7.1-7.1
			c0-3.9-3.2-7.1-7.1-7.1H79.1c-2.4,0-4.3-1.9-4.3-4.3c0-1.6,0.9-3.1,2.3-3.8c11.7-6.1,22.4-13.9,31.8-23.3
			c13.6-13.5,31.6-21,50.8-21H179V332h-23.7c-3.9,0-7.1,3.2-7.1,7.1c0,3.9,3.2,7.1,7.1,7.1h195.3c5.9,0,10.6-4.8,10.6-10.6
			C361.3,328.1,357.1,321.2,350.5,317.5L350.5,317.5z"/>
		<path class="st13" d="M210.9,357h-22c-3.9,0-7.1,3.2-7.1,7.1c0,3.9,3.2,7.1,7.1,7.1h22c3.9,0,7.1-3.2,7.1-7.1
			C218,360.2,214.8,357,210.9,357L210.9,357z"/>
		<path class="st12" d="M485.8,410.1c0,6.7-5.5,12.2-12.2,12.2h-11.7c-0.3-10.3-3.9-20.2-10.5-28.3c0-0.1-0.1-0.1-0.1-0.2
			c-0.4-0.5-0.8-1-1.3-1.5c-0.1-0.1-0.2-0.3-0.3-0.4c-0.5-0.5-0.9-1-1.4-1.5c-0.1-0.1-0.2-0.2-0.2-0.2c-6.1-6.1-13.7-10.4-21.9-12.4
			c-3.7-0.9-7.6-1.4-11.5-1.4c-3.2,0-6.3,0.3-9.3,0.9c-9.1,1.8-17.4,6.2-24.1,12.9c-0.1,0.1-0.2,0.2-0.2,0.2c-0.5,0.5-0.9,1-1.4,1.5
			c-0.1,0.1-0.2,0.2-0.3,0.4c-0.4,0.5-0.9,1-1.3,1.5c0,0-0.1,0.1-0.1,0.2c-6.6,8.1-10.2,17.9-10.5,28.3h-233
			c-0.3-10.3-3.9-20.2-10.5-28.3c0,0-0.1-0.1-0.1-0.1c-0.4-0.5-0.9-1-1.3-1.5c-0.1-0.1-0.2-0.2-0.2-0.3c-0.5-0.6-1.1-1.2-1.6-1.7
			c-2.3-2.3-4.8-4.3-7.4-6c-7.9-5.2-16.9-7.8-26-7.8c-12.1,0-24.2,4.6-33.4,13.8c-0.5,0.5-1,1.1-1.5,1.6c-0.1,0.2-0.3,0.3-0.4,0.5
			c-0.4,0.4-0.7,0.8-1,1.2c-0.1,0.2-0.3,0.4-0.4,0.5c-0.3,0.4-0.7,0.9-1,1.3c-0.1,0.1-0.2,0.3-0.3,0.4c-0.9,1.2-1.7,2.5-2.5,3.8
			c0,0,0,0.1-0.1,0.1c-0.4,0.6-0.7,1.3-1.1,1.9c0,0,0,0,0,0.1c-2.5,4.7-4.2,9.8-4.9,15.1L18.2,407c-2.4-1.1-3.9-3.4-3.9-6v-69
			c0-8.8,6.3-16.6,14.9-18.4l10.2-2.1c20.5-4.3,39.2-14.4,54.1-29.2c17.7-17.6,41.2-27.3,66.2-27.3h86.5c18.8,0,36.9,5.6,52.5,16.1
			l47.1,31.8c9.5,6.4,23.8,15.2,39.4,18.3l65,12.9c12.2,2.4,22.9,9.9,29.3,20.6l2.3,3.7l0,0c2.7,4.5,4.1,9.5,4.1,14.7L485.8,410.1
			L485.8,410.1L485.8,410.1z M438,447c-6.2,6.2-14.5,9.7-23.3,9.7c-8.8,0-17.1-3.4-23.3-9.7c-11.2-11.2-12.7-28.6-4.3-41.4
			c0-0.1,0.1-0.1,0.1-0.2c0.2-0.4,0.5-0.7,0.8-1.1c0.1-0.2,0.2-0.3,0.4-0.5c0.2-0.3,0.4-0.6,0.7-0.9c0.2-0.2,0.4-0.5,0.6-0.7
			c0.2-0.2,0.3-0.4,0.5-0.6c0.4-0.4,0.8-0.9,1.2-1.3c6.2-6.2,14.5-9.7,23.3-9.7s17.1,3.4,23.3,9.7c0.4,0.4,0.8,0.9,1.2,1.3
			c0.2,0.2,0.3,0.4,0.5,0.6c0.2,0.2,0.4,0.5,0.6,0.7c0.2,0.3,0.4,0.6,0.7,0.9c0.1,0.2,0.2,0.3,0.4,0.5c0.3,0.4,0.5,0.7,0.8,1.1
			c0,0.1,0.1,0.1,0.1,0.2C450.6,418.4,449.2,435.8,438,447L438,447z M110.5,447c-6.2,6.2-14.5,9.7-23.3,9.7S70,453.3,63.8,447
			c-10-10-12.2-24.9-6.7-37c0-0.1,0.1-0.2,0.1-0.3c0.2-0.4,0.3-0.7,0.5-1.1c0.1-0.2,0.2-0.3,0.3-0.5c0.2-0.3,0.3-0.6,0.5-0.9
			c0.1-0.2,0.2-0.4,0.4-0.6c0.2-0.3,0.3-0.5,0.5-0.8c0.2-0.2,0.3-0.5,0.5-0.7c0.2-0.2,0.3-0.5,0.5-0.7c0.2-0.3,0.4-0.5,0.6-0.8
			c0.2-0.2,0.3-0.4,0.5-0.6c0.2-0.3,0.5-0.6,0.7-0.9c0.1-0.2,0.3-0.3,0.4-0.5c0.4-0.4,0.7-0.8,1.1-1.2c0,0,0.1-0.1,0.1-0.1
			c0.1-0.1,0.2-0.1,0.2-0.2c0.3-0.3,0.7-0.6,1-0.9c0.1-0.1,0.2-0.2,0.3-0.2c0.3-0.3,0.7-0.6,1-0.9c0,0,0.1-0.1,0.1-0.1
			c12.1-9.8,29.5-9.8,41.5,0c0,0,0,0,0,0c0.4,0.3,0.7,0.6,1.1,0.9c0.1,0.1,0.1,0.1,0.2,0.2c0.4,0.4,0.8,0.8,1.2,1.2
			c0.4,0.4,0.8,0.9,1.2,1.3c0.2,0.2,0.3,0.4,0.5,0.6c0.2,0.2,0.4,0.5,0.6,0.7c0.2,0.3,0.4,0.6,0.7,0.9c0.1,0.2,0.2,0.3,0.4,0.5
			c0.3,0.4,0.5,0.7,0.8,1.1c0,0.1,0.1,0.1,0.1,0.2C123.1,418.4,121.7,435.8,110.5,447L110.5,447z M420.3,313.6l-8.7-1.7
			 M397.4,309.1l-9.5-1.9c-13-2.6-25.8-10.5-34.2-16.2l-47.1-31.8c-17.9-12.1-38.8-18.5-60.5-18.5h-86.5
			c-28.8,0-55.8,11.2-76.2,31.5c-12.9,12.9-29.1,21.6-47,25.3l-10.2,2.1C11,302.9,0,316.4,0,332v69c0,8.2,4.9,15.7,12.4,19
			l28.4,12.6c1.7,9,6,17.5,13,24.5c9.2,9.2,21.3,13.8,33.4,13.8c12.1,0,24.2-4.6,33.4-13.8c5.9-5.9,9.9-13,12-20.6h236.6
			c2.1,7.5,6.1,14.7,12,20.6c8.9,8.9,20.8,13.8,33.4,13.8c12.6,0,24.5-4.9,33.4-13.8c5.9-5.9,9.9-13,12-20.6h13.5
			c14.6,0,26.4-11.8,26.4-26.4v-36.9c0-7.8-2.1-15.4-6.1-22.1l0,0l-2.3-3.7c-8.5-14.1-22.6-24-38.7-27.2l-18.4-3.7"/>
		<path class="st13" d="M92.4,428.9c-1.4,1.4-3.2,2.2-5.2,2.2c-2,0-3.8-0.8-5.2-2.2c-1.4-1.4-2.2-3.2-2.2-5.2c0-2,0.8-3.8,2.2-5.2
			l0,0c1.4-1.4,3.2-2.2,5.2-2.2c2,0,3.8,0.8,5.2,2.2C95.2,421.3,95.2,426,92.4,428.9L92.4,428.9z M87.1,402.1
			c-5.8,0-11.2,2.3-15.3,6.3l0,0c-4.1,4.1-6.3,9.5-6.3,15.3c0,5.8,2.2,11.2,6.3,15.3c4.1,4.1,9.5,6.3,15.3,6.3
			c5.8,0,11.2-2.2,15.3-6.3c8.4-8.4,8.4-22.2,0-30.6C98.3,404.3,92.9,402.1,87.1,402.1L87.1,402.1z"/>
		<path class="st13" d="M419.8,428.9c-1.4,1.4-3.2,2.2-5.2,2.2c-2,0-3.8-0.8-5.2-2.2c-2.9-2.9-2.9-7.6,0-10.4
			c1.4-1.4,3.2-2.2,5.2-2.2c2,0,3.8,0.8,5.2,2.2c1.4,1.4,2.2,3.2,2.2,5.2C422,425.7,421.2,427.5,419.8,428.9L419.8,428.9z
			 M414.6,402.1c-5.8,0-11.2,2.2-15.3,6.3c-8.4,8.4-8.4,22.2,0,30.6c4.1,4.1,9.5,6.3,15.3,6.3c5.8,0,11.2-2.2,15.3-6.3
			c4.1-4.1,6.3-9.5,6.3-15.3s-2.2-11.2-6.3-15.3C425.8,404.3,420.4,402.1,414.6,402.1L414.6,402.1z"/>
	</g>
	<g>
		<g>
			<g>
				<g>
					<path class="st2" d="M45.1,287.7c-3.5,0.5-6,3.5-6,7v57c0,10.9,6.6,20.8,16.8,24.8l22.8,9.1c0.8,0.3,1.7,0.5,2.6,0.5h2.5
						c4.2,12.1,13.7,21.6,25.8,25.8c21.9,7.7,45.9-3.9,53.6-25.8h188c4.2,12.1,13.7,21.6,25.8,25.8c21.9,7.7,45.9-3.9,53.6-25.8
						h23.6c3.9,0,7-3.1,7-7v-41.8c0-11.5-6.2-22.1-16.1-27.8c-24.5-14-52.2-21.5-80.5-21.8l-24.1-13.2
						c-35.1-19.1-74.3-29.1-114.2-29.1c-36.1,0-75.6,7.2-106.4,21.1c-9.3,4.2-18.4,9-27.1,14.4L45.1,287.7L45.1,287.7z M363.4,377.7
						c-0.4-1.9-0.6-3.7-0.6-5.6c0-13.4,9.4-24.9,22.5-27.6c15.2-3.1,30.1,6.7,33.2,21.9c3.1,15.2-6.7,30.1-21.9,33.2
						C381.3,402.8,366.5,392.9,363.4,377.7L363.4,377.7z M236.1,301.7h126.7c26.4,0,52.4,6.9,75.4,20c5.6,3.2,9.1,9.2,9.1,15.6v34.8
						h-14.1c0-23.3-18.9-42.2-42.2-42.2c-23.3,0-42.2,18.9-42.2,42.2H236.1V301.7z M236.1,259.8c34.2,1.5,67.6,10.7,97.7,27.1
						l1.4,0.7h-99.1V259.8z M222,287.6h-74.5l-12.3-12.3c26.3-10.5,54.5-15.9,82.8-15.9h4V287.6z M95.9,377.7
						c-0.4-1.9-0.6-3.7-0.6-5.6c0-13.4,9.4-24.9,22.5-27.6c15.2-3.1,30.1,6.7,33.2,21.9c3.1,15.2-6.7,30.1-21.9,33.2
						C113.9,402.8,99,392.9,95.9,377.7L95.9,377.7z M53.1,300.7l43.2-6.2c1-0.1,1.9-0.5,2.7-1c7.2-4.5,14.7-8.6,22.3-12.2l18.3,18.3
						c1.3,1.3,3.1,2.1,5,2.1H222v70.4h-56.3c0-23.3-18.9-42.2-42.2-42.2c-1.5,0-2.9,0.1-4.3,0.2c-0.5,0-1,0.2-1.5,0.2
						c-0.9,0.1-1.8,0.2-2.6,0.4c-0.5,0.1-1.1,0.3-1.6,0.4c-0.8,0.2-1.6,0.4-2.4,0.6c-0.6,0.2-1.1,0.4-1.8,0.6
						c-0.7,0.3-1.5,0.5-2.1,0.8c-0.6,0.3-1.1,0.5-1.8,0.8c-0.6,0.3-1.4,0.6-1.9,0.9c-0.6,0.3-1.1,0.6-1.7,1
						c-0.6,0.4-1.2,0.7-1.8,1.1c-0.6,0.4-1.1,0.8-1.6,1.2c-0.5,0.4-1.1,0.8-1.6,1.2c-0.5,0.5-1.1,1-1.5,1.4c-0.5,0.4-1,0.8-1.4,1.3
						c-0.5,0.5-1,1.1-1.4,1.5c-0.4,0.4-0.9,0.9-1.3,1.4c-0.5,0.5-0.9,1.2-1.3,1.7c-0.4,0.5-0.8,1-1.2,1.6c-0.4,0.6-0.8,1.2-1.1,1.8
						c-0.3,0.6-0.7,1.1-1,1.7c-0.3,0.6-0.6,1.3-0.9,1.9c-0.3,0.6-0.6,1.2-0.9,1.8c-0.2,0.6-0.5,1.3-0.7,1.9
						c-0.2,0.6-0.5,1.3-0.7,1.9c-0.2,0.7-0.4,1.3-0.5,2c-0.2,0.7-0.4,1.4-0.5,2c-0.1,0.6-0.2,1.3-0.3,2c-0.1,0.7-0.2,1.4-0.3,2.1
						c-0.1,0.7-0.1,1.5-0.1,2.1c0,0.6-0.1,1.3-0.1,1.9l-20.2-8.1c-4.8-1.9-8-6.6-8-11.8v-28.9h21.1v-14.1H53.1V300.7z M53.1,308.7"
						/>
				</g>
				<g>
					<path class="st2" d="M278.3,308.7h-14.1c-3.9,0-7,3.2-7,7v0c0,3.9,3.2,7,7,7h14.1c3.9,0,7-3.2,7-7v0
						C285.4,311.9,282.2,308.7,278.3,308.7z"/>
				</g>
			</g>
		</g>
		<g>
			<g>
				<path class="st2" d="M422.4,180.1c0.6-1.7-0.1-3.5-1.8-4.2c-1.7-0.6-3.5,0.1-4.2,1.8c-2.5,6.2-8.6,10.4-15.2,10.4h-67.4
					c-0.8,0-1.6,0.3-2.2,0.9l-30.8,29.4v-27.1c0-0.9-0.4-1.7-1-2.3c-0.6-0.6-1.4-1-2.3-1h-15.3c-9,0-16.4-7.4-16.4-16.4V99.2
					c0-9,7.4-16.4,16.4-16.4h73c1.8,0,3.2-1.5,3.2-3.2c0-1.8-1.5-3.2-3.2-3.2h-73c-12.6,0-22.8,10.2-22.8,22.8v72.6
					c0,12.6,10.2,22.8,22.8,22.8h12.1V226c0,1.3,0.8,2.5,2,2.9c0.4,0.2,0.9,0.2,1.3,0.2c0.8,0,1.6-0.3,2.2-0.9l35.3-33.8h66.1
					C410.5,194.6,419,188.8,422.4,180.1L422.4,180.1z M422.4,180.1"/>
				<path class="st14" d="M422.4,180.1c0.6-1.7-0.1-3.5-1.8-4.2c-1.7-0.6-3.5,0.1-4.2,1.8c-2.5,6.2-8.6,10.4-15.2,10.4h-67.4
					c-0.8,0-1.6,0.3-2.2,0.9l-30.8,29.4v-27.1c0-0.9-0.4-1.7-1-2.3c-0.6-0.6-1.4-1-2.3-1h-15.3c-9,0-16.4-7.4-16.4-16.4V99.2
					c0-9,7.4-16.4,16.4-16.4h73c1.8,0,3.2-1.5,3.2-3.2c0-1.8-1.5-3.2-3.2-3.2h-73c-12.6,0-22.8,10.2-22.8,22.8v72.6
					c0,12.6,10.2,22.8,22.8,22.8h12.1V226c0,1.3,0.8,2.5,2,2.9c0.4,0.2,0.9,0.2,1.3,0.2c0.8,0,1.6-0.3,2.2-0.9l35.3-33.8h66.1
					C410.5,194.6,419,188.8,422.4,180.1L422.4,180.1z M422.4,180.1"/>
			</g>
			<g>
				<path class="st2" d="M448.1,111.9c1-6-1.5-12.1-6.3-15.6c-2.7-2-5.9-3-9.3-3h-23.5V76.5c0-7.5-2.2-12.9-6.5-16
					c-6.9-5-16.2-2.2-16.6-2.1c-1.3,0.4-2.2,1.7-2.2,3.1v19.4c0,15-17.4,20.1-18.1,20.3c-0.1,0-0.1,0.1-0.2,0.1
					c-1.1-1.6-2.9-2.7-5-2.7h-18c-3.3,0-6,2.7-6,6V157c0,3.3,2.7,6,6,6h18c1.7,0,3.2-0.7,4.3-1.8c2.9,2.9,6.9,4.7,11.3,4.7h47.5
					c10.8,0,17.6-5.6,18.9-15.5L448.1,111.9z M359.7,156.6h-17.2V105h17.2V156.6z M441.7,110.9l-6.1,38.6v0.1
					c-0.8,6.6-5,9.9-12.5,9.9h-47.5c-5.3,0-9.5-4.3-9.5-9.5v-42.4c0.3,0,0.6,0,1-0.1c0.9-0.2,22.9-6.6,22.9-26.5V64.1
					c2.3-0.3,6-0.4,8.7,1.6c2.6,1.9,3.9,5.5,3.9,10.8v20.1c0,1.8,1.5,3.2,3.2,3.2h26.8c2,0,3.9,0.6,5.5,1.8
					C440.8,103.6,442.3,107.3,441.7,110.9L441.7,110.9z M441.7,110.9"/>
				<path class="st15" d="M448.1,111.9c1-6-1.5-12.1-6.3-15.6c-2.7-2-5.9-3-9.3-3h-23.5V76.5c0-7.5-2.2-12.9-6.5-16
					c-6.9-5-16.2-2.2-16.6-2.1c-1.3,0.4-2.2,1.7-2.2,3.1v19.4c0,15-17.4,20.1-18.1,20.3c-0.1,0-0.1,0.1-0.2,0.1
					c-1.1-1.6-2.9-2.7-5-2.7h-18c-3.3,0-6,2.7-6,6V157c0,3.3,2.7,6,6,6h18c1.7,0,3.2-0.7,4.3-1.8c2.9,2.9,6.9,4.7,11.3,4.7h47.5
					c10.8,0,17.6-5.6,18.9-15.5L448.1,111.9z M359.7,156.6h-17.2V105h17.2V156.6z M441.7,110.9l-6.1,38.6v0.1
					c-0.8,6.6-5,9.9-12.5,9.9h-47.5c-5.3,0-9.5-4.3-9.5-9.5v-42.4c0.3,0,0.6,0,1-0.1c0.9-0.2,22.9-6.6,22.9-26.5V64.1
					c2.3-0.3,6-0.4,8.7,1.6c2.6,1.9,3.9,5.5,3.9,10.8v20.1c0,1.8,1.5,3.2,3.2,3.2h26.8c2,0,3.9,0.6,5.5,1.8
					C440.8,103.6,442.3,107.3,441.7,110.9L441.7,110.9z M441.7,110.9"/>
			</g>
			<path class="st3" d="M359,155h-15.7c-0.6,0-1-0.5-1-1.2v-46.7c0-0.6,0.5-1.2,1-1.2H359c0.6,0,1,0.5,1,1.2v46.7
				C360,154.5,359.5,155,359,155L359,155z M359,155"/>
		</g>
	</g>
</g>
</svg>
