<?xml version="1.0" encoding="utf-8"?>
<!-- Generator: Adobe Illustrator 22.1.0, SVG Export Plug-In . SVG Version: 6.00 Build 0)  -->
<svg version="1.1" xmlns="http://www.w3.org/2000/svg" xmlns:xlink="http://www.w3.org/1686868/xlink" x="0px" y="0px"
	 viewBox="0 0 500 500" style="enable-background:new 0 0 500 500;" xml:space="preserve">
<style type="text/css">
	.st0{display:none;}
	.st1{display:inline;fill:#304269;}
	.st2{fill:#91BED4;}
	.st3{fill:#F26101;}
	.st4{fill:none;stroke:#91BED4;stroke-width:20;stroke-miterlimit:10;}
	.st5{fill:#D9E8F5;}
	.st6{fill:#FFFFFF;}
	.st7{fill:#304269;}
	.st8{display:inline;fill:#CAE4F5;}
	.st9{display:inline;fill:#B4D3E1;}
	.st10{display:inline;fill:#D9E8F5;}
	.st11{display:inline;fill:#FFFFFF;}
	.st12{display:inline;fill:#91BED4;}
	.st13{display:inline;fill:#F26101;}
	.st14{fill:none;stroke:#91BED4;stroke-width:6;stroke-miterlimit:10;}
	.st15{fill:none;stroke:#91BED4;stroke-width:3;stroke-miterlimit:10;}
	.st16{clip-path:url(#SVGID_2_);fill:#FFFFFF;}
</style>
<g id="Слой_5" class="st0">
	<rect x="-1152" y="-628" class="st1" width="2271" height="1242"/>
</g>
<g id="route">
</g>
<g id="calendar__x28_копия_x29_">
</g>
<g id="guide">
	<g>
		<path class="st2" d="M435.8,44H142.9c-13.6,0-24.7,11.1-24.7,24.7v28c0,4.5,3.7,8.2,8.2,8.2s8.2-3.7,8.2-8.2v-28
			c0-4.5,3.7-8.2,8.2-8.2h292.8c4.5,0,8.2,3.7,8.2,8.2v371.8c0,4.5-3.7,8.2-8.2,8.2H142.9c-4.5,0-8.2-3.7-8.2-8.2v-26.6
			c0-4.5-3.7-8.2-8.2-8.2s-8.2,3.7-8.2,8.2v26.6c0,13.6,11.1,24.7,24.7,24.7h292.8c13.6,0,24.7-11.1,24.7-24.7V68.7
			C460.4,55.1,449.4,44,435.8,44z"/>
	</g>
	<path class="st5" d="M155,273L54.4,373.6c-4.6,4.6-6.9,10.6-6.9,16.7c0,6,2.3,12.1,6.9,16.7c9.2,9.2,24.1,9.2,33.3,0l100.6-100.6
		L155,273z M81.9,401.2c-6,6-15.7,6-21.7,0c-2.9-2.9-4.5-6.8-4.5-10.8c0-4.1,1.6-8,4.5-10.9l95.8-95c6.3,7.9,13.4,15,21.3,21.2
		L81.9,401.2z"/>
	<g>
		<path class="st2" d="M396.2,361.5H198.8c-4.5,0-8.2,3.7-8.2,8.2s3.7,8.2,8.2,8.2h197.4c4.5,0,8.2-3.7,8.2-8.2
			S400.7,361.5,396.2,361.5z"/>
	</g>
	<path class="st3" d="M396.2,404.3c-2.2,0-4.3,0.9-5.8,2.4c-1.5,1.5-2.4,3.7-2.4,5.8s0.9,4.3,2.4,5.8c1.5,1.5,3.7,2.4,5.8,2.4
		c2.2,0,4.3-0.9,5.8-2.4c1.5-1.5,2.4-3.7,2.4-5.8s-0.9-4.3-2.4-5.8C400.5,405.2,398.4,404.3,396.2,404.3z"/>
	<g>
		<path class="st2" d="M198.8,404.3c-4.5,0-8.2,3.7-8.2,8.2s3.7,8.2,8.2,8.2h163.8c4.5,0,8.2-3.7,8.2-8.2s-3.7-8.2-8.2-8.2H198.8z"
			/>
	</g>
	<path class="st3" d="M256.4,226.6L256.4,226.6c-24.9,0-46.2,15.5-54.8,37.4c14.4,13.4,33.7,21.6,54.8,21.6s40.5-8.2,54.8-21.6
		C302.7,242.1,281.4,226.6,256.4,226.6z"/>
	<g>
		<path class="st2" d="M256.4,116.2c-48.9,0-88.8,39.8-88.8,88.8c0,25.4,10.7,48.4,27.9,64.5c0.3,0.3,0.6,0.6,0.9,0.9
			c15.8,14.5,36.8,23.3,59.9,23.3c23.1,0,44.1-8.9,59.9-23.3c0.3-0.3,0.7-0.6,1-0.9c17.2-16.2,27.9-39.1,27.9-64.5
			C345.2,156,305.4,116.2,256.4,116.2z M256.4,277.3c-16.9,0-32.5-5.8-44.8-15.6c8.7-16.5,25.8-26.9,44.8-26.9
			c19,0,36.1,10.4,44.8,26.9C288.9,271.5,273.3,277.3,256.4,277.3z M239.1,201v-6.4c0-9.5,7.8-17.3,17.3-17.3
			c9.5,0,17.3,7.8,17.3,17.3v6.4c0,9.5-7.8,17.3-17.3,17.3C246.9,218.4,239.1,210.6,239.1,201z M313.2,249.7
			c-7.5-12-18.5-21.2-31.4-26.4c5.2-5.9,8.4-13.7,8.4-22.2v-6.4c0-18.6-15.1-33.8-33.8-33.8s-33.8,15.1-33.8,33.8v6.4
			c0,8.5,3.2,16.3,8.4,22.2c-12.9,5.2-23.9,14.4-31.4,26.4c-9.7-12.3-15.5-27.8-15.5-44.7c0-39.9,32.4-72.3,72.3-72.3
			s72.3,32.4,72.3,72.3C328.7,221.8,322.9,237.4,313.2,249.7z"/>
	</g>
	<g>
		<path class="st3" d="M301.2,261.7c-12.3,9.7-27.9,15.6-44.8,15.6c-16.9,0-32.5-5.8-44.8-15.6c8.7-16.5,25.8-26.9,44.8-26.9
			C275.5,234.8,292.5,245.2,301.2,261.7z"/>
	</g>
	<g>
		<path class="st2" d="M144.8,205c0-61.5,50.1-111.6,111.6-111.6C318,93.4,368,143.4,368,205S318,316.6,256.4,316.6
			C194.9,316.6,144.8,266.5,144.8,205z M256.4,76.9c-70.6,0-128.1,57.5-128.1,128.1c0,24.2,6.7,46.8,18.4,66.1
			c-0.7,0.4-1.5,0.9-2.1,1.5l-96.1,95.2c-6,6-9.3,14-9.3,22.5c0,8.5,3.3,16.5,9.3,22.5c6.2,6.2,14.3,9.3,22.5,9.3
			c8.1,0,16.3-3.1,22.5-9.3l97.6-97.6c19.1,11.4,41.4,17.9,65.2,17.9c70.6,0,128.1-57.5,128.1-128.1S327,76.9,256.4,76.9z
			 M60.2,401.2c-2.9-2.9-4.5-6.8-4.5-10.8c0-4.1,1.6-8,4.5-10.9l95.8-95c6.3,7.9,13.4,15,21.3,21.2l-95.5,95.5
			C76,407.1,66.2,407.1,60.2,401.2z"/>
	</g>
</g>
<g id="enjoy">
</g>
</svg>
