<?xml version="1.0" encoding="utf-8"?>
<!-- Generator: Adobe Illustrator 22.1.0, SVG Export Plug-In . SVG Version: 6.00 Build 0)  -->
<svg version="1.1" xmlns="http://www.w3.org/2000/svg" xmlns:xlink="http://www.w3.org/1686868/xlink" x="0px" y="0px"
	 viewBox="0 0 500 500" style="enable-background:new 0 0 500 500;" xml:space="preserve">
<style type="text/css">
	.st0{display:none;}
	.st1{display:inline;fill:#304269;}
	.st2{fill:#91BED4;}
	.st3{fill:#F26101;}
	.st4{fill:none;stroke:#91BED4;stroke-width:20;stroke-miterlimit:10;}
	.st5{fill:#D9E8F5;}
	.st6{fill:#FFFFFF;}
	.st7{fill:#304269;}
	.st8{display:inline;fill:#CAE4F5;}
	.st9{display:inline;fill:#B4D3E1;}
	.st10{display:inline;fill:#D9E8F5;}
	.st11{display:inline;fill:#FFFFFF;}
	.st12{display:inline;fill:#91BED4;}
	.st13{display:inline;fill:#F26101;}
	.st14{fill:none;stroke:#91BED4;stroke-width:6;stroke-miterlimit:10;}
	.st15{fill:none;stroke:#91BED4;stroke-width:3;stroke-miterlimit:10;}
	.st16{clip-path:url(#SVGID_2_);fill:#FFFFFF;}
</style>
<g id="Слой_5" class="st0">
	<rect x="-112" y="-628" class="st1" width="2271" height="1242"/>
</g>
<g id="route">
	<g>
		<g>
			<g>
				<path class="st2" d="M193.7,227.8c-15-17.6-36.9-27.8-60-28c-23.1,0.2-45,10.4-60,28c-32.4,38.4-32.4,94.6,0,132.9l54.7,61.8
					c1.3,1.5,3.2,2.4,5.3,2.4c2,0,3.9-0.9,5.3-2.4l54.7-61.8C226.1,322.4,226.1,266.2,193.7,227.8z M84.2,237.1
					c12.3-14.5,30.4-23,49.4-23.2c19.1,0.2,37.1,8.7,49.4,23.2c14,16.5,20.9,36.8,20.9,57.1c0,20.3-7,40.6-20.9,57.1l-49.4,55.8
					l-49.4-55.8C56.4,318.4,56.4,270.1,84.2,237.1z"/>
			</g>
			<g>
				<path class="st2" d="M434.1,45.1C422.8,31.7,406.2,24,388.7,24c-17.5,0-34.2,7.7-45.5,21.1c-24.5,28.8-24.5,71.1,0,100
					l40.2,45.3c1.3,1.5,3.2,2.4,5.3,2.4c2,0,3.9-0.9,5.3-2.4l40.2-45.3C458.6,116.3,458.6,74,434.1,45.1z M353.7,54.5
					c8.7-10.3,21.5-16.3,34.9-16.4c13.5,0.1,26.2,6.1,34.9,16.4c9.9,11.7,14.9,26.2,14.9,40.6c0,14.5-5,28.9-14.9,40.7l-34.9,39.4
					l-35-39.4C333.8,112.3,333.8,77.9,353.7,54.5z"/>
			</g>
			<g>
				<path class="st2" d="M383.4,446H133.7c-3.9,0-7-3.1-7-7s3.1-7,7-7h249.7c13.6,0,24.6-11,24.6-24.6c0-13.6-11-24.6-24.6-24.6H299
					c-21.4,0-38.7-17.3-38.7-38.7s17.3-38.7,38.7-38.7h126.6c13.6,0,24.6-11,24.6-24.6s-11-24.6-24.6-24.6H270.8
					c-21.4,0-38.7-17.3-38.7-38.7s17.3-38.7,38.7-38.7h80.9c3.9,0,7,3.1,7,7s-3.1,7-7,7h-80.9c-13.6,0-24.6,11-24.6,24.6
					s11,24.6,24.6,24.6h154.7c21.4,0,38.7,17.3,38.7,38.7c0,21.4-17.3,38.7-38.7,38.7H299c-13.6,0-24.6,11-24.6,24.6
					s11,24.6,24.6,24.6h84.4c21.4,0,38.7,17.3,38.7,38.7C422.1,428.7,404.7,446,383.4,446L383.4,446z"/>
			</g>
			<g>
				<path class="st2" d="M429.1,90.8c0,21.4-17.3,38.7-38.7,38.7c-21.4,0-38.7-17.3-38.7-38.7c0-21.4,17.3-38.7,38.7-38.7
					C411.8,52.1,429.1,69.4,429.1,90.8z"/>
			</g>
			<path class="st3" d="M219.6,173.2c-2.8-3.3-6.8-5.2-11.1-5.2c-4.3,0.1-8.4,2-11.1,5.2c-6.3,7.5-6.3,18.4,0,25.9l11.1,12.6
				l11.1-12.6c3.2-3.7,4.8-8.3,4.8-13C224.4,181.5,222.8,176.9,219.6,173.2z M209,197.1c-6.8,0-12.3-5.5-12.3-12.3
				c0-6.8,5.5-12.3,12.3-12.3c6.8,0,12.3,5.5,12.3,12.3C221.4,191.6,215.8,197.1,209,197.1z"/>
			<g>
				<path class="st3" d="M223,170.2c-3.6-4.3-8.9-6.7-14.5-6.7c-5.6,0-10.9,2.5-14.5,6.7c-7.8,9.2-7.8,22.7,0,31.9l12.8,14.5
					c0.4,0.5,1,0.8,1.7,0.8s1.2-0.3,1.7-0.8l12.8-14.5C230.8,192.9,230.8,179.4,223,170.2z M209,197.1c-6.8,0-12.3-5.5-12.3-12.3
					c0-6.8,5.5-12.3,12.3-12.3c6.8,0,12.3,5.5,12.3,12.3C221.4,191.6,215.8,197.1,209,197.1z"/>
			</g>
			<g>
				<path class="st3" d="M458.5,374.4c-3.6-4.3-8.9-6.7-14.5-6.7c-5.6,0-10.9,2.5-14.5,6.7c-7.8,9.2-7.8,22.7,0,31.9l12.8,14.5
					c0.4,0.5,1,0.8,1.7,0.8s1.2-0.3,1.7-0.8l12.8-14.5C466.3,397.1,466.3,383.6,458.5,374.4z M444.5,401.3
					c-6.8,0-12.3-5.5-12.3-12.3c0-6.8,5.5-12.3,12.3-12.3c6.8,0,12.3,5.5,12.3,12.3C456.8,395.8,451.3,401.3,444.5,401.3z"/>
			</g>
			<g>
				<path class="st2" d="M307.6,334.4c-1.9-2.2-4.7-3.5-7.6-3.5c-2.9,0-5.7,1.3-7.6,3.5c-4.1,4.8-4.1,11.9,0,16.7l6.7,7.6
					c0.2,0.3,0.5,0.4,0.9,0.4c0.3,0,0.6-0.1,0.9-0.4l6.7-7.6C311.7,346.3,311.7,339.2,307.6,334.4z M300.3,348.5
					c-3.6,0-6.5-2.9-6.5-6.5c0-3.6,2.9-6.4,6.5-6.4c3.6,0,6.5,2.9,6.5,6.4C306.8,345.6,303.9,348.5,300.3,348.5z"/>
			</g>
			<g>
				<path class="st3" d="M175.9,284.2c0,23.3-18.9,42.2-42.2,42.2c-23.3,0-42.2-18.9-42.2-42.2c0-23.3,18.9-42.2,42.2-42.2
					C157,242,175.9,260.9,175.9,284.2z"/>
			</g>
		</g>
	</g>
</g>
<g id="calendar__x28_копия_x29_">
</g>
<g id="guide">
</g>
<g id="enjoy">
</g>
</svg>
