<svg xmlns="http://www.w3.org/2000/svg" xmlns:xlink="http://www.w3.org/1999/xlink" viewBox="0 0 361.81 280.23"><defs><style>.cls-1{fill:none;}.cls-2{isolation:isolate;}.cls-3{fill:url(#Безымянный_градиент_73);}.cls-4{fill:url(#Безымянный_градиент_73-2);}.cls-5{opacity:0.05;}.cls-6{fill:url(#linear-gradient);}.cls-7{fill:url(#linear-gradient-9);}.cls-8{fill:url(#linear-gradient-14);}.cls-9{clip-path:url(#clip-path);}.cls-10{fill:url(#linear-gradient-19);}.cls-11{opacity:0.5;}.cls-11,.cls-12{mix-blend-mode:overlay;}.cls-12{opacity:0.3;}.cls-13{fill:url(#linear-gradient-20);}.cls-14,.cls-48{fill:#5474c0;}.cls-14{opacity:0.65;}.cls-14,.cls-20,.cls-26{mix-blend-mode:multiply;}.cls-15{fill:url(#linear-gradient-21);}.cls-16{fill:#9dbdf4;}.cls-17{clip-path:url(#clip-path-2);}.cls-18{fill:#d6e0f7;}.cls-19{fill:#0d1a38;}.cls-20{fill:#b5a6fe;}.cls-21{fill:#304269;}.cls-22{fill:#3c5582;}.cls-23{fill:#f2edff;}.cls-24,.cls-26{fill:#b5d8ff;}.cls-25{fill:#9ab8d9;}.cls-27{fill:url(#linear-gradient-22);}.cls-28{fill:#fff;}.cls-29{fill:#f77a4b;}.cls-30{fill:#efbfa5;}.cls-31{fill:#39517c;}.cls-32{fill:#1c4f69;}.cls-33{fill:#bac5f4;}.cls-34{fill:#e1e6fb;}.cls-35{fill:#162b47;}.cls-36{fill:#0c1530;}.cls-37{fill:#1a2342;}.cls-38{fill:#eda37a;}.cls-39{fill:#ff714d;}.cls-40{fill:#1d2848;}.cls-41{fill:#263762;}.cls-42{fill:#ed9d7a;}.cls-43{fill:#f2bd97;}.cls-44{fill:#0c1330;}.cls-45{fill:#f60;}.cls-46{fill:#f2b897;}.cls-47{fill:#071023;}.cls-49{fill:#967083;}</style><linearGradient id="Безымянный_градиент_73" x1="68.68" y1="40.93" x2="68.68" y2="-25.62" gradientUnits="userSpaceOnUse"><stop offset="0.07" stop-color="#fff"/><stop offset="0.73" stop-color="#e2e2e2"/><stop offset="1" stop-color="#cfcfcf"/></linearGradient><linearGradient id="Безымянный_градиент_73-2" x1="161.9" y1="51.88" x2="161.9" y2="16.45" xlink:href="#Безымянный_градиент_73"/><linearGradient id="linear-gradient" x1="272.07" y1="195.88" x2="272.07" y2="-97.06" gradientUnits="userSpaceOnUse"><stop offset="0" stop-color="#eaedfc"/><stop offset="0.84" stop-color="#aed1fc"/></linearGradient><linearGradient id="linear-gradient-9" x1="215.34" y1="195.88" x2="215.34" y2="-97.06" xlink:href="#linear-gradient"/><linearGradient id="linear-gradient-14" x1="328.8" y1="195.88" x2="328.8" y2="-97.06" xlink:href="#linear-gradient"/><clipPath id="clip-path"><path class="cls-1" d="M331.81,162.9c14,92.9-73.08,82.57-113.85,102.36C158.77,294,85.85,278.51,35,243.11c-55.37-38.57.05-57.77,7.77-110.24C47.23,102.81,33.39,51,76.81,67c97.5,36,146.27,9.74,167-14.77,19.55-23.11,73-1.45,67,32.91C301.45,138.78,324.45,114,331.81,162.9Z"/></clipPath><linearGradient id="linear-gradient-19" x1="93.72" y1="199.03" x2="134.72" y2="58.03" xlink:href="#linear-gradient"/><linearGradient id="linear-gradient-20" x1="220.06" y1="36.79" x2="230.56" y2="-3.21" gradientTransform="translate(0.09 53.23) rotate(-13.62)" xlink:href="#linear-gradient"/><linearGradient id="linear-gradient-21" x1="186.94" y1="173.36" x2="228.44" y2="4.36" xlink:href="#linear-gradient"/><clipPath id="clip-path-2"><path class="cls-1" d="M331.81,162.9C369.81,265.21,266,249.8,218,265.26,155.32,285.39,85.85,278.51,35,243.11c-55.37-38.57.05-57.77,7.77-110.24C47.23,102.81,33.39,51,76.81,67c97.5,36,146.27,9.74,167-14.77,19.55-23.11,73-1.45,67,32.91C301.45,138.78,314.59,116.55,331.81,162.9Z"/></clipPath><linearGradient id="linear-gradient-22" x1="112.81" y1="212.06" x2="137.24" y2="212.06" gradientUnits="userSpaceOnUse"><stop offset="0.02" stop-color="#fff"/><stop offset="1" stop-color="#dcd6e8"/></linearGradient></defs><title>illustration</title><g class="cls-2"><g id="User"><g id="_3" data-name="3"><path class="cls-3" d="M125.57,33.26H11.25l0-.58A19.14,19.14,0,0,1,45.66,22.51a16.6,16.6,0,0,1,20.8-3.68,17.71,17.71,0,0,1,35.17-.29,16.29,16.29,0,0,1,24.48,14.07v.61Z"/><path class="cls-4" d="M192.19,47.8H131.32l0-.31a10.19,10.19,0,0,1,18.29-5.42,8.87,8.87,0,0,1,11.08-2A9.43,9.43,0,0,1,179.44,40a8.68,8.68,0,0,1,13,7.49v.33Z"/><path class="cls-5" d="M331.81,162.9c14,92.9-73.08,82.57-113.85,102.36C158.77,294,85.85,278.51,35,243.11c-55.37-38.57.05-57.77,7.77-110.24C47.23,102.81,33.39,51,76.81,67c97.5,36,146.27,9.74,167-14.77,19.55-23.11,47.77-7.71,41.77,26.66C276.21,132.52,324.45,114,331.81,162.9Z"/><rect class="cls-6" x="182.67" y="110" width="178.81" height="63.72"/><rect class="cls-6" x="233.88" y="83.08" width="76.39" height="38.79"/><rect class="cls-6" x="238.56" y="75.49" width="67.02" height="13.31"/><ellipse class="cls-6" cx="272.07" cy="76.68" rx="33.51" ry="39.98"/><rect class="cls-6" x="264.55" y="28.39" width="15.04" height="13.19"/><rect class="cls-6" x="265.67" y="21.53" width="12.8" height="11.21"/><path class="cls-6" d="M272.07,12.79c0,1.39-3.82,8.74-3.82,8.74h7.65S272.07,14.18,272.07,12.79Z"/><path class="cls-6" d="M273.59,12.76A7.45,7.45,0,0,0,272.08,10a7,7,0,0,0-1.52,2.76c-.07,1,.52,1.35,1.51,1.35S273.65,13.78,273.59,12.76Z"/><rect class="cls-7" x="202.68" y="103.46" width="25.33" height="10.16"/><path class="cls-7" d="M225.6,101a10.26,10.26,0,0,0-20.51,0v6.86h2.55a10.24,10.24,0,0,0,15.42,0h2.55V101Z"/><rect class="cls-7" x="212.59" y="85.96" width="5.5" height="6.46"/><rect class="cls-7" x="213.16" y="84.49" width="4.35" height="2.09"/><path class="cls-7" d="M216.73,83.37c-.68-.62-1.39-1.28-1.39-1.87,0,.59-.7,1.25-1.38,1.87s-.53,1.12-.53,1.12h3.82S217.41,84,216.73,83.37Z"/><rect class="cls-8" x="316.14" y="103.46" width="25.33" height="10.16"/><path class="cls-8" d="M339.06,101a10.26,10.26,0,0,0-20.51,0v6.86h2.54a10.24,10.24,0,0,0,15.42,0h2.55V101Z"/><rect class="cls-8" x="326.06" y="85.96" width="5.5" height="6.46"/><rect class="cls-8" x="326.63" y="84.49" width="4.35" height="2.09"/><path class="cls-8" d="M330.19,83.37c-.68-.62-1.39-1.28-1.39-1.87,0,.59-.7,1.25-1.38,1.87s-.53,1.12-.53,1.12h3.83S330.87,84,330.19,83.37Z"/><g class="cls-9"><path class="cls-10" d="M-15.19,173.72V7L151.74,5.26l14.67,39.9S200,77.27,200.93,77.86s25.48,6.22,25.48,6.22l14.52,38.52,23.41,9.19,1.48,41.93Z"/><path class="cls-11" d="M91.1,72.77a7,7,0,0,0-7,7v16h14v-16A7,7,0,0,0,91.1,72.77Z"/><rect class="cls-11" x="73.1" y="73.38" width="1.61" height="21.78"/><rect class="cls-11" x="75.71" y="73.38" width="1.61" height="21.78"/><rect class="cls-11" x="78.49" y="73.38" width="1.61" height="21.78"/><path class="cls-11" d="M119.22,72.77a7,7,0,0,0-7,7v16h14v-16A7,7,0,0,0,119.22,72.77Z"/><rect class="cls-11" x="101.21" y="73.38" width="1.61" height="21.78"/><rect class="cls-11" x="103.83" y="73.38" width="1.61" height="21.78"/><rect class="cls-11" x="106.6" y="73.38" width="1.61" height="21.78"/><rect class="cls-11" x="75.21" y="25.13" width="1.61" height="38.2"/><rect class="cls-11" x="77.82" y="25.13" width="1.61" height="38.2"/><rect class="cls-11" x="101.71" y="25.13" width="1.61" height="38.2"/><rect class="cls-11" x="104.33" y="25.13" width="1.61" height="38.2"/><rect class="cls-11" x="128.22" y="25.13" width="1.61" height="38.2"/><rect class="cls-11" x="130.83" y="25.13" width="1.61" height="38.2"/><rect class="cls-11" x="154.72" y="25.13" width="1.61" height="38.2"/><rect class="cls-11" x="157.33" y="25.13" width="1.61" height="38.2"/><path class="cls-11" d="M178.61,56.79,177,55.25v8.08h1.61Z"/><path class="cls-11" d="M181.22,59.27l-1.61-1.53v5.59h1.61Z"/><path class="cls-11" d="M147.33,72.77a7,7,0,0,0-7,7v16h14v-16A7,7,0,0,0,147.33,72.77Z"/><rect class="cls-11" x="129.33" y="73.38" width="1.61" height="21.78"/><rect class="cls-11" x="131.94" y="73.38" width="1.61" height="21.78"/><rect class="cls-11" x="134.72" y="73.38" width="1.61" height="21.78"/><path class="cls-11" d="M175.44,72.77a7,7,0,0,0-7,7v16h14v-16A7,7,0,0,0,175.44,72.77Z"/><rect class="cls-11" x="157.44" y="73.38" width="1.61" height="21.78"/><rect class="cls-11" x="160.05" y="73.38" width="1.61" height="21.78"/><rect class="cls-11" x="162.83" y="73.38" width="1.61" height="21.78"/><path class="cls-11" d="M210.56,80.37c-4.66-1.12-8.73-2.13-9.51-2.45l-.12-.06c-.15-.1-1.17-1-2.77-2.53a6.93,6.93,0,0,0-1.6,4.44v16h14Z"/><rect class="cls-11" x="185.55" y="73.38" width="1.61" height="21.78"/><rect class="cls-11" x="188.17" y="73.38" width="1.61" height="21.78"/><rect class="cls-11" x="190.94" y="73.38" width="1.61" height="21.78"/><path class="cls-11" d="M91.1,108a7,7,0,0,0-7,7v16h14V115A7,7,0,0,0,91.1,108Z"/><rect class="cls-11" x="73.1" y="108.64" width="1.61" height="21.78"/><rect class="cls-11" x="75.71" y="108.64" width="1.61" height="21.78"/><rect class="cls-11" x="78.49" y="108.64" width="1.61" height="21.78"/><path class="cls-11" d="M119.22,108a7,7,0,0,0-7,7v16h14V115A7,7,0,0,0,119.22,108Z"/><rect class="cls-11" x="101.21" y="108.64" width="1.61" height="21.78"/><rect class="cls-11" x="103.83" y="108.64" width="1.61" height="21.78"/><rect class="cls-11" x="106.6" y="108.64" width="1.61" height="21.78"/><path class="cls-11" d="M147.33,108a7,7,0,0,0-7,7v16h14V115A7,7,0,0,0,147.33,108Z"/><rect class="cls-11" x="129.33" y="108.64" width="1.61" height="21.78"/><rect class="cls-11" x="131.94" y="108.64" width="1.61" height="21.78"/><rect class="cls-11" x="134.72" y="108.64" width="1.61" height="21.78"/><path class="cls-11" d="M175.44,108a7,7,0,0,0-7,7v16h14V115A7,7,0,0,0,175.44,108Z"/><rect class="cls-11" x="157.44" y="108.64" width="1.61" height="21.78"/><rect class="cls-11" x="160.05" y="108.64" width="1.61" height="21.78"/><rect class="cls-11" x="162.83" y="108.64" width="1.61" height="21.78"/><path class="cls-11" d="M203.56,108a7,7,0,0,0-7,7v16h14V115A7,7,0,0,0,203.56,108Z"/><rect class="cls-11" x="185.55" y="108.64" width="1.61" height="21.78"/><rect class="cls-11" x="188.17" y="108.64" width="1.61" height="21.78"/><rect class="cls-11" x="190.94" y="108.64" width="1.61" height="21.78"/><path class="cls-11" d="M239.15,117.48c-.78-2.24-1.76-5-2.84-8.07A7,7,0,0,0,225.15,115v16h14Z"/><rect class="cls-11" x="214.15" y="108.64" width="1.61" height="21.78"/><rect class="cls-11" x="216.76" y="108.64" width="1.61" height="21.78"/><rect class="cls-11" x="219.54" y="108.64" width="1.61" height="21.78"/><path class="cls-11" d="M91.1,142.85a7,7,0,0,0-7,7v16h14v-16A7,7,0,0,0,91.1,142.85Z"/><rect class="cls-11" x="73.1" y="143.46" width="1.61" height="21.78"/><rect class="cls-11" x="75.71" y="143.46" width="1.61" height="21.78"/><rect class="cls-11" x="78.49" y="143.46" width="1.61" height="21.78"/><path class="cls-11" d="M62.91,72.77a7,7,0,0,0-7,7v16h14v-16A7,7,0,0,0,62.91,72.77Z"/><rect class="cls-11" x="44.91" y="73.38" width="1.61" height="21.78"/><rect class="cls-11" x="47.52" y="73.38" width="1.61" height="21.78"/><rect class="cls-11" x="50.3" y="73.38" width="1.61" height="21.78"/><rect class="cls-11" x="47.02" y="25.13" width="1.61" height="38.2"/><rect class="cls-11" x="49.63" y="25.13" width="1.61" height="38.2"/><path class="cls-11" d="M62.91,108a7,7,0,0,0-7,7v16h14V115A7,7,0,0,0,62.91,108Z"/><rect class="cls-11" x="44.91" y="108.64" width="1.61" height="21.78"/><rect class="cls-11" x="47.52" y="108.64" width="1.61" height="21.78"/><rect class="cls-11" x="50.3" y="108.64" width="1.61" height="21.78"/><path class="cls-11" d="M62.91,142.85a7,7,0,0,0-7,7v16h14v-16A7,7,0,0,0,62.91,142.85Z"/><rect class="cls-11" x="44.91" y="143.46" width="1.61" height="21.78"/><rect class="cls-11" x="47.52" y="143.46" width="1.61" height="21.78"/><rect class="cls-11" x="50.3" y="143.46" width="1.61" height="21.78"/><path class="cls-11" d="M34.72,72.77a7,7,0,0,0-7,7v16h14v-16A7,7,0,0,0,34.72,72.77Z"/><rect class="cls-11" x="16.72" y="73.38" width="1.61" height="21.78"/><rect class="cls-11" x="19.33" y="73.38" width="1.61" height="21.78"/><rect class="cls-11" x="22.1" y="73.38" width="1.61" height="21.78"/><rect class="cls-11" x="18.83" y="25.13" width="1.61" height="38.2"/><rect class="cls-11" x="21.44" y="25.13" width="1.61" height="38.2"/><path class="cls-11" d="M34.72,108a7,7,0,0,0-7,7v16h14V115A7,7,0,0,0,34.72,108Z"/><rect class="cls-11" x="16.72" y="108.64" width="1.61" height="21.78"/><rect class="cls-11" x="19.33" y="108.64" width="1.61" height="21.78"/><rect class="cls-11" x="22.1" y="108.64" width="1.61" height="21.78"/><path class="cls-11" d="M34.72,142.85a7,7,0,0,0-7,7v16h14v-16A7,7,0,0,0,34.72,142.85Z"/><rect class="cls-11" x="16.72" y="143.46" width="1.61" height="21.78"/><rect class="cls-11" x="19.33" y="143.46" width="1.61" height="21.78"/><rect class="cls-11" x="22.1" y="143.46" width="1.61" height="21.78"/><path class="cls-11" d="M6.52,72.77a7,7,0,0,0-7,7v16h14v-16A7,7,0,0,0,6.52,72.77Z"/><path class="cls-11" d="M6.52,108a7,7,0,0,0-7,7v16h14V115A7,7,0,0,0,6.52,108Z"/><path class="cls-11" d="M6.52,142.85a7,7,0,0,0-7,7v16h14v-16A7,7,0,0,0,6.52,142.85Z"/><path class="cls-11" d="M119.22,142.85a7,7,0,0,0-7,7v16h14v-16A7,7,0,0,0,119.22,142.85Z"/><rect class="cls-11" x="101.21" y="143.46" width="1.61" height="21.78"/><rect class="cls-11" x="103.83" y="143.46" width="1.61" height="21.78"/><rect class="cls-11" x="106.6" y="143.46" width="1.61" height="21.78"/><path class="cls-11" d="M147.33,142.85a7,7,0,0,0-7,7v16h14v-16A7,7,0,0,0,147.33,142.85Z"/><rect class="cls-11" x="129.33" y="143.46" width="1.61" height="21.78"/><rect class="cls-11" x="131.94" y="143.46" width="1.61" height="21.78"/><rect class="cls-11" x="134.72" y="143.46" width="1.61" height="21.78"/><path class="cls-11" d="M175.44,142.85a7,7,0,0,0-7,7v16h14v-16A7,7,0,0,0,175.44,142.85Z"/><rect class="cls-11" x="157.44" y="143.46" width="1.61" height="21.78"/><rect class="cls-11" x="160.05" y="143.46" width="1.61" height="21.78"/><rect class="cls-11" x="162.83" y="143.46" width="1.61" height="21.78"/><path class="cls-11" d="M203.56,142.85a7,7,0,0,0-7,7v16h14v-16A7,7,0,0,0,203.56,142.85Z"/><rect class="cls-11" x="185.55" y="143.46" width="1.61" height="21.78"/><rect class="cls-11" x="188.17" y="143.46" width="1.61" height="21.78"/><rect class="cls-11" x="190.94" y="143.46" width="1.61" height="21.78"/><path class="cls-11" d="M232.15,142.85a7,7,0,0,0-7,7v16h14v-16A7,7,0,0,0,232.15,142.85Z"/><rect class="cls-11" x="214.15" y="143.46" width="1.61" height="21.78"/><rect class="cls-11" x="216.76" y="143.46" width="1.61" height="21.78"/><rect class="cls-11" x="219.54" y="143.46" width="1.61" height="21.78"/><g class="cls-11"><path d="M-15.19,104.59H234.59L232.92,100H-15.19Z"/><path d="M194.6,66.22H-15.19v4.59H197C196.3,69.41,195.48,67.86,194.6,66.22Z"/><polygon points="-15.19 139.56 264.61 139.56 264.45 134.96 -15.19 134.96 -15.19 139.56"/></g><path class="cls-12" d="M98.68,6.43-15.19,7V173.72h281C119.16,173.72,97.57,71.24,98.68,6.43Z"/></g><rect class="cls-13" x="202.43" y="6.52" width="40.81" height="39.4" transform="translate(12.45 -51.75) rotate(13.62)"/><rect class="cls-14" x="224.92" y="-9.95" width="3.47" height="40.81" transform="translate(163.11 228.27) rotate(-76.38)"/><path class="cls-15" d="M220.14,173.72,251.58,44a4.18,4.18,0,0,0-3.08-5L194.17,25.81a4.17,4.17,0,0,0-5,3.08L154,173.72Z"/><rect class="cls-14" x="214.25" y="22.35" width="3.47" height="64.26" transform="translate(112.16 251.55) rotate(-76.38)"/><path class="cls-14" d="M189.13,28.89l-.35,1.42,62.45,15.14.35-1.43a4.14,4.14,0,0,0,0-2.07L190.1,27.06A4.1,4.1,0,0,0,189.13,28.89Z"/><rect class="cls-14" x="209.3" y="42.77" width="3.47" height="64.26" transform="translate(88.54 262.35) rotate(-76.38)"/><rect class="cls-14" x="204.35" y="63.18" width="3.47" height="64.26" transform="translate(64.92 273.14) rotate(-76.38)"/><rect class="cls-14" x="199.4" y="83.59" width="3.47" height="64.26" transform="translate(41.3 283.94) rotate(-76.38)"/><rect class="cls-14" x="194.46" y="104" width="3.47" height="64.26" transform="translate(17.68 294.74) rotate(-76.38)"/><rect class="cls-14" x="189.51" y="124.41" width="3.47" height="64.26" transform="translate(-5.94 305.53) rotate(-76.38)"/><polygon class="cls-14" points="180.32 173.72 155.48 167.7 154.66 171.07 165.58 173.72 180.32 173.72"/><path class="cls-16" d="M197.45,31.14h0a3.51,3.51,0,0,0-4.22,2.57l-1.88,7.76,6.79,1.65L200,35.36A3.5,3.5,0,0,0,197.45,31.14Z"/><path class="cls-16" d="M208.54,33.83h0a3.49,3.49,0,0,0-4.22,2.57l-1.88,7.76,6.79,1.65,1.88-7.76A3.48,3.48,0,0,0,208.54,33.83Z"/><path class="cls-16" d="M219.63,36.51h0a3.5,3.5,0,0,0-4.22,2.58l-1.88,7.76,6.79,1.65,1.88-7.77A3.51,3.51,0,0,0,219.63,36.51Z"/><path class="cls-16" d="M230.71,39.2h0a3.51,3.51,0,0,0-4.22,2.57l-1.88,7.77,6.79,1.64,1.89-7.76A3.5,3.5,0,0,0,230.71,39.2Z"/><path class="cls-16" d="M213.78,12.22h0a3.48,3.48,0,0,0-4.22,2.57l-1.88,7.76,6.79,1.65,1.88-7.77A3.48,3.48,0,0,0,213.78,12.22Z"/><path class="cls-16" d="M224.86,14.9h0a3.49,3.49,0,0,0-4.21,2.57l-1.89,7.77,6.8,1.64,1.88-7.76A3.51,3.51,0,0,0,224.86,14.9Z"/><path class="cls-16" d="M236,17.59h0a3.5,3.5,0,0,0-4.22,2.57l-1.88,7.76,6.79,1.65,1.88-7.76A3.48,3.48,0,0,0,236,17.59Z"/><path class="cls-16" d="M241.8,41.89h0a3.49,3.49,0,0,0-4.22,2.57l-1.88,7.76,6.79,1.65,1.88-7.76A3.49,3.49,0,0,0,241.8,41.89Z"/><path class="cls-16" d="M192.54,51.39h0A3.49,3.49,0,0,0,188.33,54l-1.89,7.76,6.8,1.64,1.88-7.76A3.51,3.51,0,0,0,192.54,51.39Z"/><path class="cls-16" d="M203.63,54.08h0a3.51,3.51,0,0,0-4.22,2.57l-1.88,7.77,6.79,1.64,1.88-7.76A3.49,3.49,0,0,0,203.63,54.08Z"/><path class="cls-16" d="M214.72,56.77h0a3.49,3.49,0,0,0-4.22,2.57l-1.88,7.76,6.79,1.65L217.29,61A3.5,3.5,0,0,0,214.72,56.77Z"/><path class="cls-16" d="M225.8,59.46h0A3.49,3.49,0,0,0,221.58,62l-1.88,7.76,6.8,1.65,1.88-7.77A3.49,3.49,0,0,0,225.8,59.46Z"/><path class="cls-16" d="M236.89,62.14h0a3.51,3.51,0,0,0-4.22,2.57l-1.88,7.77,6.79,1.64,1.88-7.76A3.49,3.49,0,0,0,236.89,62.14Z"/><path class="cls-16" d="M187.64,71.65h0a3.48,3.48,0,0,0-4.22,2.57L181.54,82l6.79,1.65,1.88-7.76A3.5,3.5,0,0,0,187.64,71.65Z"/><path class="cls-16" d="M198.72,74.33h0a3.51,3.51,0,0,0-4.22,2.58l-1.88,7.76,6.79,1.65,1.88-7.77A3.49,3.49,0,0,0,198.72,74.33Z"/><path class="cls-16" d="M209.81,77h0a3.5,3.5,0,0,0-4.22,2.57l-1.88,7.77L210.5,89l1.88-7.76A3.49,3.49,0,0,0,209.81,77Z"/><path class="cls-16" d="M220.89,79.71h0a3.48,3.48,0,0,0-4.21,2.57L214.79,90l6.8,1.65,1.88-7.76A3.5,3.5,0,0,0,220.89,79.71Z"/><path class="cls-16" d="M232,82.4h0A3.49,3.49,0,0,0,227.76,85l-1.88,7.76,6.79,1.65,1.88-7.77A3.48,3.48,0,0,0,232,82.4Z"/><path class="cls-16" d="M182.73,91.9h0a3.5,3.5,0,0,0-4.22,2.57l-1.88,7.77,6.79,1.64,1.88-7.76A3.5,3.5,0,0,0,182.73,91.9Z"/><path class="cls-16" d="M193.81,94.59h0a3.5,3.5,0,0,0-4.22,2.57l-1.88,7.76,6.79,1.65,1.89-7.76A3.5,3.5,0,0,0,193.81,94.59Z"/><path class="cls-16" d="M204.9,97.28h0a3.49,3.49,0,0,0-4.22,2.57l-1.88,7.76,6.79,1.65,1.88-7.77A3.48,3.48,0,0,0,204.9,97.28Z"/><path class="cls-16" d="M216,100h0a3.5,3.5,0,0,0-4.22,2.58l-1.88,7.76,6.79,1.64,1.88-7.76A3.51,3.51,0,0,0,216,100Z"/><path class="cls-16" d="M227.07,102.65h0a3.5,3.5,0,0,0-4.22,2.57L221,113l6.79,1.65,1.89-7.76A3.5,3.5,0,0,0,227.07,102.65Z"/><path class="cls-16" d="M177.82,112.15h0a3.5,3.5,0,0,0-4.22,2.58l-1.88,7.76,6.79,1.65,1.88-7.77A3.51,3.51,0,0,0,177.82,112.15Z"/><path class="cls-16" d="M188.9,114.84h0a3.51,3.51,0,0,0-4.22,2.57l-1.88,7.77,6.8,1.64,1.88-7.76A3.51,3.51,0,0,0,188.9,114.84Z"/><path class="cls-16" d="M200,117.53h0a3.49,3.49,0,0,0-4.22,2.57l-1.88,7.76,6.79,1.65,1.88-7.76A3.48,3.48,0,0,0,200,117.53Z"/><path class="cls-16" d="M211.08,120.22h0a3.48,3.48,0,0,0-4.22,2.57L205,130.55l6.79,1.65,1.88-7.76A3.5,3.5,0,0,0,211.08,120.22Z"/><path class="cls-16" d="M222.16,122.9h0a3.51,3.51,0,0,0-4.22,2.58l-1.88,7.76,6.79,1.64,1.89-7.76A3.51,3.51,0,0,0,222.16,122.9Z"/><path class="cls-16" d="M172.91,132.41h0a3.49,3.49,0,0,0-4.22,2.57l-1.88,7.76,6.79,1.65,1.88-7.76A3.49,3.49,0,0,0,172.91,132.41Z"/><path class="cls-16" d="M184,135.1h0a3.48,3.48,0,0,0-4.21,2.57l-1.89,7.76,6.8,1.65,1.88-7.77A3.49,3.49,0,0,0,184,135.1Z"/><path class="cls-16" d="M195.08,137.78h0a3.51,3.51,0,0,0-4.22,2.58L189,148.12l6.79,1.64,1.88-7.76A3.49,3.49,0,0,0,195.08,137.78Z"/><path class="cls-16" d="M206.17,140.47h0A3.5,3.5,0,0,0,202,143l-1.88,7.76,6.79,1.65,1.88-7.76A3.49,3.49,0,0,0,206.17,140.47Z"/><path class="cls-16" d="M217.25,143.16h0a3.48,3.48,0,0,0-4.21,2.57l-1.89,7.76,6.8,1.65,1.88-7.76A3.5,3.5,0,0,0,217.25,143.16Z"/><path class="cls-16" d="M168,152.66h0a3.5,3.5,0,0,0-4.22,2.58L161.9,163l6.79,1.64,1.88-7.76A3.5,3.5,0,0,0,168,152.66Z"/><path class="cls-16" d="M179.09,155.35h0a3.49,3.49,0,0,0-4.22,2.57L173,165.68l6.79,1.65,1.88-7.76A3.5,3.5,0,0,0,179.09,155.35Z"/><path class="cls-16" d="M190.17,158h0a3.49,3.49,0,0,0-4.22,2.57l-1.88,7.76,6.79,1.65,1.89-7.76A3.5,3.5,0,0,0,190.17,158Z"/><path class="cls-16" d="M201.26,160.72h0A3.5,3.5,0,0,0,197,163.3l-1.88,7.76L202,172.7l1.88-7.76A3.5,3.5,0,0,0,201.26,160.72Z"/><path class="cls-16" d="M213.44,173.72l1.48-6.09a3.49,3.49,0,1,0-6.79-1.65l-1.88,7.74Z"/><path class="cls-16" d="M164.61,173.72a3.5,3.5,0,0,0-4.68,0Z"/><polygon class="cls-16" points="248.93 62.02 183.51 46.16 183.28 42.53 250.79 58.9 248.93 62.02"/><polygon class="cls-16" points="253.36 43.73 187.94 27.87 187.71 24.25 255.22 40.61 253.36 43.73"/><polygon class="cls-16" points="248.51 13.96 205.88 3.63 205.65 0 250.38 10.84 248.51 13.96"/><polygon class="cls-16" points="243.98 82.43 178.56 66.58 178.33 62.95 245.84 79.31 243.98 82.43"/><polygon class="cls-16" points="239.03 102.84 173.61 86.99 173.38 83.36 240.9 99.72 239.03 102.84"/><polygon class="cls-16" points="234.08 123.25 168.66 107.4 168.44 103.77 235.95 120.13 234.08 123.25"/><polygon class="cls-16" points="229.14 143.67 163.72 127.81 163.49 124.18 231 140.54 229.14 143.67"/><polygon class="cls-16" points="224.19 164.08 158.77 148.22 158.54 144.59 226.05 160.96 224.19 164.08"/><polygon class="cls-16" points="174.79 173.72 189.54 173.72 153.59 165.01 153.82 168.63 174.79 173.72"/><g id="car"><g class="cls-17"><g id="car-2" data-name="car"><ellipse class="cls-18" cx="72.16" cy="226.77" rx="121.31" ry="5.77"/><rect class="cls-19" x="-24.65" y="216.18" width="154.58" height="5.04"/><path class="cls-19" d="M100.52,219.32c.59-.06,49.65-1.22,49.65-1.22l3.58-8.67,1.09-11.11s-4.55-11.65-13.84-16.38-31.51-.91-31.51-.91l-3.28-2-11.48,8.92Z"/><path class="cls-20" d="M126.43,196.73c15.34,0,23.87,8.84,28.59,18.23-2.57-11.93-9.6-29.78-28.72-29.78-20.68,0-27.37,18.56-29.76,30C101.21,205.83,109.9,196.73,126.43,196.73Z"/><path class="cls-21" d="M147.89,218.1c1.87,0,28.22-.93,29.16-1.87S176.9,201,176,199.42s-2.18-1.87-2.41-2.26-.7-8.38-1.05-9-14.85-15.39-65.2-22.32C96.49,160,79.8,147.26,58.25,140A98.05,98.05,0,0,0,27,134.71c-36.94,0-64.68,10-91.8,27.89-1.56,3.74-7.49,11.66-8.73,14s-6.55,27.39-6.91,28.17a17.54,17.54,0,0,0-1.3,4.1c0,.78,1.14,1.25,1.14,1.25a2.72,2.72,0,0,0,1.14,3.79c2.5,1.35,19.83,4.1,23.78,4.16.57-2.45-1.25-26.65,22.13-26.65s21.32,27.89,21.32,27.89H102.48s-5.15-27.67,23-27.67S147.89,218.1,147.89,218.1Z"/><path class="cls-22" d="M-31.32,170.47c1.28,3.26,6.16,10.65,10.06,17.27C-16.21,194-12.91,200-9.24,204c19.91,1.63,90.55,6.53,109.86,7.78.44-4.95,1.26-11.75,6.85-15.86C84,191.79-26.32,171.7-31.32,170.47Z"/><path class="cls-23" d="M144.52,179.49c9.58-.93,28,8.63,28,8.63.35.66.81,8.65,1.05,9C162.77,193.72,144.89,181.07,144.52,179.49Z"/><path class="cls-24" d="M94.88,170.19s-43.55-6.13-67-6.63-50.09-.79-66.33-4.85c2.28-1.78,20.3-19.29,63.16-19.29,0,0,22.47-1.29,39.2,7S94.88,170.19,94.88,170.19Z"/><path class="cls-25" d="M24.7,148s22.47-1.29,39.2,7a105.4,105.4,0,0,1,20.27,13.72c6.5.83,10.71,1.42,10.71,1.42s-14.25-15.44-31-23.75-39.2-7-39.2-7c-42.86,0-60.88,17.51-63.16,19.29a96.59,96.59,0,0,0,9.51,1.82C-19.38,155-2.26,148,24.7,148Z"/><path class="cls-26" d="M-37.44,159c10.23,2.39,24.25,3.4,39,3.94A232.93,232.93,0,0,1-14,145.21c-12.7,4.28-20,9.79-23,12.3C-37.16,158-37.3,158.47-37.44,159Z"/><path class="cls-26" d="M34.72,139.55a91.67,91.67,0,0,0-10-.13H23.27c-.21,8,.35,16,.8,24.06l3.8.08c8.71.19,20.19,1.15,31.19,2.28C49.4,157.78,41,147.76,34.72,139.55Z"/><path class="cls-22" d="M28.09,139.34v1.82h0c6.34,0,22.45.68,35,6.91,11.22,5.58,21.43,14.55,26.7,19.6-12.4-1.65-43.46-5.54-61.89-5.93l-4.39-.09c-20.13-.41-42.74-.87-57.91-3.9a66.91,66.91,0,0,1,14.87-8.49c12.55-5.33,27.43-8,44.23-8h.1s1.24-.07,3.29-.07v-1.82Zm0,0c-2.14,0-3.39.08-3.39.08-42.86,0-60.88,17.51-63.16,19.29,16.24,4.06,42.86,4.36,66.33,4.85s67,6.63,67,6.63-14.25-15.44-31-23.75c-12.78-6.35-28.9-7.1-35.81-7.1Z"/><path class="cls-24" d="M91,162C80,152.78,65.3,145.77,61.71,143.9A9.07,9.07,0,0,1,58.24,140c21.27,7.14,37.82,19.61,48.65,25.54l.07.21h.31C106.88,167.07,98,166.34,91,162Z"/><path class="cls-22" d="M26.86,139.35c1.43,5.22,4.92,18,6.54,24.41-1.94-.09-3.79-.16-5.53-.2l-6.45-.13L19.64,139.5c1.65-.05,3.33-.08,5.06-.08C24.7,139.42,25.48,139.37,26.86,139.35Z"/><path class="cls-22" d="M70.29,213.63c-7.54,0-16.13-.06-24.74-.2-13.91-.22-46.58-1-49.43-3-2.47-1.74-9.66-11.33-15.48-19.89S-31.28,172-31.13,169.48c.27-4.85.34-5,3.73-8.39,3.1-3.1,6.66-7.41,6.66-13.29h.31c0,6-3.61,10.37-6.75,13.51-3.37,3.36-3.37,3.46-3.64,8.19S-8.47,206.84-3.7,210.21c1.93,1.36,20.34,2.44,49.26,2.91,22.84.36,46.39.21,48.92-.32,8.43-20.31.14-42.31,0-42.53l.29-.12c.09.23,8.45,22.39-.08,42.84l0,.07-.08,0C93.26,213.44,83.35,213.63,70.29,213.63Z"/><path class="cls-22" d="M27.89,212.86l-.31-.05c5.85-33.71-4.49-72.91-4.59-73.3l.3-.09C23.39,139.82,33.75,179.09,27.89,212.86Z"/><path class="cls-22" d="M107.3,165.8l-.92-.51c-2.54.3-9.4-.44-14.94-3.9-10-8.26-22.53-14.64-27.9-17.37l-1.49-.76a6.41,6.41,0,0,1-2-2.61l-2-.67.08.18c.8,1.63,1.79,3.65,3.2,4.39l1.51.77c5.34,2.71,17.84,9.05,27.67,17.22l.08.05a29.54,29.54,0,0,0,14.46,4.19,7.93,7.93,0,0,0,2.59-.32,1.64,1.64,0,0,0,.73-.51Z"/><path class="cls-22" d="M94.88,170.19s-4.07-.57-10.38-1.38a68,68,0,0,1,1.16-7.38A125.52,125.52,0,0,1,94.88,170.19Z"/><path class="cls-22" d="M86.2,168.94s-1.39.59-5.84.48a44.59,44.59,0,0,1-8.52-1.12s-1.83-9.43,4.28-10.4,10.08,4.18,10.08,4.18Z"/><ellipse class="cls-19" cx="125.02" cy="212.06" rx="18.17" ry="18.17" transform="translate(-87.46 336.36) rotate(-89.81)"/><path class="cls-27" d="M112.81,212.06A12.22,12.22,0,1,1,125,224.26,12.21,12.21,0,0,1,112.81,212.06Z"/><path class="cls-28" d="M.89,179.45A8.22,8.22,0,0,0-5.9,188a7.81,7.81,0,0,0,.7,2.87,51.51,51.51,0,0,0,7.11,10.53.46.46,0,0,0,.35.16.46.46,0,0,0,.34-.16,60.89,60.89,0,0,0,5-6.64l-2.69-2.68a5.17,5.17,0,0,1-3.58.62,5.09,5.09,0,0,1-4-3.86,5.13,5.13,0,0,1,5.66-6.26,5.12,5.12,0,0,1,3.74,7.69l2.22,2.22c.29-.54.57-1.08.81-1.62a7.9,7.9,0,0,0,.72-3.34A8.17,8.17,0,0,0,.89,179.45Z"/><path class="cls-29" d="M6.11,187.64a3.84,3.84,0,1,1-3.84-3.85A3.85,3.85,0,0,1,6.11,187.64Z"/><path class="cls-28" d="M-.72,187.64H.13a2.14,2.14,0,0,1,2.14-2.14v-.85A3,3,0,0,0-.72,187.64Z"/><path class="cls-28" d="M25.9,183.06a1.23,1.23,0,0,1,.37.93,1.19,1.19,0,0,1-.37.92,1.39,1.39,0,0,1-1,.34H21.44v11.61a1.26,1.26,0,0,1-.42,1,1.5,1.5,0,0,1-1,.38,1.45,1.45,0,0,1-1-.38,1.32,1.32,0,0,1-.4-1V185.25H15.09a1.4,1.4,0,0,1-1-.35,1.23,1.23,0,0,1-.37-.93,1.17,1.17,0,0,1,.38-.91,1.36,1.36,0,0,1,1-.35h9.83A1.36,1.36,0,0,1,25.9,183.06Z"/><path class="cls-28" d="M33.31,186.52a1.11,1.11,0,0,1,.45.88,1.35,1.35,0,0,1-.35,1,1.18,1.18,0,0,1-.84.35,2.3,2.3,0,0,1-.75-.16l-.3-.09a2.07,2.07,0,0,0-.5-.06,1.92,1.92,0,0,0-1.11.35,2.65,2.65,0,0,0-.88,1.07,4.12,4.12,0,0,0-.34,1.72v5.25a1.3,1.3,0,0,1-.38,1,1.28,1.28,0,0,1-.95.38,1.3,1.3,0,0,1-.95-.38,1.34,1.34,0,0,1-.38-1v-9.15a1.34,1.34,0,0,1,.38-1,1.27,1.27,0,0,1,.95-.39,1.25,1.25,0,0,1,.95.39,1.3,1.3,0,0,1,.38,1V188a3.3,3.3,0,0,1,1.46-1.38,4.5,4.5,0,0,1,2-.48A1.64,1.64,0,0,1,33.31,186.52Z"/><path class="cls-28" d="M35.35,184.68a1,1,0,0,1-.31-.87v-.42a1,1,0,0,1,.33-.86,1.85,1.85,0,0,1,1.07-.25,1.8,1.8,0,0,1,1.08.25,1,1,0,0,1,.31.86v.42a1,1,0,0,1-.32.88,2,2,0,0,1-1.1.23A1.78,1.78,0,0,1,35.35,184.68Zm2,13.15a1.39,1.39,0,0,1-1.91,0,1.34,1.34,0,0,1-.37-1v-9.15a1.33,1.33,0,0,1,.37-1,1.36,1.36,0,0,1,1.91,0,1.34,1.34,0,0,1,.38,1v9.15A1.34,1.34,0,0,1,37.39,197.83Z"/><path class="cls-28" d="M49.2,186.93a5.53,5.53,0,0,1,2,2.18,6.79,6.79,0,0,1,.72,3.17,6.94,6.94,0,0,1-.71,3.17,5.55,5.55,0,0,1-1.94,2.2,5,5,0,0,1-2.72.78,4.73,4.73,0,0,1-2-.43A5.33,5.33,0,0,1,43,197v4.34a1.34,1.34,0,0,1-.38,1,1.3,1.3,0,0,1-1,.38,1.27,1.27,0,0,1-.95-.37,1.3,1.3,0,0,1-.38-1V187.71a1.3,1.3,0,0,1,.38-1,1.25,1.25,0,0,1,.95-.39,1.27,1.27,0,0,1,1,.39,1.34,1.34,0,0,1,.38,1v.09a4.58,4.58,0,0,1,1.48-1.16,4.3,4.3,0,0,1,2-.5A5.05,5.05,0,0,1,49.2,186.93Zm-.78,8a4.33,4.33,0,0,0,0-5.3,3.13,3.13,0,0,0-4.68,0,4.31,4.31,0,0,0,0,5.3,3.08,3.08,0,0,0,4.67,0Z"/><path class="cls-28" d="M57.94,184.6a1.56,1.56,0,0,0-.31.94v1h2a1.21,1.21,0,0,1,.88.35,1.14,1.14,0,0,1,.36.87,1.18,1.18,0,0,1-.36.88,1.24,1.24,0,0,1-.88.34h-2v7.84a1.3,1.3,0,0,1-.38,1,1.28,1.28,0,0,1-1,.38,1.3,1.3,0,0,1-.95-.38,1.34,1.34,0,0,1-.38-1V189H53.78a1.26,1.26,0,0,1-.89-.34,1.17,1.17,0,0,1-.35-.88,1.13,1.13,0,0,1,.35-.87,1.23,1.23,0,0,1,.89-.35H55v-1a3.49,3.49,0,0,1,1.14-2.7,4.74,4.74,0,0,1,3.29-1,2.93,2.93,0,0,1,1.43.33,1.08,1.08,0,0,1,.61,1,1.2,1.2,0,0,1-.31.86,1,1,0,0,1-.75.34.91.91,0,0,1-.23,0l-.26,0a3.66,3.66,0,0,0-.89-.13A1.21,1.21,0,0,0,57.94,184.6Z"/><path class="cls-28" d="M72.17,192.87a1.35,1.35,0,0,1-.93.34H63.93a3.4,3.4,0,0,0,1.22,2,3.44,3.44,0,0,0,2.15.74,4.81,4.81,0,0,0,1.42-.17,4,4,0,0,0,.81-.35l.41-.26a1.69,1.69,0,0,1,.75-.2,1.08,1.08,0,0,1,.8.34,1.06,1.06,0,0,1,.33.77,1.41,1.41,0,0,1-.62,1.09,5.48,5.48,0,0,1-1.66.86,6.93,6.93,0,0,1-5.35-.42,5.37,5.37,0,0,1-2.14-2.14,6.26,6.26,0,0,1-.75-3.07,6.79,6.79,0,0,1,.79-3.34,5.69,5.69,0,0,1,2.11-2.21,5.42,5.42,0,0,1,2.79-.76,5.14,5.14,0,0,1,2.76.8,5.93,5.93,0,0,1,2.07,2.15,5.72,5.72,0,0,1,.77,2.92A1.1,1.1,0,0,1,72.17,192.87ZM64,191h5.81v-.15a2.29,2.29,0,0,0-.91-1.6,2.9,2.9,0,0,0-1.86-.66A2.75,2.75,0,0,0,64,191Z"/><path class="cls-28" d="M81.74,186.52a1.12,1.12,0,0,1,.46.88,1.36,1.36,0,0,1-.36,1,1.18,1.18,0,0,1-.84.35,2.3,2.3,0,0,1-.75-.16l-.3-.09a2,2,0,0,0-.5-.06,1.94,1.94,0,0,0-1.11.35,2.55,2.55,0,0,0-.87,1.07,4,4,0,0,0-.35,1.72v5.25a1.34,1.34,0,0,1-.37,1,1.32,1.32,0,0,1-1,.38,1.3,1.3,0,0,1-1-.38,1.34,1.34,0,0,1-.38-1v-9.15a1.34,1.34,0,0,1,.38-1,1.27,1.27,0,0,1,1-.39,1.29,1.29,0,0,1,1,.39,1.33,1.33,0,0,1,.37,1V188a3.3,3.3,0,0,1,1.46-1.38,4.5,4.5,0,0,1,2-.48A1.64,1.64,0,0,1,81.74,186.52Z"/></g></g></g><g id="guy"><path class="cls-30" d="M298.07,250.58s.31,4.48,0,4.57-3.66.59-3.6.09-.62-5-.62-5Z"/><path class="cls-30" d="M273.42,250.71s-.31,4.47,0,4.57,3.66.59,3.6.09.62-5,.62-5Z"/><path class="cls-21" d="M282.17,230.64c-.33,2.26-2.1,9.45-3.65,15.59-.34,2.07-.63,3.86-.88,5.32h-4.29l1.93-64.87s.44-.6,1.16-1.53H286.9c.38,5-3.35,29.42-3.68,32.72S282.77,226.46,282.17,230.64Z"/><path class="cls-31" d="M298.28,251.16c.24-6.9.59-18.93.28-21.89a40.57,40.57,0,0,0-2-9.2c-.15-3.13,1.66-31.66.51-34.22a3.07,3.07,0,0,0-1.36-1.38l-.12,0-10.18,1.43a33.27,33.27,0,0,1-3.22,1.39l11.42,64.51Z"/><path class="cls-32" d="M277.27,254.51a8.4,8.4,0,0,0-3.73-.16c-2,.35-4.64.81-4.83,1.16a1.52,1.52,0,0,0-.11.84s8.35-.09,8.69-.28S277.27,254.51,277.27,254.51Z"/><path class="cls-32" d="M294.22,254.51a8.35,8.35,0,0,1,3.72-.16c2,.35,2.3.81,2.49,1.16a1.48,1.48,0,0,1,.1.84s-6-.09-6.34-.28S294.22,254.51,294.22,254.51Z"/><path class="cls-33" d="M270.78,169.67l-.29-.08-.17-.06-.31-.11-.52-.21c-.34-.15-.61-.3-.91-.45a17.11,17.11,0,0,1-1.58-1l-.37-.26-.34-.28-.67-.56c-.42-.39-.83-.78-1.22-1.19a23,23,0,0,1-3.67-5.24l-.36-.68-.18-.35-.15-.35-.61-1.39c-.21-.47-.36-.94-.53-1.41l-.49-1.42c-.26-.95-.53-1.9-.78-2.85l-.59-2.86a3.36,3.36,0,0,1,2.59-3.86,3.14,3.14,0,0,1,3.79,2l.06.21.76,2.43c.29.79.59,1.57.89,2.34l.52,1.12c.17.37.33.76.53,1.1l.59,1,.14.26.17.25.32.49a16,16,0,0,0,2.91,3.41l.82.65.41.27.21.14.21.12a8.52,8.52,0,0,0,.8.4c.11,0,.25.1.34.12l.13,0h0l-.12,0a4,4,0,0,1,3,5.07A4.55,4.55,0,0,1,270.78,169.67Z"/><path class="cls-33" d="M278.62,147.77a133.13,133.13,0,0,0-8.35,12.79c-2.67,5.08,5.18,7.35,5.18,7.35s3.61-5.24,4.65-9.12.69-10.56.69-10.56Z"/><path class="cls-34" d="M274.05,192.63s1.43-12.63,1.8-19.18c.54-9.54.39-21.12,2.29-24.85,3.2-6.3,9.06-7,15.1-5.94s7,18.34,4.64,48.08C294.82,189.8,274.05,192.63,274.05,192.63Z"/><path class="cls-35" d="M257.57,139.47a.42.42,0,0,1-.39.55.7.7,0,0,1-.65-.52.41.41,0,0,1,.39-.55A.7.7,0,0,1,257.57,139.47Z"/><path class="cls-33" d="M296.54,143.47l3.89,2.35c.11.09.19.19.26.25l.51.5c.32.33.64.65.94,1,.6.67,1.21,1.36,1.76,2.07a33,33,0,0,1,2.88,4.47,28.68,28.68,0,0,1,1.92,4.84c.13.41.21.83.31,1.24s.17.85.24,1.24.16.91.22,1.23a5.59,5.59,0,0,1,.09.7c0,.23.05.51.06.68a29.78,29.78,0,0,1-.17,5.27,22.43,22.43,0,0,1-1,5,21.08,21.08,0,0,1-5.16,8.33,3.55,3.55,0,0,1-4.75.28c-1.44-1.14-1.23-2.59-.35-4,0,0,0,0,0,0a14.54,14.54,0,0,0,3.69-6.1,17.17,17.17,0,0,0,.48-3.78,21.34,21.34,0,0,0-.22-3.74c0-.12,0-.28-.07-.44s-.05-.27-.08-.5-.1-.66-.17-.95-.15-.61-.24-.92-.16-.65-.27-1a18.31,18.31,0,0,0-1.58-3.53,17.2,17.2,0,0,0-2.36-3.14c-.45-.48-.93-.91-1.4-1.36l-.73-.64c-.11-.11-.25-.22-.34-.3a1,1,0,0,1-.18-.15c-.06-.05-.09,0-.14-.11-1.48-1.88-1.73-3.91-.17-5.86S294.48,142.31,296.54,143.47Z"/><path class="cls-30" d="M297.53,186.34c-2.19,1.46-4.79.57-6.26-1.47s-1.75-3.78.91-4.27c3.84-.72.11-3.11,1.18-3.41,1.35-.38,4.66,1.6,5.6,2.81C300.66,182.18,299.71,184.88,297.53,186.34Z"/><path class="cls-21" d="M293.36,142.65a17.64,17.64,0,0,0-9.35.4c.17,3.21.76,5.44,4,5.44C291.77,148.49,293,146.29,293.36,142.65Z"/><path class="cls-30" d="M292.71,136.32a56.28,56.28,0,0,1-.07,6.11c-.31,3.14-1.36,5-4.56,5-5.56,0-2.47-9.16-4.35-12.47C286.12,135.13,292.71,136.32,292.71,136.32Z"/><path class="cls-21" d="M279.66,129a3.94,3.94,0,1,1,4.08,3.8A4,4,0,0,1,279.66,129Z"/><path class="cls-21" d="M281.64,121.22a3.94,3.94,0,1,1,4.07,3.8A3.94,3.94,0,0,1,281.64,121.22Z"/><path class="cls-21" d="M286,121.3a3.94,3.94,0,1,1,4.08,3.8A3.94,3.94,0,0,1,286,121.3Z"/><path class="cls-21" d="M289.34,125.25a3.94,3.94,0,1,1,4.07,3.8A3.93,3.93,0,0,1,289.34,125.25Z"/><path class="cls-21" d="M289.82,131.81a3.94,3.94,0,1,1,4.08,3.8A3.95,3.95,0,0,1,289.82,131.81Z"/><path class="cls-30" d="M291,134.84a2.29,2.29,0,0,1,2.21-2.35,2.25,2.25,0,0,1,2.33,2.19,2.29,2.29,0,0,1-2.21,2.35A2.25,2.25,0,0,1,291,134.84Z"/><path class="cls-30" d="M285.75,141l2.05-.07a5.84,5.84,0,0,0,5.62-6l-.12-4.4a6,6,0,0,0-6.19-5.83L281,125l.3,11.83A4.34,4.34,0,0,0,285.75,141Z"/><path class="cls-21" d="M278.81,124a3.94,3.94,0,1,1,4.07,3.8A3.93,3.93,0,0,1,278.81,124Z"/><path class="cls-21" d="M291.59,119.64a17.77,17.77,0,0,1-5.09-.09c1.51-.17,3.17-.38,4.81-.43l.78.51A1.69,1.69,0,0,0,291.59,119.64Z"/><path class="cls-21" d="M283.74,123a26.82,26.82,0,0,0,8,.5,2.12,2.12,0,0,0,1.56-3,4.9,4.9,0,0,1,1.49,1.7c1.18,2.92-.83,7.52-.83,7.52l-1.61-.27s.35-3.79-2-4a77.08,77.08,0,0,0-9.28.47l-.14,0s0-1.57,0-3.49C281.86,122.62,282.81,122.8,283.74,123Z"/><path class="cls-21" d="M293,134.6c-.34-.33-.62-1.34-.94-1.69.54-1.45.78-1.83.33-3.46,1.36-1.9.5-1.37,1-.82s0,3.84,0,3.84S293.09,133.77,293,134.6Z"/></g><ellipse class="cls-36" cx="258.44" cy="129.45" rx="4.8" ry="4.56"/><path class="cls-36" d="M257.45,127.48c0,1.87-3.71,5.59-5.58,5.59a3.38,3.38,0,0,1,0-6.76C253.74,126.31,257.45,125.61,257.45,127.48Z"/><path class="cls-36" d="M266.22,130.33a3.64,3.64,0,1,1-4.54-2.74A3.75,3.75,0,0,1,266.22,130.33Z"/><circle class="cls-37" cx="262.51" cy="142.23" r="4.44"/><path class="cls-36" d="M267.5,140.08c0,4.23-1.24,7.65-3.5,7.65s-4.11-3.43-4.11-7.66,1.84-7.65,4.11-7.65S267.5,135.85,267.5,140.08Z"/><path class="cls-36" d="M266.28,148a3.63,3.63,0,1,1-3.62-3.38A3.5,3.5,0,0,1,266.28,148Z"/><path class="cls-36" d="M268.23,149.59c0,2.7-1.81,4.88-4.05,4.88s-4.06-2.18-4.06-4.88,1.81-4.89,4.06-4.89S268.23,146.89,268.23,149.59Z"/><ellipse class="cls-36" cx="251.32" cy="143.83" rx="4.42" ry="4.12"/><path class="cls-36" d="M258.84,147.28a4.44,4.44,0,1,1-4.43-4.12A4.28,4.28,0,0,1,258.84,147.28Z"/><path class="cls-36" d="M253.45,136.66c-.93,3.38-3.43,5.65-5.6,5.06s-3.18-3.82-2.25-7.21,3.43-5.65,5.6-5.06S254.37,133.27,253.45,136.66Z"/><path class="cls-38" d="M252.06,149.75s-2.68.39-6.93,6.28-3.93,6.07-5.71,6.81-12.49.46-12.49.46l-.23,2.88s11.13,2,14.56.75,11.05-11.74,11.8-13.61S254.18,149.28,252.06,149.75Z"/><path class="cls-38" d="M229.14,164.9c-.09,1.06-1.63,1.8-3.46,1.66s-3.23-1.12-3.15-2.18,1.63-1.8,3.46-1.65S229.22,163.85,229.14,164.9Z"/><path class="cls-39" d="M244.49,155l5.07,3.56s6.25-6,3.68-9C250,148.26,244.49,155,244.49,155Z"/><rect class="cls-40" x="220.12" y="164.44" width="8.92" height="1.18" rx="0.31" ry="0.31" transform="translate(144.33 -101.86) rotate(36.95)"/><path class="cls-40" d="M221.31,163l-24-18a.11.11,0,0,1,0-.12l.35-.45s.07,0,.11,0l24,18a.08.08,0,0,1,0,.11l-.34.45A.07.07,0,0,1,221.31,163Z"/><g class="cls-2"><path class="cls-40" d="M193.08,138.22l1.23,0-1.21,0Z"/><path class="cls-40" d="M204.62,138.81l-10.29-.57-1.23,0,10.29.57a.56.56,0,0,1,.48.61l-.25,5.57a.54.54,0,0,1-.51.56l1.23,0a.54.54,0,0,0,.51-.56l.25-5.56A.56.56,0,0,0,204.62,138.81Z"/><path class="cls-41" d="M203.39,138.79a.56.56,0,0,1,.48.61l-.25,5.57a.54.54,0,0,1-.53.56L192.8,145a.57.57,0,0,1-.48-.62l.25-5.57a.55.55,0,0,1,.53-.56Z"/></g><path class="cls-42" d="M227.64,164.91a2.59,2.59,0,1,1-2.56-2.2A2.41,2.41,0,0,1,227.64,164.91Z"/><path class="cls-43" d="M259.47,141.32l1,6.26s-5.55,7.3-6.49,8.13a27.09,27.09,0,0,1,.39-7.73c.17-.82.11-8.77.11-8.77Z"/><path class="cls-43" d="M256.25,144.63h-2a4.29,4.29,0,0,1-4.29-4.31l0-10.13,11.27,0,0,9.48A4.93,4.93,0,0,1,256.25,144.63Z"/><path class="cls-44" d="M253.25,134.56a19.72,19.72,0,0,1-2.77-1.27,12.06,12.06,0,0,1-.83,2.43,4.8,4.8,0,0,1-1.29,1.17c-.68.39-1.06-.44-1.2-1a10.65,10.65,0,0,1,.34-4.52c.21-1,1.29-.91,1.6-1.84l14.14-.42s-2.47,8.93-2.53,8.81a7.2,7.2,0,0,0-3.56-2.78A33,33,0,0,1,253.25,134.56Z"/><path class="cls-43" d="M263,139.13a1.71,1.71,0,1,1-1.7-1.71A1.71,1.71,0,0,1,263,139.13Z"/><path class="cls-45" d="M260.59,139.78a.75.75,0,0,0,.85.66.76.76,0,0,0,.67-.85.77.77,0,0,0-.86-.67A.76.76,0,0,0,260.59,139.78Z"/><path class="cls-46" d="M263.22,249.8a4.92,4.92,0,0,1,0,2.16,21.33,21.33,0,0,1-1.54,3.19l3.3-1.25,1-1.25,0-2.85-2.41-.8Z"/><path class="cls-46" d="M249.16,249.74A6.48,6.48,0,0,1,249,252a20.59,20.59,0,0,1-1.53,3.19l3.3-1.25,1-1.25,0-2.85-2.42-.8Z"/><path class="cls-47" d="M245.72,255.83h6.2a.7.7,0,0,0,.7-.69v-.66c0-.34-.61-2.12-.8-1.83-1.11,1.68-3.41.78-3.41.78a9.63,9.63,0,0,0-3.65,1.23.68.68,0,0,0,.47,1.17Z"/><path class="cls-47" d="M260.05,256l6.18-.41a.7.7,0,0,0,.65-.74l-.05-.66c0-.34-.74-2.07-.91-1.77-1,1.75-3.35,1-3.35,1A9.63,9.63,0,0,0,259,254.9a.68.68,0,0,0,.54,1.15Z"/><path class="cls-21" d="M248.72,183l-1.17,12.24-1.47,19.67a51.26,51.26,0,0,0,.16,9.27l2.84,26h2.76s4.43-17.33,4.43-24.23-.46-5.74.13-8.2c1.56-6.43,7-39.83,7-39.83Z"/><path class="cls-31" d="M256.61,179.26l1,41.74,5.42,29.11h3.19s3.1-17.73,2.49-23.58-2.39-7.95-2.46-9.7,3.7-23,1.06-32.15c-1.45-5-1.39-7-1.39-7Z"/><path class="cls-45" d="M260.66,147.61c-.55,0-6,7.79-6.5,7.82-1,.06-.34-6.67.09-7.42-3.61,1.23-5.83,4.7-6,9.8,0,3.83,2.5,4.71,2.5,4.71s-1.8,15.32-2.68,22a53.79,53.79,0,0,0,9.38.78c3.31,0,10.74-1,10.74-1a113.82,113.82,0,0,1-2-11.28c-.22-3.31,1.22-11.47,1.22-14.64C267.39,156.09,269,147.61,260.66,147.61Z"/><path class="cls-30" d="M250.48,149.37c.64.46-.84.71-.79,1.26.12,1.45.19,1.39-.71,2.3-1.19,1.18-3.94.66-4-1a2.79,2.79,0,0,1,1.87-3A3.57,3.57,0,0,1,250.48,149.37Z"/><path class="cls-28" d="M254.13,155.22c1.34-1.46,5.34-6.5,6.25-7.65l.49.09c-.54.69-5.86,7.41-6.77,8.22a.25.25,0,0,1-.15.05h-.08a.24.24,0,0,1-.14-.18,31.56,31.56,0,0,1,.12-7.56,4.78,4.78,0,0,1,.48-.19A30.57,30.57,0,0,0,254.13,155.22Z"/><path class="cls-46" d="M265.17,153.18s-3.67-.37-4.71,6.7c-1.12,7.61-2,11.21-2.27,12.54-.57,2.46-10.86,8.59-10.86,8.59l.41,3.16s13.66-6.64,15.17-10.35c1.67-4.09,4-15.77,4.12-17.49C267.2,154.35,267,152.19,265.17,153.18Z"/><path class="cls-46" d="M249.42,181.4c.55.92-.29,2.42-1.87,3.36s-3.31,1-3.85,0,.29-2.42,1.87-3.36S248.88,180.48,249.42,181.4Z"/><path class="cls-45" d="M260.46,157.66l6.51,1.73s4-8.62-.87-10.32C261.22,146.92,260.46,157.66,260.46,157.66Z"/><ellipse class="cls-18" cx="37.37" cy="250.35" rx="37.37" ry="2.28"/><path class="cls-45" d="M47,197.26s3.8,19.5-5.27,38.94-19.26,13.69-19.26,13.69-11-4.11-1.91-23.56S47,197.26,47,197.26Z"/><path class="cls-28" d="M22.36,250.11a.16.16,0,0,0,.22-.08l22.35-47.95a.15.15,0,0,0-.08-.21.16.16,0,0,0-.21.08l-22.36,48A.15.15,0,0,0,22.36,250.11Z"/><path class="cls-28" d="M39.29,213.65a18.83,18.83,0,0,1-4-7.37l.27-.26a18.41,18.41,0,0,0,4,7.41Z"/><path class="cls-28" d="M43.47,204.69a21.46,21.46,0,0,1-2.41-3.38l.26-.2a21,21,0,0,0,2.39,3.36Z"/><path class="cls-28" d="M37.1,218.37c-.05-.06-4-4.38-4.67-9.28l.3-.3c.5,4.88,4.56,9.3,4.6,9.35Z"/><path class="cls-28" d="M27.62,238.7c-.07-.07-5.85-6.36-6.58-13.36.09-.19.18-.37.28-.56.46,7.1,6.46,13.62,6.53,13.7Z"/><path class="cls-28" d="M24.35,246l-.24.22c-.06-.07-5.16-5.61-6.39-12.08.06-.26.13-.51.2-.77C18.86,240,24.28,245.93,24.35,246Z"/><path class="cls-28" d="M33.44,226.33c-.06-.06-4.86-5.28-6-11.36l.27-.35c1,6.11,5.91,11.43,6,11.49Z"/><path class="cls-28" d="M47.77,209.05a20.13,20.13,0,0,1-6.68,1l0-.33a19.58,19.58,0,0,0,6.67-1C47.78,208.82,47.78,208.94,47.77,209.05Z"/><path class="cls-28" d="M38.4,215.81v-.33a20,20,0,0,0,9.13-1.88l0,.38A20.77,20.77,0,0,1,38.4,215.81Z"/><path class="cls-28" d="M30,233.79l0-.32c.1,0,8.44.38,14.17-3.44-.05.17-.11.33-.17.5C38.22,234.16,30.11,233.79,30,233.79Z"/><path class="cls-28" d="M25.31,243.58c.1,0,8.77.4,14.5-3.66-.12.22-.24.43-.37.64-5.82,3.72-14,3.35-14.14,3.34Z"/><path class="cls-28" d="M46.57,221c0,.14-.06.27-.08.4a27.25,27.25,0,0,1-11.82,2.32l0-.32C34.77,223.35,41.34,223.65,46.57,221Z"/><path class="cls-48" d="M16.6,181.05S2.81,200.34,3,226s14.14,24.43,14.14,24.43,14,1,13.75-24.64S16.6,181.05,16.6,181.05Z"/><path class="cls-28" d="M17.14,250.68a.19.19,0,0,1-.2-.19l-.48-63.17a.19.19,0,0,1,.19-.2.2.2,0,0,1,.2.2l.48,63.17A.19.19,0,0,1,17.14,250.68Z"/><path class="cls-28" d="M16.84,202.68a22.75,22.75,0,0,0,8.06-6l-.17-.41a21.92,21.92,0,0,1-8,6Z"/><path class="cls-28" d="M16.75,190.87a25,25,0,0,0,4.3-2.47l-.18-.35a24.11,24.11,0,0,1-4.27,2.46Z"/><path class="cls-28" d="M16.89,208.89c.08,0,6.55-2.76,9.67-7.76l-.17-.48c-3,5.07-9.57,7.85-9.65,7.88Z"/><path class="cls-28" d="M17.1,235.68c.11,0,9.5-4,13.77-11.24l0-.75c-4,7.48-13.78,11.59-13.89,11.63Z"/><path class="cls-28" d="M17,245.23l.15.36c.1-.05,8.39-3.54,12.94-10,.05-.3.11-.61.16-.93C25.94,241.47,17.13,245.18,17,245.23Z"/><path class="cls-28" d="M16.91,219.36c.09,0,7.89-3.33,12.15-9.37l-.12-.51C24.81,215.61,16.86,219,16.76,219Z"/><path class="cls-28" d="M9.91,193.48a23.86,23.86,0,0,0,6.78,4.38l.14-.36a23.52,23.52,0,0,1-6.75-4.4C10,193.22,10,193.35,9.91,193.48Z"/><path class="cls-28" d="M16.75,205.47l.14-.36c-.07,0-5.71-2.31-9-6.58,0,.14-.11.28-.16.43A24.75,24.75,0,0,0,16.75,205.47Z"/><path class="cls-28" d="M16.93,229.16l.14-.36C17,228.75,7.71,225,3.38,218l-.06.62C7.83,225.49,16.82,229.11,16.93,229.16Z"/><path class="cls-28" d="M17.17,242.12c-.11,0-9.72-3.91-13.93-11.17l.09.89c4.47,6.92,13.59,10.6,13.7,10.64Z"/><path class="cls-28" d="M5.32,207c0,.16-.08.32-.11.47,4.43,5.46,11.59,8.35,11.68,8.39l.14-.36C16.94,215.46,9.66,212.52,5.32,207Z"/><path class="cls-49" d="M66.32,250.68a6,6,0,0,0,2.56-5.75,5.7,5.7,0,0,0-4.31-4.39c-1.23-.26-2.51-.1-3.76-.25a3.53,3.53,0,0,1-3-1.93c-.57-1.52.59-3.28,0-4.8s-2.65-2-4.19-1.42-2.77,1.71-4.15,2.59a11.86,11.86,0,0,1-5.5,1.85,40.12,40.12,0,0,0-4.79.23,4.27,4.27,0,0,0-3.51,2.86c-.29,1.29.32,2.76-.33,3.92S33.09,245,32,245.82a3.53,3.53,0,0,0-.56,4.86Z"/><path class="cls-28" d="M46.6,250.64c.06-.14,5-13,9.89-18.41l.25.12c-4.68,5.16-9.53,17.47-9.87,18.33h-.14Z"/><path class="cls-28" d="M68.53,243.81c-4.94,3.14-12.33,3.66-16.72,3.66-2.17,0-3.61-.13-3.66-.13l0-.27c.14,0,13,1.15,20.23-3.5Z"/><path class="cls-28" d="M37.47,239.28c-.44-.27-.84-.55-1.21-.82a2,2,0,0,1,.19-.22,19.19,19.19,0,0,0,14.15,3.54l0,.26a20,20,0,0,1-2.83.2A19.33,19.33,0,0,1,37.47,239.28Z"/><path class="cls-28" d="M30.84,247.72c2.61.19,9.13,0,13.4-6l.21.15A14.84,14.84,0,0,1,32,248c-.48,0-.9,0-1.25-.05A2.38,2.38,0,0,1,30.84,247.72Z"/><path class="cls-28" d="M61.88,240.36a18.22,18.22,0,0,0-2,6.44l-.27,0a18.51,18.51,0,0,1,1.94-6.43Z"/><path class="cls-28" d="M52,232.93l.28-.17a11.76,11.76,0,0,0,1.11,4.12l-.24.12A11.93,11.93,0,0,1,52,232.93Z"/><path class="cls-28" d="M56.37,250.68H56a10.94,10.94,0,0,1-2.64-3.28l.24-.11A11,11,0,0,0,56.37,250.68Z"/><path class="cls-28" d="M58.54,239.4a11.79,11.79,0,0,1-4.86,1.17,5.68,5.68,0,0,1-2.19-.36l.11-.24s2.54,1.07,6.73-.77Z"/><path class="cls-28" d="M47.73,242.08a5.61,5.61,0,0,0-2.57-5.65l.38-.08A6.05,6.05,0,0,1,48,242.13Z"/><path class="cls-28" d="M41.92,244.42l.24-.12s2,4.16-.14,6.38h-.39C44,248.66,41.94,244.46,41.92,244.42Z"/></g></g></g></svg>