<svg xmlns="http://www.w3.org/2000/svg" xmlns:xlink="http://www.w3.org/1999/xlink" viewBox="0 0 327.78 238.35"><defs><style>.cls-1{fill:url(#linear-gradient);}.cls-2{fill:url(#linear-gradient-2);}.cls-3{fill:none;}.cls-4{clip-path:url(#clip-path);}.cls-5{mask:url(#mask);}.cls-6{fill:url(#linear-gradient-3);}.cls-7{opacity:0.05;}.cls-8{clip-path:url(#clip-path-2);}.cls-9{fill:#eaf0f9;}.cls-10{fill:#c6d9e7;}.cls-11{fill:#a8c5e3;}.cls-12{mask:url(#mask-2);}.cls-13{fill:url(#linear-gradient-4);}.cls-14{fill:#f60;}.cls-15,.cls-32{fill:#fff;}.cls-16{fill:#967083;}.cls-17{fill:#71a4f7;}.cls-18{fill:#e1e6fb;}.cls-19{fill:#f4cdaf;}.cls-20{fill:#304269;}.cls-21{fill:#39517c;}.cls-22{fill:#dedae8;}.cls-23,.cls-31,.cls-34{fill:#bac5f4;}.cls-24{fill:#3c4043;}.cls-25{fill:#f8f8ff;}.cls-26{fill:url(#Безымянный_градиент_11);}.cls-27{fill:url(#Безымянный_градиент_11-2);}.cls-28{fill:url(#Безымянный_градиент_11-3);}.cls-29{fill:url(#Безымянный_градиент_12);}.cls-30{fill:#f5f5fc;}.cls-31,.cls-32,.cls-33,.cls-34{isolation:isolate;}.cls-31,.cls-32,.cls-34{font-size:9.2px;font-family:ArialMT, Arial;}.cls-34{letter-spacing:-0.01em;}.cls-35,.cls-36{fill:#f7f7f7;stroke:#c7d3f9;stroke-miterlimit:10;}.cls-35{stroke-width:2px;}.cls-36{stroke-width:3px;}</style><linearGradient id="linear-gradient" x1="585.56" y1="158.56" x2="585.56" y2="-64.79" gradientUnits="userSpaceOnUse"><stop offset="0" stop-color="#fff"/><stop offset="1"/></linearGradient><linearGradient id="linear-gradient-2" x1="167.41" y1="159.27" x2="167.41" y2="-31.6" xlink:href="#linear-gradient"/><clipPath id="clip-path"><path class="cls-3" d="M428.23,172.18A138.55,138.55,0,0,0,445.37,189a218.11,218.11,0,0,0,82.7,43.12,218.66,218.66,0,0,0,147.86-13c9.67-4.52,16.69-14.56,20.45-24.56,2.1-5.55,1.85-12.4-2.17-16.77-4.21-4.58-12.18-6.44-13.1-12.6-1-6.68,7.1-10.45,13.22-13.29,33.76-15.68,65-107.55,27.29-116.22C682.12,26.64,725.53-4,705.9-45.68,690.6-78.18,434.2-16.4,426,30.63c-3,17-16.73,15.17-28.5,27.75-12.12,13-6.88,33.73-.9,50.44C405.79,134.66,412.73,153.91,428.23,172.18Z"/></clipPath><mask id="mask" x="312" y="-58.08" width="547.12" height="217.53" maskUnits="userSpaceOnUse"><rect class="cls-1" x="312" y="-58.08" width="547.12" height="217.53"/></mask><linearGradient id="linear-gradient-3" x1="585.56" y1="167.91" x2="585.56" y2="-58.32" gradientUnits="userSpaceOnUse"><stop offset="0" stop-color="#eaedfc"/><stop offset="0.84" stop-color="#aed1fc"/></linearGradient><clipPath id="clip-path-2"><path class="cls-3" d="M326.27,117.8c14,92.89-73.08,82.56-113.85,102.35C153.23,248.88,80.3,233.4,29.5,198-25.87,159.43,12.26,141.62,20,89.15,24.4,59.1,27.85,5.87,71.27,21.91c97.5,36,141-3.17,167-14.78C265.9-5.21,308.48-4,302.48,30.41,293.11,84,318.91,68.9,326.27,117.8Z"/></clipPath><mask id="mask-2" x="-66.38" y="-25.87" width="467.58" height="185.9" maskUnits="userSpaceOnUse"><rect class="cls-2" x="-66.38" y="-25.87" width="467.58" height="185.9"/></mask><linearGradient id="linear-gradient-4" x1="167.41" y1="167.26" x2="167.41" y2="-26.08" xlink:href="#linear-gradient-3"/><linearGradient id="Безымянный_градиент_11" x1="140.3" y1="58.68" x2="153.77" y2="58.68" gradientUnits="userSpaceOnUse"><stop offset="0" stop-color="#93df93"/><stop offset="1" stop-color="#21c2c1"/></linearGradient><linearGradient id="Безымянный_градиент_11-2" x1="110.4" y1="75.44" x2="123.87" y2="75.44" xlink:href="#Безымянный_градиент_11"/><linearGradient id="Безымянный_градиент_11-3" x1="80.83" y1="92.52" x2="94.3" y2="92.52" xlink:href="#Безымянный_градиент_11"/><linearGradient id="Безымянный_градиент_12" x1="140.63" y1="92.52" x2="154.1" y2="92.52" gradientUnits="userSpaceOnUse"><stop offset="0" stop-color="#f8c547"/><stop offset="1" stop-color="#f71d69"/></linearGradient></defs><title>illustration</title><g id="Driver"><g id="_4-2" data-name="4"><g class="cls-4"><g class="cls-5"><rect class="cls-6" x="312" y="-58.08" width="547.12" height="217.53"/></g></g></g><g id="_3-2" data-name="3"><path class="cls-7" d="M326.27,117.8c14,92.89-73.08,82.56-113.85,102.35C153.23,248.88,80.3,233.4,29.5,198-25.87,159.43,12.26,141.62,20,89.15,24.4,59.1,27.85,5.87,71.27,21.91c97.5,36,141-3.17,167-14.78C265.9-5.21,308.48-4,302.48,30.41,293.11,84,318.91,68.9,326.27,117.8Z"/><g class="cls-8"><rect class="cls-9" x="34.53" y="-5.69" width="84.96" height="165.16"/><rect class="cls-10" x="34.53" y="50.97" width="9.03" height="108.51"/><rect class="cls-10" x="42.3" y="95.68" width="10.08" height="63.79"/><rect class="cls-10" x="60.36" y="55.81" width="10.08" height="103.66"/><rect class="cls-10" x="86.18" y="68.06" width="16.59" height="91.42"/><rect class="cls-10" x="102.77" y="33.03" width="16.59" height="126.45"/><rect class="cls-10" x="69.18" y="20.78" width="19.32" height="138.69"/><rect class="cls-10" x="51.33" y="34.45" width="14.07" height="125.02"/><path class="cls-11" d="M119.36,160h-85c-.26,0-.47-.28-.47-.63V-5.83c0-.35.21-.63.47-.63h85c.26,0,.47.28.47.63V159.33C119.83,159.68,119.62,160,119.36,160ZM34.87,158.7h84V-5.2h-84Z"/><path class="cls-11" d="M76.88,160.25c-.26,0-.47-.28-.47-.63V-5.83c0-.35.21-.63.47-.63s.47.28.47.63V159.62C77.35,160,77.14,160.25,76.88,160.25Z"/><path class="cls-11" d="M55.64,160.25c-.26,0-.47-.28-.47-.63V-5.83c0-.35.21-.63.47-.63s.47.28.47.63V159.62C56.11,160,55.9,160.25,55.64,160.25Z"/><rect class="cls-11" x="34.4" y="26.56" width="85.22" height="1.26"/><rect class="cls-11" x="34.4" y="59.59" width="85.22" height="1.26"/><rect class="cls-11" x="34.4" y="92.61" width="85.22" height="1.26"/><rect class="cls-11" x="34.4" y="125.63" width="85.22" height="1.26"/><path class="cls-11" d="M98.12,160.25c-.26,0-.47-.28-.47-.63V-5.83c0-.35.21-.63.47-.63s.47.28.47.63V159.62C98.59,160,98.38,160.25,98.12,160.25Z"/><rect class="cls-9" x="215.32" y="-5.69" width="84.96" height="165.16"/><rect class="cls-10" x="215.32" y="50.97" width="9.23" height="108.51"/><rect class="cls-10" x="223.09" y="95.68" width="12.71" height="63.79"/><rect class="cls-10" x="235.47" y="55.81" width="23.11" height="103.66"/><rect class="cls-10" x="278.43" y="68.06" width="20.92" height="91.42"/><rect class="cls-10" x="256.99" y="20.78" width="24.36" height="138.69"/><path class="cls-11" d="M300.15,160h-85c-.26,0-.47-.28-.47-.63V-5.83c0-.35.21-.63.47-.63h85c.26,0,.47.28.47.63V159.33C300.62,159.68,300.41,160,300.15,160Zm-84.49-1.26h84V-5.2h-84Z"/><path class="cls-11" d="M257.67,160.25c-.26,0-.47-.28-.47-.63V-5.83c0-.35.21-.63.47-.63s.47.28.47.63V159.62C258.14,160,257.93,160.25,257.67,160.25Z"/><path class="cls-11" d="M236.43,160.25c-.26,0-.47-.28-.47-.63V-5.83c0-.35.21-.63.47-.63s.47.28.47.63V159.62C236.9,160,236.69,160.25,236.43,160.25Z"/><path class="cls-11" d="M300.41,27.82H215.19c-.26,0-.47-.28-.47-.63s.21-.63.47-.63h85.22c.26,0,.47.28.47.63S300.67,27.82,300.41,27.82Z"/><path class="cls-11" d="M300.41,60.85H215.19c-.26,0-.47-.28-.47-.63s.21-.63.47-.63h85.22c.26,0,.47.28.47.63S300.67,60.85,300.41,60.85Z"/><path class="cls-11" d="M300.41,93.87H215.19c-.26,0-.47-.28-.47-.63s.21-.63.47-.63h85.22c.26,0,.47.28.47.63S300.67,93.87,300.41,93.87Z"/><path class="cls-11" d="M300.41,126.9H215.19c-.26,0-.47-.29-.47-.64s.21-.63.47-.63h85.22c.26,0,.47.29.47.63S300.67,126.9,300.41,126.9Z"/><path class="cls-11" d="M278.91,160.25c-.26,0-.47-.28-.47-.63V-5.83c0-.35.21-.63.47-.63s.47.28.47.63V159.62C279.38,160,279.17,160.25,278.91,160.25Z"/><g class="cls-12"><rect class="cls-13" x="-66.38" y="-25.87" width="467.58" height="185.9"/></g><path class="cls-14" d="M299.71,137.23s15.23,15.34,18.79,38.41-9.14,24-9.14,24-12.4,2.92-16-20.15S299.71,137.23,299.71,137.23Z"/><path class="cls-15" d="M309.4,199.94a.17.17,0,0,0,.15-.2l-8.8-56.89a.17.17,0,0,0-.2-.15.18.18,0,0,0-.15.2l8.8,56.89A.18.18,0,0,0,309.4,199.94Z"/><path class="cls-15" d="M302.65,156.72a20.81,20.81,0,0,1-8.12-4.22l.09-.39a20,20,0,0,0,8.11,4.26Z"/><path class="cls-15" d="M301,146.08a22.58,22.58,0,0,1-4.23-1.59l.12-.34a22,22,0,0,0,4.19,1.59Z"/><path class="cls-15" d="M303.52,162.31c-.08,0-6.3-1.52-9.83-5.56,0-.15.05-.31.08-.46,3.41,4.12,9.75,5.66,9.83,5.68Z"/><path class="cls-15" d="M307.25,186.44c-.11,0-9.14-2.21-14-8.1l-.09-.67c4.71,6.13,14.09,8.4,14.2,8.43Z"/><path class="cls-15" d="M308.71,195l-.08.34c-.1,0-8.07-2-13.09-7.06-.1-.27-.19-.54-.28-.82C300.14,192.94,308.61,195,308.71,195Z"/><path class="cls-15" d="M305,171.73c-.09,0-7.59-1.84-12.3-6.65,0-.16,0-.31,0-.47,4.61,4.9,12.25,6.75,12.34,6.78Z"/><path class="cls-15" d="M307.54,147.43a22.08,22.08,0,0,1-5.45,4.93l-.18-.3a21.62,21.62,0,0,0,5.43-4.94Z"/><path class="cls-15" d="M303.15,159.21l-.18-.3c.06,0,4.8-2.91,7.11-7.23.07.12.14.24.2.36A22.38,22.38,0,0,1,303.15,159.21Z"/><path class="cls-15" d="M306.45,180.55l-.18-.31c.09-.05,7.86-4.76,10.73-11.68l.15.55C314.1,175.92,306.54,180.49,306.45,180.55Z"/><path class="cls-15" d="M308.12,192.25c.09-.06,8.17-4.95,10.9-12.09,0,.28,0,.54.05.81-3,6.88-10.68,11.52-10.77,11.58Z"/><path class="cls-15" d="M313.65,158.92l.17.41c-3.19,5.56-9.2,9.2-9.28,9.25l-.18-.3C304.43,168.23,310.55,164.53,313.65,158.92Z"/><path class="cls-16" d="M243.24,174.22s8.37,19.93,28.33,32,25.7.72,25.7.72,7.44-10.36-12.53-22.46S243.24,174.22,243.24,174.22Z"/><path class="cls-15" d="M297.51,207.11a.19.19,0,0,1-.25.06L248,177.33a.18.18,0,0,1-.06-.24.17.17,0,0,1,.24-.06l49.24,29.83A.19.19,0,0,1,297.51,207.11Z"/><path class="cls-15" d="M260.13,184.38a20.69,20.69,0,0,0-.8-9.12l-.4-.07a20.14,20.14,0,0,1,.85,9.13Z"/><path class="cls-15" d="M250.92,178.8a22.15,22.15,0,0,0,.14-4.51l-.35,0a21.88,21.88,0,0,1-.14,4.48Z"/><path class="cls-15" d="M265,187.31c0-.07,1-6.4-1.4-11.21l-.45-.1c2.51,4.73,1.51,11.18,1.5,11.26Z"/><path class="cls-15" d="M285.85,200c0-.1,1.44-9.28-2.14-16.06l-.59-.33c3.88,6.69,2.4,16.23,2.38,16.34Z"/><path class="cls-15" d="M293.22,204.59l.35,0c0-.1,1.27-8.2-1.54-14.79l-.64-.57C294.57,195.88,293.24,204.48,293.22,204.59Z"/><path class="cls-15" d="M273.1,192.3c0-.09,1.19-7.71-1.46-13.9l-.45-.15c2.78,6.13,1.57,13.9,1.56,14Z"/><path class="cls-15" d="M249.68,185.35a21.6,21.6,0,0,0,6.64-3.16l-.21-.28a21.7,21.7,0,0,1-6.65,3.14Z"/><path class="cls-15" d="M262.24,185.79l-.21-.29a21.8,21.8,0,0,1-9.4,3.82l.26.33A22.51,22.51,0,0,0,262.24,185.79Z"/><path class="cls-15" d="M280.71,197l-.21-.28c-.09.07-7.4,5.46-14.9,5.47l.46.35C273.51,202.28,280.62,197,280.71,197Z"/><path class="cls-15" d="M290.88,203c-.09.06-7.68,5.66-15.32,5.46l.72.36c7.51-.16,14.73-5.48,14.81-5.54Z"/><path class="cls-15" d="M258,195.38l.31.32c6.36-.83,12-5,12.09-5.06l-.21-.28C270.09,190.42,264.33,194.66,258,195.38Z"/><path class="cls-17" d="M262.41,141s-.81,25.8,14.87,48.84,27.56,13.54,27.56,13.54,13.22-7.55-2.46-30.6S262.41,141,262.41,141Z"/><path class="cls-15" d="M305,203.62a.22.22,0,0,1-.3-.06l-38.66-56.84a.21.21,0,1,1,.34-.23l38.67,56.84A.21.21,0,0,1,305,203.62Z"/><path class="cls-15" d="M275.71,160.38a24.63,24.63,0,0,0,3.65-10.3l-.4-.27c-.28,5.29-3.56,10.27-3.6,10.34Z"/><path class="cls-15" d="M268.48,149.76a26,26,0,0,0,2.39-4.84l-.37-.2a26,26,0,0,1-2.37,4.8Z"/><path class="cls-15" d="M279.51,166c.05-.07,4.26-6.46,4.05-12.86l-.44-.34c.38,6.38-3.91,12.89-4,13Z"/><path class="cls-15" d="M295.91,190.08c.07-.11,6.18-9.38,5.65-18.51l-.47-.66c.88,9.2-5.46,18.82-5.53,18.93Z"/><path class="cls-15" d="M301.62,198.75l.35.24c.07-.1,5.45-8.28,5.68-16.83-.14-.31-.27-.63-.42-.94C307.41,190,301.69,198.65,301.62,198.75Z"/><path class="cls-15" d="M285.86,175.43c.06-.1,5.13-7.79,5.32-15.82l-.41-.39c0,8-5.2,15.88-5.26,16Z"/><path class="cls-15" d="M263.87,156.25a26.1,26.1,0,0,0,8.78-.13l-.09-.41a25.81,25.81,0,0,1-8.77.11C263.82,156,263.85,156.11,263.87,156.25Z"/><path class="cls-15" d="M277.31,163l-.09-.41c-.08,0-6.56,1.37-12.1-.51l.12.48C270.85,164.32,277.23,163,277.31,163Z"/><path class="cls-15" d="M291.81,184.28l-.09-.42c-.12,0-10.75,2.26-18.89-1.44.1.2.21.39.32.59C281.36,186.47,291.69,184.3,291.81,184.28Z"/><path class="cls-15" d="M299.88,195.86c-.13,0-11.16,2.33-19.36-1.67l.61.74c8.24,3.56,18.71,1.36,18.84,1.34Z"/><path class="cls-15" d="M267.9,171.26c.06.17.13.33.19.5,7.31,2.26,15.53.53,15.63.51l-.08-.41C283.53,171.88,275.17,173.63,267.9,171.26Z"/></g><path class="cls-18" d="M80.49,231.49a1.39,1.39,0,0,1-1.15-1.72,1.66,1.66,0,0,1,1.91-1.08h0l1.3.26a62.18,62.18,0,0,0,7.91,1,1.45,1.45,0,0,1,1.42,1.55,1.61,1.61,0,0,1-1.77,1.31,75.07,75.07,0,0,1-8.2-1.08l-.09,0C81.4,231.68,80.94,231.59,80.49,231.49Z"/><path class="cls-18" d="M72.69,229.41a65.78,65.78,0,0,1-8.86-3.64,1.33,1.33,0,0,1-.57-2,1.73,1.73,0,0,1,2.19-.56,61.7,61.7,0,0,0,8.41,3.45,1.37,1.37,0,0,1,.91,1.84,1.68,1.68,0,0,1-1.86.91Z"/><path class="cls-18" d="M96.71,231.66a1.55,1.55,0,0,1,1.58-1.48,67.32,67.32,0,0,0,9.31-1,1.55,1.55,0,0,1,1.84,1.13,1.5,1.5,0,0,1-1.3,1.69,71.32,71.32,0,0,1-9.81,1,1.58,1.58,0,0,1-.38,0A1.45,1.45,0,0,1,96.71,231.66Z"/><path class="cls-18" d="M57,221.75a35.76,35.76,0,0,1-6.84-6.35,1.35,1.35,0,0,1,.34-2,1.7,1.7,0,0,1,2.24.26,33.08,33.08,0,0,0,6.29,5.84,1.33,1.33,0,0,1,.22,2,1.71,1.71,0,0,1-1.6.52A1.61,1.61,0,0,1,57,221.75Z"/><path class="cls-18" d="M114.13,229.31a1.46,1.46,0,0,1,1.2-1.74l5.36-1.24,4-.92a1.59,1.59,0,0,1,1.93,1,1.48,1.48,0,0,1-1.2,1.75l-4,.92-5.37,1.24a1.94,1.94,0,0,1-.72,0A1.48,1.48,0,0,1,114.13,229.31Z"/><path class="cls-18" d="M131.29,225.41a1.49,1.49,0,0,1,1.24-1.73c3.52-.73,6.64-1.3,9.54-1.75a1.54,1.54,0,0,1,1.82,1.16,1.51,1.51,0,0,1-1.35,1.66c-2.83.44-5.89,1-9.36,1.73a1.78,1.78,0,0,1-.69,0A1.47,1.47,0,0,1,131.29,225.41Z"/><path class="cls-18" d="M46,209.09a36.61,36.61,0,0,1-3.2-8.36A1.47,1.47,0,0,1,44,199a1.57,1.57,0,0,1,1.91,1.05,34,34,0,0,0,3,7.76,1.39,1.39,0,0,1-.77,1.92,1.72,1.72,0,0,1-1,.12A1.52,1.52,0,0,1,46,209.09Z"/><path class="cls-18" d="M209,237.66a53.81,53.81,0,0,1-9.34-2.72,1.36,1.36,0,0,1-.8-1.88,1.71,1.71,0,0,1,2.11-.77,50.44,50.44,0,0,0,8.76,2.57,1.4,1.4,0,0,1,1.19,1.69,1.65,1.65,0,0,1-1.92,1.11Z"/><path class="cls-18" d="M215.68,237a1.57,1.57,0,0,1,1.61-1.46,42.18,42.18,0,0,0,8.19-1l1-.19a1.56,1.56,0,0,1,1.9,1,1.47,1.47,0,0,1-1.23,1.73c-.37.08-.74.16-1.06.21a45.42,45.42,0,0,1-8.8,1,2,2,0,0,1-.35,0A1.44,1.44,0,0,1,215.68,237Z"/><path class="cls-18" d="M192.4,231.9l-.48-.21c-2.58-1.13-5.26-2.31-8.06-3.38a1.35,1.35,0,0,1-.79-1.88,1.71,1.71,0,0,1,2.12-.76c2.86,1.1,5.58,2.29,8.2,3.44l.47.21a1.34,1.34,0,0,1,.69,1.92,1.71,1.71,0,0,1-1.78.78A2.29,2.29,0,0,1,192.4,231.9Z"/><path class="cls-18" d="M148.66,222.5a1.51,1.51,0,0,1,1.47-1.56,88.78,88.78,0,0,1,9.79-.34,1.46,1.46,0,0,1,1.52,1.46,1.58,1.58,0,0,1-1.68,1.4,86.58,86.58,0,0,0-9.39.33,1.89,1.89,0,0,1-.48,0A1.45,1.45,0,0,1,148.66,222.5Z"/><path class="cls-18" d="M176.56,225.88a64.92,64.92,0,0,0-9-1.83,1.43,1.43,0,0,1-1.31-1.63,1.63,1.63,0,0,1,1.85-1.21,70.79,70.79,0,0,1,9.48,1.92,1.4,1.4,0,0,1,1.11,1.68,1.66,1.66,0,0,1-1.93,1.11Z"/><path class="cls-18" d="M232.82,233.72a1.36,1.36,0,0,1,.53-2,24.09,24.09,0,0,0,6.61-5.56,1.74,1.74,0,0,1,2.24-.32,1.32,1.32,0,0,1,.3,2,27.34,27.34,0,0,1-7.48,6.29,1.74,1.74,0,0,1-1.2.19A1.54,1.54,0,0,1,232.82,233.72Z"/><path class="cls-18" d="M244.16,223.58a1.37,1.37,0,0,1-.8-1.89,23.94,23.94,0,0,0,1.82-8.43,1.73,1.73,0,0,1,1.57-1.63,1.32,1.32,0,0,1,1.47,1.39,27.33,27.33,0,0,1-2.06,9.55,1.72,1.72,0,0,1-.83.89A1.49,1.49,0,0,1,244.16,223.58Z"/><path class="cls-18" d="M41.75,193.37a32,32,0,0,1,1-8.91h0a1.65,1.65,0,0,1,1.92-1.11,1.41,1.41,0,0,1,1.2,1.7,29.48,29.48,0,0,0-.93,8.19,1.56,1.56,0,0,1-1.56,1.5,2.73,2.73,0,0,1-.41,0A1.44,1.44,0,0,1,41.75,193.37Z"/><path class="cls-18" d="M46.5,179.33a1.35,1.35,0,0,1-.64-1.93A39.42,39.42,0,0,1,51.6,170a1.73,1.73,0,0,1,2.26-.17,1.33,1.33,0,0,1,.13,2,37.48,37.48,0,0,0-5.32,6.86,1.73,1.73,0,0,1-1.77.75A2.07,2.07,0,0,1,46.5,179.33Z"/><path class="cls-18" d="M245.54,205.43a25.13,25.13,0,0,0-2.65-7.73,1.4,1.4,0,0,1,.76-1.93,1.66,1.66,0,0,1,2.13.63,27.9,27.9,0,0,1,2.93,8.54,1.51,1.51,0,0,1-1.35,1.66,1.72,1.72,0,0,1-.6,0A1.47,1.47,0,0,1,245.54,205.43Z"/><path class="cls-18" d="M57.31,166.77a1.34,1.34,0,0,1,.18-2l.5-.39a53.56,53.56,0,0,1,7.8-4.65,1.68,1.68,0,0,1,2.17.51,1.39,1.39,0,0,1-.61,2,50.52,50.52,0,0,0-7.29,4.31l-.49.38a1.77,1.77,0,0,1-1.41.34A1.57,1.57,0,0,1,57.31,166.77Z"/><path class="cls-18" d="M238.8,192a79.46,79.46,0,0,0-6.4-6.07,1.32,1.32,0,0,1,0-2,1.72,1.72,0,0,1,2.26,0,81.86,81.86,0,0,1,6.63,6.28,1.34,1.34,0,0,1-.25,2,1.76,1.76,0,0,1-1.36.31A1.69,1.69,0,0,1,238.8,192Z"/><path class="cls-18" d="M226.82,180.81a26.8,26.8,0,0,1-5.39-7.49,1.42,1.42,0,0,1,.88-1.89,1.64,1.64,0,0,1,2.08.74,24.21,24.21,0,0,0,4.86,6.73,1.33,1.33,0,0,1-.17,2,1.77,1.77,0,0,1-1.41.34A1.57,1.57,0,0,1,226.82,180.81Z"/><path class="cls-18" d="M219.73,165.87a24.4,24.4,0,0,1,.67-6l.18-.76c.2-.77.43-1.51.68-2.21a1.68,1.68,0,0,1,2-1,1.38,1.38,0,0,1,1,1.78c-.23.63-.43,1.29-.61,2-.06.23-.12.46-.17.69a22.11,22.11,0,0,0-.6,5.33,1.54,1.54,0,0,1-1.56,1.49,1.33,1.33,0,0,1-.4,0A1.44,1.44,0,0,1,219.73,165.87Z"/><path class="cls-15" d="M79.34,137.56a24.76,24.76,0,0,1,2.2,5.6c.06.25.13.51.19.76.18.78.32,1.53.43,2.27a1.71,1.71,0,0,1-1.33,1.8,1.39,1.39,0,0,1-1.75-1.09c-.09-.67-.22-1.35-.38-2.05l-.18-.69a21.44,21.44,0,0,0-2-5,1.55,1.55,0,0,1,.69-2.06,1.89,1.89,0,0,1,.36-.16A1.44,1.44,0,0,1,79.34,137.56Z"/><path class="cls-15" d="M80.34,155.1a24.29,24.29,0,0,1-5.13,3.14l-.71.32c-.74.31-1.46.58-2.16.82a1.69,1.69,0,0,1-2-1,1.37,1.37,0,0,1,.76-1.91c.64-.21,1.29-.45,2-.74l.66-.29a21.9,21.9,0,0,0,4.57-2.79,1.56,1.56,0,0,1,2.14.32,2.1,2.1,0,0,1,.22.33A1.43,1.43,0,0,1,80.34,155.1Z"/><path class="cls-15" d="M73.54,134.07a88.73,88.73,0,0,0-7.37-5.13,1.32,1.32,0,0,1-.35-2,1.73,1.73,0,0,1,2.23-.36c2.9,1.83,5.47,3.62,7.63,5.31a1.33,1.33,0,0,1,.12,2,1.74,1.74,0,0,1-1.56.47A1.57,1.57,0,0,1,73.54,134.07Z"/><path class="cls-15" d="M59.63,125.05c-3-1.7-5.9-3.24-8.09-4.4a1.34,1.34,0,0,1-.53-2,1.73,1.73,0,0,1,2.2-.52c2.21,1.16,5.14,2.72,8.18,4.44a1.34,1.34,0,0,1,.46,2,1.73,1.73,0,0,1-1.7.64A1.69,1.69,0,0,1,59.63,125.05Z"/><path class="cls-15" d="M225.44,152.1a1.33,1.33,0,0,1-.26-2,24.18,24.18,0,0,1,7.95-5.87,1.67,1.67,0,0,1,2.15.57,1.38,1.38,0,0,1-.68,2,20.78,20.78,0,0,0-6.91,5.07,1.74,1.74,0,0,1-1.62.54A1.63,1.63,0,0,1,225.44,152.1Z"/><path class="cls-15" d="M44.68,117l-.69-.39a57,57,0,0,1-7.09-4.92,1.32,1.32,0,0,1-.06-2,1.73,1.73,0,0,1,2.26-.11,53.39,53.39,0,0,0,6.68,4.63l.63.36a1.33,1.33,0,0,1,.48,2,1.73,1.73,0,0,1-1.71.66A2.13,2.13,0,0,1,44.68,117Z"/><path class="cls-15" d="M31.5,106.1a17.43,17.43,0,0,1-3.41-8.59,1.61,1.61,0,0,1,3.19-.32,14.65,14.65,0,0,0,2.92,7.31,1.36,1.36,0,0,1-.49,2,1.77,1.77,0,0,1-1.22.22A1.6,1.6,0,0,1,31.5,106.1Z"/><path class="cls-15" d="M239.75,143.1a1.42,1.42,0,0,1,1-1.85l2.13-.7c2.25-.74,4.58-1.5,6.8-2.39a1.65,1.65,0,0,1,2.1.73,1.41,1.41,0,0,1-.86,1.89c-2.33.92-4.71,1.7-7,2.46l-2.12.7a1.92,1.92,0,0,1-.89.06A1.51,1.51,0,0,1,239.75,143.1Z"/><path class="cls-15" d="M256,136.79a1.36,1.36,0,0,1,.39-2A24.31,24.31,0,0,0,262.7,129a1.73,1.73,0,0,1,2.23-.42,1.33,1.33,0,0,1,.41,2,27.12,27.12,0,0,1-7.11,6.57,1.72,1.72,0,0,1-1.28.25A1.57,1.57,0,0,1,256,136.79Z"/><path class="cls-15" d="M30.18,91.64a1.39,1.39,0,0,1-1-1.78,24,24,0,0,1,1-2.35,19.11,19.11,0,0,1,4.11-5.7,1.74,1.74,0,0,1,2.26-.09,1.33,1.33,0,0,1,0,2,16,16,0,0,0-3.48,4.83,21.15,21.15,0,0,0-.87,2.09,1.67,1.67,0,0,1-1.89,1Z"/><path class="cls-15" d="M39.16,78.46a1.34,1.34,0,0,1-.27-2c.56-.64,1.17-1.29,1.83-1.92a21.57,21.57,0,0,1,6.05-4.1,1.66,1.66,0,0,1,2.13.63A1.39,1.39,0,0,1,48.15,73,17.87,17.87,0,0,0,43,76.47a23.19,23.19,0,0,0-1.62,1.7,1.75,1.75,0,0,1-2.15.35Z"/><path class="cls-15" d="M51,68.82a1.34,1.34,0,0,1,.21-2c.69-.49,1.44-1,2.23-1.43a21.37,21.37,0,0,1,6.84-2.56,1.65,1.65,0,0,1,1.93,1.11A1.41,1.41,0,0,1,61,65.62a18.22,18.22,0,0,0-5.79,2.17,23.11,23.11,0,0,0-2,1.28,1.76,1.76,0,0,1-2.17-.16Z"/><path class="cls-15" d="M267.09,124.65a1.36,1.36,0,0,1-.91-1.83,32,32,0,0,0,1.6-4.62,27.38,27.38,0,0,0,.66-3.39,1.61,1.61,0,0,1,1.78-1.29,1.43,1.43,0,0,1,1.4,1.56,30.34,30.34,0,0,1-.72,3.71,35.06,35.06,0,0,1-1.74,5,1.69,1.69,0,0,1-1.85.91A.9.9,0,0,1,267.09,124.65Z"/><path class="cls-15" d="M184.86,45.45a1.74,1.74,0,0,1-2.26.12,52,52,0,0,0-7.24-5.11,1.33,1.33,0,0,1-.45-2,1.74,1.74,0,0,1,2.22-.45,55.42,55.42,0,0,1,7.66,5.38,1.48,1.48,0,0,1,.43.6A1.34,1.34,0,0,1,184.86,45.45Z"/><path class="cls-15" d="M268.44,108a24.62,24.62,0,0,0-2.44-7.79,1.4,1.4,0,0,1,.81-1.91,1.64,1.64,0,0,1,2.11.68,27.26,27.26,0,0,1,2.7,8.6,1.52,1.52,0,0,1-1.4,1.63,1.75,1.75,0,0,1-.56,0A1.47,1.47,0,0,1,268.44,108Z"/><path class="cls-15" d="M262.09,94.46a33.42,33.42,0,0,0-6.48-5.67,1.34,1.34,0,0,1-.27-2,1.74,1.74,0,0,1,2.25-.29,37,37,0,0,1,7,6.17,1.35,1.35,0,0,1-.29,2A1.75,1.75,0,0,1,263,95,1.56,1.56,0,0,1,262.09,94.46Z"/><path class="cls-15" d="M249.14,85.19a52.62,52.62,0,0,0-7.76-2.76l-.82-.21a1.38,1.38,0,0,1-1.07-1.76,1.64,1.64,0,0,1,2-1l.88.22a56,56,0,0,1,8.27,2.94,1.34,1.34,0,0,1,.67,1.92,1.69,1.69,0,0,1-1.78.77A1.29,1.29,0,0,1,249.14,85.19Z"/><path class="cls-15" d="M232.58,80.74a51.78,51.78,0,0,0-8.16-1.1l-.84,0a1.39,1.39,0,0,1-1.42-1.5,1.67,1.67,0,0,1,1.75-1.4l.91,0a57.37,57.37,0,0,1,8.7,1.18,1.35,1.35,0,0,1,1,1.75A1.71,1.71,0,0,1,233,80.78,1.87,1.87,0,0,1,232.58,80.74Z"/><path class="cls-15" d="M215.58,77.82a43.92,43.92,0,0,1-9.21-3.2,1.35,1.35,0,0,1-.58-2A1.74,1.74,0,0,1,208,72.1a39.65,39.65,0,0,0,8.5,3,1.39,1.39,0,0,1,1.09,1.76,1.67,1.67,0,0,1-1.9,1Z"/><path class="cls-15" d="M199.8,70.15a36.55,36.55,0,0,1-6.3-6.78,1.37,1.37,0,0,1,.49-2,1.7,1.7,0,0,1,2.21.39A33.75,33.75,0,0,0,202,68a1.32,1.32,0,0,1,.06,2,1.72,1.72,0,0,1-2.26.11Z"/><path class="cls-15" d="M189.59,57c-1.26-2.35-2.41-4.81-3.53-7.18l-.32-.69a1.41,1.41,0,0,1,.86-1.89,1.65,1.65,0,0,1,2.1.73l.32.68c1.1,2.35,2.24,4.77,3.46,7.07a1.39,1.39,0,0,1-.76,1.92,1.74,1.74,0,0,1-1.05.12A1.48,1.48,0,0,1,189.59,57Z"/><path class="cls-19" d="M146.23,121.13a2.25,2.25,0,0,0-.36-1.11.71.71,0,0,0-1-.16c-.68.67-.39.74-1.31.57-1.35-.24-2.46-1.8-3.56-.59s-.2,1.67.9,2.19a7.6,7.6,0,0,1,2.51,1.49,10.18,10.18,0,0,1,1.71,3.11.68.68,0,0,0,.23.27.63.63,0,0,0,.6-.11C148.21,125.33,146.54,123.28,146.23,121.13Z"/><path class="cls-14" d="M154.56,133.35c-1.82-2.49-3.22-5.33-5.1-7.73-.9-1.16-.87-1.61-2.47-1.76-.4,0-3.71.86-3.64,1.15a141.92,141.92,0,0,0,5.9,18.34c1.42,3.58,3.91,2.57,7.31,2.53l10.87-.14c2,0,4.26-.17,5.53-1.71a11.64,11.64,0,0,0,2-7.5c-.47-3.95-3.32-3.67-6.43-3.19L158,135a3.4,3.4,0,0,1-1.95-.09,3.31,3.31,0,0,1-1.1-1Z"/><path class="cls-20" d="M156.59,186a8.89,8.89,0,0,1,5.16-7.46c2.51-1.18,5.34-1.46,8.09-1.81,6.14-.79,12-1.58,18.19-1.33,4.95.19,8,4.42,10.32,8.58,1.46,2.63,1.06,3.86-.78,6.06a22.16,22.16,0,0,1-6.06,5.06C187,197.68,180,197,175,196.48a38.86,38.86,0,0,1-13.59-4.14C158.66,190.92,156.21,189.24,156.59,186Z"/><path class="cls-14" d="M178,132.52c-2.34-.31-4.71-.74-6.66.12-1.66.72-1.63,2.81-2,4.39-1.22,5.23-2.14,10.52-2.86,15.84a57.47,57.47,0,0,0-.93,7.83c0,2.06.53,4.07.37,6.17-.12,1.61-.81,3.35-2.28,4-.75.33-1.6.35-2.35.68s-1.38,1.2-1,1.93a2.06,2.06,0,0,0,.88.74l5.53,3.08a30.55,30.55,0,0,0,4.34,2.12,23.57,23.57,0,0,0,6.73,1.15,55.35,55.35,0,0,0,17.51-1.92c3.06-.85,6-2.35,5.28-5.81a47.19,47.19,0,0,0-3.84-10.39c-1.93-4-2.5-8.71-3.87-12.88-1.27-3.87-2.55-7.74-4-11.57a8.3,8.3,0,0,0-3.71-4.58C183,132.25,180.44,132.84,178,132.52Z"/><path class="cls-20" d="M167.7,197.21l-1.59.08a2.23,2.23,0,0,1-1.65-.35,1.46,1.46,0,0,1,0-1.92,3.47,3.47,0,0,1,1.78-1.08,19,19,0,0,1,5-.75,1.26,1.26,0,0,1,.51.06,1,1,0,0,1,.52.68C173.23,196.86,169.76,197.09,167.7,197.21Z"/><path class="cls-20" d="M188.13,202.19a1.31,1.31,0,0,1,0,.71,1.06,1.06,0,0,1-.36.37c-1.09.69-2.57-.06-3.41-1.05s-1.4-2.25-2.47-3c-2.45-1.69-.21-4.78,2.35-4.07C187.19,196,187.81,199.59,188.13,202.19Z"/><path class="cls-20" d="M202.66,189.31c2.07-1,4.15-2.22,5-4.64s-.11-6.4-2.68-8.62c-3.12-2.7-6.32-1.29-8.65.24-4.78,3.11-10,5.6-15,8.26-1.72.9-7.68,4.3-7.68,4.3-.18.66,2.75,7.85,3.59,7.84C186.28,196.63,195.25,192.91,202.66,189.31Z"/><path class="cls-21" d="M155.15,186.3c-2.11-1.56-4.23-3.32-5-5.93a7.09,7.09,0,0,1,3.05-7.82c3.32-1.84,6.59.42,9,2.55,4.86,4.37,10.15,8.23,15.32,12.22,1.75,1.35,7.82,6.32,7.82,6.32.17.7-3.1,7-4,6.8C171.89,198,162.71,191.85,155.15,186.3Z"/><polygon class="cls-22" points="150.77 177.1 177.58 168.67 210.74 170.38 191.98 178.65 150.77 177.1"/><polygon class="cls-23" points="150.86 174.78 149.86 148.75 190.84 149.78 192.02 177.62 150.86 174.78"/><path class="cls-23" d="M210.17,170.34l-18.09,7.25s0,0-.06,0l0-1.29-41.21-1.55-.09,2.32,40.81,1.54a.6.6,0,0,0,.84.51l18.09-7.25C211.4,171.55,211.08,170,210.17,170.34Z"/><path class="cls-19" d="M192.5,168.71c-.2.14-.42.31-.44.55a.81.81,0,0,0,.15.45,2,2,0,0,0,1,.92.93.93,0,0,0,1.15-.49,1.85,1.85,0,0,1-.55,2.16,12.7,12.7,0,0,0-1.76,1.59,5,5,0,0,0-.65,1.74,4.65,4.65,0,0,0,5.14-2.14,9.31,9.31,0,0,0,.82-2.19c.4-1.37.79-2.73,1.18-4.1-1-.71-1.94-1.73-3.17-1.24C194.45,166.33,193.41,168.08,192.5,168.71Z"/><path class="cls-14" d="M202.68,162.4c.1,3.27-1.31,6.78-4.19,8.35-.8-1.76-2.36-3.07-3.34-4.73-2.5-4.25-.8-9.79-2.38-14.45-.88-2.59-2.68-4.65-4.23-6.85a28.57,28.57,0,0,1-2.19-3.58,25.44,25.44,0,0,1-1.72-2.92,2.54,2.54,0,0,1,.16-1.41c.25-.74-.15-3,.58-3.21s3,.8,3.71,1.23C200.69,141.7,202.59,159.12,202.68,162.4Z"/><path class="cls-19" d="M180.77,133.89a1.5,1.5,0,0,1-.29.27,4,4,0,0,1-1.61.57,4.74,4.74,0,0,1-2.21.08c-2.33-.68-1.27-4.66-1-6.31-1.51-.56-3.25-1.4-3.48-3.17a5.61,5.61,0,0,1,.12-1.68c.4-2.32.81-4.63,1.21-6.94a7,7,0,0,1,.69-2.32,4.84,4.84,0,0,1,3.3-2,10.18,10.18,0,0,1,9.13,2.25,5.17,5.17,0,0,1,1.5,2.24,8.24,8.24,0,0,1-.31,4.38c-.34,1.34-.68,2.67-1,4-.39,1.53-.95,3.28-2.28,3.88-.7.33-1.53.26-2.17.72C181,130.8,181.65,132.83,180.77,133.89Z"/><path class="cls-24" d="M172.1,124.87a4.13,4.13,0,0,0,1.41,3.13,8.59,8.59,0,0,0,4.07,1.42l2.39.4c2,.34,4.07.41,5.49-1.23a5,5,0,0,0,1.12-2.64,1.54,1.54,0,0,0-.05-.77.69.69,0,0,0-.62-.46c-.37,0-.65.28-.93.5a2.07,2.07,0,0,1-2.23.25,2.69,2.69,0,0,1-.51-.44l-.19-.19a5.54,5.54,0,0,0-2.45-1.24c-.79-.21-1.92-.63-2.64-.14l-1.26.86a2.06,2.06,0,0,1-.55.29,1.43,1.43,0,0,1-.65,0,1.31,1.31,0,0,1-1.2-.87,2.06,2.06,0,0,1,0-.65.81.81,0,0,0-.08-.63c-.47-.71-.84.25-.94.58A6.42,6.42,0,0,0,172.1,124.87Zm5.45,1.13a2.58,2.58,0,0,0,2,.48.27.27,0,1,1,.05.54,3.23,3.23,0,0,1-2.43-.61C176.87,126.18,177.26,125.77,177.55,126Z"/><path class="cls-24" d="M173.5,112c-.13-.62-.23-1.24-.3-1.88a2.45,2.45,0,0,0,1.48.16v-1.1c0-.3,3.31-.51,3.58-.54a14.87,14.87,0,0,1,8.91,2.23c1.94,1.43,2.61,1.88,2.91,4.66s-1.87,6.78-3.1,9a23.14,23.14,0,0,0,.39-3,7.27,7.27,0,0,0-.52-1.92,7.55,7.55,0,0,0-2.24-2.93,10.93,10.93,0,0,0-4.9-2,10.82,10.82,0,0,0-5,0c-.74.24-.86.48-1.32-.46a19.75,19.75,0,0,1-.64-2.09Z"/><g id="Layer_2" data-name="Layer 2"><rect class="cls-18" x="58.48" y="23.85" width="114.67" height="84.44" rx="5.23" ry="5.23"/><rect class="cls-18" x="62.43" y="25.17" width="109.41" height="5.91"/><rect class="cls-23" x="62.43" y="30.75" width="109.41" height="76.23"/></g><g id="Layer_3" data-name="Layer 3"><rect class="cls-18" x="80.5" y="33.71" width="13.47" height="15.11" rx="1.53" ry="1.53"/><rect class="cls-18" x="95.61" y="33.71" width="13.47" height="15.11" rx="1.53" ry="1.53"/><rect class="cls-18" x="110.4" y="33.71" width="13.47" height="15.11" rx="1.53" ry="1.53"/><rect class="cls-15" x="125.51" y="33.71" width="13.47" height="15.11" rx="1.53" ry="1.53"/><rect class="cls-15" x="140.3" y="33.71" width="13.47" height="15.11" rx="1.53" ry="1.53"/><rect class="cls-15" x="155.41" y="33.71" width="13.47" height="15.11" rx="1.53" ry="1.53"/><rect class="cls-15" x="80.5" y="51.12" width="13.47" height="15.11" rx="1.53" ry="1.53"/><rect class="cls-15" x="95.61" y="51.12" width="13.47" height="15.11" rx="1.53" ry="1.53"/><rect class="cls-25" x="110.4" y="51.12" width="13.47" height="15.11" rx="1.53" ry="1.53"/><rect class="cls-15" x="125.51" y="51.12" width="13.47" height="15.11" rx="1.53" ry="1.53"/><rect class="cls-26" x="140.3" y="51.12" width="13.47" height="15.11" rx="1.53" ry="1.53"/><rect class="cls-15" x="155.41" y="51.12" width="13.47" height="15.11" rx="1.53" ry="1.53"/><rect class="cls-15" x="80.5" y="67.88" width="13.47" height="15.11" rx="1.53" ry="1.53"/><rect class="cls-15" x="95.61" y="67.88" width="13.47" height="15.11" rx="1.53" ry="1.53"/><rect class="cls-27" x="110.4" y="67.88" width="13.47" height="15.11" rx="1.53" ry="1.53"/><rect class="cls-15" x="125.51" y="67.88" width="13.47" height="15.11" rx="1.53" ry="1.53"/><rect class="cls-25" x="140.3" y="67.88" width="13.47" height="15.11" rx="1.53" ry="1.53"/><rect class="cls-15" x="155.41" y="67.88" width="13.47" height="15.11" rx="1.53" ry="1.53"/><rect class="cls-28" x="80.83" y="84.97" width="13.47" height="15.11" rx="1.53" ry="1.53"/><rect class="cls-25" x="95.94" y="84.97" width="13.47" height="15.11" rx="1.53" ry="1.53"/><rect class="cls-15" x="110.73" y="84.97" width="13.47" height="15.11" rx="1.53" ry="1.53"/><rect class="cls-15" x="125.84" y="84.97" width="13.47" height="15.11" rx="1.53" ry="1.53"/><rect class="cls-29" x="140.63" y="84.97" width="13.47" height="15.11" rx="1.53" ry="1.53"/><rect class="cls-15" x="155.74" y="84.97" width="13.47" height="15.11" rx="1.53" ry="1.53"/><circle class="cls-23" cx="65.55" cy="28.29" r="1.15"/><circle class="cls-23" cx="69.16" cy="28.29" r="1.15"/><circle class="cls-23" cx="72.78" cy="28.29" r="1.15"/><path class="cls-15" d="M67.19,50.79h9.2a1.48,1.48,0,0,1,1.48,1.48h0a1.48,1.48,0,0,1-1.48,1.48h-9.2a1.48,1.48,0,0,1-1.48-1.48h0A1.48,1.48,0,0,1,67.19,50.79Z"/><path class="cls-15" d="M67.19,67.88h9.2a1.48,1.48,0,0,1,1.48,1.48h0a1.48,1.48,0,0,1-1.48,1.48h-9.2a1.48,1.48,0,0,1-1.48-1.48h0A1.48,1.48,0,0,1,67.19,67.88Z"/><path class="cls-15" d="M67.19,85h9.2a1.47,1.47,0,0,1,1.48,1.47h0a1.48,1.48,0,0,1-1.48,1.48h-9.2a1.48,1.48,0,0,1-1.48-1.48h0A1.47,1.47,0,0,1,67.19,85Z"/><path class="cls-23" d="M83,52.11h5.26a1.15,1.15,0,0,1,1.15,1.15h0a1.16,1.16,0,0,1-1.15,1.15H83a1.16,1.16,0,0,1-1.15-1.15h0A1.15,1.15,0,0,1,83,52.11Z"/><path class="cls-23" d="M82.63,56.38h2.3a.82.82,0,0,1,.82.82h0a.81.81,0,0,1-.82.82h-2.3a.82.82,0,0,1-.82-.82h0A.82.82,0,0,1,82.63,56.38Z"/><path class="cls-23" d="M98.24,52.11h5.26a1,1,0,0,1,1,1h0a1,1,0,0,1-1,1H98.24a1,1,0,0,1-1-1h0A1,1,0,0,1,98.24,52.11Z"/><path class="cls-15" d="M142.93,87.27h5.25a1,1,0,0,1,1,1h0a1,1,0,0,1-1,1h-5.25a1,1,0,0,1-1-1h0A1,1,0,0,1,142.93,87.27Z"/><path class="cls-30" d="M157.71,69.52H163a1,1,0,0,1,1,1h0a1,1,0,0,1-1,1h-5.26a1,1,0,0,1-1-1h0A1,1,0,0,1,157.71,69.52Z"/><path class="cls-30" d="M157.38,52.44h5.26a1,1,0,0,1,1,1h0a1,1,0,0,1-1,1h-5.26a1,1,0,0,1-1-1h0A1,1,0,0,1,157.38,52.44Z"/><path class="cls-30" d="M142.6,52.44h5.25a1,1,0,0,1,1,1h0a1,1,0,0,1-1,1H142.6a1,1,0,0,1-1-1h0A1,1,0,0,1,142.6,52.44Z"/><circle class="cls-23" cx="98.57" cy="56.71" r="1.31"/><circle class="cls-23" cx="128.47" cy="54.41" r="1.31"/><circle class="cls-23" cx="133.07" cy="54.41" r="1.31"/><circle class="cls-23" cx="133.07" cy="70.84" r="1.31"/><circle class="cls-23" cx="128.47" cy="70.84" r="1.31"/><circle class="cls-23" cx="132.74" cy="87.59" r="1.31"/><circle class="cls-23" cx="128.14" cy="87.59" r="1.31"/><circle class="cls-15" cx="88.05" cy="87.92" r="1.31"/><circle class="cls-15" cx="83.45" cy="87.92" r="1.31"/><circle class="cls-23" cx="128.47" cy="36.67" r="1.31"/><circle class="cls-15" cx="113.03" cy="36.67" r="1.31"/><circle class="cls-15" cx="117.63" cy="36.67" r="1.31"/><circle class="cls-15" cx="98.24" cy="36.67" r="1.31"/><circle class="cls-15" cx="102.84" cy="36.67" r="1.31"/><circle class="cls-15" cx="83.45" cy="36.67" r="1.31"/><circle class="cls-15" cx="88.05" cy="36.67" r="1.31"/><text class="cls-31" transform="translate(133.23 47.41)">4</text><text class="cls-32" transform="translate(103.98 47.41)">2</text><text class="cls-31" transform="translate(88.65 64.43)">7</text><text class="cls-31" transform="translate(128.47 64.45)">10</text><text class="cls-32" transform="translate(113.02 81.46)">15</text><text class="cls-31" transform="translate(158.17 82.11)">18</text><g class="cls-33"><text class="cls-34" transform="translate(99.29 97.69)">2</text><text class="cls-31" transform="translate(103.98 97.69)">0</text></g></g><path class="cls-35" d="M222,169.18a7.61,7.61,0,0,1-7.61-7.72,7.72,7.72,0,0,1,7.49-7.5,7.61,7.61,0,1,1,.12,15.22Z"/><path class="cls-35" d="M204.83,76.75a5.92,5.92,0,0,1-5.91-6,6,6,0,0,1,5.82-5.82,5.91,5.91,0,1,1,.09,11.82Z"/><path class="cls-36" d="M69,168.46c-7.42,0-12.87-8.6-6.91-16.35,7.76-6,16.36-.52,16.36,6.9A9.46,9.46,0,0,1,69,168.46Z"/><path class="cls-15" d="M173.34,160.21a2.29,2.29,0,0,1-2.8,2.31,3.48,3.48,0,0,1-2.8-3.29,2.29,2.29,0,0,1,2.8-2.31A3.49,3.49,0,0,1,173.34,160.21Z"/><path class="cls-23" d="M168.36,159.34l.62.11a1.28,1.28,0,0,1,1.56-1.29v-.62A1.78,1.78,0,0,0,168.36,159.34Z"/><path class="cls-15" d="M170.53,153.67a4.87,4.87,0,0,0-6,4.9,6.41,6.41,0,0,0,.53,2.53,47.31,47.31,0,0,0,5.18,8.58.38.38,0,0,0,.25.16.27.27,0,0,0,.25-.07,34.62,34.62,0,0,0,2.54-2.8,2.11,2.11,0,0,0,0-2.7h0a2.07,2.07,0,0,0-1.75-.77,3.4,3.4,0,0,1-1-.05,4.65,4.65,0,0,1-3.74-4.39,3.06,3.06,0,0,1,3.74-3.08,4.66,4.66,0,0,1,3.73,4.4,3.79,3.79,0,0,1-.13,1,2,2,0,0,0,.45,1.82l.78.91c.21-.35.41-.71.59-1.07a5.13,5.13,0,0,0,.52-2.34A7.42,7.42,0,0,0,170.53,153.67Z"/></g></g></svg>