<svg xmlns="http://www.w3.org/2000/svg" xmlns:xlink="http://www.w3.org/1999/xlink" viewBox="0 0 329.41 311.36"><defs><style>.cls-1{isolation:isolate;}.cls-2{opacity:0.05;}.cls-3{fill:url(#Безымянный_градиент_73);}.cls-4{fill:url(#linear-gradient);}.cls-5{fill:url(#linear-gradient-2);}.cls-6{fill:url(#linear-gradient-3);}.cls-7{fill:url(#linear-gradient-4);}.cls-8{fill:url(#linear-gradient-6);}.cls-9{fill:url(#linear-gradient-7);}.cls-10{fill:url(#linear-gradient-8);}.cls-11{fill:url(#linear-gradient-9);}.cls-12{fill:url(#linear-gradient-10);}.cls-13{fill:url(#linear-gradient-11);}.cls-14{fill:url(#linear-gradient-12);}.cls-15{fill:url(#linear-gradient-13);}.cls-16{fill:url(#linear-gradient-14);}.cls-17{fill:url(#linear-gradient-15);}.cls-18{fill:url(#linear-gradient-16);}.cls-19{fill:url(#linear-gradient-17);}.cls-20{fill:url(#linear-gradient-18);}.cls-21{fill:url(#linear-gradient-19);}.cls-22{fill:url(#linear-gradient-20);}.cls-23{fill:url(#linear-gradient-21);}.cls-24{fill:url(#linear-gradient-24);}.cls-25{fill:url(#linear-gradient-25);}.cls-26{fill:url(#linear-gradient-26);}.cls-27{fill:url(#linear-gradient-27);}.cls-28{fill:url(#linear-gradient-28);}.cls-29{fill:url(#linear-gradient-30);}.cls-30{fill:url(#linear-gradient-31);}.cls-31{fill:url(#linear-gradient-33);}.cls-32{fill:url(#linear-gradient-34);}.cls-33{fill:url(#linear-gradient-35);}.cls-34{fill:url(#linear-gradient-36);}.cls-35{fill:url(#linear-gradient-37);}.cls-36{fill:url(#linear-gradient-38);}.cls-37{fill:url(#linear-gradient-39);}.cls-38{fill:url(#linear-gradient-40);}.cls-39{fill:url(#linear-gradient-42);}.cls-40{fill:url(#linear-gradient-43);}.cls-41{fill:url(#linear-gradient-44);}.cls-42{fill:url(#linear-gradient-45);}.cls-43{fill:url(#linear-gradient-46);}.cls-44{fill:url(#linear-gradient-47);}.cls-45{fill:url(#linear-gradient-50);}.cls-46{fill:url(#linear-gradient-52);}.cls-47{fill:url(#linear-gradient-53);}.cls-48{fill:url(#linear-gradient-55);}.cls-49{fill:url(#linear-gradient-56);}.cls-50{fill:url(#linear-gradient-57);}.cls-51{fill:url(#linear-gradient-58);}.cls-52{fill:url(#linear-gradient-59);}.cls-53{fill:url(#linear-gradient-60);}.cls-54{fill:url(#linear-gradient-61);}.cls-55{fill:url(#linear-gradient-62);}.cls-56{fill:url(#linear-gradient-63);}.cls-57{fill:url(#linear-gradient-64);}.cls-58{fill:#d6e0f7;}.cls-59{fill:#0d1a38;}.cls-60{fill:#b5a6fe;}.cls-60,.cls-68{mix-blend-mode:multiply;}.cls-61{fill:url(#linear-gradient-65);}.cls-62{fill:#304269;}.cls-63{fill:#f60;}.cls-64{fill:#3c5582;}.cls-65{fill:#f2edff;}.cls-66,.cls-68{fill:#b5d8ff;}.cls-67{fill:#9ab8d9;}.cls-69{fill:#ded1fd;}.cls-70{fill:url(#linear-gradient-66);}.cls-71{fill:#fff;}.cls-72{fill:#eac5b0;}.cls-73{fill:#39517c;}.cls-74{fill:#f4cdaf;}.cls-75{fill:#3c4043;}.cls-76{fill:url(#linear-gradient-67);}.cls-77,.cls-79{fill:#bac5f4;}.cls-77{opacity:0.2;}.cls-78,.cls-80{fill:none;stroke-miterlimit:10;}.cls-78{stroke:#39517c;}.cls-80{stroke:#304269;}</style><linearGradient id="Безымянный_градиент_73" x1="274.96" y1="54.3" x2="274.96" y2="-27.08" gradientUnits="userSpaceOnUse"><stop offset="0.07" stop-color="#fff"/><stop offset="0.73" stop-color="#e2e2e2"/><stop offset="1" stop-color="#cfcfcf"/></linearGradient><linearGradient id="linear-gradient" x1="219.73" y1="238.32" x2="188.77" y2="98.19" gradientUnits="userSpaceOnUse"><stop offset="0" stop-color="#eaedfc"/><stop offset="0.84" stop-color="#cae0fc"/></linearGradient><linearGradient id="linear-gradient-2" x1="261.59" y1="234.76" x2="227.71" y2="81.41" gradientUnits="userSpaceOnUse"><stop offset="0" stop-color="#eaedfc"/><stop offset="0.84" stop-color="#aed1fc"/></linearGradient><linearGradient id="linear-gradient-3" x1="172.08" y1="138.81" x2="172.08" y2="153.85" xlink:href="#linear-gradient"/><linearGradient id="linear-gradient-4" x1="183.38" y1="138.81" x2="183.38" y2="153.85" xlink:href="#linear-gradient"/><linearGradient id="linear-gradient-6" x1="172.08" y1="138.81" x2="172.08" y2="153.85" xlink:href="#linear-gradient"/><linearGradient id="linear-gradient-7" x1="172.08" y1="138.81" x2="172.08" y2="153.85" xlink:href="#linear-gradient"/><linearGradient id="linear-gradient-8" x1="183.38" y1="138.81" x2="183.38" y2="153.85" xlink:href="#linear-gradient"/><linearGradient id="linear-gradient-9" x1="227.39" y1="177.57" x2="227.39" y2="192.61" xlink:href="#linear-gradient"/><linearGradient id="linear-gradient-10" x1="227.39" y1="138.81" x2="227.39" y2="153.85" xlink:href="#linear-gradient"/><linearGradient id="linear-gradient-11" x1="255.59" y1="138.81" x2="255.59" y2="153.85" xlink:href="#linear-gradient"/><linearGradient id="linear-gradient-12" x1="227.39" y1="138.81" x2="227.39" y2="153.85" xlink:href="#linear-gradient"/><linearGradient id="linear-gradient-13" x1="241.49" y1="138.81" x2="241.49" y2="153.85" xlink:href="#linear-gradient"/><linearGradient id="linear-gradient-14" x1="241.49" y1="117.66" x2="241.49" y2="132.69" xlink:href="#linear-gradient"/><linearGradient id="linear-gradient-15" x1="255.59" y1="138.81" x2="255.59" y2="153.85" xlink:href="#linear-gradient"/><linearGradient id="linear-gradient-16" x1="241.49" y1="138.81" x2="241.49" y2="153.85" xlink:href="#linear-gradient"/><linearGradient id="linear-gradient-17" x1="255.59" y1="138.81" x2="255.59" y2="153.85" xlink:href="#linear-gradient"/><linearGradient id="linear-gradient-18" x1="90.29" y1="214.59" x2="59.33" y2="74.46" xlink:href="#linear-gradient"/><linearGradient id="linear-gradient-19" x1="130.31" y1="214.59" x2="99.36" y2="74.46" xlink:href="#linear-gradient-2"/><linearGradient id="linear-gradient-20" x1="45.2" y1="114.52" x2="45.2" y2="129.55" xlink:href="#linear-gradient"/><linearGradient id="linear-gradient-21" x1="56.5" y1="114.52" x2="56.5" y2="129.55" xlink:href="#linear-gradient"/><linearGradient id="linear-gradient-24" x1="45.2" y1="114.52" x2="45.2" y2="129.55" xlink:href="#linear-gradient"/><linearGradient id="linear-gradient-25" x1="56.5" y1="114.52" x2="56.5" y2="129.55" xlink:href="#linear-gradient"/><linearGradient id="linear-gradient-26" x1="100.52" y1="153.28" x2="100.52" y2="168.32" xlink:href="#linear-gradient"/><linearGradient id="linear-gradient-27" x1="100.52" y1="114.52" x2="100.52" y2="129.55" xlink:href="#linear-gradient"/><linearGradient id="linear-gradient-28" x1="128.72" y1="114.52" x2="128.72" y2="129.55" xlink:href="#linear-gradient"/><linearGradient id="linear-gradient-30" x1="114.62" y1="114.52" x2="114.62" y2="129.55" xlink:href="#linear-gradient"/><linearGradient id="linear-gradient-31" x1="114.62" y1="93.36" x2="114.62" y2="108.4" xlink:href="#linear-gradient"/><linearGradient id="linear-gradient-33" x1="114.62" y1="114.52" x2="114.62" y2="129.55" xlink:href="#linear-gradient"/><linearGradient id="linear-gradient-34" x1="128.72" y1="114.52" x2="128.72" y2="129.55" xlink:href="#linear-gradient"/><linearGradient id="linear-gradient-35" x1="158.89" y1="206.34" x2="125.22" y2="53.95" xlink:href="#linear-gradient"/><linearGradient id="linear-gradient-36" x1="170.3" y1="150.34" x2="145.71" y2="39.08" xlink:href="#linear-gradient"/><linearGradient id="linear-gradient-37" x1="178.58" y1="206.34" x2="144.91" y2="53.95" xlink:href="#linear-gradient-2"/><linearGradient id="linear-gradient-38" x1="189.99" y1="150.34" x2="165.41" y2="39.08" xlink:href="#linear-gradient-2"/><linearGradient id="linear-gradient-39" x1="118.34" y1="74.81" x2="118.34" y2="86.88" xlink:href="#linear-gradient"/><linearGradient id="linear-gradient-40" x1="127.4" y1="74.81" x2="127.4" y2="86.88" xlink:href="#linear-gradient"/><linearGradient id="linear-gradient-42" x1="149.96" y1="74.81" x2="149.96" y2="86.88" xlink:href="#linear-gradient"/><linearGradient id="linear-gradient-43" x1="172.6" y1="74.81" x2="172.6" y2="86.88" xlink:href="#linear-gradient"/><linearGradient id="linear-gradient-44" x1="118.34" y1="74.81" x2="118.34" y2="86.88" xlink:href="#linear-gradient"/><linearGradient id="linear-gradient-45" x1="149.96" y1="74.81" x2="149.96" y2="86.88" xlink:href="#linear-gradient"/><linearGradient id="linear-gradient-46" x1="161.28" y1="74.81" x2="161.28" y2="86.88" xlink:href="#linear-gradient"/><linearGradient id="linear-gradient-47" x1="172.6" y1="74.81" x2="172.6" y2="86.88" xlink:href="#linear-gradient"/><linearGradient id="linear-gradient-50" x1="161.28" y1="74.81" x2="161.28" y2="86.88" xlink:href="#linear-gradient"/><linearGradient id="linear-gradient-52" x1="118.34" y1="2371.77" x2="118.34" y2="2383.83" gradientTransform="matrix(1, 0, 0, -1, 0, 2433.19)" xlink:href="#linear-gradient"/><linearGradient id="linear-gradient-53" x1="127.4" y1="2371.77" x2="127.4" y2="2383.83" gradientTransform="matrix(1, 0, 0, -1, 0, 2433.19)" xlink:href="#linear-gradient"/><linearGradient id="linear-gradient-55" x1="149.96" y1="2371.77" x2="149.96" y2="2383.83" gradientTransform="matrix(1, 0, 0, -1, 0, 2433.19)" xlink:href="#linear-gradient"/><linearGradient id="linear-gradient-56" x1="172.6" y1="2371.77" x2="172.6" y2="2383.83" gradientTransform="matrix(1, 0, 0, -1, 0, 2433.19)" xlink:href="#linear-gradient"/><linearGradient id="linear-gradient-57" x1="118.34" y1="2371.77" x2="118.34" y2="2383.83" gradientTransform="matrix(1, 0, 0, -1, 0, 2433.19)" xlink:href="#linear-gradient"/><linearGradient id="linear-gradient-58" x1="149.96" y1="2371.77" x2="149.96" y2="2383.83" gradientTransform="matrix(1, 0, 0, -1, 0, 2433.19)" xlink:href="#linear-gradient"/><linearGradient id="linear-gradient-59" x1="161.28" y1="2371.77" x2="161.28" y2="2383.83" gradientTransform="matrix(1, 0, 0, -1, 0, 2433.19)" xlink:href="#linear-gradient"/><linearGradient id="linear-gradient-60" x1="172.6" y1="2371.77" x2="172.6" y2="2383.83" gradientTransform="matrix(1, 0, 0, -1, 0, 2433.19)" xlink:href="#linear-gradient"/><linearGradient id="linear-gradient-61" x1="118.34" y1="2371.76" x2="118.34" y2="2383.83" gradientTransform="matrix(1, 0, 0, -1, 0, 2433.19)" xlink:href="#linear-gradient"/><linearGradient id="linear-gradient-62" x1="127.4" y1="2371.76" x2="127.4" y2="2383.83" gradientTransform="matrix(1, 0, 0, -1, 0, 2433.19)" xlink:href="#linear-gradient"/><linearGradient id="linear-gradient-63" x1="161.28" y1="2371.76" x2="161.28" y2="2383.83" gradientTransform="matrix(1, 0, 0, -1, 0, 2433.19)" xlink:href="#linear-gradient"/><linearGradient id="linear-gradient-64" x1="172.6" y1="2371.76" x2="172.6" y2="2383.83" gradientTransform="matrix(1, 0, 0, -1, 0, 2433.19)" xlink:href="#linear-gradient"/><linearGradient id="linear-gradient-65" x1="30.7" y1="255.83" x2="46.63" y2="255.83" gradientUnits="userSpaceOnUse"><stop offset="0.02" stop-color="#fff"/><stop offset="1" stop-color="#dcd6e8"/></linearGradient><linearGradient id="linear-gradient-66" x1="134.06" y1="255.83" x2="149.99" y2="255.83" xlink:href="#linear-gradient-65"/><linearGradient id="linear-gradient-67" x1="229.56" y1="183.3" x2="229.56" y2="248.68" xlink:href="#linear-gradient-65"/></defs><title>illustration</title><g class="cls-1"><g id="Driver"><g id="_2-2" data-name="2"><path class="cls-2" d="M310.78,206.12c-20.44,38.44-55.07,70.49-95.84,90.28C155.75,325.12,82.82,309.65,32,274.25-23.36,235.68,24.66,167.68,70.48,141c29.34-17.1,65.63-19.77,98.09-28.72,32.77-9,53.37-24.76,74.1-49.27,19.55-23.11,49.41-25.85,66.66,2.35C337.72,111.78,334,162.46,310.78,206.12Z"/><path class="cls-3" d="M326.71,27.44h-104l0-.52A17.41,17.41,0,0,1,254,17.66a15.16,15.16,0,0,1,18.93-3.35,16.11,16.11,0,0,1,32-.25A14.8,14.8,0,0,1,327.2,26.85v.56Zm-102.94-1H326.22a13.84,13.84,0,0,0-21.43-11.17l-.69.46-.07-.83a15.13,15.13,0,0,0-30.19.24l0,.83-.69-.44a14.15,14.15,0,0,0-18.73,3.21l-.4.52-.38-.54a16.44,16.44,0,0,0-29.82,7.72Z"/><g id="build"><path class="cls-4" d="M236,232.17V68.56a1.42,1.42,0,0,0-1.43-1.42H166a1.42,1.42,0,0,0-1.42,1.42V232.17Z"/><path class="cls-5" d="M276,228.78V48.14a1.43,1.43,0,0,0-1.43-1.43H206a1.43,1.43,0,0,0-1.42,1.43V228.78Z"/><rect class="cls-6" x="168.61" y="72.1" width="6.93" height="11.67"/><rect class="cls-7" x="179.91" y="72.1" width="6.93" height="11.67"/><rect class="cls-7" x="179.91" y="72.1" width="6.93" height="11.67"/><rect class="cls-8" x="168.61" y="93.39" width="6.93" height="11.67"/><rect class="cls-9" x="168.61" y="114.69" width="6.93" height="11.67"/><rect class="cls-10" x="179.91" y="114.69" width="6.93" height="11.67"/><rect class="cls-11" x="223.93" y="132.15" width="6.93" height="11.67"/><rect class="cls-12" x="223.93" y="72.1" width="6.93" height="11.67"/><rect class="cls-13" x="252.13" y="72.1" width="6.93" height="11.67"/><rect class="cls-14" x="223.93" y="93.39" width="6.93" height="11.67"/><rect class="cls-15" x="238.03" y="93.39" width="6.93" height="11.67"/><rect class="cls-16" x="238.03" y="72.24" width="6.93" height="11.67"/><rect class="cls-17" x="252.13" y="93.39" width="6.93" height="11.67"/><rect class="cls-18" x="238.03" y="114.69" width="6.93" height="11.67"/><rect class="cls-19" x="252.13" y="114.69" width="6.93" height="11.67"/><path class="cls-20" d="M109.14,232.17V44.27a1.43,1.43,0,0,0-1.43-1.43H39.1a1.43,1.43,0,0,0-1.43,1.43v187.9Z"/><path class="cls-21" d="M149.16,232.17V44.27a1.43,1.43,0,0,0-1.43-1.43H79.12a1.43,1.43,0,0,0-1.43,1.43v187.9Z"/><rect class="cls-22" x="41.74" y="47.81" width="6.93" height="11.67"/><rect class="cls-23" x="53.04" y="47.81" width="6.93" height="11.67"/><rect class="cls-23" x="53.04" y="47.81" width="6.93" height="11.67"/><rect class="cls-22" x="41.74" y="69.1" width="6.93" height="11.67"/><rect class="cls-24" x="41.74" y="90.39" width="6.93" height="11.67"/><rect class="cls-25" x="53.04" y="90.39" width="6.93" height="11.67"/><rect class="cls-26" x="97.05" y="107.86" width="6.93" height="11.67"/><rect class="cls-27" x="97.05" y="47.81" width="6.93" height="11.67"/><rect class="cls-28" x="125.25" y="47.81" width="6.93" height="11.67"/><rect class="cls-27" x="97.05" y="69.1" width="6.93" height="11.67"/><rect class="cls-29" x="111.15" y="69.1" width="6.93" height="11.67"/><rect class="cls-30" x="111.15" y="47.94" width="6.93" height="11.67"/><rect class="cls-28" x="125.25" y="69.1" width="6.93" height="11.67"/><rect class="cls-31" x="111.15" y="90.39" width="6.93" height="11.67"/><rect class="cls-32" x="125.25" y="90.39" width="6.93" height="11.67"/><path class="cls-33" d="M169.64,232.17V18.44a1.15,1.15,0,0,0-1.14-1.15H113.44a1.16,1.16,0,0,0-1.15,1.15V232.17Z"/><path class="cls-34" d="M123.36,1.56h35.21a3.21,3.21,0,0,1,3.21,3.21v26a0,0,0,0,1,0,0H120.15a0,0,0,0,1,0,0v-26A3.21,3.21,0,0,1,123.36,1.56Z"/><path class="cls-35" d="M189.34,232.17V18.44a1.16,1.16,0,0,0-1.15-1.15H133.13A1.15,1.15,0,0,0,132,18.44V232.17Z"/><path class="cls-36" d="M143.06,1.56h35.21a3.21,3.21,0,0,1,3.21,3.21v26a0,0,0,0,1,0,0H139.85a0,0,0,0,1,0,0v-26A3.21,3.21,0,0,1,143.06,1.56Z"/><rect class="cls-37" x="115.56" y="21.28" width="5.56" height="9.36"/><rect class="cls-38" x="124.62" y="21.28" width="5.56" height="9.36"/><rect class="cls-38" x="124.62" y="21.28" width="5.56" height="9.36"/><rect class="cls-39" x="147.18" y="21.28" width="5.56" height="9.36"/><rect class="cls-40" x="169.82" y="21.28" width="5.56" height="9.36"/><rect class="cls-41" x="115.56" y="38.36" width="5.56" height="9.36"/><rect class="cls-42" x="147.18" y="38.36" width="5.56" height="9.36"/><rect class="cls-43" x="158.5" y="38.36" width="5.56" height="9.36"/><rect class="cls-44" x="169.82" y="38.36" width="5.56" height="9.36"/><rect class="cls-37" x="115.56" y="55.45" width="5.56" height="9.36"/><rect class="cls-38" x="124.62" y="55.45" width="5.56" height="9.36"/><rect class="cls-45" x="158.5" y="55.45" width="5.56" height="9.36"/><rect class="cls-40" x="169.82" y="55.45" width="5.56" height="9.36"/><rect class="cls-46" x="115.56" y="105.59" width="5.56" height="9.36"/><rect class="cls-47" x="124.62" y="105.59" width="5.56" height="9.36"/><rect class="cls-47" x="124.62" y="105.59" width="5.56" height="9.36"/><rect class="cls-48" x="147.18" y="105.59" width="5.56" height="9.36"/><rect class="cls-49" x="169.82" y="105.59" width="5.56" height="9.36"/><rect class="cls-50" x="115.56" y="88.51" width="5.56" height="9.36"/><rect class="cls-51" x="147.18" y="88.51" width="5.56" height="9.36"/><rect class="cls-52" x="158.5" y="88.51" width="5.56" height="9.36"/><rect class="cls-53" x="169.82" y="88.51" width="5.56" height="9.36"/><rect class="cls-54" x="115.56" y="71.42" width="5.56" height="9.36"/><rect class="cls-55" x="124.62" y="71.42" width="5.56" height="9.36"/><rect class="cls-56" x="158.5" y="71.42" width="5.56" height="9.36"/><rect class="cls-57" x="169.82" y="71.42" width="5.56" height="9.36"/></g><g id="car"><ellipse class="cls-58" cx="86.76" cy="266.03" rx="86.76" ry="5.86"/><g id="car-2" data-name="car"><rect class="cls-59" x="44.41" y="258.52" width="100.82" height="3.28"/><path class="cls-59" d="M54.92,260.57c3.6,0-4.33,0-4.52,0-3.44-.06-27.93.61-28.38-.8s-7.74-12.4-3.1-15S29.61,238,29.61,238l14-4,11.16,9.62.48,7-.6,5.7Z"/><path class="cls-59" d="M26.81,255.83a11.86,11.86,0,1,1,11.85,11.85A11.85,11.85,0,0,1,26.81,255.83Z"/><path class="cls-60" d="M38.58,246.62c6.72,0,10.46,3.87,12.53,8-1.13-5.23-4.21-13-12.59-13-9.07,0-12,8.14-13,13.17A13.71,13.71,0,0,1,38.58,246.62Z"/><path class="cls-61" d="M30.7,255.83a8,8,0,1,1,8,8A8,8,0,0,1,30.7,255.83Z"/><path class="cls-59" d="M126,260.57c.38,0,32.38-.8,32.38-.8l2.33-5.65.72-7.25s-3-7.6-9-10.69-20.55-.59-20.55-.59l-2.14-1.31-7.48,5.82Z"/><path class="cls-60" d="M142.94,245.84c10,0,15.56,5.76,18.65,11.88-1.68-7.78-6.27-19.42-18.73-19.42-13.49,0-17.86,12.1-19.41,19.6C126.49,251.77,132.16,245.84,142.94,245.84Z"/><path class="cls-62" d="M156.93,259.77c1.22,0,18.41-.61,19-1.22s-.1-9.92-.71-11-1.42-1.22-1.57-1.47-.46-5.46-.69-5.89-9.68-10-42.52-14.56c-7.05-3.81-17.94-12.09-32-16.8a63.64,63.64,0,0,0-20.41-3.48c-24.09,0-42.19,6.51-59.87,18.19-1,2.44-4.88,7.61-5.7,9.14S8.22,250.57,8,251.08a11.56,11.56,0,0,0-.85,2.68c0,.51.74.81.74.81A1.77,1.77,0,0,0,8.63,257c1.63.88,12.93,2.68,15.51,2.71.37-1.59-.82-17.37,14.43-17.37s13.9,18.19,13.9,18.19h74.85s-3.36-18,15-18S156.93,259.77,156.93,259.77Z"/><path class="cls-63" d="M13.35,246.89c1.2-1.2,2.8-14.26,2.8-14.26l-3.32-.48c-.14.22-.25.41-.34.56-.55,1-2.34,9-3.5,14.11C10.56,247.23,12.64,247.6,13.35,246.89Z"/><path class="cls-64" d="M40.06,228.71c.83,2.12,4,6.95,6.56,11.26,3.29,4.05,5.44,8,7.84,10.61,13,1.06,59.05,4.26,71.64,5.07.29-3.23.83-7.66,4.47-10.34C115.27,242.61,43.32,229.51,40.06,228.71Z"/><path class="cls-65" d="M154.74,234.59C161,234,173,240.22,173,240.22c.23.43.54,5.64.69,5.89C166.64,243.87,155,235.62,154.74,234.59Z"/><path class="cls-66" d="M122.36,228.53s-28.4-4-43.7-4.33S46,223.68,35.4,221c1.49-1.16,13.24-12.59,41.19-12.59,0,0,14.66-.84,25.57,4.59S122.36,228.53,122.36,228.53Z"/><path class="cls-67" d="M76.59,214.07s14.66-.84,25.57,4.58a68.76,68.76,0,0,1,13.22,8.95c4.24.54,7,.93,7,.93s-9.29-10.07-20.2-15.49-25.57-4.59-25.57-4.59c-27.95,0-39.7,11.43-41.19,12.59a61.26,61.26,0,0,0,6.2,1.18C47.84,218.58,59,214.07,76.59,214.07Z"/><path class="cls-68" d="M36.07,221.2c6.66,1.56,15.81,2.22,25.4,2.57a152.05,152.05,0,0,1-10.1-11.54,46.83,46.83,0,0,0-15,8Z"/><path class="cls-68" d="M83.12,208.54a61.12,61.12,0,0,0-6.53-.09h-.93c-.14,5.23.23,10.46.52,15.69l2.48,0c5.68.12,13.17.75,20.34,1.49A106.94,106.94,0,0,1,83.12,208.54Z"/><path class="cls-64" d="M78.8,208.41v1.18h0c4.14,0,14.64.44,22.83,4.51,7.32,3.64,14,9.49,17.41,12.78C111,225.81,90.7,223.27,78.68,223l-2.87,0c-13.12-.27-27.87-.57-37.76-2.55a43.75,43.75,0,0,1,9.7-5.54c8.18-3.47,17.88-5.23,28.84-5.23h.07s.81,0,2.14,0v-1.18Zm0,0c-1.39,0-2.21,0-2.21,0-27.95,0-39.7,11.43-41.19,12.59,10.59,2.64,28,2.84,43.26,3.16s43.7,4.33,43.7,4.33-9.29-10.07-20.2-15.49c-8.34-4.14-18.85-4.63-23.36-4.63Z"/><path class="cls-69" d="M17.5,224.94c.28-.51.52-1,.69-1.37a111.85,111.85,0,0,1,25-12.62,9.5,9.5,0,0,1-3.83,4.19C35.59,217.33,24.73,226.46,17.5,224.94Z"/><path class="cls-66" d="M17.5,224.94c.28-.51.52-1,.69-1.37a111.85,111.85,0,0,1,25-12.62,9.5,9.5,0,0,1-3.83,4.19C35.59,217.33,24.73,226.46,17.5,224.94Z"/><path class="cls-64" d="M39,214.63c-.71.42-1.7,1.08-2.85,1.86-4.84,3.27-12.82,8.66-18.43,8-.19.34-.4.71-.63,1.1a9.13,9.13,0,0,0,1.59.14c5.93,0,13.46-5.09,18.14-8.26,1.13-.76,2.1-1.42,2.78-1.82a12.41,12.41,0,0,0,4.49-5l0,0-1.65.57A10.78,10.78,0,0,1,39,214.63Z"/><path class="cls-66" d="M119.84,223.17c-7.22-6-16.77-10.57-19.11-11.79a6,6,0,0,1-2.27-2.53c13.88,4.66,24.68,12.79,31.73,16.66l.05.14h.2C130.19,226.49,124.36,226,119.84,223.17Z"/><path class="cls-64" d="M78,208.41c.93,3.4,3.21,11.76,4.27,15.92-1.27-.06-2.48-.11-3.61-.13l-4.21-.09-1.16-15.6c1.08,0,2.17-.06,3.3-.06C76.59,208.45,77.1,208.42,78,208.41Z"/><path class="cls-64" d="M106.32,256.86c-4.91,0-10.51-.05-16.13-.14-9.07-.14-30.38-.62-32.24-1.93-1.61-1.14-6.3-7.39-10.09-13s-7.78-12.09-7.68-13.75c.18-3.16.23-3.26,2.43-5.47,2-2,4.34-4.83,4.34-8.67h.21c0,3.91-2.35,6.76-4.4,8.81-2.2,2.2-2.2,2.26-2.38,5.34S55,252.43,58.07,254.62c1.26.89,13.27,1.6,32.13,1.9,14.89.24,30.25.14,31.9-.21,5.5-13.24.09-27.59,0-27.74l.18-.07c.06.15,5.51,14.6,0,27.94l0,0,0,0C121.31,256.73,114.84,256.86,106.32,256.86Z"/><path class="cls-64" d="M78.67,256.35l-.2,0c3.82-22-2.93-47.55-3-47.81l.19,0C75.74,208.72,82.5,234.33,78.67,256.35Z"/><path class="cls-64" d="M130.46,225.66l-.6-.33a17.78,17.78,0,0,1-9.74-2.55c-6.49-5.38-14.69-9.55-18.2-11.33l-1-.49a4.12,4.12,0,0,1-1.3-1.7l-1.28-.44,0,.12c.52,1.06,1.17,2.38,2.09,2.86l1,.5c3.48,1.77,11.64,5.91,18.05,11.23l0,0A19.3,19.3,0,0,0,129,226.3a5.11,5.11,0,0,0,1.69-.21,1,1,0,0,0,.48-.33Z"/><path class="cls-64" d="M122.36,228.53s-2.65-.38-6.77-.91a45.57,45.57,0,0,1,.76-4.81A81.86,81.86,0,0,1,122.36,228.53Z"/><path class="cls-64" d="M116.7,227.71a11,11,0,0,1-3.81.31,29,29,0,0,1-5.56-.73s-1.19-6.15,2.8-6.78,6.57,2.72,6.57,2.72Z"/><circle class="cls-59" cx="142.02" cy="255.83" r="11.85" transform="translate(-114.29 396.98) rotate(-89.81)"/><path class="cls-70" d="M134.06,255.83a8,8,0,1,1,8,8A8,8,0,0,1,134.06,255.83Z"/><path class="cls-71" d="M61.06,234.56a5.37,5.37,0,0,0-4.43,5.56,5.14,5.14,0,0,0,.46,1.87,33.34,33.34,0,0,0,4.64,6.87.32.32,0,0,0,.22.1.33.33,0,0,0,.23-.1,39.73,39.73,0,0,0,3.23-4.33l-1.75-1.75a3.41,3.41,0,0,1-2.33.41,3.34,3.34,0,1,1,3.51-1.59l1.45,1.45c.19-.35.37-.71.53-1.06a5.19,5.19,0,0,0,.46-2.17A5.34,5.34,0,0,0,61.06,234.56Z"/><path class="cls-63" d="M64.47,239.9A2.51,2.51,0,1,1,62,237.39,2.51,2.51,0,0,1,64.47,239.9Z"/><path class="cls-71" d="M60,239.9h.56A1.39,1.39,0,0,1,62,238.51V238A2,2,0,0,0,60,239.9Z"/><path class="cls-71" d="M77.37,236.92a.84.84,0,0,1,0,1.2.89.89,0,0,1-.63.23H74.47v7.57a.81.81,0,0,1-.28.63.93.93,0,0,1-.67.25.91.91,0,0,1-.67-.25.86.86,0,0,1-.26-.63v-7.57H70.32a.89.89,0,0,1-.63-.23.79.79,0,0,1-.25-.61.78.78,0,0,1,.25-.59.88.88,0,0,1,.63-.23h6.42A.85.85,0,0,1,77.37,236.92Z"/><path class="cls-71" d="M82.21,239.17a.72.72,0,0,1,.29.58.87.87,0,0,1-.23.67.74.74,0,0,1-.55.22,1.42,1.42,0,0,1-.49-.1l-.19,0a1.14,1.14,0,0,0-.33-.05,1.31,1.31,0,0,0-.72.23,1.76,1.76,0,0,0-.57.7,2.6,2.6,0,0,0-.22,1.12v3.43a.89.89,0,0,1-.25.63.89.89,0,0,1-1.24,0,.85.85,0,0,1-.25-.63v-6a.85.85,0,0,1,.25-.63.89.89,0,0,1,1.24,0,.89.89,0,0,1,.25.63v.19a2.07,2.07,0,0,1,1-.9,2.89,2.89,0,0,1,1.33-.31A1.13,1.13,0,0,1,82.21,239.17Z"/><path class="cls-71" d="M83.54,238a.65.65,0,0,1-.2-.56v-.28a.66.66,0,0,1,.21-.56,1.19,1.19,0,0,1,.7-.16,1.13,1.13,0,0,1,.7.16.66.66,0,0,1,.21.56v.28A.66.66,0,0,1,85,238a1.29,1.29,0,0,1-.72.15A1.09,1.09,0,0,1,83.54,238Zm1.33,8.58a.83.83,0,0,1-.62.25.81.81,0,0,1-.62-.25.85.85,0,0,1-.25-.63v-6a.85.85,0,0,1,.25-.63.81.81,0,0,1,.62-.25.83.83,0,0,1,.62.25.88.88,0,0,1,.24.63v6A.88.88,0,0,1,84.87,246.55Z"/><path class="cls-71" d="M92.57,239.44a3.6,3.6,0,0,1,1.28,1.42,4.79,4.79,0,0,1,0,4.14,3.51,3.51,0,0,1-1.26,1.43,3.26,3.26,0,0,1-1.77.51,3.08,3.08,0,0,1-1.31-.28,3.49,3.49,0,0,1-1-.68v2.83a.88.88,0,0,1-.24.63.83.83,0,0,1-.62.25.84.84,0,0,1-.87-.88V240a.88.88,0,0,1,.24-.63.85.85,0,0,1,.63-.25.83.83,0,0,1,.62.25.88.88,0,0,1,.24.63V240a3.07,3.07,0,0,1,1-.76,2.75,2.75,0,0,1,1.3-.32A3.32,3.32,0,0,1,92.57,239.44Zm-.51,5.22a2.54,2.54,0,0,0,.59-1.73,2.57,2.57,0,0,0-.58-1.73,1.91,1.91,0,0,0-1.53-.69,1.94,1.94,0,0,0-1.53.69,2.83,2.83,0,0,0,0,3.46,2,2,0,0,0,1.53.7A1.91,1.91,0,0,0,92.06,244.66Z"/><path class="cls-71" d="M98.27,237.92a1.07,1.07,0,0,0-.2.62v.67h1.31a.78.78,0,0,1,.58.23.82.82,0,0,1,0,1.14.78.78,0,0,1-.58.22H98.07v5.12a.85.85,0,0,1-.25.63.89.89,0,0,1-1.24,0,.88.88,0,0,1-.24-.63V240.8h-.78a.78.78,0,0,1-.58-.22.82.82,0,0,1,0-1.14.78.78,0,0,1,.58-.23h.78v-.66a2.25,2.25,0,0,1,.74-1.76,3.05,3.05,0,0,1,2.15-.68,2,2,0,0,1,.93.21.72.72,0,0,1,.39.67.76.76,0,0,1-.2.56.63.63,0,0,1-.49.22h-.15l-.17,0a2.35,2.35,0,0,0-.57-.09A.81.81,0,0,0,98.27,237.92Z"/><path class="cls-71" d="M107.55,243.32a.91.91,0,0,1-.6.21h-4.77a2.16,2.16,0,0,0,.79,1.34,2.25,2.25,0,0,0,1.4.49,3.18,3.18,0,0,0,.93-.11,3.08,3.08,0,0,0,.53-.23l.26-.17a1.1,1.1,0,0,1,.5-.13.7.7,0,0,1,.52.22.69.69,0,0,1,.21.5.9.9,0,0,1-.4.71,3.36,3.36,0,0,1-1.09.56,4.06,4.06,0,0,1-1.37.23,4.26,4.26,0,0,1-2.12-.5A3.53,3.53,0,0,1,101,245a4,4,0,0,1-.49-2,4.42,4.42,0,0,1,.52-2.18,3.8,3.8,0,0,1,1.37-1.44,3.58,3.58,0,0,1,1.82-.49,3.33,3.33,0,0,1,1.8.52,3.92,3.92,0,0,1,1.86,3.3A.74.74,0,0,1,107.55,243.32Zm-5.36-1.23H106V242a1.51,1.51,0,0,0-.59-1,1.89,1.89,0,0,0-1.22-.44A1.81,1.81,0,0,0,102.19,242.09Z"/><path class="cls-71" d="M113.79,239.17a.73.73,0,0,1,.3.58.91.91,0,0,1-.23.67.77.77,0,0,1-.55.22,1.38,1.38,0,0,1-.49-.1l-.2,0a1.13,1.13,0,0,0-.32-.05,1.31,1.31,0,0,0-.72.23,1.61,1.61,0,0,0-.57.7,2.6,2.6,0,0,0-.23,1.12v3.43a.88.88,0,0,1-.24.63.85.85,0,0,1-.63.25.83.83,0,0,1-.62-.25.88.88,0,0,1-.24-.63v-6a.88.88,0,0,1,.24-.63.83.83,0,0,1,.62-.25.85.85,0,0,1,.63.25.88.88,0,0,1,.24.63v.19a2.12,2.12,0,0,1,1-.9,2.92,2.92,0,0,1,1.33-.31A1.11,1.11,0,0,1,113.79,239.17Z"/></g></g><polygon class="cls-72" points="269.46 286.29 269.56 293.06 265.55 293.11 265.44 285.61 269.46 286.29"/><path class="cls-62" d="M265.54,292.29l4.5.79a11.63,11.63,0,0,1,.34,2l-.05.8a1.28,1.28,0,0,1-1.19,1.2l-7.46.58a1.12,1.12,0,0,1-1.22-1.09,2.1,2.1,0,0,1,1.43-2l.43-.15Z"/><path class="cls-62" d="M289.27,223.45a42.1,42.1,0,0,0-1-9.46.53.53,0,0,0-.49-.4,73.22,73.22,0,0,0-17.15,1.47c-5.44,1.1-8.83,2.29-8.87,8.18-.07,10.85-5.23,19.77-7.06,30.2-1.06,6.06.78,11.48,2.82,17.09,2.17,6,6.31,15.66,7.87,21.84.27,0,4.67.71,4.67.71,2.08-10.45-2.69-23.3-2.54-31.35.11-6,4.48-9,6.66-14.57,2.41-6.14,5.87-3.7,9.85-7.26S289.25,229.75,289.27,223.45Z"/><polygon class="cls-72" points="298.33 279.81 300.98 286.03 297.46 287.99 294.36 280.71 298.33 279.81"/><path class="cls-62" d="M297.37,287.72a2.67,2.67,0,0,1,.46-.42c.44-.32,4-2.21,4.32-1.36a.93.93,0,0,1,0,.44,33.11,33.11,0,0,1-1.71,7.2c-.36,1-.91,2.09-1.94,2.34a3,3,0,0,1-1.38-.08,15.21,15.21,0,0,1-2-.59,1.09,1.09,0,0,1-.6-.42c-.24-.44.18-1,.62-1.19s1-.41,1.2-.86a1.61,1.61,0,0,0,.12-.66C296.61,290.46,296.33,288.86,297.37,287.72Z"/><path class="cls-73" d="M272.28,255.4c1.31,6,5.07,10.33,9.08,14.75,3.79,4.17,12.38,13.35,15.79,17.84l4.57-2.38c-1.83-7-9.06-19.77-11.68-26.51-2.16-5.55-2.11-11.28-2.2-17.28,0-3,.67-5.71,1.06-8.61.48-3.59.5-7.28.94-10.89.14-1.21.23-2.64-.71-3.43a3.16,3.16,0,0,0-1.49-.6C267.87,214.46,269.78,244,272.28,255.4Z"/><path class="cls-74" d="M240.53,176.54a1.45,1.45,0,0,1,.3.05c.84.31,1.09,1,1.81,1.5.32.24,1.27-.13,1.23.7,0,.31-.17,1.05-.21,1.71a5.86,5.86,0,0,0,1,3.11c2.26,3.6,5.44,6.48,8.67,9.24a1.51,1.51,0,0,0,.62.37,1.61,1.61,0,0,0,1.19-.41,31.81,31.81,0,0,1,5.26-2.93,12.1,12.1,0,0,1,5.18-1.27,5.49,5.49,0,0,1,4.56,2.41,4.26,4.26,0,0,1,.2,3.87c-1.38,3-6.24,2.88-9.06,3.34a57.34,57.34,0,0,1-8.06.72,2.35,2.35,0,0,1-1-.12,2.38,2.38,0,0,1-.83-.65,125.16,125.16,0,0,1-8.8-10.53c-.77-1-.91-2.28-1.63-3.2-.46-.59-1.24-.72-1.79-1.18a6.87,6.87,0,0,1-1.5-1.81c-.67-1.23-.06-2.55.36-3.75a1.42,1.42,0,0,1,.39-.7,2.14,2.14,0,0,1,1.28-.43A4.51,4.51,0,0,1,240.53,176.54Z"/><path class="cls-63" d="M254.05,192.82c.8.12,15-8.94,15.65-9.29,2.43-1.36,5-2.76,7.74-3a6.3,6.3,0,0,1,5.06,10.8A33.17,33.17,0,0,1,264.12,200c-.14,0-10.77,0-12.41-.82-1.37-.69-11.62-12.93-11.36-14.09s3.32-3.3,4-2.8C245.17,182.94,253.05,192.7,254.05,192.82Z"/><path class="cls-63" d="M282.88,181.71a15.48,15.48,0,0,1,1.71,1.63l1.45,1.55c1.67,1.78,2.5,4.43,3.22,6.71,3.77,12,5.13,28.46,2.68,41-9.3.81-20.06-1.54-29.34-2.8a3.13,3.13,0,0,1-2.39-1.11,3,3,0,0,1-.3-1.61c0-8,1.69-16.52,3.27-24.36a84.53,84.53,0,0,1,2.53-9.81c1.12-3.4,2.37-7.07,5-9.64,2.79-2.75,8.13-4.11,11.62-2A4.49,4.49,0,0,1,282.88,181.71Z"/><path class="cls-75" d="M276.76,166a9.11,9.11,0,0,0-1.6,3.85,1.25,1.25,0,0,1-.47,1c-.34.2-.13.74-.33.4a6.67,6.67,0,0,1-.85-1.94,14.51,14.51,0,0,1,.37-2.78,4.16,4.16,0,0,1,1.06-2.16,4.73,4.73,0,0,1,1.23-.72,5.89,5.89,0,0,1,2-.6c1.18-.07,1.84.45.71,1.13A7.43,7.43,0,0,0,276.76,166Z"/><path class="cls-74" d="M279,183.55a2.62,2.62,0,0,0,3.21-2.12,3.73,3.73,0,0,1,.9-2.26c.55-.44,1.28-.41,1.89-.73,1.15-.58,1.57-2.14,1.84-3.51l.73-3.56a7.25,7.25,0,0,0,.09-3.86,4.5,4.5,0,0,0-1.42-1.9A9,9,0,0,0,278.1,164a4.26,4.26,0,0,0-2.83,1.94,6.18,6.18,0,0,0-.51,2.06q-.37,3.07-.77,6.15a5.32,5.32,0,0,0,0,1.49c.28,1.54,1.85,2.21,3.21,2.63A26.58,26.58,0,0,0,277,181a2.62,2.62,0,0,0,2,2.58Z"/><path class="cls-75" d="M273.47,175.31a5,5,0,0,0,1.45,3.45,7,7,0,0,0,3.86,1.43l2.24.35c1.9.29,3.82.29,5.07-1.61a6.34,6.34,0,0,0,.93-3,1.92,1.92,0,0,0-.07-.86.69.69,0,0,0-.6-.49c-.35,0-.6.34-.85.6a1.69,1.69,0,0,1-2.07.38,2.73,2.73,0,0,1-.49-.47l-.19-.21a4.85,4.85,0,0,0-2.34-1.29c-.74-.21-1.82-.64-2.47,0l-1.13,1a2,2,0,0,1-.51.36,1.23,1.23,0,0,1-.6.07,1.28,1.28,0,0,1-1.16-.92,3.07,3.07,0,0,1,0-.74,1.08,1.08,0,0,0-.1-.71c-.47-.77-.78.32-.85.7A8.06,8.06,0,0,0,273.47,175.31Zm5.13,1a2.11,2.11,0,0,0,1.87.47c.36-.06.42.54.07.6a2.62,2.62,0,0,1-2.29-.58C278,176.58,278.32,176.1,278.6,176.34Z"/><path class="cls-75" d="M274.8,162.16a10,10,0,0,1-.09-1.55,2.87,2.87,0,0,0,1.44.32l.12-.88c0-.25,3.31,0,3.58,0,2.51.12,4.8.22,6.86,1.87a6.88,6.88,0,0,1,2.75,5.57A10.58,10.58,0,0,1,287,174a14.92,14.92,0,0,0,.39-2.44,4.87,4.87,0,0,0-.28-1.61,6.3,6.3,0,0,0-1.9-2.65,12.14,12.14,0,0,0-4.6-2.29,13.32,13.32,0,0,0-5-.66c-.76.11-.9.28-1.25-.53a13.56,13.56,0,0,1-.41-1.77Z"/><path class="cls-76" d="M276.4,190.6v50a5.24,5.24,0,0,1-1.26,3.42,5.18,5.18,0,0,1-1,.94h0a5.26,5.26,0,0,1-2.42.89h0a4.93,4.93,0,0,1-.55,0H188a5.25,5.25,0,0,1-1.74-.3,3.64,3.64,0,0,1-.57-.25,5.24,5.24,0,0,1-2.91-4,6.32,6.32,0,0,1-.06-.76v-50a5.28,5.28,0,0,1,5.28-5.27h83.13a5.26,5.26,0,0,1,4.72,2.93,1.34,1.34,0,0,1,.13.27h0A5.23,5.23,0,0,1,276.4,190.6Z"/><path class="cls-77" d="M205.73,186.51H188.49a5.13,5.13,0,0,0-5.12,5.13v14.74C183.37,195.41,193.38,186.51,205.73,186.51Z"/><path class="cls-78" d="M186.47,247.74l.19.08-.19-.07Z"/><polyline class="cls-78" points="189.66 215.22 195.95 214.38 197.5 203.72"/><path class="cls-78" d="M186.66,247.82l-.19-.07h0Z"/><polyline class="cls-78" points="206.4 245.88 206.36 245.87 200.92 243.94 208.26 230.1 205.1 228.53 182.77 234.57"/><polyline class="cls-78" points="247.4 197.21 225.91 201.75 208.26 230.1"/><line class="cls-78" x1="223.66" y1="223.21" x2="210.51" y2="245.87"/><polyline class="cls-78" points="213.43 185.33 211 188.52 205.75 195.4 203.18 195.82 202.73 197.75 201.36 203.54"/><line class="cls-78" x1="230.84" y1="185.33" x2="225.91" y2="201.75"/><path class="cls-78" d="M210.84,188.38a19.36,19.36,0,0,0,5,3.33,15.48,15.48,0,0,0,12.83-.22"/><polyline class="cls-78" points="218.72 192.75 216.63 195.82 214.19 194.01 215.85 191.72"/><polyline class="cls-78" points="243.75 218.38 229.02 235.84 225.12 237.81"/><polyline class="cls-78" points="276.4 207.9 275.19 207.13 262.41 185.33"/><polyline class="cls-78" points="268.61 196.45 256.26 229.79 260.11 236.24"/><line class="cls-78" x1="256.95" y1="230.95" x2="253.11" y2="238.83"/><polyline class="cls-78" points="218.9 231.41 225.13 237.81 226.27 240.07 216.63 242.06 214.95 245.87"/><polyline class="cls-78" points="190.25 202.57 190.31 202.59 190.41 202.6 189.66 215.22 186.66 228.73 200.65 244.04 206.04 245.87"/><line class="cls-78" x1="221.03" y1="228.53" x2="228.92" y2="235.69"/><path class="cls-78" d="M239.6,245.87c.17-.52.37-1,.56-1.53.8-2.1,1.64-4.16,2.47-6,.28-.64.57-1.26.86-1.85l.06-.12.56-1.14c.35-.69.7-1.36,1-2h0c3.31-6.35,6.23-11.13,6.23-11.13h0l1.33-4.67v0h0l.4-1.38-.18-2-5.54-16.77,1.83-11.88"/><polyline class="cls-78" points="244.31 235.31 244.32 235.31 254.1 239.74 254.14 239.76"/><line class="cls-78" x1="182.71" y1="189.02" x2="202.73" y2="197.75"/><path class="cls-78" d="M182.71,201.38l2.19.35,1.4.22,3.95.62.06,0h.1l1.84.29.11,0,5.14.81,1.88.3a10.89,10.89,0,0,1,2-.48c.63,0,24.54-1.79,24.55-1.79l8.53,2.75s1.66,6.42,2.71,7.67l0,0,.1.11q.68.81,1.35,1.53l.25.27h0c5.81,6.14,9.7,6.54,9.7,6.54l2.77,1.38,3.56,1.78L267.28,230"/><line class="cls-78" x1="262.92" y1="211.81" x2="273.51" y2="219.61"/><path class="cls-79" d="M276.4,212.57v27.15a6.13,6.13,0,0,1-6.15,6.15H223.66a83.79,83.79,0,0,0,16.5-1.53l.65-.13q3.36-.72,6.31-1.67c.89-.29,1.74-.59,2.56-.9h0c1.56-.59,3-1.23,4.41-1.9a46.3,46.3,0,0,0,5.51-3.16c.69-.46,1.35-.93,2-1.4a41.6,41.6,0,0,0,5.55-5l.14-.15c.62-.69,1.2-1.36,1.74-2s1.06-1.37,1.53-2.05a40.47,40.47,0,0,0,2.94-4.95A31.06,31.06,0,0,0,276.4,212.57Z"/><path class="cls-74" d="M272.22,226.08a.92.92,0,0,1-.09-.28c-.11-.89.37-1.41.51-2.3.06-.39-.7-1.07.06-1.41.28-.12,1-.33,1.62-.59a6,6,0,0,0,2.31-2.31c1-1.76,1.88-7.65,4.52-7.77,6.18-.27-1.62,9.65-2.09,10.67-.32.67-.08,1.43-.23,2.13a7,7,0,0,1-.93,2.16c-.79,1.16-2.24,1.22-3.5,1.39a1.36,1.36,0,0,1-.8,0,2.1,2.1,0,0,1-1-.94A4.3,4.3,0,0,1,272.22,226.08Z"/><path class="cls-63" d="M287,185.71c.14.33.27.81.5,1.38,1.18,3,1.11,7.12,1.08,10.28-.06,6.72-4.6,18.89-7.54,24.94a1,1,0,0,1-.48.54.93.93,0,0,1-.7-.11l-4.18-1.82a1.94,1.94,0,0,1-.81-.53,2,2,0,0,1,.05-1.83c1.44-3.93,5.58-11.11,5.76-17.66.05-2-.29-4.54.23-6.4.46-1.68,1.84-3.31,2.37-5.14.32-1.1.8-2.74,1.78-3.45C286.32,185,286.68,185.05,287,185.71Z"/><path class="cls-80" d="M256.78,202.37s.22,12-2.66,12c-2,0-16.69-11-16.69-2.54,0,3.62-13.11,16-14.46,10.2-1.25-5.4-4.91-1.28-5.59-4.78-1.26-6.58-8.93-5-11.66-3.86-2.06.89-3.28,2.6-3.28,3.86A9.78,9.78,0,0,1,192.8,226c-6.43,0-2.45,2.22-2.45,6.76l-7.58,1.8"/><path class="cls-63" d="M259.38,193a2.59,2.59,0,1,1-2.59-2.59A2.59,2.59,0,0,1,259.38,193Z"/><path class="cls-71" d="M254.78,193h.58a1.44,1.44,0,0,1,1.43-1.44V191A2,2,0,0,0,254.78,193Z"/><path class="cls-62" d="M256.78,187.43a5.5,5.5,0,0,0-5.49,5.5,5.38,5.38,0,0,0,.48,2.25,34.83,34.83,0,0,0,4.78,7.08.31.31,0,0,0,.23.11.32.32,0,0,0,.24-.11,39.7,39.7,0,0,0,3.33-4.46l-1.8-1.81a3.52,3.52,0,0,1-1.76.48,3.43,3.43,0,1,1,3-1.7l1.49,1.49c.19-.36.38-.72.54-1.08a5.38,5.38,0,0,0,.48-2.25A5.5,5.5,0,0,0,256.78,187.43Z"/><path class="cls-63" d="M192.89,232.75a2.54,2.54,0,1,1-2.54-2.54A2.54,2.54,0,0,1,192.89,232.75Z"/><path class="cls-63" d="M208.26,213.35a2.54,2.54,0,1,1-2.54-2.54A2.54,2.54,0,0,1,208.26,213.35Z"/><path class="cls-63" d="M240,211.81a2.54,2.54,0,1,1-2.54-2.54A2.54,2.54,0,0,1,240,211.81Z"/></g></g></g></svg>