<svg xmlns="http://www.w3.org/2000/svg" xmlns:xlink="http://www.w3.org/1999/xlink" viewBox="0 0 326.18 301.88"><defs><style>.cls-1{fill:url(#linear-gradient);}.cls-2{fill:none;}.cls-3{isolation:isolate;}.cls-4{opacity:0.05;}.cls-5{fill:url(#linear-gradient-2);}.cls-6{fill:url(#linear-gradient-3);}.cls-7{fill:url(#linear-gradient-4);}.cls-8{fill:url(#linear-gradient-5);}.cls-9{fill:url(#linear-gradient-7);}.cls-10{fill:url(#linear-gradient-8);}.cls-11{fill:url(#linear-gradient-9);}.cls-12{fill:url(#linear-gradient-10);}.cls-13{fill:url(#linear-gradient-11);}.cls-14{fill:url(#linear-gradient-12);}.cls-15{fill:url(#linear-gradient-13);}.cls-16{fill:url(#linear-gradient-14);}.cls-17{fill:url(#linear-gradient-15);}.cls-18{fill:url(#linear-gradient-16);}.cls-19{fill:url(#linear-gradient-17);}.cls-20{fill:url(#linear-gradient-18);}.cls-21{fill:url(#linear-gradient-19);}.cls-22{fill:url(#linear-gradient-20);}.cls-23{fill:url(#linear-gradient-21);}.cls-24{fill:url(#linear-gradient-22);}.cls-25{fill:url(#linear-gradient-25);}.cls-26{fill:url(#linear-gradient-26);}.cls-27{fill:url(#linear-gradient-27);}.cls-28{fill:url(#linear-gradient-28);}.cls-29{fill:url(#linear-gradient-29);}.cls-30{fill:url(#linear-gradient-31);}.cls-31{fill:url(#linear-gradient-32);}.cls-32{fill:url(#linear-gradient-34);}.cls-33{fill:url(#linear-gradient-35);}.cls-34{fill:url(#linear-gradient-36);}.cls-35{fill:url(#linear-gradient-37);}.cls-36{fill:url(#linear-gradient-38);}.cls-37{fill:url(#linear-gradient-39);}.cls-38{fill:url(#linear-gradient-40);}.cls-39{fill:url(#linear-gradient-41);}.cls-40{fill:url(#linear-gradient-43);}.cls-41{fill:url(#linear-gradient-44);}.cls-42{fill:url(#linear-gradient-45);}.cls-43{fill:url(#linear-gradient-46);}.cls-44{fill:url(#linear-gradient-47);}.cls-45{fill:url(#linear-gradient-48);}.cls-46{fill:url(#linear-gradient-51);}.cls-47{fill:url(#linear-gradient-53);}.cls-48{fill:url(#linear-gradient-54);}.cls-49{fill:url(#linear-gradient-56);}.cls-50{fill:url(#linear-gradient-57);}.cls-51{fill:url(#linear-gradient-58);}.cls-52{fill:url(#linear-gradient-59);}.cls-53{fill:url(#linear-gradient-60);}.cls-54{fill:url(#linear-gradient-61);}.cls-55{fill:url(#linear-gradient-62);}.cls-56{fill:url(#linear-gradient-63);}.cls-57{fill:url(#linear-gradient-64);}.cls-58{fill:url(#linear-gradient-65);}.cls-59{fill:#0d1a38;}.cls-60{fill:#b5a6fe;}.cls-60,.cls-68{mix-blend-mode:multiply;}.cls-61{fill:url(#linear-gradient-66);}.cls-62{fill:#304269;}.cls-63{fill:#fc6da2;}.cls-64{fill:#3c5582;}.cls-65{fill:#f2edff;}.cls-66,.cls-68{fill:#b5d8ff;}.cls-67{fill:#9ab8d9;}.cls-69{fill:#ded1fd;}.cls-70{fill:url(#linear-gradient-67);}.cls-71{fill:#fff;}.cls-72{fill:#f77a4b;}.cls-73{fill:#f5ceb0;}.cls-74{fill:#f4cdaf;}.cls-75{fill:#3c4043;}.cls-76{fill:#efbfa5;}.cls-77{fill:url(#Безымянный_градиент_73);}.cls-78{fill:url(#Безымянный_градиент_73-2);}.cls-79{fill:#2c90bf;}.cls-80{fill:#39517c;}.cls-81{fill:#bac5f4;}.cls-82{fill:#e1e6fb;}.cls-83{fill:#1c4f69;}.cls-84{fill:#3b455a;}.cls-85{fill:#e5e5e5;}.cls-86{fill:#a9cee6;}.cls-87{fill:#702b0a;}.cls-88{fill:#d1d1d1;}.cls-89{fill:#282828;}.cls-90{fill:#422d11;}.cls-91{fill:#4b45bd;}.cls-92{fill:#3f3faa;}.cls-93{fill:#f45a2a;}.cls-94{fill:#ffbfa4;}.cls-95{fill:#f60;}.cls-96{fill:#9eb1f2;}.cls-97{fill:#242449;}.cls-98{fill:url(#Безымянный_градиент_73-3);}.cls-99{clip-path:url(#clip-path);}.cls-100{mask:url(#mask);}.cls-101{fill:url(#linear-gradient-68);}</style><linearGradient id="linear-gradient" x1="-231.42" y1="223.73" x2="-231.42" y2="0.39" gradientUnits="userSpaceOnUse"><stop offset="0" stop-color="#fff"/><stop offset="1"/></linearGradient><linearGradient id="linear-gradient-2" x1="202.97" y1="255.58" x2="172.01" y2="115.45" gradientUnits="userSpaceOnUse"><stop offset="0" stop-color="#eaedfc"/><stop offset="0.84" stop-color="#cae0fc"/></linearGradient><linearGradient id="linear-gradient-3" x1="244.83" y1="252.03" x2="210.96" y2="98.68" gradientUnits="userSpaceOnUse"><stop offset="0" stop-color="#eaedfc"/><stop offset="0.84" stop-color="#aed1fc"/></linearGradient><linearGradient id="linear-gradient-4" x1="155.32" y1="156.07" x2="155.32" y2="171.11" xlink:href="#linear-gradient-2"/><linearGradient id="linear-gradient-5" x1="166.62" y1="156.07" x2="166.62" y2="171.11" xlink:href="#linear-gradient-2"/><linearGradient id="linear-gradient-7" x1="155.32" y1="156.08" x2="155.32" y2="171.11" xlink:href="#linear-gradient-2"/><linearGradient id="linear-gradient-8" x1="155.32" y1="156.08" x2="155.32" y2="171.11" xlink:href="#linear-gradient-2"/><linearGradient id="linear-gradient-9" x1="166.62" y1="156.08" x2="166.62" y2="171.11" xlink:href="#linear-gradient-2"/><linearGradient id="linear-gradient-10" x1="210.63" y1="194.84" x2="210.63" y2="209.88" xlink:href="#linear-gradient-2"/><linearGradient id="linear-gradient-11" x1="210.63" y1="156.07" x2="210.63" y2="171.11" xlink:href="#linear-gradient-2"/><linearGradient id="linear-gradient-12" x1="238.84" y1="156.07" x2="238.84" y2="171.11" xlink:href="#linear-gradient-2"/><linearGradient id="linear-gradient-13" x1="210.63" y1="156.08" x2="210.63" y2="171.11" xlink:href="#linear-gradient-2"/><linearGradient id="linear-gradient-14" x1="224.74" y1="156.08" x2="224.74" y2="171.11" xlink:href="#linear-gradient-2"/><linearGradient id="linear-gradient-15" x1="224.74" y1="134.92" x2="224.74" y2="149.96" xlink:href="#linear-gradient-2"/><linearGradient id="linear-gradient-16" x1="238.84" y1="156.08" x2="238.84" y2="171.11" xlink:href="#linear-gradient-2"/><linearGradient id="linear-gradient-17" x1="224.74" y1="156.08" x2="224.74" y2="171.11" xlink:href="#linear-gradient-2"/><linearGradient id="linear-gradient-18" x1="238.84" y1="156.08" x2="238.84" y2="171.11" xlink:href="#linear-gradient-2"/><linearGradient id="linear-gradient-19" x1="73.54" y1="231.85" x2="42.58" y2="91.72" xlink:href="#linear-gradient-2"/><linearGradient id="linear-gradient-20" x1="113.56" y1="231.85" x2="82.6" y2="91.72" xlink:href="#linear-gradient-3"/><linearGradient id="linear-gradient-21" x1="28.45" y1="131.78" x2="28.45" y2="146.82" xlink:href="#linear-gradient-2"/><linearGradient id="linear-gradient-22" x1="39.74" y1="131.78" x2="39.74" y2="146.82" xlink:href="#linear-gradient-2"/><linearGradient id="linear-gradient-25" x1="28.45" y1="131.78" x2="28.45" y2="146.82" xlink:href="#linear-gradient-2"/><linearGradient id="linear-gradient-26" x1="39.74" y1="131.78" x2="39.74" y2="146.82" xlink:href="#linear-gradient-2"/><linearGradient id="linear-gradient-27" x1="83.76" y1="170.54" x2="83.76" y2="185.58" xlink:href="#linear-gradient-2"/><linearGradient id="linear-gradient-28" x1="83.76" y1="131.78" x2="83.76" y2="146.82" xlink:href="#linear-gradient-2"/><linearGradient id="linear-gradient-29" x1="111.96" y1="131.78" x2="111.96" y2="146.82" xlink:href="#linear-gradient-2"/><linearGradient id="linear-gradient-31" x1="97.86" y1="131.78" x2="97.86" y2="146.82" xlink:href="#linear-gradient-2"/><linearGradient id="linear-gradient-32" x1="97.86" y1="110.63" x2="97.86" y2="125.66" xlink:href="#linear-gradient-2"/><linearGradient id="linear-gradient-34" x1="97.86" y1="131.78" x2="97.86" y2="146.82" xlink:href="#linear-gradient-2"/><linearGradient id="linear-gradient-35" x1="111.96" y1="131.78" x2="111.96" y2="146.82" xlink:href="#linear-gradient-2"/><linearGradient id="linear-gradient-36" x1="142.13" y1="223.61" x2="108.46" y2="71.21" xlink:href="#linear-gradient-2"/><linearGradient id="linear-gradient-37" x1="153.54" y1="167.6" x2="128.96" y2="56.34" xlink:href="#linear-gradient-2"/><linearGradient id="linear-gradient-38" x1="161.82" y1="223.61" x2="128.15" y2="71.21" xlink:href="#linear-gradient-3"/><linearGradient id="linear-gradient-39" x1="173.23" y1="167.6" x2="148.65" y2="56.34" xlink:href="#linear-gradient-3"/><linearGradient id="linear-gradient-40" x1="101.58" y1="92.08" x2="101.58" y2="104.14" xlink:href="#linear-gradient-2"/><linearGradient id="linear-gradient-41" x1="110.65" y1="92.08" x2="110.65" y2="104.14" xlink:href="#linear-gradient-2"/><linearGradient id="linear-gradient-43" x1="133.21" y1="92.08" x2="133.21" y2="104.14" xlink:href="#linear-gradient-2"/><linearGradient id="linear-gradient-44" x1="155.84" y1="92.08" x2="155.84" y2="104.14" xlink:href="#linear-gradient-2"/><linearGradient id="linear-gradient-45" x1="101.58" y1="92.08" x2="101.58" y2="104.14" xlink:href="#linear-gradient-2"/><linearGradient id="linear-gradient-46" x1="133.21" y1="92.08" x2="133.21" y2="104.14" xlink:href="#linear-gradient-2"/><linearGradient id="linear-gradient-47" x1="144.52" y1="92.08" x2="144.52" y2="104.14" xlink:href="#linear-gradient-2"/><linearGradient id="linear-gradient-48" x1="155.84" y1="92.08" x2="155.84" y2="104.14" xlink:href="#linear-gradient-2"/><linearGradient id="linear-gradient-51" x1="144.52" y1="92.08" x2="144.52" y2="104.14" xlink:href="#linear-gradient-2"/><linearGradient id="linear-gradient-53" x1="101.58" y1="2335.54" x2="101.58" y2="2347.61" gradientTransform="matrix(1, 0, 0, -1, 0, 2414.23)" xlink:href="#linear-gradient-2"/><linearGradient id="linear-gradient-54" x1="110.65" y1="2335.54" x2="110.65" y2="2347.61" gradientTransform="matrix(1, 0, 0, -1, 0, 2414.23)" xlink:href="#linear-gradient-2"/><linearGradient id="linear-gradient-56" x1="133.21" y1="2335.54" x2="133.21" y2="2347.61" gradientTransform="matrix(1, 0, 0, -1, 0, 2414.23)" xlink:href="#linear-gradient-2"/><linearGradient id="linear-gradient-57" x1="155.84" y1="2335.54" x2="155.84" y2="2347.61" gradientTransform="matrix(1, 0, 0, -1, 0, 2414.23)" xlink:href="#linear-gradient-2"/><linearGradient id="linear-gradient-58" x1="101.58" y1="2335.54" x2="101.58" y2="2347.61" gradientTransform="matrix(1, 0, 0, -1, 0, 2414.23)" xlink:href="#linear-gradient-2"/><linearGradient id="linear-gradient-59" x1="133.21" y1="2335.54" x2="133.21" y2="2347.61" gradientTransform="matrix(1, 0, 0, -1, 0, 2414.23)" xlink:href="#linear-gradient-2"/><linearGradient id="linear-gradient-60" x1="144.52" y1="2335.54" x2="144.52" y2="2347.61" gradientTransform="matrix(1, 0, 0, -1, 0, 2414.23)" xlink:href="#linear-gradient-2"/><linearGradient id="linear-gradient-61" x1="155.84" y1="2335.54" x2="155.84" y2="2347.61" gradientTransform="matrix(1, 0, 0, -1, 0, 2414.23)" xlink:href="#linear-gradient-2"/><linearGradient id="linear-gradient-62" x1="101.58" y1="2335.54" x2="101.58" y2="2347.61" gradientTransform="matrix(1, 0, 0, -1, 0, 2414.23)" xlink:href="#linear-gradient-2"/><linearGradient id="linear-gradient-63" x1="110.65" y1="2335.54" x2="110.65" y2="2347.61" gradientTransform="matrix(1, 0, 0, -1, 0, 2414.23)" xlink:href="#linear-gradient-2"/><linearGradient id="linear-gradient-64" x1="144.52" y1="2335.54" x2="144.52" y2="2347.61" gradientTransform="matrix(1, 0, 0, -1, 0, 2414.23)" xlink:href="#linear-gradient-2"/><linearGradient id="linear-gradient-65" x1="155.84" y1="2335.54" x2="155.84" y2="2347.61" gradientTransform="matrix(1, 0, 0, -1, 0, 2414.23)" xlink:href="#linear-gradient-2"/><linearGradient id="linear-gradient-66" x1="138.62" y1="254.46" x2="158.41" y2="254.46" gradientUnits="userSpaceOnUse"><stop offset="0.02" stop-color="#fff"/><stop offset="1" stop-color="#dcd6e8"/></linearGradient><linearGradient id="linear-gradient-67" x1="267.02" y1="254.46" x2="286.81" y2="254.46" xlink:href="#linear-gradient-66"/><linearGradient id="Безымянный_градиент_73" x1="50.28" y1="86.68" x2="50.28" y2="3.97" gradientUnits="userSpaceOnUse"><stop offset="0.07" stop-color="#fff"/><stop offset="0.73" stop-color="#e2e2e2"/><stop offset="1" stop-color="#cfcfcf"/></linearGradient><linearGradient id="Безымянный_градиент_73-2" x1="226.63" y1="138.38" x2="226.63" y2="58.39" xlink:href="#Безымянный_градиент_73"/><linearGradient id="Безымянный_градиент_73-3" x1="255.83" y1="45.35" x2="255.83" y2="-22.62" xlink:href="#Безымянный_градиент_73"/><clipPath id="clip-path"><path class="cls-2" d="M-388.75,237.35a138.58,138.58,0,0,0,17.14,16.82,218.09,218.09,0,0,0,82.7,43.11,218.66,218.66,0,0,0,147.86-13c9.67-4.52,16.69-14.55,20.46-24.55,2.09-5.56,1.84-12.4-2.17-16.77-4.22-4.59-12.19-6.45-13.11-12.61-1-6.68,7.1-10.45,13.22-13.29,33.77-15.68,65-107.55,27.29-116.22-39.5-9.07,3.91-39.69-15.72-81.38C-126.38-13-382.77,48.77-391,95.81c-3,17-16.73,15.16-28.5,27.75-12.12,12.95-6.87,33.72-.9,50.43C-411.19,199.83-404.25,219.09-388.75,237.35Z"/></clipPath><mask id="mask" x="-504.97" y="7.1" width="547.12" height="217.53" maskUnits="userSpaceOnUse"><rect class="cls-1" x="-504.97" y="7.1" width="547.12" height="217.53"/></mask><linearGradient id="linear-gradient-68" x1="-231.42" y1="233.08" x2="-231.42" y2="6.85" xlink:href="#linear-gradient-3"/></defs><title>illustration</title><g class="cls-3"><g id="Driver"><g id="_5" data-name="5"><path class="cls-4" d="M307.55,196.58c-20.44,38.44-55.07,70.48-95.84,90.27C152.52,315.58,79.59,300.1,28.78,264.71c-55.36-38.57-7.35-106.57,38.47-133.28,29.34-17.11,65.63-19.77,98.1-28.73,32.76-9,53.36-24.76,74.09-49.26C259,30.33,288.85,27.59,306.1,55.79,334.49,102.23,330.76,152.91,307.55,196.58Z"/><g id="build"><path class="cls-5" d="M219.25,249.44V85.83a1.43,1.43,0,0,0-1.42-1.43H149.22a1.43,1.43,0,0,0-1.43,1.43V249.44Z"/><path class="cls-6" d="M259.27,246.05V65.4A1.43,1.43,0,0,0,257.85,64H189.24a1.43,1.43,0,0,0-1.43,1.42V246.05Z"/><rect class="cls-7" x="151.85" y="89.36" width="6.93" height="11.67"/><rect class="cls-8" x="163.15" y="89.36" width="6.93" height="11.67"/><rect class="cls-8" x="163.15" y="89.36" width="6.93" height="11.67"/><rect class="cls-9" x="151.85" y="110.66" width="6.93" height="11.67"/><rect class="cls-10" x="151.85" y="131.95" width="6.93" height="11.67"/><rect class="cls-11" x="163.15" y="131.95" width="6.93" height="11.67"/><rect class="cls-12" x="207.17" y="149.42" width="6.93" height="11.67"/><rect class="cls-13" x="207.17" y="89.36" width="6.93" height="11.67"/><rect class="cls-14" x="235.37" y="89.36" width="6.93" height="11.67"/><rect class="cls-15" x="207.17" y="110.66" width="6.93" height="11.67"/><rect class="cls-16" x="221.27" y="110.66" width="6.93" height="11.67"/><rect class="cls-17" x="221.27" y="89.5" width="6.93" height="11.67"/><rect class="cls-18" x="235.37" y="110.66" width="6.93" height="11.67"/><rect class="cls-19" x="221.27" y="131.95" width="6.93" height="11.67"/><rect class="cls-20" x="235.37" y="131.95" width="6.93" height="11.67"/><path class="cls-21" d="M92.38,249.44V61.53A1.42,1.42,0,0,0,91,60.11H22.34a1.42,1.42,0,0,0-1.43,1.42V249.44Z"/><path class="cls-22" d="M132.4,249.44V61.53A1.42,1.42,0,0,0,131,60.11H62.36a1.41,1.41,0,0,0-1.42,1.42V249.44Z"/><rect class="cls-23" x="24.98" y="65.07" width="6.93" height="11.67"/><rect class="cls-24" x="36.28" y="65.07" width="6.93" height="11.67"/><rect class="cls-24" x="36.28" y="65.07" width="6.93" height="11.67"/><rect class="cls-23" x="24.98" y="86.36" width="6.93" height="11.67"/><rect class="cls-25" x="24.98" y="107.66" width="6.93" height="11.67"/><rect class="cls-26" x="36.28" y="107.66" width="6.93" height="11.67"/><rect class="cls-27" x="80.3" y="125.12" width="6.93" height="11.67"/><rect class="cls-28" x="80.3" y="65.07" width="6.93" height="11.67"/><rect class="cls-29" x="108.5" y="65.07" width="6.93" height="11.67"/><rect class="cls-28" x="80.3" y="86.36" width="6.93" height="11.67"/><rect class="cls-30" x="94.4" y="86.36" width="6.93" height="11.67"/><rect class="cls-31" x="94.4" y="65.21" width="6.93" height="11.67"/><rect class="cls-29" x="108.5" y="86.36" width="6.93" height="11.67"/><rect class="cls-32" x="94.4" y="107.66" width="6.93" height="11.67"/><rect class="cls-33" x="108.5" y="107.66" width="6.93" height="11.67"/><path class="cls-34" d="M152.89,249.44V35.7a1.15,1.15,0,0,0-1.15-1.14H96.68a1.14,1.14,0,0,0-1.14,1.14V249.44Z"/><path class="cls-35" d="M106.6,18.82h35.21A3.21,3.21,0,0,1,145,22V48a0,0,0,0,1,0,0H103.4a0,0,0,0,1,0,0V22A3.21,3.21,0,0,1,106.6,18.82Z"/><path class="cls-36" d="M172.58,249.44V35.7a1.14,1.14,0,0,0-1.15-1.14H116.38a1.14,1.14,0,0,0-1.15,1.14V249.44Z"/><path class="cls-37" d="M126.3,18.82h35.21A3.21,3.21,0,0,1,164.72,22V48a0,0,0,0,1,0,0H123.09a0,0,0,0,1,0,0V22A3.21,3.21,0,0,1,126.3,18.82Z"/><rect class="cls-38" x="98.8" y="38.54" width="5.56" height="9.36"/><rect class="cls-39" x="107.87" y="38.54" width="5.56" height="9.36"/><rect class="cls-39" x="107.87" y="38.54" width="5.56" height="9.36"/><rect class="cls-40" x="130.43" y="38.54" width="5.56" height="9.36"/><rect class="cls-41" x="153.06" y="38.54" width="5.56" height="9.36"/><rect class="cls-42" x="98.8" y="55.63" width="5.56" height="9.36"/><rect class="cls-43" x="130.43" y="55.63" width="5.56" height="9.36"/><rect class="cls-44" x="141.74" y="55.63" width="5.56" height="9.36"/><rect class="cls-45" x="153.06" y="55.63" width="5.56" height="9.36"/><rect class="cls-38" x="98.8" y="72.72" width="5.56" height="9.36"/><rect class="cls-39" x="107.87" y="72.72" width="5.56" height="9.36"/><rect class="cls-46" x="141.74" y="72.72" width="5.56" height="9.36"/><rect class="cls-41" x="153.06" y="72.72" width="5.56" height="9.36"/><rect class="cls-47" x="98.8" y="122.86" width="5.56" height="9.36"/><rect class="cls-48" x="107.87" y="122.86" width="5.56" height="9.36"/><rect class="cls-48" x="107.87" y="122.86" width="5.56" height="9.36"/><rect class="cls-49" x="130.43" y="122.86" width="5.56" height="9.36"/><rect class="cls-50" x="153.06" y="122.86" width="5.56" height="9.36"/><rect class="cls-51" x="98.8" y="105.77" width="5.56" height="9.36"/><rect class="cls-52" x="130.43" y="105.77" width="5.56" height="9.36"/><rect class="cls-53" x="141.74" y="105.77" width="5.56" height="9.36"/><rect class="cls-54" x="153.06" y="105.77" width="5.56" height="9.36"/><rect class="cls-55" x="98.8" y="88.68" width="5.56" height="9.36"/><rect class="cls-56" x="107.87" y="88.68" width="5.56" height="9.36"/><rect class="cls-57" x="141.74" y="88.68" width="5.56" height="9.36"/><rect class="cls-58" x="153.06" y="88.68" width="5.56" height="9.36"/></g><g id="car"><rect class="cls-59" x="155.65" y="257.8" width="125.24" height="4.08"/><path class="cls-59" d="M168.71,260.35c4.47,0-5.39,0-5.62,0-4.27-.07-34.69.76-35.26-1s-9.6-15.42-3.85-18.66,13.28-8.41,13.28-8.41l17.42-5,13.87,11.95.59,8.71L168.4,255Z"/><path class="cls-59" d="M133.79,254.46a14.73,14.73,0,1,1,14.72,14.72A14.72,14.72,0,0,1,133.79,254.46Z"/><path class="cls-60" d="M148.4,243c8.36,0,13,4.8,15.57,9.92-1.4-6.5-5.23-16.22-15.64-16.22-11.26,0-14.9,10.11-16.2,16.37C134.67,248,139.4,243,148.4,243Z"/><path class="cls-61" d="M138.62,254.46a9.9,9.9,0,1,1,9.89,9.89A9.89,9.89,0,0,1,138.62,254.46Z"/><path class="cls-59" d="M257.06,260.35c.48-.05,40.23-1,40.23-1l2.9-7,.88-9s-3.69-9.44-11.21-13.27-25.53-.74-25.53-.74l-2.66-1.63-9.3,7.23Z"/><path class="cls-60" d="M278.05,242.05c12.43,0,19.34,7.15,23.17,14.76-2.08-9.67-7.78-24.13-23.27-24.13-16.76,0-22.18,15-24.11,24.35C257.62,249.42,264.66,242.05,278.05,242.05Z"/><path class="cls-62" d="M295.44,259.36c1.51,0,22.87-.76,23.62-1.52s-.12-12.33-.87-13.62-1.77-1.52-2-1.83-.57-6.79-.85-7.33-12-12.46-52.82-18.08c-8.76-4.73-22.29-15-39.74-20.87a79.34,79.34,0,0,0-25.36-4.32c-29.93,0-52.41,8.08-74.39,22.6-1.26,3-6.06,9.45-7.07,11.35s-5.3,22.19-5.6,22.82a14.74,14.74,0,0,0-1.05,3.33c0,.63.93,1,.93,1a2.2,2.2,0,0,0,.92,3.07c2,1.09,16.07,3.32,19.27,3.37.46-2-1-21.59,17.92-21.59s17.28,22.6,17.28,22.6h93s-4.18-22.43,18.62-22.43S295.44,259.36,295.44,259.36Z"/><path class="cls-63" d="M117.06,243.35c1.49-1.49,3.48-17.71,3.48-17.71l-4.12-.6a8,8,0,0,0-.42.7c-.69,1.3-2.91,11.19-4.35,17.52C113.6,243.78,116.18,244.24,117.06,243.35Z"/><path class="cls-64" d="M150.25,220.77c1,2.64,5,8.63,8.15,14,4.09,5,6.76,9.91,9.73,13.17,16.13,1.32,73.36,5.3,89,6.31.36-4,1-9.52,5.55-12.85C243.68,238,154.29,221.76,150.25,220.77Z"/><path class="cls-65" d="M292.71,228.07c7.76-.75,22.67,7,22.67,7,.28.54.66,7,.85,7.33C307.5,239.6,293,229.35,292.71,228.07Z"/><path class="cls-66" d="M252.49,220.54s-35.29-5-54.29-5.37-40.59-.64-53.74-3.93c1.85-1.44,16.44-15.63,51.17-15.63,0,0,18.21-1.05,31.76,5.69S252.49,220.54,252.49,220.54Z"/><path class="cls-67" d="M195.63,202.58s18.21-1.05,31.76,5.69a85.58,85.58,0,0,1,16.43,11.12c5.26.67,8.67,1.15,8.67,1.15S240.94,208,227.39,201.3s-31.76-5.69-31.76-5.69c-34.73,0-49.32,14.19-51.17,15.63,2.32.58,4.92,1.06,7.7,1.47C159.92,208.19,173.79,202.58,195.63,202.58Z"/><path class="cls-68" d="M145.29,211.44c8.28,1.94,19.64,2.76,31.56,3.2-4.65-4.77-8.88-9.72-12.56-14.34a57.89,57.89,0,0,0-18.66,10C145.51,210.65,145.4,211,145.29,211.44Z"/><path class="cls-68" d="M203.75,195.72a75.11,75.11,0,0,0-8.12-.11h-1.16c-.16,6.5.28,13,.65,19.5l3.08.06c7.06.15,16.36.93,25.27,1.85A132.92,132.92,0,0,1,203.75,195.72Z"/><path class="cls-64" d="M198.38,195.55V197h0c5.14,0,18.19.55,28.35,5.6,9.1,4.52,17.37,11.79,21.64,15.87-10.05-1.33-35.21-4.48-50.14-4.8l-3.57-.07c-16.3-.33-34.62-.7-46.91-3.16a54.12,54.12,0,0,1,12-6.88c10.17-4.31,22.23-6.5,35.84-6.5h.08s1-.06,2.67-.06v-1.47Zm0,0c-1.73,0-2.75.06-2.75.06-34.73,0-49.32,14.19-51.17,15.63,13.15,3.29,34.73,3.53,53.74,3.93s54.29,5.37,54.29,5.37S240.94,208,227.39,201.3c-10.35-5.15-23.41-5.75-29-5.75Z"/><path class="cls-69" d="M122.22,216.09a16.75,16.75,0,0,0,.85-1.7,138.74,138.74,0,0,1,31-15.68,11.62,11.62,0,0,1-4.75,5.2C144.69,206.64,131.2,218,122.22,216.09Z"/><path class="cls-66" d="M122.22,216.09a16.75,16.75,0,0,0,.85-1.7,138.74,138.74,0,0,1,31-15.68,11.62,11.62,0,0,1-4.75,5.2C144.69,206.64,131.2,218,122.22,216.09Z"/><path class="cls-64" d="M149,203.28c-.89.52-2.12,1.35-3.54,2.31-6,4.06-15.92,10.76-22.9,9.93q-.34.64-.78,1.38a11.46,11.46,0,0,0,2,.17c7.37,0,16.72-6.33,22.54-10.26,1.4-.95,2.61-1.77,3.45-2.26a15.37,15.37,0,0,0,5.58-6.22l0,0-2,.71A13.61,13.61,0,0,1,149,203.28Z"/><path class="cls-66" d="M249.36,213.89c-9-7.45-20.84-13.13-23.74-14.65a7.36,7.36,0,0,1-2.82-3.14c17.24,5.79,30.65,15.89,39.42,20.69l.06.17h.25C262.22,218,255,217.42,249.36,213.89Z"/><path class="cls-64" d="M197.38,195.55c1.16,4.23,4,14.62,5.3,19.78-1.57-.08-3.07-.13-4.48-.16l-5.23-.11-1.44-19.39c1.33,0,2.7-.06,4.1-.06C195.63,195.61,196.26,195.57,197.38,195.55Z"/><path class="cls-64" d="M232.57,255.74c-6.11,0-13.07-.06-20-.17-11.28-.18-37.75-.77-40.05-2.4-2-1.42-7.83-9.18-12.54-16.12s-9.66-15-9.55-17.08c.23-3.94.29-4.06,3-6.8,2.51-2.51,5.39-6,5.39-10.77h.26c0,4.86-2.93,8.4-5.47,10.94-2.73,2.73-2.73,2.8-2.95,6.64s18.11,30.26,22,33c1.56,1.1,16.48,2,39.91,2.36,18.5.29,37.58.17,39.64-.26,6.83-16.45.11-34.28,0-34.46l.23-.09c.07.18,6.85,18.14-.07,34.71l0,.05-.06,0C251.18,255.58,243.15,255.74,232.57,255.74Z"/><path class="cls-64" d="M198.22,255.11l-.25,0c4.74-27.31-3.64-59.07-3.73-59.39l.25-.07C194.57,195.93,203,227.75,198.22,255.11Z"/><path class="cls-64" d="M262.56,217l-.75-.41a22.07,22.07,0,0,1-12.1-3.16c-8.07-6.69-18.26-11.86-22.61-14.08l-1.21-.61a5.28,5.28,0,0,1-1.62-2.11l-1.59-.55.07.15c.65,1.32,1.45,2.95,2.59,3.55l1.22.63c4.33,2.19,14.46,7.33,22.42,14l.07,0a24,24,0,0,0,11.72,3.39,6.4,6.4,0,0,0,2.09-.26,1.35,1.35,0,0,0,.59-.41Z"/><path class="cls-64" d="M252.49,220.54s-3.29-.46-8.41-1.12a55.69,55.69,0,0,1,.94-6A99.11,99.11,0,0,1,252.49,220.54Z"/><path class="cls-64" d="M245.46,219.53s-1.13.47-4.73.39a35.69,35.69,0,0,1-6.91-.92s-1.48-7.64,3.48-8.42,8.16,3.39,8.16,3.39Z"/><ellipse class="cls-59" cx="276.91" cy="254.46" rx="14.72" ry="14.73" transform="translate(21.51 530.5) rotate(-89.81)"/><path class="cls-70" d="M267,254.46a9.9,9.9,0,1,1,9.89,9.89A9.89,9.89,0,0,1,267,254.46Z"/><path class="cls-71" d="M177.45,228a6.63,6.63,0,0,0-6.62,6.62,6.36,6.36,0,0,0,.58,2.7,41.55,41.55,0,0,0,5.76,8.53.37.37,0,0,0,.56,0,50.1,50.1,0,0,0,4-5.38l-2.17-2.17a4.1,4.1,0,0,1-2.11.58,4.15,4.15,0,1,1,3.58-2.05l1.79,1.8c.24-.44.46-.87.66-1.31a6.52,6.52,0,0,0,.58-2.7A6.63,6.63,0,0,0,177.45,228Z"/><path class="cls-72" d="M180.57,234.67a3.12,3.12,0,1,1-3.11-3.11A3.12,3.12,0,0,1,180.57,234.67Z"/><path class="cls-71" d="M175,234.67h.69a1.73,1.73,0,0,1,1.73-1.73v-.69A2.42,2.42,0,0,0,175,234.67Z"/><path class="cls-71" d="M196.6,231a1,1,0,0,1,.31.75.92.92,0,0,1-.31.74,1.09,1.09,0,0,1-.79.28H193v9.41a1,1,0,0,1-.34.78,1.18,1.18,0,0,1-.84.31,1.14,1.14,0,0,1-.83-.31,1.06,1.06,0,0,1-.32-.78v-9.41h-2.82a1.12,1.12,0,0,1-.79-.28,1,1,0,0,1-.3-.76.93.93,0,0,1,.31-.73,1.08,1.08,0,0,1,.78-.29h8A1.06,1.06,0,0,1,196.6,231Z"/><path class="cls-71" d="M202.61,233.77a.92.92,0,0,1,.37.71,1.14,1.14,0,0,1-.29.84,1,1,0,0,1-.68.28,1.63,1.63,0,0,1-.61-.13l-.25-.07a1.29,1.29,0,0,0-.4-.05,1.61,1.61,0,0,0-.9.28,2.17,2.17,0,0,0-.71.87,3.31,3.31,0,0,0-.27,1.39v4.26a1.1,1.1,0,0,1-.31.78,1.11,1.11,0,0,1-1.54,0,1.06,1.06,0,0,1-.31-.78v-7.41a1.09,1.09,0,0,1,1.85-.79,1.1,1.1,0,0,1,.31.79V235a2.66,2.66,0,0,1,1.18-1.12,3.58,3.58,0,0,1,1.65-.39A1.36,1.36,0,0,1,202.61,233.77Z"/><path class="cls-71" d="M204.26,232.28a.85.85,0,0,1-.25-.7v-.34a.8.8,0,0,1,.27-.7,2,2,0,0,1,1.74,0,.83.83,0,0,1,.25.7v.34a.85.85,0,0,1-.26.71,1.62,1.62,0,0,1-.89.18A1.46,1.46,0,0,1,204.26,232.28Zm1.65,10.65a1.11,1.11,0,0,1-1.54,0,1.06,1.06,0,0,1-.31-.78v-7.41a1.08,1.08,0,1,1,2.16,0v7.41A1.06,1.06,0,0,1,205.91,242.93Z"/><path class="cls-71" d="M215.48,234.1a4.41,4.41,0,0,1,1.59,1.77,6,6,0,0,1,0,5.14,4.39,4.39,0,0,1-1.57,1.78,4,4,0,0,1-2.19.63,3.76,3.76,0,0,1-1.63-.35,4,4,0,0,1-1.26-.85v3.52a1.1,1.1,0,0,1-.31.78,1,1,0,0,1-.77.31,1,1,0,0,1-.77-.3,1.06,1.06,0,0,1-.31-.79v-11a1.09,1.09,0,0,1,1.85-.79,1.1,1.1,0,0,1,.31.79v.07a3.58,3.58,0,0,1,1.2-.95,3.52,3.52,0,0,1,1.61-.4A4.07,4.07,0,0,1,215.48,234.1Zm-.63,6.49a3.55,3.55,0,0,0,0-4.3,2.55,2.55,0,0,0-3.8,0,3.16,3.16,0,0,0-.73,2.14,3.23,3.23,0,0,0,.73,2.16,2.52,2.52,0,0,0,3.79,0Z"/><path class="cls-71" d="M222.56,232.21a1.36,1.36,0,0,0-.25.77v.84H224a1,1,0,0,1,.71.28.94.94,0,0,1,.29.71,1,1,0,0,1-.29.71,1,1,0,0,1-.71.27h-1.64v6.36a1.09,1.09,0,0,1-.3.78,1.12,1.12,0,0,1-1.55,0,1.09,1.09,0,0,1-.3-.78v-6.36h-1a1,1,0,0,1-.72-.27,1,1,0,0,1-.29-.71.94.94,0,0,1,.29-.71,1,1,0,0,1,.72-.28h1V233a2.87,2.87,0,0,1,.92-2.19,3.85,3.85,0,0,1,2.67-.84,2.39,2.39,0,0,1,1.16.27.89.89,0,0,1,.49.83,1,1,0,0,1-.25.7.8.8,0,0,1-.61.26h-.19l-.21,0a3.08,3.08,0,0,0-.71-.11A1,1,0,0,0,222.56,232.21Z"/><path class="cls-71" d="M234.09,238.92a1.11,1.11,0,0,1-.75.27h-5.92a2.72,2.72,0,0,0,1,1.66,2.79,2.79,0,0,0,1.75.6,3.74,3.74,0,0,0,1.14-.14A3,3,0,0,0,232,241l.33-.21a1.35,1.35,0,0,1,.61-.16.89.89,0,0,1,.65.27.86.86,0,0,1,.27.63,1.13,1.13,0,0,1-.51.88,4.52,4.52,0,0,1-1.34.7,5.62,5.62,0,0,1-4.34-.35,4.36,4.36,0,0,1-1.73-1.73,5,5,0,0,1-.61-2.48,5.49,5.49,0,0,1,.65-2.71,4.59,4.59,0,0,1,1.7-1.79,4.45,4.45,0,0,1,2.26-.62,4.22,4.22,0,0,1,2.24.65,4.83,4.83,0,0,1,1.68,1.74,4.67,4.67,0,0,1,.63,2.37A1,1,0,0,1,234.09,238.92Zm-6.66-1.53h4.71v-.12a1.88,1.88,0,0,0-.74-1.3,2.3,2.3,0,0,0-1.51-.53A2.24,2.24,0,0,0,227.43,237.39Z"/><path class="cls-71" d="M241.85,233.77a.9.9,0,0,1,.36.71,1.14,1.14,0,0,1-.28.84,1,1,0,0,1-.68.28,1.72,1.72,0,0,1-.62-.13l-.24-.07a1.29,1.29,0,0,0-.4-.05,1.61,1.61,0,0,0-.9.28,2.09,2.09,0,0,0-.71.87,3.31,3.31,0,0,0-.28,1.39v4.26a1.09,1.09,0,0,1-.3.78,1.11,1.11,0,0,1-1.54,0,1.06,1.06,0,0,1-.31-.78v-7.41a1.09,1.09,0,0,1,1.85-.79,1.09,1.09,0,0,1,.3.79V235a2.69,2.69,0,0,1,1.19-1.12,3.58,3.58,0,0,1,1.65-.39A1.36,1.36,0,0,1,241.85,233.77Z"/></g><path class="cls-73" d="M191.76,226.59c1.07.2,3.86-.55,4.5-1.53,1.48-2.27-2-1.57-3.29-1.6a6.86,6.86,0,0,0,.35-1.31c.05-.42-3.71.66-4.07,1-.87,1-.48,1.66-.4,2.86C189.82,226.21,190.79,226.41,191.76,226.59Z"/><path class="cls-72" d="M180.18,211.2s0,0,0,0h0l0,0-.06.1-.1.22c-.07.15-.14.31-.2.47a9.25,9.25,0,0,0-.33,1,6.65,6.65,0,0,0-.22,1.87,3.76,3.76,0,0,0,1.46,2.87l.18.15.23.17.49.34c.34.23.69.45,1,.67.72.43,1.47.84,2.24,1.22s1.55.76,2.35,1.11l1.21.51.61.24.31.12.26.1h0a.87.87,0,0,1,.55.9,8.45,8.45,0,0,1-.88,2.65.89.89,0,0,1-1,.49c-.75-.2-1.34-.38-1.34-.38l-1.34-.46c-.89-.32-1.78-.66-2.66-1s-1.77-.78-2.64-1.23c-.44-.22-.88-.46-1.31-.71-.22-.13-.44-.26-.65-.4L178,222l-.36-.26a9,9,0,0,1-3.72-6.37,11.94,11.94,0,0,1,.18-3.55,13.18,13.18,0,0,1,.43-1.64c.08-.27.18-.53.29-.8A3.56,3.56,0,0,1,175,209l.09-.21,0-.11.08-.15a2.83,2.83,0,0,1,5,2.71Z"/><path class="cls-72" d="M188.44,210.41a20.07,20.07,0,0,1-1.69-3,2,2,0,0,0-1.85-1.16l-3,0-1.46.06-3.13.72s1.19,2.2,1,2.87-.1.82-.36,1.85a4.24,4.24,0,0,0,0,1.46c3.16.16,8.49.28,11.76.37C190.47,212.5,189,211.16,188.44,210.41Z"/><path class="cls-74" d="M180.24,201.8l.22,4.51s3.23,2.81,3.55,2.89,1.14-2.23,1-2.89-.42-2.5-.49-2.71.1-2.68.1-3.2a9.54,9.54,0,0,0-.1-1.19Z"/><path class="cls-74" d="M188.69,197.92c0,4.08-2,7.38-4.55,7.38s-4.56-3.3-4.56-7.38,2-7.38,4.56-7.38S188.69,193.85,188.69,197.92Z"/><path class="cls-74" d="M181.05,201.31a1.41,1.41,0,0,0-.07-2,1.38,1.38,0,0,0-2,.07,1.43,1.43,0,0,0,.07,2A1.38,1.38,0,0,0,181.05,201.31Z"/><path class="cls-75" d="M188.3,199c.43,1.56-.4,3.15-1.13,4.51-.64,1.2-.89,2,.55,2.42.81.23,2.25.67,3,.08.57-.45.34-1.93.11-2.53s-.7-.72-.86-1.18a1.52,1.52,0,0,1-.06-.6,8.06,8.06,0,0,1,.47-2.43,8.21,8.21,0,0,0,.52-1.59,6.32,6.32,0,0,0-.67-2.55c-.48-1.41-2.32-3.38-4-2.38a2.28,2.28,0,0,0-.83,1,2,2,0,0,0-.26.75c-.07,1.06.89,1.29,1.53,1.84A5.3,5.3,0,0,1,188.3,199Z"/><path class="cls-75" d="M183.23,190.47c-1.6.45-2.7,2-4.27,2.53a9,9,0,0,0-2.7.88c-1.68,1.31-.56,4.33-2,5.93-.3.33-.68.57-1,.91a4.69,4.69,0,0,0-.88,2.68,3,3,0,0,0,0,.67c.08,2.22,3.29,2.26,4.57,2.19s1-.88,1-.88l0-.06A2.64,2.64,0,0,1,179,203a3.44,3.44,0,0,0,.79-.62c.45-.61.1-1.47.21-2.22.41-3,5.46-2.08,7-4.15C188.93,193.41,186.26,189.63,183.23,190.47Z"/><rect class="cls-72" x="178.66" y="201.16" width="1.67" height="1.67" rx="0.83" ry="0.83" transform="translate(-90.26 186.13) rotate(-45.01)"/><path class="cls-76" d="M20.92,190a2.49,2.49,0,1,0-2.49,2.49A2.5,2.5,0,0,0,20.92,190Z"/><path class="cls-77" d="M85.78,78.71A.68.68,0,0,1,85.1,78v-4.1a.68.68,0,0,1,.68-.69.69.69,0,0,1,.69.69V78A.69.69,0,0,1,85.78,78.71Zm-71,0A.69.69,0,0,1,14.1,78V76.91a.69.69,0,0,1,.69-.69.68.68,0,0,1,.68.69V78A.68.68,0,0,1,14.79,78.71Zm0-5.22a.69.69,0,0,1-.69-.68v-4.1a.69.69,0,0,1,.69-.69.68.68,0,0,1,.68.69v4.1A.68.68,0,0,1,14.79,73.49Zm71-3a.68.68,0,0,1-.68-.69v-4.1a.68.68,0,0,1,.68-.68.69.69,0,0,1,.69.68v4.1A.69.69,0,0,1,85.78,70.51Zm-71-5.22a.69.69,0,0,1-.69-.68v-1.1c0-1,.05-2,.13-3.06a.69.69,0,0,1,.74-.62.67.67,0,0,1,.62.74c-.08,1-.12,2-.12,2.94v1.1A.68.68,0,0,1,14.79,65.29Zm70.94-3a.69.69,0,0,1-.68-.65,35.28,35.28,0,0,0-.44-4,.68.68,0,0,1,.56-.79.69.69,0,0,1,.79.56,35.82,35.82,0,0,1,.45,4.15.68.68,0,0,1-.64.72ZM15.49,57.14l-.13,0a.68.68,0,0,1-.54-.8,35.29,35.29,0,0,1,1.06-4,.69.69,0,0,1,.87-.44.68.68,0,0,1,.43.86,34.75,34.75,0,0,0-1,3.89A.68.68,0,0,1,15.49,57.14Zm68.87-2.9a.68.68,0,0,1-.65-.49A36.32,36.32,0,0,0,82.36,50a.68.68,0,0,1,1.26-.53A36.9,36.9,0,0,1,85,53.37a.67.67,0,0,1-.46.84A.69.69,0,0,1,84.36,54.24ZM18,49.36a.75.75,0,0,1-.29-.06.69.69,0,0,1-.33-.91,36,36,0,0,1,2-3.68.68.68,0,0,1,1.17.71A36.38,36.38,0,0,0,18.65,49,.68.68,0,0,1,18,49.36ZM81.18,46.7a.69.69,0,0,1-.6-.34A35.36,35.36,0,0,0,78.4,43a.68.68,0,0,1,1.1-.8,36.06,36.06,0,0,1,2.27,3.5.68.68,0,0,1-.26.93A.66.66,0,0,1,81.18,46.7ZM22.29,42.38a.66.66,0,0,1-.42-.15.68.68,0,0,1-.12-1,35.63,35.63,0,0,1,2.76-3.14.68.68,0,0,1,1,1,36,36,0,0,0-2.65,3A.68.68,0,0,1,22.29,42.38ZM76.34,40.1a.68.68,0,0,1-.5-.22,34.74,34.74,0,0,0-2.9-2.79.69.69,0,0,1,.9-1,37.34,37.34,0,0,1,3,2.9.69.69,0,0,1,0,1A.71.71,0,0,1,76.34,40.1ZM28,36.55a.69.69,0,0,1-.43-1.22A38.26,38.26,0,0,1,31,32.9a.69.69,0,0,1,.95.22.68.68,0,0,1-.22.94,35.42,35.42,0,0,0-3.27,2.34A.68.68,0,0,1,28,36.55Zm42.1-1.78a.68.68,0,0,1-.38-.12,37.46,37.46,0,0,0-3.46-2,.68.68,0,0,1,.63-1.21,36.06,36.06,0,0,1,3.59,2.13.68.68,0,0,1,.19.95A.67.67,0,0,1,70.13,34.77ZM35,32.18a.68.68,0,0,1-.3-1.3,37,37,0,0,1,3.87-1.58.67.67,0,0,1,.87.42.69.69,0,0,1-.43.87,36.27,36.27,0,0,0-3.72,1.52A.59.59,0,0,1,35,32.18ZM62.87,31a.69.69,0,0,1-.24-.05,34.16,34.16,0,0,0-3.84-1.2.69.69,0,0,1-.5-.83.69.69,0,0,1,.83-.5,36.89,36.89,0,0,1,4,1.25A.69.69,0,0,1,62.87,31ZM42.7,29.52a.68.68,0,0,1-.14-1.35,38,38,0,0,1,4.12-.65.69.69,0,0,1,.75.61.68.68,0,0,1-.61.75,33.13,33.13,0,0,0-4,.63ZM54.93,29h-.09a33.49,33.49,0,0,0-4-.29.7.7,0,0,1-.67-.7.69.69,0,0,1,.68-.67h0a36,36,0,0,1,4.16.3A.68.68,0,0,1,54.93,29Z"/><path class="cls-71" d="M183.67,129.15a.68.68,0,0,1-.68-.68v-4.1a.69.69,0,1,1,1.37,0v4.1A.68.68,0,0,1,183.67,129.15Zm0-8.2a.69.69,0,0,1-.68-.68v-4.1a.69.69,0,1,1,1.37,0v4.1A.69.69,0,0,1,183.67,121Zm0-8.2a.69.69,0,0,1-.68-.69V108a.69.69,0,0,1,1.37,0v4.1A.69.69,0,0,1,183.67,112.75Zm0-8.2a.69.69,0,0,1-.68-.69v-1c0-1,0-2-.1-3a.69.69,0,1,1,1.37-.09c.06,1,.1,2.07.1,3.11v1A.69.69,0,0,1,183.67,104.55Zm-94-1a.67.67,0,0,1-.68-.68c0-.38,0-.76,0-1.14a.69.69,0,0,1,.68-.67h0a.68.68,0,0,1,.67.7c0,.37,0,.74,0,1.11A.67.67,0,0,1,89.64,103.51Zm.29-5.21h-.08a.69.69,0,0,1-.6-.76c.15-1.37.36-2.76.63-4.11a.68.68,0,0,1,.81-.53.67.67,0,0,1,.53.8c-.26,1.31-.47,2.65-.61,4A.69.69,0,0,1,89.93,98.3Zm93.21-1.93a.68.68,0,0,1-.68-.58c-.2-1.32-.47-2.65-.78-4a.68.68,0,0,1,1.33-.32c.32,1.34.59,2.71.8,4.08a.69.69,0,0,1-.57.78Zm-91.61-6.1a.63.63,0,0,1-.19,0,.67.67,0,0,1-.46-.84c.38-1.33.84-2.66,1.34-3.94a.68.68,0,1,1,1.27.5c-.49,1.25-.92,2.53-1.3,3.82A.68.68,0,0,1,91.53,90.27Zm89.67-1.85a.68.68,0,0,1-.65-.47c-.43-1.27-.92-2.53-1.46-3.76a.67.67,0,0,1,.35-.9.68.68,0,0,1,.9.35c.55,1.26,1.06,2.57,1.51,3.88a.68.68,0,0,1-.43.86A.57.57,0,0,1,181.2,88.42ZM94.52,82.65a.7.7,0,0,1-.62-1c.62-1.24,1.29-2.46,2-3.64a.69.69,0,0,1,.94-.23.68.68,0,0,1,.23.94c-.7,1.15-1.35,2.34-2,3.54A.68.68,0,0,1,94.52,82.65Zm83.38-1.73a.69.69,0,0,1-.6-.35c-.65-1.18-1.35-2.34-2.1-3.46a.68.68,0,0,1,.19-1,.69.69,0,0,1,1,.19c.76,1.15,1.49,2.35,2.16,3.56a.69.69,0,0,1-.27.93A.8.8,0,0,1,177.9,80.92ZM98.78,75.66a.69.69,0,0,1-.55-1.09c.82-1.11,1.7-2.2,2.61-3.24a.69.69,0,0,1,1-.06.68.68,0,0,1,.06,1c-.89,1-1.74,2.07-2.54,3.15A.68.68,0,0,1,98.78,75.66Zm74.56-1.55a.69.69,0,0,1-.53-.25c-.84-1-1.74-2.07-2.67-3a.69.69,0,0,1,1-.95c1,1,1.88,2,2.75,3.13a.68.68,0,0,1-.11,1A.7.7,0,0,1,173.34,74.11Zm-69.14-4.6a.7.7,0,0,1-.5-.21.69.69,0,0,1,0-1c1-1,2.06-1.87,3.14-2.74a.68.68,0,0,1,.85,1.07c-1,.84-2.07,1.73-3,2.66A.66.66,0,0,1,104.2,69.51Zm63.48-1.32a.65.65,0,0,1-.45-.17c-1-.88-2.07-1.74-3.15-2.53a.68.68,0,0,1,.81-1.1c1.11.82,2.2,1.69,3.24,2.6a.69.69,0,0,1,.06,1A.68.68,0,0,1,167.68,68.19Zm-57.09-3.8a.68.68,0,0,1-.38-1.25c1.15-.77,2.35-1.49,3.56-2.16a.68.68,0,0,1,.66,1.2c-1.18.64-2.34,1.35-3.46,2.09A.68.68,0,0,1,110.59,64.39Zm50.49-1a.64.64,0,0,1-.35-.1c-1.15-.7-2.34-1.35-3.54-2a.68.68,0,0,1,.6-1.22c1.24.61,2.47,1.28,3.65,2a.68.68,0,0,1,.22.94A.67.67,0,0,1,161.08,63.34Zm-43.3-2.89a.68.68,0,0,1-.63-.41.69.69,0,0,1,.35-.9c1.27-.55,2.57-1.06,3.88-1.5a.69.69,0,0,1,.87.43.67.67,0,0,1-.43.86c-1.27.43-2.54.93-3.77,1.47A.86.86,0,0,1,117.78,60.45Zm36-.74a.74.74,0,0,1-.25-.05c-1.25-.49-2.54-.92-3.82-1.3a.69.69,0,0,1-.47-.85.68.68,0,0,1,.85-.46c1.33.38,2.65.84,3.94,1.34a.68.68,0,0,1,.39.88A.7.7,0,0,1,153.74,59.71Zm-28.2-1.88a.67.67,0,0,1-.66-.52.68.68,0,0,1,.5-.83c1.34-.32,2.71-.59,4.08-.8a.69.69,0,0,1,.78.58.67.67,0,0,1-.58.77c-1.32.2-2.66.47-4,.78A.44.44,0,0,1,125.54,57.83Zm20.34-.42h-.13c-1.32-.26-2.66-.47-4-.61a.68.68,0,0,1,.15-1.36c1.38.15,2.76.36,4.11.63a.68.68,0,0,1-.13,1.35Zm-12.24-.8A.68.68,0,0,1,133,56a.67.67,0,0,1,.63-.72c1-.07,2.08-.11,3.12-.1h1a.69.69,0,0,1,.67.7.68.68,0,0,1-.68.67h-1.08c-1,0-2,0-3,.09Z"/><path class="cls-71" d="M271.19,110.91a.52.52,0,0,1-.45-.39c-.26-.65-.54-1.32-.82-2a1,1,0,0,1,.17-1.08c.24-.23.57-.12.72.24.29.67.57,1.35.83,2a1,1,0,0,1-.18,1.07A.45.45,0,0,1,271.19,110.91Z"/><path class="cls-71" d="M271.6,117a.54.54,0,0,1-.32-.5c-.06-.71-.14-1.42-.22-2.13a1,1,0,0,1,.47-1c.3-.16.58,0,.62.43.09.73.16,1.46.22,2.18a1,1,0,0,1-.48,1A.49.49,0,0,1,271.6,117Z"/><path class="cls-78" d="M184.67,122.36a.38.38,0,0,1-.17,0,.92.92,0,0,1-.33-1c.34-1.49.71-3,1.12-4.43.11-.4.42-.59.69-.42a1,1,0,0,1,.28,1c-.39,1.41-.76,2.87-1.09,4.33C185.1,122.15,184.89,122.36,184.67,122.36Zm2.41-8.63a.4.4,0,0,1-.23-.08,1,1,0,0,1-.24-1.05c.47-1.4,1-2.8,1.52-4.15.15-.37.47-.5.72-.28a1,1,0,0,1,.19,1.07c-.53,1.32-1,2.69-1.49,4.06A.55.55,0,0,1,187.08,113.73Zm3.2-8a.42.42,0,0,1-.3-.14,1.06,1.06,0,0,1-.14-1.09c.6-1.29,1.24-2.57,1.9-3.8a.42.42,0,0,1,.74-.12,1.06,1.06,0,0,1,.08,1.1c-.64,1.2-1.26,2.44-1.85,3.71A.51.51,0,0,1,190.28,105.69Zm78.32-.64a.51.51,0,0,1-.43-.32c-.61-1.24-1.25-2.47-1.92-3.65a1,1,0,0,1,.07-1.09.42.42,0,0,1,.74.09c.68,1.21,1.34,2.46,2,3.72a1.08,1.08,0,0,1-.11,1.1A.45.45,0,0,1,268.6,105.05Zm-74.4-6.67a.45.45,0,0,1-.36-.21,1.06,1.06,0,0,1,0-1.1c.71-1.16,1.46-2.29,2.23-3.37a.41.41,0,0,1,.74,0,1.08,1.08,0,0,1,0,1.11c-.75,1.06-1.49,2.17-2.18,3.29A.49.49,0,0,1,194.2,98.38Zm70.35-.5a.48.48,0,0,1-.38-.24c-.71-1.11-1.46-2.2-2.22-3.23a1.06,1.06,0,0,1,0-1.11.41.41,0,0,1,.74,0c.78,1.06,1.54,2.17,2.27,3.3a1.08,1.08,0,0,1,0,1.11A.47.47,0,0,1,264.55,97.88Zm-65.79-5.95a.49.49,0,0,1-.41-.28,1.08,1.08,0,0,1,.07-1.1c.81-1,1.66-2,2.52-2.89.23-.26.56-.18.73.17a1,1,0,0,1-.12,1.09c-.83.9-1.66,1.85-2.46,2.83A.4.4,0,0,1,198.76,91.93Zm61.15-.36a.47.47,0,0,1-.33-.17c-.8-1-1.64-1.9-2.49-2.78a1,1,0,0,1-.13-1.08c.17-.36.5-.44.74-.2.86.9,1.72,1.86,2.54,2.84a1,1,0,0,1,.08,1.1A.48.48,0,0,1,259.91,91.57Zm-56.05-5.11a.53.53,0,0,1-.45-.37,1,1,0,0,1,.17-1.07c.9-.83,1.82-1.63,2.76-2.37.25-.21.57-.07.71.32a1,1,0,0,1-.22,1c-.91.73-1.82,1.51-2.69,2.32A.41.41,0,0,1,203.86,86.46Zm50.9-.25a.45.45,0,0,1-.28-.11c-.88-.8-1.79-1.56-2.71-2.27a1,1,0,0,1-.22-1c.13-.39.45-.53.71-.33.93.72,1.86,1.5,2.77,2.31a1,1,0,0,1,.18,1.08A.53.53,0,0,1,254.76,86.21ZM209.41,82c-.2,0-.39-.17-.48-.46a1,1,0,0,1,.26-1c1-.65,2-1.26,2.95-1.81.27-.15.57.05.67.45a.92.92,0,0,1-.3,1c-1,.54-1.94,1.14-2.88,1.77A.38.38,0,0,1,209.41,82Zm39.77-.14a.44.44,0,0,1-.22-.07c-.94-.62-1.91-1.2-2.88-1.73a.92.92,0,0,1-.32-1c.1-.41.4-.61.68-.47,1,.54,2,1.14,2.95,1.77a1,1,0,0,1,.27,1C249.57,81.72,249.38,81.9,249.18,81.9Zm-33.87-3.15c-.23,0-.44-.22-.51-.56a.89.89,0,0,1,.35-1c1-.46,2-.87,3.08-1.22.28-.1.57.16.63.58a.85.85,0,0,1-.39.94c-1,.34-2,.75-3,1.19A.28.28,0,0,1,215.31,78.75Zm28-.07a.4.4,0,0,1-.15,0c-1-.43-2-.82-3-1.17a.83.83,0,0,1-.39-.93c.06-.42.35-.68.63-.59,1,.35,2.07.75,3.08,1.19a.89.89,0,0,1,.35,1C243.7,78.46,243.5,78.68,243.27,78.68Zm-21.83-2.05c-.25,0-.48-.28-.52-.66a.83.83,0,0,1,.44-.9c1-.25,2.1-.46,3.16-.61.29,0,.54.27.57.7s-.18.81-.47.85c-1,.15-2.07.36-3.09.61Zm15.69,0H237c-1-.25-2.06-.44-3.09-.59-.29,0-.5-.43-.47-.85s.28-.74.57-.71c1,.15,2.12.36,3.16.61.29.07.48.47.44.89S237.38,76.61,237.13,76.61Zm-9.42-.9c-.28,0-.52-.33-.53-.75s.22-.8.51-.81c.54,0,1.09,0,1.64,0s1,0,1.55,0c.29,0,.51.37.51.8s-.26.77-.55.76l-1.54,0c-.52,0-1.05,0-1.57,0Z"/><path class="cls-71" d="M183.4,129.17l-.11,0a.82.82,0,0,1-.4-.93c.11-.77.24-1.55.37-2.3.07-.42.36-.67.64-.56a.86.86,0,0,1,.38,1c-.13.74-.25,1.49-.37,2.25C183.86,128.92,183.64,129.17,183.4,129.17Z"/><g id="guy_01"><path class="cls-76" d="M9.2,280s-.32,4.76,0,4.86,3.89.62,3.83.09.66-5.28.66-5.28Z"/><path class="cls-76" d="M35.41,280.16s.33,4.76,0,4.86-3.89.63-3.82.1-.67-5.29-.67-5.29Z"/><path class="cls-76" d="M31.36,171.84c0,3.33.08,6.74.2,10.1s.3,6.72.63,10,.88,6.52,1.5,9.83c.31,1.65.64,3.31,1,5l.53,2.48.27,1.25.13.64.07.33,0,.19,0,.12,0,.11,0,.14s0,.06,0,.21c-2-.44,4.61,1.21-5.19,2.14a3,3,0,1,1,4.48-3.86c-9.79.93-3.22,2.57-5.19,2.12a1.47,1.47,0,0,1,0,.2l0,.09v0l0-.12-.08-.29-.16-.61-.33-1.24-.66-2.5c-.43-1.67-.86-3.34-1.26-5-.8-3.38-1.58-6.77-2.1-10.34s-.82-7-1.1-10.41-.49-6.88-.65-10.38a3.9,3.9,0,0,1,7.79-.34v.19Z"/><path class="cls-79" d="M31.56,181.94c-.12-3.36-.19-6.77-.2-10.1v-.19a3.9,3.9,0,0,0-7.79.34c.16,3.5.37,6.92.65,10.38.11,1.46.25,2.92.39,4.39l7.16-.25C31.69,185,31.62,183.46,31.56,181.94Z"/><path class="cls-76" d="M30.74,218.55a5.19,5.19,0,1,0-3-6.66A5.16,5.16,0,0,0,30.74,218.55Z"/><path class="cls-62" d="M26.11,258.84c.35,2.4,2.23,10,3.88,16.57.36,2.19.67,4.1.93,5.65h4.56l-2-68.93s-.47-.64-1.23-1.63H21.08c-.4,5.33,3.57,31.26,3.91,34.77S25.46,254.39,26.11,258.84Z"/><path class="cls-80" d="M13.91,281.06c1.68-7.22,4.56-19.84,4.86-23a43.18,43.18,0,0,0-.21-10c.49-3.31,8.34-33.06,7.67-35.94a3.07,3.07,0,0,0-1.13-1.65l-.13,0H14.05a36.72,36.72,0,0,1-3.66,1L8.85,281.06Z"/><path class="cls-81" d="M33.47,211.5s-2.06-13.31-1.8-38.86a6.83,6.83,0,0,0-3.55-6.14c-4.11-2.17-9.55-.92-14.28.24-6.3,1.55-2.61,11.87-5.13,44.46C17.59,212.33,33.47,211.5,33.47,211.5Z"/><path class="cls-82" d="M49.49,195.33a6,6,0,0,1,2.62-5.7l-.58-.13-1.28-.3-2.54-.63c-1.69-.43-3.37-.88-5-1.37s-3.29-1-4.86-1.57c-.79-.29-1.56-.59-2.3-.9s-1.42-.64-2.11-1a40.48,40.48,0,0,1-7.86-5.56q-1.86-1.65-3.58-3.46c-.58-.6-1.14-1.21-1.69-1.83l-.8-.93-.38-.46-.19-.23-.15-.19,0-.06-.13-.16a4.55,4.55,0,0,0-6.89,5.94l.28.32.25.28.49.54c.33.36.66.7,1,1,.66.69,1.34,1.36,2,2q2.07,2,4.29,3.76A49.1,49.1,0,0,0,29.88,191c.91.42,1.87.81,2.78,1.13s1.83.62,2.74.89c1.81.54,3.6,1,5.38,1.42s3.57.79,5.36,1.14l2.67.5.85.15A3.86,3.86,0,0,1,49.49,195.33Z"/><path class="cls-76" d="M49.49,195.33a6,6,0,0,1,2.62-5.7l-.4-.09-1.11-.26-2.21-.54c-1.47-.37-2.93-.75-4.37-1.16a74.11,74.11,0,0,1-8.34-2.79,24.1,24.1,0,0,1-3.85-2,54.58,54.58,0,0,0-3.38,7.53c.65.33,1.31.66,2,.94s1.63.67,2.42,1a83.89,83.89,0,0,0,9.36,2.56c1.55.35,3.09.66,4.64,1l2.32.43.49.08A3.86,3.86,0,0,1,49.49,195.33Z"/><rect class="cls-81" x="29.46" y="182.17" width="1" height="8.56" transform="translate(78.08 3.84) rotate(23.89)"/><path class="cls-81" d="M16.75,166.06c3.43-.74,7-1.17,10-.13-.18,3.41-.91,6.34-4.4,6.34C18.44,172.27,17.14,169.93,16.75,166.06Z"/><path class="cls-83" d="M13.16,284.16a9,9,0,0,0-4-.17c-2.12.37-4.93.87-5.13,1.23a1.54,1.54,0,0,0-.11.9s8.87-.1,9.23-.3S13.16,284.16,13.16,284.16Z"/><path class="cls-83" d="M31.19,284.16a8.93,8.93,0,0,1,3.95-.17c2.13.37,2.44.87,2.65,1.23a1.59,1.59,0,0,1,.1.9s-6.37-.1-6.73-.3S31.19,284.16,31.19,284.16Z"/><ellipse class="cls-76" cx="53.72" cy="194.11" rx="5.15" ry="5.2" transform="translate(-129.08 109.55) rotate(-49.71)"/><path class="cls-76" d="M28.4,158.17a31.77,31.77,0,0,1-2.72,4.11,9.1,9.1,0,0,0-1.44,4.08c-.17,1.11-.57,2-1.91,2.17-2.53.36-1.81-1.73-2.38-3.25-.66-1.74-2.06-3.11-3-4.67-2.83-4.48-2-13.35,3.86-15.24C27.2,143.3,30.47,153.63,28.4,158.17Z"/><path class="cls-84" d="M18.14,153.83a3.21,3.21,0,0,0-2.07.58c-.54.49-.48,1.56.23,1.67s1.49-.57,1.88-.07c.24.29,0,.71-.14,1a6.11,6.11,0,0,0-.56,4.18c-.27.25-.69,0-.92-.27a13.51,13.51,0,0,1-2.67-4.38,2.56,2.56,0,0,1-1,.95,3.1,3.1,0,0,0-.06-1.88c-.55-2.27-.92-4.93.66-6.78A5.93,5.93,0,0,1,17,147.06a17.12,17.12,0,0,1,3.92-.12c.56,0,1.25.15,1.38.66a6.3,6.3,0,0,0-3.11,2.62C19,150.57,18.22,153.83,18.14,153.83Z"/><path class="cls-84" d="M20.73,148.38l-.13.1a5.34,5.34,0,0,1-1.75,1.12c-1,.27-2-.19-3,.14s-1.77,1.64-2.55,2.4a11.42,11.42,0,0,1-4.56,2.66,11.1,11.1,0,0,1-2.67.48,4.76,4.76,0,0,1-1.36,0c-.54-.14-.52-.39,0-.57,1.8-.58,2.36-3.1,2.22-4.77-.1-1.32-.56-2.7,0-3.92a4.67,4.67,0,0,1,2-2c.88-.59,1.84-.43,2.84-.71s1.89-1.12,2.95-1.33a8.94,8.94,0,0,1,3.37.5,6.87,6.87,0,0,0,2.82,0,11.39,11.39,0,0,1,2.48-.51,4.05,4.05,0,0,1,3.13,1.81,8.33,8.33,0,0,1,1.34,5.78c.05-.29-.93-1.35-1.14-1.58a2.69,2.69,0,0,0-1.6-1A6.92,6.92,0,0,0,20.73,148.38Z"/></g><path class="cls-85" d="M94.3,174.65l-.19.42-.17.35-.34.65q-.33.65-.69,1.26c-.48.83-1,1.63-1.5,2.41A41.08,41.08,0,0,1,88,184.22a33.06,33.06,0,0,1-9,7.26,32.9,32.9,0,0,1-5.32,2.19c-1.74.56-3.47,1-5.19,1.43s-3.44.76-5.16,1.07l-2.57.44-1.29.2-.65.09-.31,0-.15,0h0l.1,0c-1.14-2.61,2.43,6-.53-6.71a3.41,3.41,0,0,1-.6,6.8c-3-12.67.62-4.11-.52-6.72l.12,0H57l.08,0,.1,0,.17,0,.3-.06.61-.13,1.21-.25,2.4-.55c1.59-.39,3.17-.8,4.73-1.26s3.07-1,4.52-1.53a26.08,26.08,0,0,0,4-1.87,25.38,25.38,0,0,0,6.42-5.81A34.58,34.58,0,0,0,84,175.05c.39-.65.75-1.31,1.09-2q.25-.5.48-1l.22-.48.09-.23.07-.17a4.5,4.5,0,0,1,8.32,3.44Z"/><path class="cls-62" d="M95.16,245.18c.14-3.49,2.66-29.92,1.71-33.91-.42-1.77,3.53.71,1.16-.28a64.78,64.78,0,0,0,.26-9.42c-1-6.29-13.48,11.7-13.48,11.7l2.24,70.51,3,.12,0,.26,0-.25.92,0s.41-3.79,1-9.75c1.25-6.29,2.65-13.64,2.85-15.95C95.24,254,95,248.67,95.16,245.18Z"/><path class="cls-80" d="M109.6,257.49a44.1,44.1,0,0,0-2.22-9.61c-.19-3.19-1.39-33-2.64-35.81-1.7-3.78-8.51-2.59-8.51-2.59l.39,1.89h-.28a40,40,0,0,1-4.45,1.27l13.41,71.8,4,.16S110.09,261.83,109.6,257.49Z"/><path class="cls-85" d="M84.85,213.12S84.4,174.93,86,171c2.68-6.63,12.06-8.28,18.3-4.88,1.42,3.84-.18,25.88-.18,25.88s-.07,11.39,2.16,20.39C103.43,211.4,84.85,213.12,84.85,213.12Z"/><path class="cls-86" d="M91.35,170.71c0,.31.16.56.36.56s.37-.25.38-.56-.16-.56-.37-.56S91.35,170.4,91.35,170.71Z"/><path class="cls-72" d="M94.62,171a1.91,1.91,0,1,1-1.84-2.43A2.2,2.2,0,0,1,94.62,171Z"/><polygon class="cls-87" points="84.79 213.31 107.97 213.31 107.99 210.95 84.81 210.95 84.79 213.31"/><path class="cls-85" d="M105.69,167.46a73.31,73.31,0,0,1,6.5,11.26,42,42,0,0,1,2.29,6.38,31.12,31.12,0,0,1,1.07,6.89,29.77,29.77,0,0,1-.53,7,32.74,32.74,0,0,1-2,6.57,51.06,51.06,0,0,1-6.82,11.23,3.42,3.42,0,0,1-5.5-4.06l0,0a43.49,43.49,0,0,0,5.43-9.86,23.36,23.36,0,0,0,1.51-10.34,28.1,28.1,0,0,0-3.11-10.16,65.14,65.14,0,0,0-6.17-9.62h0a4.5,4.5,0,0,1,7.2-5.41Z"/><path class="cls-74" d="M94.68,168.67c-.56-.12-1.23.07-1.8,0a1.47,1.47,0,0,0-1.14.23c-1.08-3.26.69-9.77-.4-12.61,2.28.15,8.49,1.54,8.49,1.54s.06,3.72,0,6.87c-.52,2.62-1.87,4.84-3.73,5.73A2,2,0,0,0,94.68,168.67Z"/><path class="cls-88" d="M92.69,168.69l-2.6,2.66s-.13-4.67-.09-5,1.55-1.61,1.55-1.61S91.47,167.5,92.69,168.69Z"/><path class="cls-88" d="M106.92,216.51c.21-.16,2.19-3.63,2.19-3.63s-.88-3.51-6.48-3.86a25.53,25.53,0,0,0-2.28,4.08Z"/><path class="cls-74" d="M100.12,220.11a4.54,4.54,0,1,1,6.32-1A4.54,4.54,0,0,1,100.12,220.11Z"/><path class="cls-88" d="M60.79,196.82c.26,0,3.55,0,3.55,0a7.45,7.45,0,0,0-1.49-8.4,25.46,25.46,0,0,0-4.45,1.42Z"/><path class="cls-75" d="M89,148.63a9.62,9.62,0,0,0-.93,4.33,1.4,1.4,0,0,1-.3,1.11c-.33.26,0,.8-.27.48a7.15,7.15,0,0,1-1.27-1.86,15.63,15.63,0,0,1-.14-3,4.29,4.29,0,0,1,.68-2.46,5,5,0,0,1,1.15-1,6.36,6.36,0,0,1,2-1c1.22-.3,2,.11,1,1.05A7.54,7.54,0,0,0,89,148.63Z"/><path class="cls-74" d="M97.54,165.12l-5.09.75a32.5,32.5,0,0,1-.68-4.51c-1.5-.18-3.27-.58-3.86-2.14a5.36,5.36,0,0,1-.25-1.56q-.18-3.27-.38-6.56a6.57,6.57,0,0,1,.14-2.26A4.52,4.52,0,0,1,90,146.27a9.57,9.57,0,0,1,8.82.09,4.82,4.82,0,0,1,1.85,1.71,7.86,7.86,0,0,1,.66,4.05l-.08,3.86c0,1.48-.16,3.18-1.24,4-.58.45-1.35.56-1.83,1.12C97.31,162.11,97.81,163.77,97.54,165.12Z"/><path class="cls-75" d="M87.49,159a5.34,5.34,0,0,0,2.1,3.32,7,7,0,0,0,4.16.75l2.33-.07c2-.06,3.91-.43,4.81-2.66a6.83,6.83,0,0,0,.38-3.33,2.07,2.07,0,0,0-.24-.89.72.72,0,0,0-.7-.4c-.34.07-.53.48-.74.8a1.71,1.71,0,0,1-2,.79,2.68,2.68,0,0,1-.58-.39l-.23-.19a5,5,0,0,0-2.59-.9c-.79-.06-2-.3-2.51.43-.32.43-.63.86-1,1.28a1.81,1.81,0,0,1-.44.47,1.21,1.21,0,0,1-.6.19,1.28,1.28,0,0,1-1.34-.74,3.26,3.26,0,0,1-.12-.77,1.26,1.26,0,0,0-.23-.72c-.62-.72-.73.48-.73.89A8.57,8.57,0,0,0,87.49,159Zm5.36.09a2.14,2.14,0,0,0,2,.12c.34-.13.52.48.18.61a2.6,2.6,0,0,1-2.42-.16C92.27,159.42,92.53,158.84,92.85,159.05Z"/><path class="cls-75" d="M86.19,145a12.47,12.47,0,0,1-.4-1.6,3.09,3.09,0,0,0,1.57,0l0-.94c0-.26,3.47-.63,3.75-.67,2.64-.36,5-.7,7.52.63a7.29,7.29,0,0,1,4,5.29,11.35,11.35,0,0,1-1.38,7.28,15.66,15.66,0,0,0,.08-2.64,5,5,0,0,0-.64-1.63,6.74,6.74,0,0,0-2.49-2.4,12.91,12.91,0,0,0-5.25-1.5,13.89,13.89,0,0,0-5.3.27c-.77.25-.89.46-1.41-.32a15.29,15.29,0,0,1-.78-1.76Z"/><path class="cls-89" d="M91,284a8.7,8.7,0,0,0-3.93-.17c-2.11.36-4.89.86-5.09,1.22a1.56,1.56,0,0,0-.11.88s8.79-.1,9.15-.29S91,284,91,284Z"/><path class="cls-89" d="M109.26,284a8.7,8.7,0,0,0-3.93-.17c-2.1.36-4.89.86-5.09,1.22a1.52,1.52,0,0,0-.1.88s8.78-.1,9.15-.29S109.26,284,109.26,284Z"/><path class="cls-62" d="M98.11,214.4s9.08,4.11,8.43,5.06-1.1,5.18-4.7,5-4.63-1.9-4.62-3.59A64.15,64.15,0,0,1,98.11,214.4Z"/><path class="cls-90" d="M93,213.78H89.29a1.24,1.24,0,0,1-.89-.37,1.27,1.27,0,0,1-.36-.89v-1.1a1,1,0,0,1,1-1h4a1.22,1.22,0,0,1,.89.37,1.19,1.19,0,0,1,.36.89v.8A1.28,1.28,0,0,1,93,213.78Zm-4-2.89a.54.54,0,0,0-.54.53v1.1a.81.81,0,0,0,.24.59.78.78,0,0,0,.58.24H93a.84.84,0,0,0,.84-.83v-.81a.79.79,0,0,0-.23-.58.81.81,0,0,0-.59-.24Z"/><path class="cls-90" d="M94.05,212.36H90.91a.22.22,0,0,1-.21-.22.21.21,0,0,1,.21-.21h3.14a.21.21,0,0,1,.21.21A.21.21,0,0,1,94.05,212.36Z"/><polygon class="cls-88" points="95.7 171.9 92.69 168.69 99.89 163.47 101.48 165.04 95.7 171.9"/><polygon class="cls-72" points="92.05 172.08 89.75 204.18 91.11 207.83 92.98 204.44 92.9 172.33 92.05 172.08"/><g id="ava_04"><polygon class="cls-80" points="18.66 108.48 9.18 117.96 18.66 129.96 28.14 117.96 18.66 108.48"/><path class="cls-62" d="M9.18,118,13,122.75a18.61,18.61,0,0,0,5.47.82,18.38,18.38,0,0,0,6.1-1L28.14,118l-9.48-9.48Z"/><ellipse class="cls-80" cx="18.43" cy="102.84" rx="18.39" ry="18.38"/><ellipse class="cls-71" cx="18.43" cy="102.84" rx="17.39" ry="17.39"/><path class="cls-80" d="M25.92,100.33a7.19,7.19,0,1,0-7.19,7.19A7.19,7.19,0,0,0,25.92,100.33Z"/><path class="cls-80" d="M24.33,105.85a8.28,8.28,0,0,1-11.39-.2,19.08,19.08,0,0,0-7.89,9,18.19,18.19,0,0,0,26.78,0A19.35,19.35,0,0,0,24.33,105.85Z"/></g><g id="ava_03"><polygon class="cls-91" points="94.88 109.25 85.39 118.73 94.88 130.73 104.36 118.73 94.88 109.25"/><path class="cls-92" d="M85.39,118.73l3.78,4.79a18.66,18.66,0,0,0,5.47.82,18.44,18.44,0,0,0,6.11-1l3.61-4.57-9.49-9.48Z"/><ellipse class="cls-91" cx="94.64" cy="103.61" rx="18.39" ry="18.38"/><ellipse class="cls-71" cx="94.64" cy="103.61" rx="17.39" ry="17.39"/><circle class="cls-91" cx="94.94" cy="101.1" r="7.19"/><path class="cls-91" d="M100.55,106.62a8.3,8.3,0,0,1-11.4-.2,19.11,19.11,0,0,0-7.88,9,18.19,18.19,0,0,0,26.78,0A19.46,19.46,0,0,0,100.55,106.62Z"/></g><g id="ava_02"><polygon class="cls-72" points="183.31 158.25 173.83 167.73 183.31 179.72 192.8 167.73 183.31 158.25"/><path class="cls-93" d="M173.83,167.73l3.78,4.78a18.37,18.37,0,0,0,11.58-.22l3.61-4.56-9.49-9.48Z"/><ellipse class="cls-72" cx="183.08" cy="152.61" rx="18.39" ry="18.38"/><ellipse class="cls-71" cx="183.08" cy="152.61" rx="17.39" ry="17.39"/><path class="cls-72" d="M190.57,150.1a7.19,7.19,0,1,0-7.19,7.18A7.19,7.19,0,0,0,190.57,150.1Z"/><path class="cls-72" d="M189,155.61a8.27,8.27,0,0,1-11.4-.2,19.11,19.11,0,0,0-7.88,9,18.18,18.18,0,0,0,26.78,0A19.44,19.44,0,0,0,189,155.61Z"/></g><g id="guy_03"><path class="cls-94" d="M264.43,211.31h-.62l-.43,0c-.28,0-.51-.1-.77-.15a9.78,9.78,0,0,1-1.39-.41l-.33-.11-.31-.14-.63-.27c-.4-.2-.79-.4-1.17-.62a18.71,18.71,0,0,1-3.94-3.09l-.43-.43-.21-.21-.2-.23-.77-.9c-.27-.29-.49-.61-.73-.92l-.7-.94c-.43-.64-.85-1.28-1.26-1.93l-1.13-2a2.47,2.47,0,0,1,4.16-2.65l.1.14,1.14,1.63c.4.52.82,1,1.22,1.54l.65.71c.22.23.42.49.66.7l.68.65.17.16.17.15.36.29a13.42,13.42,0,0,0,2.94,1.91l.75.3.37.12.18.06.18,0a6.06,6.06,0,0,0,.67.13l.28,0h0a3.26,3.26,0,0,1,.32,6.51Z"/><path class="cls-94" d="M264.73,193.63a96.93,96.93,0,0,0-2.9,11.1c-.69,4.28,4.2,5.11,4.2,5.11s2.67-5.37,2.47-8.43a34.5,34.5,0,0,0-2.08-7.89Z"/><path class="cls-82" d="M264.73,193.63s-1.13,3.48-2,7c1.78,1.29,4.53,3.33,5.35,3.94a10.25,10.25,0,0,0,.45-3.19,34.5,34.5,0,0,0-2.08-7.89Z"/><polygon class="cls-81" points="267.66 204.68 268 204.27 262.75 200.15 262.37 200.57 267.66 204.68"/><path class="cls-89" d="M280.09,261.34a10.61,10.61,0,0,0,.19,2.58,14.35,14.35,0,0,0,.94,3.8,4.92,4.92,0,0,0,1.4.21s.23-6.68.1-7S280.09,261.34,280.09,261.34Z"/><path class="cls-92" d="M272.08,220.42l-.78.34c-.66.3-6.37.5-7,.78l.57,49.12,2.14.09,0,.18a1.32,1.32,0,0,0,0-.18l.66,0s.32-2.66.8-6.85c.93-4.42,2-9.6,2.13-11.22.3-3,.17-6.74.29-9.19s1.86-19,1.5-23.22Z"/><path class="cls-91" d="M281.61,263.66a1.45,1.45,0,0,0,.73-1.84c-1.69-4.24-3.85-8.61-4.78-11.66a8.72,8.72,0,0,0-4.27-5s7.29-20,6.88-24.08c-.57-5.63-8-2.56-9.17-2.67-.52,7.13-3.38,19.65-4.71,24.14a8.8,8.8,0,0,0-.35,2.54c0,.93,2,3.55,2.55,4.3,2.11,2.92,7.81,8.45,11.4,13.77a1.36,1.36,0,0,0,1.72.48Z"/><path class="cls-89" d="M267.83,270.78a6.23,6.23,0,0,0-2.79-.12,16.33,16.33,0,0,0-3.81.86,1.17,1.17,0,0,0-.19.62s6.32-.07,6.61-.2S267.83,270.78,267.83,270.78Z"/><path class="cls-81" d="M264.2,221.84s0-5,0-10c0-7.27-.55-16.09.74-18.94,2.18-4.8,6.62-5.34,11.27-4.52s4.8,10.73,4.18,33.39C278,221.11,264.2,221.84,264.2,221.84Z"/><path class="cls-94" d="M281.65,192.94l.23.24.18.21c.12.13.23.26.34.4s.43.52.63.79c.41.53.8,1.06,1.17,1.61a35.59,35.59,0,0,1,2,3.36,38.12,38.12,0,0,1,1.65,3.55c.12.3.23.61.35.91s.23.61.32.93l.3.93c.05.15.1.32.14.49l.14.51a27.23,27.23,0,0,1,.66,3.94c.12,1.29.18,2.56.19,3.82a57,57,0,0,1-.44,7.51,2.48,2.48,0,0,1-4.93-.47v0a51.75,51.75,0,0,0,0-6.82c-.08-1.13-.19-2.24-.35-3.33a21.55,21.55,0,0,0-.69-3.09l-.12-.35a3,3,0,0,0-.12-.36l-.3-.76c-.09-.26-.2-.51-.31-.75s-.21-.5-.33-.75q-.69-1.47-1.53-2.88a32.36,32.36,0,0,0-1.82-2.68c-.33-.43-.67-.84-1-1.24l-.52-.59-.26-.27-.12-.12-.09-.08a3.26,3.26,0,0,1,4.59-4.63Z"/><path class="cls-82" d="M277.63,189.07a3.11,3.11,0,0,0-1.42-.64c-3.54-.62-7-.46-9.36,1.79.12,2.07.95,4.45,4.57,4.45S276.8,191.63,277.63,189.07Z"/><path class="cls-94" d="M274.42,184.61s.4,8.71-2.93,8.71-.94-4.69-1.89-7C271,186.43,274.42,184.61,274.42,184.61Z"/><path class="cls-94" d="M276.21,188.43c-3-.54-6-.49-8.31,1-.08,1.79.18,4.58,3.7,4.58,3.34,0,4.71-3.19,5.26-5.36A2.72,2.72,0,0,0,276.21,188.43Z"/><path class="cls-71" d="M268.75,183.28c-.22-.77.86-.18,1.89-.47s1.65-1.36,1.87-.59-.45,1.62-1.48,1.92A1.77,1.77,0,0,1,268.75,183.28Z"/><path class="cls-93" d="M248.72,192.09l4.15,9.79a.88.88,0,0,0,1.07.51l3.79-1.1a.57.57,0,0,0,.37-.78L254,190.72a.88.88,0,0,0-1.07-.51l-3.79,1.1A.57.57,0,0,0,248.72,192.09Z"/><path class="cls-95" d="M248.32,192.18l4.15,9.79a.91.91,0,0,0,1.07.51l3.79-1.1a.59.59,0,0,0,.38-.79l-4.15-9.79a.9.9,0,0,0-1.07-.51l-3.79,1.1A.59.59,0,0,0,248.32,192.18Z"/><path class="cls-93" d="M248.67,192.13l.82,1.94a.18.18,0,0,0,.21.11l.75-.22a.12.12,0,0,0,.08-.16l-.82-1.94a.18.18,0,0,0-.22-.1l-.75.22A.11.11,0,0,0,248.67,192.13Z"/><circle class="cls-94" cx="252.12" cy="197.01" r="3.71"/><path class="cls-94" d="M289.47,226.09c-.7,1.93-1.93.46-3.86-.24s-3.82-.37-3.12-2.29a3.71,3.71,0,0,1,7,2.53Z"/><path class="cls-81" d="M277.45,189c.23,0,2.76.81,5.24,5.24s4.43,5.13,1.61,4.84S277.45,189,277.45,189Z"/><path class="cls-82" d="M286.22,199.55a35.59,35.59,0,0,0-2-3.36c-.37-.55-.76-1.08-1.17-1.61-.2-.27-.41-.53-.63-.79s-.22-.27-.34-.4l-.18-.21-.23-.24a3.26,3.26,0,0,0-4.59,4.63l.09.08.12.12.26.27.52.59c.34.4.68.81,1,1.24a32.36,32.36,0,0,1,1.82,2.68c.21.35.4.69.6,1,1.1-.67,3.35-2,5.16-3.22C286.51,200.09,286.37,199.82,286.22,199.55Z"/><polygon class="cls-81" points="281.01 203.49 281.28 203.96 286.95 200.44 286.69 199.94 281.01 203.49"/><path class="cls-82" d="M249.7,192.41a.3.3,0,0,1-.29.41.56.56,0,0,1-.5-.41.3.3,0,0,1,.28-.41A.56.56,0,0,1,249.7,192.41Z"/><path class="cls-82" d="M250.09,193.58a.25.25,0,0,1-.24.35.48.48,0,0,1-.42-.35.26.26,0,0,1,.24-.35A.48.48,0,0,1,250.09,193.58Z"/><g id="ava_01"><polygon class="cls-81" points="271.61 149.88 264.81 156.68 271.61 165.29 278.41 156.68 271.61 149.88"/><path class="cls-96" d="M264.81,156.68l2.71,3.43a13.06,13.06,0,0,0,3.92.6,13.21,13.21,0,0,0,4.38-.75l2.59-3.28-6.8-6.8Z"/><circle class="cls-81" cx="271.44" cy="145.84" r="13.18" transform="matrix(0, -1, 1, 0, 124.54, 416.7)"/><circle class="cls-71" cx="271.44" cy="145.84" r="12.47" transform="translate(124.44 416.65) rotate(-89.75)"/><path class="cls-81" d="M275.58,147.9a5.94,5.94,0,0,1-8.17-.14,13.62,13.62,0,0,0-5.66,6.48,13,13,0,0,0,19.21,0A13.94,13.94,0,0,0,275.58,147.9Z"/><circle class="cls-81" cx="271.56" cy="143.94" r="5.16"/></g><path class="cls-94" d="M268.21,185.71a4.48,4.48,0,0,0,2.26,2.26,3.19,3.19,0,0,0,3.22-.81c2.51-2.26,5.64-12.7-2.22-13.62C264.33,172.71,266.23,182,268.21,185.71Z"/><path class="cls-97" d="M275,181.28c.57.57.79,1.08,1.26.43,1.72-2.43,3.34-3.08,2.16-6.17-1-2.59-4.19-4-4.33-.61,0,1.22.94,2.73,1,4.06C275.15,180.9,275.49,179.47,275,181.28Z"/><path class="cls-97" d="M262.7,174.59c2.44,1.72,3.12,2.63,8.53,2.65,3.66,0,7.15-2.42,4.31-4.93C271.73,169,268.38,174,262.7,174.59Z"/></g><path class="cls-97" d="M262.39,153.87c.24-.18.64.6.64.6a12.56,12.56,0,0,0-.24,1.44,17.08,17.08,0,0,0,0,2.18S261.16,154.82,262.39,153.87Z"/><path class="cls-71" d="M271.3,131.89a.54.54,0,0,1-.24-.55c.06-.7.11-1.41.14-2.13a1,1,0,0,1,.63-.89c.32-.1.56.14.54.53,0,.73-.09,1.47-.14,2.18a1,1,0,0,1-.64.88A.4.4,0,0,1,271.3,131.89Z"/><path class="cls-71" d="M271.69,127.15a.54.54,0,0,1-.24-.55c.05-.7.1-1.42.13-2.13a1,1,0,0,1,.62-.9c.32-.1.57.14.55.54,0,.73-.08,1.46-.14,2.18a1,1,0,0,1-.63.88A.4.4,0,0,1,271.69,127.15Z"/><path class="cls-81" d="M271.69,122.07a.54.54,0,0,1-.24-.55c.05-.7.1-1.42.13-2.13a1,1,0,0,1,.62-.9c.32-.1.57.14.55.54,0,.72-.08,1.46-.14,2.17a1,1,0,0,1-.63.88A.47.47,0,0,1,271.69,122.07Z"/><path class="cls-71" d="M291.61,67.54a.32.32,0,0,0,.26.32,8,8,0,0,1,2.17.76,7.12,7.12,0,0,1,1.75,1.25,5.23,5.23,0,0,1,1.07,1.49,4,4,0,0,1,.42,1.45.61.61,0,0,1-.21.55.81.81,0,0,1-.55.21h-2a1.19,1.19,0,0,1-.72-.18,1.89,1.89,0,0,1-.43-.49,3.82,3.82,0,0,0-1.29-1.23,5,5,0,0,0-2.56-.52,6.39,6.39,0,0,0-1.4.15,3.73,3.73,0,0,0-1.15.45,2.47,2.47,0,0,0-.78.72,1.71,1.71,0,0,0-.28,1,1.67,1.67,0,0,0,.31,1.06,2.34,2.34,0,0,0,1,.71,10.59,10.59,0,0,0,1.78.55c.72.17,1.61.37,2.64.59a16.76,16.76,0,0,1,2.87.87,6.61,6.61,0,0,1,1.92,1.18,3.93,3.93,0,0,1,1.07,1.6,6,6,0,0,1,.33,2.06,5.06,5.06,0,0,1-.42,2.06,5.48,5.48,0,0,1-1.23,1.73,6.75,6.75,0,0,1-2,1.27,9.42,9.42,0,0,1-2.34.67.32.32,0,0,0-.28.32v1.64a.74.74,0,0,1-.23.53.7.7,0,0,1-.54.23h-2.29a.7.7,0,0,1-.53-.23.74.74,0,0,1-.23-.53V88.09a.33.33,0,0,0-.27-.32,9.8,9.8,0,0,1-2.12-.62A8.07,8.07,0,0,1,283.45,86a5.71,5.71,0,0,1-1.34-1.57,4.25,4.25,0,0,1-.56-2,.64.64,0,0,1,.21-.56.81.81,0,0,1,.55-.21h2a1.33,1.33,0,0,1,.73.17,1.46,1.46,0,0,1,.43.51,5.16,5.16,0,0,0,.48.74,2.6,2.6,0,0,0,.76.65,4.85,4.85,0,0,0,1.2.46,7.49,7.49,0,0,0,1.79.19,10.79,10.79,0,0,0,1.64-.13,4.93,4.93,0,0,0,1.39-.43,3,3,0,0,0,1-.73,1.65,1.65,0,0,0,.37-1.09,1.42,1.42,0,0,0-.4-1,3.05,3.05,0,0,0-1.2-.67,16.61,16.61,0,0,0-2-.54c-.79-.17-1.71-.39-2.74-.65a14.16,14.16,0,0,1-2.48-.81,5.89,5.89,0,0,1-1.75-1.14,4.28,4.28,0,0,1-1-1.6,6.22,6.22,0,0,1-.34-2.19,4.89,4.89,0,0,1,.42-2,5.88,5.88,0,0,1,1.18-1.68,6.3,6.3,0,0,1,1.79-1.25,9.11,9.11,0,0,1,2-.66.34.34,0,0,0,.26-.33V65.83a.79.79,0,0,1,.76-.76h2.29a.79.79,0,0,1,.77.76Z"/><path class="cls-82" d="M51.71,19.21a.27.27,0,0,0,.21.26,6.75,6.75,0,0,1,1.76.61,5.82,5.82,0,0,1,1.42,1A4.35,4.35,0,0,1,56,22.3a3.47,3.47,0,0,1,.35,1.18.52.52,0,0,1-.18.45.61.61,0,0,1-.44.17H54.09a.94.94,0,0,1-.58-.15,1.42,1.42,0,0,1-.36-.4,2.92,2.92,0,0,0-1-1A4,4,0,0,0,50,22.13a4.69,4.69,0,0,0-1.14.13,2.93,2.93,0,0,0-.94.37,1.86,1.86,0,0,0-.63.58,1.4,1.4,0,0,0-.23.78,1.44,1.44,0,0,0,.25.86,2,2,0,0,0,.82.57,8.88,8.88,0,0,0,1.44.45l2.15.48a13.19,13.19,0,0,1,2.32.7,5.32,5.32,0,0,1,1.56,1,3.28,3.28,0,0,1,.87,1.3A4.8,4.8,0,0,1,56.77,31a4.09,4.09,0,0,1-.34,1.67,4.24,4.24,0,0,1-1,1.4,5.32,5.32,0,0,1-1.59,1,7.66,7.66,0,0,1-1.9.54.27.27,0,0,0-.23.26v1.33a.6.6,0,0,1-.18.44.62.62,0,0,1-.44.18H49.23a.6.6,0,0,1-.43-.18.6.6,0,0,1-.18-.44V35.88a.27.27,0,0,0-.23-.26,8.66,8.66,0,0,1-1.71-.5,6.72,6.72,0,0,1-1.58-.93A4.52,4.52,0,0,1,44,32.92a3.53,3.53,0,0,1-.46-1.6.48.48,0,0,1,.17-.44.64.64,0,0,1,.45-.18h1.6a1.11,1.11,0,0,1,.6.14,1,1,0,0,1,.34.41,5.09,5.09,0,0,0,.39.6,2.34,2.34,0,0,0,.62.53,3.93,3.93,0,0,0,1,.38,6.52,6.52,0,0,0,1.45.14,8.24,8.24,0,0,0,1.33-.1,3.88,3.88,0,0,0,1.12-.34,2.39,2.39,0,0,0,.78-.6,1.32,1.32,0,0,0,.3-.88,1.15,1.15,0,0,0-.32-.83,2.72,2.72,0,0,0-1-.55,15.26,15.26,0,0,0-1.62-.43c-.64-.14-1.38-.31-2.22-.53a11.59,11.59,0,0,1-2-.65,4.6,4.6,0,0,1-1.42-.93,3.69,3.69,0,0,1-.84-1.29A5.25,5.25,0,0,1,44,24a3.9,3.9,0,0,1,.34-1.65A4.75,4.75,0,0,1,45.3,21a5.11,5.11,0,0,1,1.46-1,7.53,7.53,0,0,1,1.64-.55.27.27,0,0,0,.22-.26V17.82a.6.6,0,0,1,.18-.43.61.61,0,0,1,.43-.19h1.86a.63.63,0,0,1,.44.19.6.6,0,0,1,.18.43Z"/><path class="cls-82" d="M134.12,78.75a.2.2,0,0,0,.17.2,5.39,5.39,0,0,1,1.32.46,4.46,4.46,0,0,1,1.07.77,3.24,3.24,0,0,1,.66.91,2.54,2.54,0,0,1,.26.89.39.39,0,0,1-.13.34.53.53,0,0,1-.34.13h-1.21a.77.77,0,0,1-.44-.11,1.18,1.18,0,0,1-.27-.31,2.17,2.17,0,0,0-.78-.75,3.15,3.15,0,0,0-1.57-.32,3.44,3.44,0,0,0-.86.1,2.32,2.32,0,0,0-.7.27,1.37,1.37,0,0,0-.48.44,1.16,1.16,0,0,0,0,1.24,1.41,1.41,0,0,0,.61.43,6.46,6.46,0,0,0,1.09.34l1.62.36a10.21,10.21,0,0,1,1.75.53,3.89,3.89,0,0,1,1.18.73,2.51,2.51,0,0,1,.66,1,3.8,3.8,0,0,1,.2,1.27,3.12,3.12,0,0,1-.26,1.26,3.36,3.36,0,0,1-.76,1,3.77,3.77,0,0,1-1.2.78,5.55,5.55,0,0,1-1.43.41.21.21,0,0,0-.18.2v1a.42.42,0,0,1-.14.33.45.45,0,0,1-.32.14h-1.4a.45.45,0,0,1-.33-.14.42.42,0,0,1-.14-.33v-1a.19.19,0,0,0-.17-.19,5.85,5.85,0,0,1-1.29-.38,4.68,4.68,0,0,1-1.2-.7,3.55,3.55,0,0,1-.82-1,2.61,2.61,0,0,1-.34-1.2.36.36,0,0,1,.13-.34.46.46,0,0,1,.33-.13h1.21a.79.79,0,0,1,.45.1.8.8,0,0,1,.26.31,2.93,2.93,0,0,0,.3.45,1.51,1.51,0,0,0,.46.4,2.85,2.85,0,0,0,.74.29,4.79,4.79,0,0,0,1.1.11,6.53,6.53,0,0,0,1-.08,2.93,2.93,0,0,0,.85-.26,1.81,1.81,0,0,0,.59-.45,1,1,0,0,0,.22-.66.87.87,0,0,0-.24-.63,1.89,1.89,0,0,0-.74-.41,8.66,8.66,0,0,0-1.22-.33c-.48-.1-1-.24-1.67-.4a9.07,9.07,0,0,1-1.52-.49,3.48,3.48,0,0,1-1.07-.7,2.67,2.67,0,0,1-.63-1,3.81,3.81,0,0,1-.21-1.34,3,3,0,0,1,.26-1.24,3.31,3.31,0,0,1,.72-1,3.65,3.65,0,0,1,1.1-.76,5.31,5.31,0,0,1,1.24-.41.2.2,0,0,0,.16-.2v-1a.42.42,0,0,1,.14-.33.45.45,0,0,1,.33-.14h1.4a.45.45,0,0,1,.32.14.42.42,0,0,1,.14.33Z"/><path class="cls-82" d="M199.86,20.49a.29.29,0,0,0,.23.28,6.94,6.94,0,0,1,1.85.64,6.29,6.29,0,0,1,1.5,1.08,4.32,4.32,0,0,1,.92,1.27,3.57,3.57,0,0,1,.36,1.24.51.51,0,0,1-.18.47.64.64,0,0,1-.47.19h-1.69a1,1,0,0,1-.62-.16,1.69,1.69,0,0,1-.37-.42,3.12,3.12,0,0,0-1.1-1.06,4.38,4.38,0,0,0-2.19-.44,5.19,5.19,0,0,0-1.2.13,3.41,3.41,0,0,0-1,.39,2,2,0,0,0-.66.61,1.4,1.4,0,0,0-.25.83,1.42,1.42,0,0,0,.27.9,2,2,0,0,0,.86.61,9.61,9.61,0,0,0,1.52.47l2.26.51a14.34,14.34,0,0,1,2.46.73,5.67,5.67,0,0,1,1.64,1,3.43,3.43,0,0,1,.92,1.36,5.39,5.39,0,0,1,.28,1.77,4.15,4.15,0,0,1-.37,1.76,4.56,4.56,0,0,1-1.05,1.48,5.94,5.94,0,0,1-1.68,1.09,8.18,8.18,0,0,1-2,.57.28.28,0,0,0-.24.27v1.41a.63.63,0,0,1-.19.46.66.66,0,0,1-.46.19h-2a.68.68,0,0,1-.46-.19.63.63,0,0,1-.19-.46V38.08a.29.29,0,0,0-.23-.28,8.08,8.08,0,0,1-1.81-.53,6.6,6.6,0,0,1-1.67-1A4.75,4.75,0,0,1,191.74,35a3.65,3.65,0,0,1-.48-1.68.52.52,0,0,1,.18-.47.67.67,0,0,1,.47-.18h1.69a1.18,1.18,0,0,1,.63.14,1.06,1.06,0,0,1,.36.44,5.62,5.62,0,0,0,.41.63,2.15,2.15,0,0,0,.66.55,3.45,3.45,0,0,0,1,.4,6.17,6.17,0,0,0,1.54.16,9.13,9.13,0,0,0,1.4-.11,4.05,4.05,0,0,0,1.19-.36,2.52,2.52,0,0,0,.82-.63,1.39,1.39,0,0,0,.31-.93,1.18,1.18,0,0,0-.34-.87,2.56,2.56,0,0,0-1-.58,13.58,13.58,0,0,0-1.71-.46c-.67-.15-1.46-.33-2.34-.56a12,12,0,0,1-2.12-.69,5.11,5.11,0,0,1-1.5-1,3.75,3.75,0,0,1-.88-1.37,5.48,5.48,0,0,1-.29-1.87,4.25,4.25,0,0,1,.36-1.75,4.71,4.71,0,0,1,1-1.43,5.18,5.18,0,0,1,1.53-1.07,7.8,7.8,0,0,1,1.73-.57.29.29,0,0,0,.23-.28V19a.62.62,0,0,1,.19-.46.63.63,0,0,1,.46-.19h2a.65.65,0,0,1,.65.65Z"/><path class="cls-98" d="M299.05,22.92H212.2l0-.44a14.54,14.54,0,0,1,26.11-7.73A12.62,12.62,0,0,1,254.14,12a13.46,13.46,0,0,1,26.72-.22,12.37,12.37,0,0,1,18.6,10.68v.47Zm-86-.82h85.56a11.55,11.55,0,0,0-17.89-9.33l-.58.38-.06-.69a12.64,12.64,0,0,0-25.21.21l0,.69-.59-.37a11.79,11.79,0,0,0-15.63,2.68l-.34.43-.32-.45a13.72,13.72,0,0,0-24.9,6.45Z"/></g><g id="_4-2" data-name="4"><g class="cls-99"><g class="cls-100"><rect class="cls-101" x="-504.97" y="7.1" width="547.12" height="217.53"/></g></g></g></g></g></svg>