<?xml version="1.0"?>
<svg xmlns="http://www.w3.org/2000/svg" id="Layer_1" enable-background="new 0 0 64 64" height="512px" viewBox="0 0 64 64" width="512px"><g><path d="m26.2 38.2c.4.3 1 .3 1.3-.1l2.8-2.8-1.6-.8c-1.5-.8-2.9-1.8-4.1-3.1l-4.1 2.5z" data-original="#000000" class="active-path" data-old_color="#000000" fill="#6F6F6F"/><path d="m37.8 38.2 5.6-4.2-4.1-2.5c-1.2 1.3-2.5 2.3-4.1 3.1l-1.6.8 2.8 2.8c.4.2 1 .3 1.4 0z" data-original="#000000" class="active-path" data-old_color="#000000" fill="#6F6F6F"/><path d="m35.5 39.8c-.1-.1-.3-.2-.4-.3l-3.1-3.1-3.1 3.1c-.1.1-.3.2-.4.3l3.5 7z" data-original="#000000" class="active-path" data-old_color="#000000" fill="#6F6F6F"/><path d="m23.6 16.4c-.4.2-.6.5-.6.9v4.7c0 4.5 2.6 8.7 6.6 10.7l1.9 1c.3.1.6.1.9 0l1.9-1c4.1-2 6.6-6.2 6.6-10.7v-4c0-.6-.4-1-1-1h-3c-2.2 0-4-1.8-4-4v-.5z" data-original="#000000" class="active-path" data-old_color="#000000" fill="#6F6F6F"/><path d="m21.6 25.9c-.4-1.3-.6-2.6-.6-4v-4.6c0-1.2.7-2.3 1.8-2.8l12.2-5v3.5c0 1.1.9 2 2 2h3c1.7 0 3 1.3 3 3v4c0 1.3-.2 2.7-.6 4 2.3-2.1 3.8-5 4-8.2l.2-2.5c.2-3.4-1.7-6.5-4.8-7.9l-5.8-2.5c-2.6-1.1-5.5-1.1-8 0l-5.8 2.5c-3.1 1.4-5 4.5-4.8 7.9l.2 2.5c.2 3.1 1.6 6.1 4 8.1z" data-original="#000000" class="active-path" data-old_color="#000000" fill="#6F6F6F"/><path d="m28 60h8v-10h-8zm2-8h4v2h-4zm0 4h4v2h-4z" data-original="#000000" class="active-path" data-old_color="#000000" fill="#6F6F6F"/><path d="m47 55v-2h.9c1.2 0 2.1-.9 2.1-2.1 0-.9-.6-1.7-1.4-2l-2.2-.7-4.4 10.2-1.8-.8 8.8-20.2-3.7-2.3-6.3 4.7c-.4.3-1 .5-1.5.6l-3.9 7.6h4.4v12h16v-5.6c-.9.4-1.9.6-2.8.6z" data-original="#000000" class="active-path" data-old_color="#000000" fill="#6F6F6F"/><path d="m55.6 46.3-4.1-9.9-4.3 10 2 .7c2.1.7 3.3 3 2.6 5.2 0 .1-.1.2-.1.2-.1.2-.2.4-.3.6 2.7-.1 4.7-2.4 4.6-5.1 0-.6-.2-1.2-.4-1.7z" data-original="#000000" class="active-path" data-old_color="#000000" fill="#6F6F6F"/><path d="m26.5 40.3c-.6 0-1.1-.2-1.5-.6l-6.2-4.7-4.5 2.8c-2.6 1.6-4.2 4.5-4.2 7.6v14.6h8v-12h2v12h6v-12h4.4z" data-original="#000000" class="active-path" data-old_color="#000000" fill="#6F6F6F"/></g> </svg>
