<svg xmlns="http://www.w3.org/2000/svg" xmlns:xlink="http://www.w3.org/1999/xlink" viewBox="0 0 370.08 310"><defs><style>.cls-1{fill:none;}.cls-2{isolation:isolate;}.cls-3{fill:#fff;}.cls-4{fill:url(#Безымянный_градиент_73);}.cls-5{fill:url(#Безымянный_градиент_73-2);}.cls-6{opacity:0.05;}.cls-7{fill:url(#linear-gradient);}.cls-8{fill:url(#linear-gradient-2);}.cls-9{fill:url(#linear-gradient-9);}.cls-10{fill:url(#linear-gradient-14);}.cls-11{fill:url(#linear-gradient-16);}.cls-12{clip-path:url(#clip-path);}.cls-13{fill:url(#linear-gradient-19);}.cls-14{opacity:0.5;}.cls-14,.cls-15{mix-blend-mode:overlay;}.cls-15{opacity:0.3;}.cls-16{fill:url(#linear-gradient-20);}.cls-17,.cls-50{fill:#5474c0;}.cls-17{opacity:0.65;}.cls-17,.cls-23,.cls-29{mix-blend-mode:multiply;}.cls-18{fill:url(#linear-gradient-21);}.cls-19{fill:#9dbdf4;}.cls-20{clip-path:url(#clip-path-2);}.cls-21{fill:#d6e0f7;}.cls-22{fill:#0d1a38;}.cls-23{fill:#b5a6fe;}.cls-24{fill:#304269;}.cls-25{fill:#3c5582;}.cls-26{fill:#f2edff;}.cls-27,.cls-29{fill:#b5d8ff;}.cls-28{fill:#9ab8d9;}.cls-30{fill:url(#linear-gradient-22);}.cls-31{fill:#f77a4b;}.cls-32{fill:#efbfa5;}.cls-33{fill:#39517c;}.cls-34{fill:#1c4f69;}.cls-35{fill:#bac5f4;}.cls-36{fill:#e1e6fb;}.cls-37{fill:#162b47;}.cls-38{fill:#0c1530;}.cls-39{fill:#1a2342;}.cls-40{fill:#eda37a;}.cls-41{fill:#ff714d;}.cls-42{fill:#1d2848;}.cls-43{fill:#263762;}.cls-44{fill:#ed9d7a;}.cls-45{fill:#f2bd97;}.cls-46{fill:#0c1330;}.cls-47{fill:#f60;}.cls-48{fill:#f2b897;}.cls-49{fill:#071023;}.cls-51{fill:#967083;}</style><linearGradient id="Безымянный_градиент_73" x1="73.06" y1="69.47" x2="73.06" y2="2.92" gradientUnits="userSpaceOnUse"><stop offset="0.07" stop-color="#fff"/><stop offset="0.73" stop-color="#e2e2e2"/><stop offset="1" stop-color="#cfcfcf"/></linearGradient><linearGradient id="Безымянный_градиент_73-2" x1="166.28" y1="80.42" x2="166.28" y2="45" xlink:href="#Безымянный_градиент_73"/><linearGradient id="linear-gradient" x1="276.45" y1="224.42" x2="276.45" y2="-68.52" gradientUnits="userSpaceOnUse"><stop offset="0" stop-color="#eaedfc"/><stop offset="0.84" stop-color="#aed1fc"/></linearGradient><linearGradient id="linear-gradient-2" x1="276.45" y1="224.42" x2="276.45" y2="-68.52" xlink:href="#linear-gradient"/><linearGradient id="linear-gradient-9" x1="219.72" y1="224.42" x2="219.72" y2="-68.52" xlink:href="#linear-gradient"/><linearGradient id="linear-gradient-14" x1="333.19" y1="224.42" x2="333.19" y2="-68.52" xlink:href="#linear-gradient"/><linearGradient id="linear-gradient-16" x1="333.19" y1="224.42" x2="333.19" y2="-68.52" xlink:href="#linear-gradient"/><clipPath id="clip-path"><path class="cls-1" d="M336.19,191.45c14,92.89-73.08,82.56-113.85,102.35-59.19,28.72-132.11,13.25-182.92-22.15-55.37-38.57,0-57.77,7.77-110.24,4.42-30.06-9.42-81.89,34-65.86,97.5,36,146.27,9.74,167-14.77,19.55-23.11,73-1.45,67,32.91C305.83,167.32,328.83,142.55,336.19,191.45Z"/></clipPath><linearGradient id="linear-gradient-19" x1="98.1" y1="227.57" x2="139.1" y2="86.57" xlink:href="#linear-gradient"/><linearGradient id="linear-gradient-20" x1="224.44" y1="65.33" x2="234.94" y2="25.33" gradientTransform="translate(-6.51 55.06) rotate(-13.62)" xlink:href="#linear-gradient"/><linearGradient id="linear-gradient-21" x1="191.32" y1="201.9" x2="232.82" y2="32.9" xlink:href="#linear-gradient"/><clipPath id="clip-path-2"><path class="cls-1" d="M336.19,191.45c38,102.3-65.78,86.9-113.85,102.35C159.7,313.93,90.23,307.05,39.42,271.65c-55.37-38.57,0-57.77,7.77-110.24,4.42-30.06-9.42-81.89,34-65.86,97.5,36,146.27,9.74,167-14.77,19.55-23.11,73-1.45,67,32.91C305.83,167.32,319,145.09,336.19,191.45Z"/></clipPath><linearGradient id="linear-gradient-22" x1="117.19" y1="240.6" x2="141.62" y2="240.6" gradientUnits="userSpaceOnUse"><stop offset="0.02" stop-color="#fff"/><stop offset="1" stop-color="#dcd6e8"/></linearGradient></defs><title>3</title><g class="cls-2"><g id="User"><g id="_1-3" data-name="1"><rect class="cls-3" x="-0.1" width="370.52" height="310"/><path class="cls-4" d="M130,61.8H15.63l0-.58A19.14,19.14,0,0,1,50,51.05a16.63,16.63,0,0,1,20.8-3.68A17.71,17.71,0,0,1,106,47.08,16.3,16.3,0,0,1,130.5,61.15v.61Z"/><path class="cls-5" d="M196.57,76.34H135.71l0-.31A10.18,10.18,0,0,1,154,70.62a8.86,8.86,0,0,1,11.08-2,9.43,9.43,0,0,1,18.72-.15,8.55,8.55,0,0,1,4.37-1.18A8.67,8.67,0,0,1,196.86,76v.33Z"/><path class="cls-6" d="M336.19,191.45c14,92.89-73.08,82.56-113.85,102.35-59.19,28.72-132.11,13.25-182.92-22.15-55.37-38.57,0-57.77,7.77-110.24,4.42-30.06-9.42-81.89,34-65.86,97.5,36,146.27,9.74,167-14.77C267.74,57.67,296,73.07,290,107.44,280.6,161.06,328.83,142.55,336.19,191.45Z"/><rect class="cls-7" x="187.05" y="138.54" width="178.81" height="63.72"/><rect class="cls-8" x="238.26" y="111.63" width="76.39" height="38.79"/><rect class="cls-8" x="242.94" y="104.04" width="67.02" height="13.31"/><ellipse class="cls-8" cx="276.45" cy="105.22" rx="33.51" ry="39.98"/><rect class="cls-7" x="268.93" y="56.94" width="15.04" height="13.19"/><rect class="cls-7" x="270.06" y="50.08" width="12.8" height="11.21"/><path class="cls-8" d="M276.45,41.33c0,1.39-3.82,8.75-3.82,8.75h7.65S276.45,42.72,276.45,41.33Z"/><path class="cls-8" d="M278,41.3a7.4,7.4,0,0,0-1.51-2.76,7.11,7.11,0,0,0-1.52,2.76c-.07,1,.53,1.35,1.51,1.35S278,42.32,278,41.3Z"/><rect class="cls-9" x="207.06" y="132.01" width="25.33" height="10.16"/><path class="cls-9" d="M230,129.56a10.26,10.26,0,0,0-20.51,0v6.87H212a10.26,10.26,0,0,0,15.42,0H230v-6.87Z"/><rect class="cls-9" x="216.97" y="114.5" width="5.5" height="6.46"/><rect class="cls-9" x="217.55" y="113.03" width="4.35" height="2.09"/><path class="cls-9" d="M221.11,111.91c-.68-.62-1.39-1.28-1.39-1.87,0,.59-.7,1.25-1.38,1.87s-.53,1.12-.53,1.12h3.83S221.79,112.52,221.11,111.91Z"/><rect class="cls-10" x="320.52" y="132.01" width="25.33" height="10.16"/><path class="cls-10" d="M343.44,129.56a10.26,10.26,0,0,0-20.51,0v6.87h2.54a10.27,10.27,0,0,0,15.43,0h2.54v-6.87Z"/><rect class="cls-11" x="330.44" y="114.5" width="5.5" height="6.46"/><rect class="cls-10" x="331.01" y="113.03" width="4.35" height="2.09"/><path class="cls-10" d="M334.57,111.91c-.68-.62-1.38-1.28-1.38-1.87,0,.59-.71,1.25-1.39,1.87s-.53,1.12-.53,1.12h3.83S335.25,112.52,334.57,111.91Z"/><g class="cls-12"><path class="cls-13" d="M-10.81,202.26V35.58L156.12,33.8,170.8,73.7s33.62,32.11,34.51,32.7,25.48,6.22,25.48,6.22l14.52,38.52,23.41,9.19,1.48,41.93Z"/><path class="cls-14" d="M95.48,101.31a7,7,0,0,0-7,7v16h14v-16A7,7,0,0,0,95.48,101.31Z"/><rect class="cls-14" x="77.48" y="101.92" width="1.61" height="21.78"/><rect class="cls-14" x="80.09" y="101.92" width="1.61" height="21.78"/><rect class="cls-14" x="82.87" y="101.92" width="1.61" height="21.78"/><path class="cls-14" d="M123.6,101.31a7,7,0,0,0-7,7v16h14v-16A7,7,0,0,0,123.6,101.31Z"/><rect class="cls-14" x="105.6" y="101.92" width="1.61" height="21.78"/><rect class="cls-14" x="108.21" y="101.92" width="1.61" height="21.78"/><rect class="cls-14" x="110.99" y="101.92" width="1.61" height="21.78"/><rect class="cls-14" x="79.59" y="53.67" width="1.61" height="38.2"/><rect class="cls-14" x="82.21" y="53.67" width="1.61" height="38.2"/><rect class="cls-14" x="106.1" y="53.67" width="1.61" height="38.2"/><rect class="cls-14" x="108.71" y="53.67" width="1.61" height="38.2"/><rect class="cls-14" x="132.6" y="53.67" width="1.61" height="38.2"/><rect class="cls-14" x="135.21" y="53.67" width="1.61" height="38.2"/><rect class="cls-14" x="159.1" y="53.67" width="1.61" height="38.2"/><rect class="cls-14" x="161.71" y="53.67" width="1.61" height="38.2"/><path class="cls-14" d="M183,85.33l-1.61-1.54v8.08H183Z"/><path class="cls-14" d="M185.6,87.82,184,86.28v5.59h1.61Z"/><path class="cls-14" d="M151.71,101.31a7,7,0,0,0-7,7v16h14v-16A7,7,0,0,0,151.71,101.31Z"/><rect class="cls-14" x="133.71" y="101.92" width="1.61" height="21.78"/><rect class="cls-14" x="136.32" y="101.92" width="1.61" height="21.78"/><rect class="cls-14" x="139.1" y="101.92" width="1.61" height="21.78"/><path class="cls-14" d="M179.82,101.31a7,7,0,0,0-7,7v16h14v-16A7,7,0,0,0,179.82,101.31Z"/><rect class="cls-14" x="161.82" y="101.92" width="1.61" height="21.78"/><rect class="cls-14" x="164.43" y="101.92" width="1.61" height="21.78"/><rect class="cls-14" x="167.21" y="101.92" width="1.61" height="21.78"/><path class="cls-14" d="M214.94,108.91c-4.66-1.12-8.72-2.13-9.51-2.45l-.12-.06c-.15-.1-1.17-1-2.76-2.53a6.94,6.94,0,0,0-1.61,4.44v16h14Z"/><rect class="cls-14" x="189.94" y="101.92" width="1.61" height="21.78"/><rect class="cls-14" x="192.55" y="101.92" width="1.61" height="21.78"/><rect class="cls-14" x="195.33" y="101.92" width="1.61" height="21.78"/><path class="cls-14" d="M95.48,136.57a7,7,0,0,0-7,7v16h14v-16A7,7,0,0,0,95.48,136.57Z"/><rect class="cls-14" x="77.48" y="137.18" width="1.61" height="21.78"/><rect class="cls-14" x="80.09" y="137.18" width="1.61" height="21.78"/><rect class="cls-14" x="82.87" y="137.18" width="1.61" height="21.78"/><path class="cls-14" d="M123.6,136.57a7,7,0,0,0-7,7v16h14v-16A7,7,0,0,0,123.6,136.57Z"/><rect class="cls-14" x="105.6" y="137.18" width="1.61" height="21.78"/><rect class="cls-14" x="108.21" y="137.18" width="1.61" height="21.78"/><rect class="cls-14" x="110.99" y="137.18" width="1.61" height="21.78"/><path class="cls-14" d="M151.71,136.57a7,7,0,0,0-7,7v16h14v-16A7,7,0,0,0,151.71,136.57Z"/><rect class="cls-14" x="133.71" y="137.18" width="1.61" height="21.78"/><rect class="cls-14" x="136.32" y="137.18" width="1.61" height="21.78"/><rect class="cls-14" x="139.1" y="137.18" width="1.61" height="21.78"/><path class="cls-14" d="M179.82,136.57a7,7,0,0,0-7,7v16h14v-16A7,7,0,0,0,179.82,136.57Z"/><rect class="cls-14" x="161.82" y="137.18" width="1.61" height="21.78"/><rect class="cls-14" x="164.43" y="137.18" width="1.61" height="21.78"/><rect class="cls-14" x="167.21" y="137.18" width="1.61" height="21.78"/><path class="cls-14" d="M207.94,136.57a7,7,0,0,0-7,7v16h14v-16A7,7,0,0,0,207.94,136.57Z"/><rect class="cls-14" x="189.94" y="137.18" width="1.61" height="21.78"/><rect class="cls-14" x="192.55" y="137.18" width="1.61" height="21.78"/><rect class="cls-14" x="195.33" y="137.18" width="1.61" height="21.78"/><path class="cls-14" d="M243.53,146c-.78-2.23-1.76-5-2.84-8.07a7,7,0,0,0-11.16,5.62v16h14Z"/><rect class="cls-14" x="218.53" y="137.18" width="1.61" height="21.78"/><rect class="cls-14" x="221.14" y="137.18" width="1.61" height="21.78"/><rect class="cls-14" x="223.92" y="137.18" width="1.61" height="21.78"/><path class="cls-14" d="M95.48,171.39a7,7,0,0,0-7,7v16h14v-16A7,7,0,0,0,95.48,171.39Z"/><rect class="cls-14" x="77.48" y="172" width="1.61" height="21.78"/><rect class="cls-14" x="80.09" y="172" width="1.61" height="21.78"/><rect class="cls-14" x="82.87" y="172" width="1.61" height="21.78"/><path class="cls-14" d="M67.29,101.31a7,7,0,0,0-7,7v16h14v-16A7,7,0,0,0,67.29,101.31Z"/><rect class="cls-14" x="49.29" y="101.92" width="1.61" height="21.78"/><rect class="cls-14" x="51.9" y="101.92" width="1.61" height="21.78"/><rect class="cls-14" x="54.68" y="101.92" width="1.61" height="21.78"/><rect class="cls-14" x="51.4" y="53.67" width="1.61" height="38.2"/><rect class="cls-14" x="54.01" y="53.67" width="1.61" height="38.2"/><path class="cls-14" d="M67.29,136.57a7,7,0,0,0-7,7v16h14v-16A7,7,0,0,0,67.29,136.57Z"/><rect class="cls-14" x="49.29" y="137.18" width="1.61" height="21.78"/><rect class="cls-14" x="51.9" y="137.18" width="1.61" height="21.78"/><rect class="cls-14" x="54.68" y="137.18" width="1.61" height="21.78"/><path class="cls-14" d="M67.29,171.39a7,7,0,0,0-7,7v16h14v-16A7,7,0,0,0,67.29,171.39Z"/><rect class="cls-14" x="49.29" y="172" width="1.61" height="21.78"/><rect class="cls-14" x="51.9" y="172" width="1.61" height="21.78"/><rect class="cls-14" x="54.68" y="172" width="1.61" height="21.78"/><path class="cls-14" d="M39.1,101.31a7,7,0,0,0-7,7v16h14v-16A7,7,0,0,0,39.1,101.31Z"/><rect class="cls-14" x="21.1" y="101.92" width="1.61" height="21.78"/><rect class="cls-14" x="23.71" y="101.92" width="1.61" height="21.78"/><rect class="cls-14" x="26.49" y="101.92" width="1.61" height="21.78"/><rect class="cls-14" x="23.21" y="53.67" width="1.61" height="38.2"/><rect class="cls-14" x="25.82" y="53.67" width="1.61" height="38.2"/><path class="cls-14" d="M39.1,136.57a7,7,0,0,0-7,7v16h14v-16A7,7,0,0,0,39.1,136.57Z"/><rect class="cls-14" x="21.1" y="137.18" width="1.61" height="21.78"/><rect class="cls-14" x="23.71" y="137.18" width="1.61" height="21.78"/><rect class="cls-14" x="26.49" y="137.18" width="1.61" height="21.78"/><path class="cls-14" d="M39.1,171.39a7,7,0,0,0-7,7v16h14v-16A7,7,0,0,0,39.1,171.39Z"/><rect class="cls-14" x="21.1" y="172" width="1.61" height="21.78"/><rect class="cls-14" x="23.71" y="172" width="1.61" height="21.78"/><rect class="cls-14" x="26.49" y="172" width="1.61" height="21.78"/><path class="cls-14" d="M10.91,101.31a7,7,0,0,0-7,7v16h14v-16A7,7,0,0,0,10.91,101.31Z"/><path class="cls-14" d="M10.91,136.57a7,7,0,0,0-7,7v16h14v-16A7,7,0,0,0,10.91,136.57Z"/><path class="cls-14" d="M10.91,171.39a7,7,0,0,0-7,7v16h14v-16A7,7,0,0,0,10.91,171.39Z"/><path class="cls-14" d="M123.6,171.39a7,7,0,0,0-7,7v16h14v-16A7,7,0,0,0,123.6,171.39Z"/><rect class="cls-14" x="105.6" y="172" width="1.61" height="21.78"/><rect class="cls-14" x="108.21" y="172" width="1.61" height="21.78"/><rect class="cls-14" x="110.99" y="172" width="1.61" height="21.78"/><path class="cls-14" d="M151.71,171.39a7,7,0,0,0-7,7v16h14v-16A7,7,0,0,0,151.71,171.39Z"/><rect class="cls-14" x="133.71" y="172" width="1.61" height="21.78"/><rect class="cls-14" x="136.32" y="172" width="1.61" height="21.78"/><rect class="cls-14" x="139.1" y="172" width="1.61" height="21.78"/><path class="cls-14" d="M179.82,171.39a7,7,0,0,0-7,7v16h14v-16A7,7,0,0,0,179.82,171.39Z"/><rect class="cls-14" x="161.82" y="172" width="1.61" height="21.78"/><rect class="cls-14" x="164.43" y="172" width="1.61" height="21.78"/><rect class="cls-14" x="167.21" y="172" width="1.61" height="21.78"/><path class="cls-14" d="M207.94,171.39a7,7,0,0,0-7,7v16h14v-16A7,7,0,0,0,207.94,171.39Z"/><rect class="cls-14" x="189.94" y="172" width="1.61" height="21.78"/><rect class="cls-14" x="192.55" y="172" width="1.61" height="21.78"/><rect class="cls-14" x="195.33" y="172" width="1.61" height="21.78"/><path class="cls-14" d="M236.53,171.39a7,7,0,0,0-7,7v16h14v-16A7,7,0,0,0,236.53,171.39Z"/><rect class="cls-14" x="218.53" y="172" width="1.61" height="21.78"/><rect class="cls-14" x="221.14" y="172" width="1.61" height="21.78"/><rect class="cls-14" x="223.92" y="172" width="1.61" height="21.78"/><g class="cls-14"><path d="M-10.81,133.13H239l-1.67-4.59H-10.81Z"/><path d="M199,94.76H-10.81v4.59H201.42C200.68,98,199.86,96.4,199,94.76Z"/><polygon points="-10.81 168.1 268.99 168.1 268.83 163.5 -10.81 163.5 -10.81 168.1"/></g><path class="cls-15" d="M103.06,35l-113.87.61V202.26h281C123.54,202.26,102,99.78,103.06,35Z"/></g><rect class="cls-16" x="206.81" y="35.06" width="40.81" height="39.4" transform="translate(19.29 -51.98) rotate(13.62)"/><rect class="cls-17" x="229.3" y="18.59" width="3.47" height="40.81" transform="translate(138.72 254.34) rotate(-76.38)"/><path class="cls-18" d="M224.52,202.26,256,72.56a4.18,4.18,0,0,0-3.08-5L198.55,54.35a4.18,4.18,0,0,0-5,3.08l-35.1,144.83Z"/><rect class="cls-17" x="218.63" y="50.89" width="3.47" height="64.26" transform="translate(87.77 277.63) rotate(-76.38)"/><path class="cls-17" d="M193.51,57.43l-.35,1.42L255.61,74l.35-1.43a4.14,4.14,0,0,0,0-2.07L194.48,55.6A4.1,4.1,0,0,0,193.51,57.43Z"/><rect class="cls-17" x="213.68" y="71.31" width="3.47" height="64.26" transform="translate(64.15 288.43) rotate(-76.38)"/><rect class="cls-17" x="208.73" y="91.72" width="3.47" height="64.26" transform="translate(40.53 299.22) rotate(-76.38)"/><rect class="cls-17" x="203.79" y="112.13" width="3.47" height="64.26" transform="translate(16.91 310.02) rotate(-76.38)"/><rect class="cls-17" x="198.84" y="132.54" width="3.47" height="64.26" transform="translate(-6.71 320.81) rotate(-76.38)"/><rect class="cls-17" x="193.89" y="152.95" width="3.47" height="64.26" transform="translate(-30.33 331.61) rotate(-76.38)"/><polygon class="cls-17" points="184.71 202.26 159.87 196.24 159.05 199.61 169.96 202.26 184.71 202.26"/><path class="cls-19" d="M201.83,59.68h0a3.49,3.49,0,0,0-4.21,2.57L195.73,70l6.8,1.64,1.88-7.76A3.5,3.5,0,0,0,201.83,59.68Z"/><path class="cls-19" d="M212.92,62.37h0a3.5,3.5,0,0,0-4.22,2.57l-1.88,7.76,6.79,1.65,1.88-7.76A3.48,3.48,0,0,0,212.92,62.37Z"/><path class="cls-19" d="M224,65.06h0a3.48,3.48,0,0,0-4.22,2.57l-1.88,7.76L224.7,77l1.88-7.77A3.48,3.48,0,0,0,224,65.06Z"/><path class="cls-19" d="M235.09,67.74h0a3.49,3.49,0,0,0-4.21,2.58L229,78.08l6.8,1.64L237.67,72A3.51,3.51,0,0,0,235.09,67.74Z"/><path class="cls-19" d="M218.16,40.76h0a3.49,3.49,0,0,0-4.22,2.57l-1.88,7.76,6.79,1.65L220.73,45A3.48,3.48,0,0,0,218.16,40.76Z"/><path class="cls-19" d="M229.25,43.44h0A3.5,3.5,0,0,0,225,46l-1.88,7.76,6.79,1.64,1.88-7.76A3.51,3.51,0,0,0,229.25,43.44Z"/><path class="cls-19" d="M240.33,46.13h0a3.51,3.51,0,0,0-4.22,2.57l-1.88,7.77L241,58.11l1.89-7.76A3.5,3.5,0,0,0,240.33,46.13Z"/><path class="cls-19" d="M246.18,70.43h0A3.5,3.5,0,0,0,242,73l-1.88,7.76,6.79,1.65,1.88-7.76A3.48,3.48,0,0,0,246.18,70.43Z"/><path class="cls-19" d="M196.93,79.93h0a3.5,3.5,0,0,0-4.22,2.58l-1.88,7.76,6.79,1.65,1.88-7.77A3.51,3.51,0,0,0,196.93,79.93Z"/><path class="cls-19" d="M208,82.62h0a3.51,3.51,0,0,0-4.22,2.57L201.91,93l6.79,1.64,1.89-7.76A3.51,3.51,0,0,0,208,82.62Z"/><path class="cls-19" d="M219.1,85.31h0a3.49,3.49,0,0,0-4.22,2.57L213,95.64l6.79,1.65,1.88-7.76A3.49,3.49,0,0,0,219.1,85.31Z"/><path class="cls-19" d="M230.19,88h0A3.48,3.48,0,0,0,226,90.57l-1.88,7.76,6.79,1.65,1.88-7.76A3.5,3.5,0,0,0,230.19,88Z"/><path class="cls-19" d="M241.27,90.68h0a3.51,3.51,0,0,0-4.22,2.58L235.17,101l6.79,1.64,1.88-7.76A3.49,3.49,0,0,0,241.27,90.68Z"/><path class="cls-19" d="M192,100.19h0a3.49,3.49,0,0,0-4.22,2.57l-1.88,7.76,6.79,1.65,1.88-7.76A3.5,3.5,0,0,0,192,100.19Z"/><path class="cls-19" d="M203.1,102.88h0a3.49,3.49,0,0,0-4.22,2.57L197,113.21l6.79,1.65,1.89-7.77A3.49,3.49,0,0,0,203.1,102.88Z"/><path class="cls-19" d="M214.19,105.56h0a3.5,3.5,0,0,0-4.22,2.58l-1.88,7.76,6.79,1.64,1.88-7.76A3.49,3.49,0,0,0,214.19,105.56Z"/><path class="cls-19" d="M225.28,108.25h0a3.5,3.5,0,0,0-4.22,2.57l-1.88,7.76,6.79,1.65,1.88-7.76A3.5,3.5,0,0,0,225.28,108.25Z"/><path class="cls-19" d="M236.36,110.94h0a3.49,3.49,0,0,0-4.22,2.57l-1.88,7.76,6.79,1.65,1.89-7.76A3.5,3.5,0,0,0,236.36,110.94Z"/><path class="cls-19" d="M187.11,120.44h0a3.5,3.5,0,0,0-4.22,2.58L181,130.78l6.79,1.64,1.88-7.76A3.5,3.5,0,0,0,187.11,120.44Z"/><path class="cls-19" d="M198.19,123.13h0A3.48,3.48,0,0,0,194,125.7l-1.89,7.76,6.8,1.65,1.88-7.76A3.5,3.5,0,0,0,198.19,123.13Z"/><path class="cls-19" d="M209.28,125.82h0a3.49,3.49,0,0,0-4.22,2.57l-1.88,7.76L210,137.8l1.88-7.76A3.48,3.48,0,0,0,209.28,125.82Z"/><path class="cls-19" d="M220.37,128.5h0a3.5,3.5,0,0,0-4.22,2.58l-1.88,7.76,6.79,1.64,1.88-7.76A3.51,3.51,0,0,0,220.37,128.5Z"/><path class="cls-19" d="M231.45,131.19h0a3.51,3.51,0,0,0-4.22,2.57l-1.88,7.77,6.8,1.64,1.88-7.76A3.5,3.5,0,0,0,231.45,131.19Z"/><path class="cls-19" d="M182.2,140.7h0a3.48,3.48,0,0,0-4.22,2.57L176.1,151l6.79,1.65,1.88-7.76A3.49,3.49,0,0,0,182.2,140.7Z"/><path class="cls-19" d="M193.29,143.38h0a3.5,3.5,0,0,0-4.22,2.58l-1.89,7.76,6.8,1.64,1.88-7.76A3.51,3.51,0,0,0,193.29,143.38Z"/><path class="cls-19" d="M204.37,146.07h0a3.51,3.51,0,0,0-4.22,2.57l-1.88,7.76,6.79,1.65,1.88-7.76A3.48,3.48,0,0,0,204.37,146.07Z"/><path class="cls-19" d="M215.46,148.76h0a3.48,3.48,0,0,0-4.22,2.57l-1.88,7.76,6.79,1.65L218,153A3.49,3.49,0,0,0,215.46,148.76Z"/><path class="cls-19" d="M226.54,151.44h0a3.49,3.49,0,0,0-4.21,2.58l-1.89,7.76,6.8,1.65,1.88-7.77A3.51,3.51,0,0,0,226.54,151.44Z"/><path class="cls-19" d="M177.29,161h0a3.5,3.5,0,0,0-4.22,2.57l-1.88,7.76,6.79,1.65,1.88-7.76A3.48,3.48,0,0,0,177.29,161Z"/><path class="cls-19" d="M188.38,163.64h0a3.48,3.48,0,0,0-4.22,2.57L182.28,174l6.79,1.65,1.88-7.76A3.5,3.5,0,0,0,188.38,163.64Z"/><path class="cls-19" d="M199.46,166.32h0a3.51,3.51,0,0,0-4.22,2.58l-1.88,7.76,6.79,1.64,1.89-7.76A3.51,3.51,0,0,0,199.46,166.32Z"/><path class="cls-19" d="M210.55,169h0a3.5,3.5,0,0,0-4.22,2.57l-1.88,7.77,6.79,1.64,1.88-7.76A3.49,3.49,0,0,0,210.55,169Z"/><path class="cls-19" d="M221.64,171.7h0a3.49,3.49,0,0,0-4.22,2.57L215.54,182l6.79,1.65,1.88-7.76A3.5,3.5,0,0,0,221.64,171.7Z"/><path class="cls-19" d="M172.38,181.2h0a3.51,3.51,0,0,0-4.22,2.58l-1.88,7.76,6.79,1.64,1.88-7.76A3.49,3.49,0,0,0,172.38,181.2Z"/><path class="cls-19" d="M183.47,183.89h0a3.5,3.5,0,0,0-4.22,2.57l-1.88,7.77,6.79,1.64,1.88-7.76A3.5,3.5,0,0,0,183.47,183.89Z"/><path class="cls-19" d="M194.55,186.58h0a3.49,3.49,0,0,0-4.22,2.57l-1.88,7.76,6.8,1.65,1.88-7.76A3.5,3.5,0,0,0,194.55,186.58Z"/><path class="cls-19" d="M205.64,189.26h0a3.5,3.5,0,0,0-4.22,2.58l-1.88,7.76,6.79,1.65,1.88-7.77A3.49,3.49,0,0,0,205.64,189.26Z"/><path class="cls-19" d="M217.82,202.26l1.48-6.09a3.49,3.49,0,1,0-6.79-1.65l-1.88,7.74Z"/><path class="cls-19" d="M169,202.26a3.5,3.5,0,0,0-4.68,0Z"/><polygon class="cls-19" points="253.31 90.56 187.89 74.7 187.66 71.08 255.17 87.44 253.31 90.56"/><polygon class="cls-19" points="257.74 72.27 192.32 56.42 192.09 52.79 259.61 69.15 257.74 72.27"/><polygon class="cls-19" points="252.89 42.5 210.26 32.17 210.03 28.54 254.76 39.38 252.89 42.5"/><polygon class="cls-19" points="248.36 110.97 182.94 95.12 182.71 91.49 250.22 107.85 248.36 110.97"/><polygon class="cls-19" points="243.41 131.38 177.99 115.53 177.76 111.9 245.28 128.26 243.41 131.38"/><polygon class="cls-19" points="238.47 151.8 173.05 135.94 172.82 132.31 240.33 148.68 238.47 151.8"/><polygon class="cls-19" points="233.52 172.21 168.1 156.35 167.87 152.72 235.38 169.09 233.52 172.21"/><polygon class="cls-19" points="228.57 192.62 163.15 176.76 162.92 173.13 230.44 189.5 228.57 192.62"/><polygon class="cls-19" points="179.18 202.26 193.92 202.26 157.98 193.55 158.21 197.18 179.18 202.26"/><g id="car"><g class="cls-20"><g id="car-2" data-name="car"><ellipse class="cls-21" cx="76.55" cy="255.32" rx="121.31" ry="5.77"/><rect class="cls-22" x="-20.27" y="244.72" width="154.58" height="5.04"/><path class="cls-22" d="M104.9,247.86c.59-.05,49.65-1.21,49.65-1.21l3.58-8.68,1.09-11.1s-4.55-11.66-13.84-16.39-31.51-.91-31.51-.91l-3.28-2-11.48,8.93Z"/><path class="cls-23" d="M130.81,225.28c15.34,0,23.87,8.83,28.6,18.22-2.57-11.93-9.61-29.78-28.72-29.78-20.69,0-27.38,18.56-29.76,30.05C105.59,234.37,114.29,225.28,130.81,225.28Z"/><path class="cls-24" d="M152.27,246.65c1.87,0,28.22-.94,29.16-1.87s-.15-15.23-1.09-16.82-2.18-1.87-2.41-2.26-.7-8.38-1.05-9-14.85-15.39-65.2-22.32c-10.81-5.84-27.5-18.53-49.05-25.77a98,98,0,0,0-31.3-5.32c-36.94,0-64.68,10-91.8,27.89-1.56,3.74-7.49,11.67-8.73,14s-6.55,27.38-6.91,28.16a17.54,17.54,0,0,0-1.3,4.1c0,.78,1.14,1.25,1.14,1.25a2.72,2.72,0,0,0,1.14,3.79c2.5,1.35,19.83,4.1,23.78,4.16.57-2.44-1.25-26.65,22.13-26.65S-7.9,247.86-7.9,247.86H106.86s-5.15-27.67,23-27.67S152.27,246.65,152.27,246.65Z"/><path class="cls-25" d="M-26.93,199c1.27,3.26,6.15,10.66,10.05,17.27,5,6.22,8.35,12.23,12,16.26,19.91,1.63,90.55,6.54,109.86,7.79.44-5,1.26-11.75,6.85-15.86C88.38,220.33-21.94,200.24-26.93,199Z"/><path class="cls-26" d="M148.9,208c9.58-.93,28,8.63,28,8.63.35.66.81,8.65,1.05,9C167.15,222.26,149.27,209.61,148.9,208Z"/><path class="cls-27" d="M99.26,198.73s-43.55-6.13-67-6.63-50.09-.79-66.33-4.85C-31.8,185.47-13.78,168,29.08,168c0,0,22.47-1.29,39.2,7S99.26,198.73,99.26,198.73Z"/><path class="cls-28" d="M29.08,176.56s22.47-1.28,39.2,7a105.48,105.48,0,0,1,20.28,13.72c6.5.83,10.7,1.42,10.7,1.42S85,183.3,68.28,175s-39.2-7-39.2-7c-42.86,0-60.88,17.51-63.16,19.29a96.59,96.59,0,0,0,9.51,1.82C-15,183.49,2.13,176.56,29.08,176.56Z"/><path class="cls-29" d="M-33,187.5c10.22,2.39,24.24,3.41,38.95,3.95-5.74-5.89-11-12-15.5-17.7-12.7,4.28-20,9.79-23,12.3C-32.78,186.53-32.92,187-33,187.5Z"/><path class="cls-29" d="M39.1,168.1a90.42,90.42,0,0,0-10-.14H27.65c-.21,8,.35,16,.81,24.06l3.79.08c8.71.19,20.19,1.15,31.19,2.29C53.78,186.32,45.33,176.31,39.1,168.1Z"/><path class="cls-25" d="M32.47,167.88v1.82h0c6.35,0,22.45.68,35,6.91,11.23,5.58,21.43,14.55,26.7,19.6-12.4-1.64-43.46-5.54-61.88-5.93l-4.4-.09c-20.13-.41-42.73-.87-57.91-3.9a66.91,66.91,0,0,1,14.87-8.49c12.55-5.33,27.43-8,44.23-8h.1s1.24-.07,3.29-.07v-1.82Zm0,0c-2.13,0-3.39.08-3.39.08-42.86,0-60.88,17.51-63.16,19.29,16.24,4.06,42.87,4.36,66.33,4.85s67,6.63,67,6.63S85,183.3,68.28,175c-12.78-6.35-28.9-7.1-35.81-7.1Z"/><path class="cls-27" d="M95.4,190.52c-11.07-9.19-25.72-16.21-29.31-18.08a9.07,9.07,0,0,1-3.47-3.87c21.28,7.14,37.83,19.61,48.65,25.54l.07.21h.31C111.27,195.61,102.33,194.88,95.4,190.52Z"/><path class="cls-25" d="M31.24,167.89c1.43,5.22,4.92,18,6.54,24.41-1.94-.09-3.79-.16-5.53-.2L25.8,192,24,168c1.65,0,3.33-.08,5.06-.08C29.08,168,29.86,167.91,31.24,167.89Z"/><path class="cls-25" d="M74.67,242.17c-7.54,0-16.13-.06-24.73-.2C36,241.75,3.35,241,.5,239-2,237.26-9.16,227.67-15,219.11S-26.9,200.57-26.75,198c.28-4.86.35-5,3.73-8.4,3.1-3.1,6.66-7.41,6.66-13.29H-16c0,6-3.61,10.37-6.75,13.51-3.36,3.37-3.37,3.46-3.64,8.19S-4.08,235.38.68,238.75c1.93,1.36,20.34,2.45,49.26,2.91,22.84.36,46.39.21,48.92-.32,8.43-20.31.14-42.31,0-42.53l.29-.11c.09.22,8.45,22.38-.08,42.83l0,.07-.08,0C97.64,242,87.73,242.17,74.67,242.17Z"/><path class="cls-25" d="M32.27,241.4l-.31-.05c5.85-33.71-4.49-72.91-4.59-73.3l.3-.08C27.78,168.36,38.13,207.63,32.27,241.4Z"/><path class="cls-25" d="M111.68,194.34l-.92-.51c-2.54.3-9.4-.44-14.94-3.9-9.95-8.26-22.53-14.64-27.9-17.37l-1.49-.76a6.37,6.37,0,0,1-2-2.6l-2-.68.09.18c.79,1.63,1.78,3.65,3.2,4.39l1.5.77c5.34,2.71,17.84,9,27.67,17.22l.08.06a29.69,29.69,0,0,0,14.47,4.19,7.86,7.86,0,0,0,2.58-.33,1.64,1.64,0,0,0,.73-.51Z"/><path class="cls-25" d="M99.26,198.73s-4.06-.57-10.38-1.38A65.29,65.29,0,0,1,90.05,190,125.24,125.24,0,0,1,99.26,198.73Z"/><path class="cls-25" d="M90.58,197.48s-1.39.59-5.84.48a43.68,43.68,0,0,1-8.52-1.12s-1.83-9.43,4.29-10.4,10.07,4.18,10.07,4.18Z"/><ellipse class="cls-22" cx="129.4" cy="240.6" rx="18.17" ry="18.17" transform="translate(-111.63 369.18) rotate(-89.81)"/><path class="cls-30" d="M117.19,240.6a12.22,12.22,0,1,1,12.21,12.21A12.21,12.21,0,0,1,117.19,240.6Z"/><path class="cls-3" d="M5.27,208a8.22,8.22,0,0,0-6.79,8.52,8,8,0,0,0,.7,2.87,51.51,51.51,0,0,0,7.11,10.53.48.48,0,0,0,.35.16.44.44,0,0,0,.34-.16,60.89,60.89,0,0,0,5-6.64l-2.69-2.68a5.13,5.13,0,1,1-1.93-9.5,5.13,5.13,0,0,1,3.75,7.69L13.29,221c.29-.54.56-1.08.8-1.62a7.88,7.88,0,0,0,.72-3.33A8.18,8.18,0,0,0,5.27,208Z"/><path class="cls-31" d="M10.49,216.18a3.84,3.84,0,1,1-3.84-3.85A3.84,3.84,0,0,1,10.49,216.18Z"/><path class="cls-3" d="M3.66,216.18h.86A2.13,2.13,0,0,1,6.65,214v-.85A3,3,0,0,0,3.66,216.18Z"/><path class="cls-3" d="M30.28,211.6a1.24,1.24,0,0,1,.38.93,1.18,1.18,0,0,1-.38.92,1.39,1.39,0,0,1-1,.34H25.83V225.4a1.26,1.26,0,0,1-.42,1,1.49,1.49,0,0,1-1.05.38,1.36,1.36,0,0,1-1-.38,1.28,1.28,0,0,1-.4-1V213.79H19.47a1.36,1.36,0,0,1-1-.35,1.23,1.23,0,0,1-.37-.93,1.21,1.21,0,0,1,.38-.91,1.36,1.36,0,0,1,1-.35H29.3A1.36,1.36,0,0,1,30.28,211.6Z"/><path class="cls-3" d="M37.69,215.06a1.12,1.12,0,0,1,.46.88,1.36,1.36,0,0,1-.36,1,1.16,1.16,0,0,1-.84.35,2.3,2.3,0,0,1-.75-.16l-.3-.09a2,2,0,0,0-.5-.06,1.94,1.94,0,0,0-1.11.35,2.66,2.66,0,0,0-.87,1.08,3.92,3.92,0,0,0-.35,1.71v5.25a1.34,1.34,0,0,1-.37,1,1.39,1.39,0,0,1-1.91,0,1.34,1.34,0,0,1-.38-1v-9.15a1.34,1.34,0,0,1,.38-1,1.36,1.36,0,0,1,1.91,0,1.33,1.33,0,0,1,.37,1v.29a3.33,3.33,0,0,1,1.47-1.38,4.43,4.43,0,0,1,2-.48A1.69,1.69,0,0,1,37.69,215.06Z"/><path class="cls-3" d="M39.73,213.22a1.06,1.06,0,0,1-.31-.87v-.42a1,1,0,0,1,.33-.86,1.88,1.88,0,0,1,1.07-.24,1.81,1.81,0,0,1,1.08.24,1,1,0,0,1,.31.86v.42a1,1,0,0,1-.32.88,2,2,0,0,1-1.09.23A1.8,1.8,0,0,1,39.73,213.22Zm2,13.15a1.26,1.26,0,0,1-1,.38,1.24,1.24,0,0,1-1-.38,1.3,1.3,0,0,1-.38-1v-9.15a1.3,1.3,0,0,1,.38-1,1.25,1.25,0,0,1,1-.39,1.27,1.27,0,0,1,1,.39,1.34,1.34,0,0,1,.38,1v9.15A1.34,1.34,0,0,1,41.77,226.37Z"/><path class="cls-3" d="M53.58,215.47a5.53,5.53,0,0,1,2,2.18,6.82,6.82,0,0,1,.72,3.17,7,7,0,0,1-.71,3.18,5.44,5.44,0,0,1-1.94,2.19,5,5,0,0,1-2.71.79,4.75,4.75,0,0,1-2-.44,5,5,0,0,1-1.56-1v4.34a1.34,1.34,0,0,1-.38,1,1.27,1.27,0,0,1-1,.39,1.3,1.3,0,0,1-1-.38,1.33,1.33,0,0,1-.38-1V216.25a1.34,1.34,0,0,1,.38-1,1.35,1.35,0,0,1,1.9,0,1.34,1.34,0,0,1,.38,1v.09a4.58,4.58,0,0,1,1.48-1.16,4.3,4.3,0,0,1,2-.5A5,5,0,0,1,53.58,215.47Zm-.78,8a4.35,4.35,0,0,0,0-5.31,3.13,3.13,0,0,0-4.68,0,3.88,3.88,0,0,0-.91,2.65,3.94,3.94,0,0,0,.91,2.66,3.1,3.1,0,0,0,4.67,0Z"/><path class="cls-3" d="M62.32,213.14a1.63,1.63,0,0,0-.31.94v1h2a1.21,1.21,0,0,1,.88.35,1.24,1.24,0,0,1,0,1.75,1.2,1.2,0,0,1-.88.34H62v7.84a1.34,1.34,0,0,1-.37,1,1.28,1.28,0,0,1-1,.38,1.26,1.26,0,0,1-1-.38,1.34,1.34,0,0,1-.38-1v-7.84H58.16a1.22,1.22,0,0,1-.89-.34,1.27,1.27,0,0,1,0-1.75,1.23,1.23,0,0,1,.89-.35h1.19v-1a3.51,3.51,0,0,1,1.14-2.7,4.77,4.77,0,0,1,3.3-1,2.92,2.92,0,0,1,1.42.33,1.08,1.08,0,0,1,.61,1,1.22,1.22,0,0,1-.31.87,1,1,0,0,1-.75.33l-.23,0-.26,0a3.66,3.66,0,0,0-.88-.13A1.22,1.22,0,0,0,62.32,213.14Z"/><path class="cls-3" d="M76.55,221.42a1.39,1.39,0,0,1-.93.33H68.31a3.4,3.4,0,0,0,1.22,2.05,3.44,3.44,0,0,0,2.15.74,4.77,4.77,0,0,0,1.42-.17,4,4,0,0,0,.81-.35l.41-.26a1.69,1.69,0,0,1,.75-.2,1.14,1.14,0,0,1,1.13,1.11,1.41,1.41,0,0,1-.62,1.09,5.15,5.15,0,0,1-1.66.86,6.81,6.81,0,0,1-5.35-.42,5.37,5.37,0,0,1-2.14-2.14,6.26,6.26,0,0,1-.75-3.07,6.79,6.79,0,0,1,.79-3.34,5.76,5.76,0,0,1,2.11-2.21,5.42,5.42,0,0,1,2.79-.76,5.2,5.2,0,0,1,2.76.8,6,6,0,0,1,2.07,2.15,5.73,5.73,0,0,1,.78,2.92A1.17,1.17,0,0,1,76.55,221.42Zm-8.21-1.89h5.8v-.15a2.29,2.29,0,0,0-.91-1.6,2.9,2.9,0,0,0-1.86-.66A2.74,2.74,0,0,0,68.34,219.53Z"/><path class="cls-3" d="M86.12,215.06a1.1,1.1,0,0,1,.46.88,1.36,1.36,0,0,1-.36,1,1.15,1.15,0,0,1-.84.35,2.3,2.3,0,0,1-.75-.16l-.3-.09a2,2,0,0,0-.5-.06,2,2,0,0,0-1.11.35,2.66,2.66,0,0,0-.87,1.08,3.92,3.92,0,0,0-.35,1.71v5.25a1.34,1.34,0,0,1-.37,1,1.39,1.39,0,0,1-1.91,0,1.34,1.34,0,0,1-.37-1v-9.15a1.33,1.33,0,0,1,.37-1,1.36,1.36,0,0,1,1.91,0,1.33,1.33,0,0,1,.37,1v.29A3.33,3.33,0,0,1,83,215.16a4.43,4.43,0,0,1,2-.48A1.69,1.69,0,0,1,86.12,215.06Z"/></g></g></g><g id="guy"><path class="cls-32" d="M302.45,279.12s.31,4.48,0,4.57-3.67.59-3.61.1-.62-5-.62-5Z"/><path class="cls-32" d="M277.8,279.25s-.31,4.48,0,4.57,3.66.59,3.6.09.62-5,.62-5Z"/><path class="cls-24" d="M286.55,259.18c-.33,2.26-2.09,9.45-3.65,15.59l-.87,5.32h-4.3l1.93-64.87s.44-.6,1.16-1.53h10.46c.38,5-3.35,29.42-3.68,32.72S287.16,255,286.55,259.18Z"/><path class="cls-33" d="M302.67,279.7c.23-6.89.58-18.93.27-21.89a40.57,40.57,0,0,0-2-9.2c-.15-3.13,1.66-31.66.51-34.22a3.1,3.1,0,0,0-1.35-1.38l-.13,0-10.17,1.44a34.42,34.42,0,0,1-3.23,1.38L298,280.37Z"/><path class="cls-34" d="M281.65,283.05a8.4,8.4,0,0,0-3.73-.16c-2,.35-4.64.82-4.83,1.16a1.48,1.48,0,0,0-.1.84s8.34-.09,8.68-.28S281.65,283.05,281.65,283.05Z"/><path class="cls-34" d="M298.6,283.05a8.38,8.38,0,0,1,3.73-.16c2,.35,2.29.82,2.48,1.16a1.48,1.48,0,0,1,.1.84s-6-.09-6.34-.28S298.6,283.05,298.6,283.05Z"/><path class="cls-35" d="M275.16,198.21l-.29-.08-.17-.06-.31-.11-.51-.21c-.35-.15-.62-.3-.92-.45a17.11,17.11,0,0,1-1.58-1L271,196l-.35-.28-.67-.56c-.42-.39-.83-.78-1.22-1.19a23,23,0,0,1-3.67-5.24l-.36-.68-.18-.35-.15-.34-.61-1.4c-.21-.46-.36-.94-.53-1.41l-.49-1.41c-.26-1-.53-1.91-.78-2.86l-.59-2.86A3.36,3.36,0,0,1,264,173.6a3.15,3.15,0,0,1,3.79,2l.06.21.76,2.43c.29.79.59,1.57.89,2.35l.52,1.11c.18.37.33.76.54,1.1l.58,1,.14.26.17.25.32.49a16.29,16.29,0,0,0,2.91,3.41c.27.23.55.44.82.65l.41.27.21.14.21.12a8.52,8.52,0,0,0,.8.4c.11,0,.25.1.34.12l.14,0h0l-.12,0a4,4,0,0,1,3,5.07A4.57,4.57,0,0,1,275.16,198.21Z"/><path class="cls-35" d="M283,176.31a131.77,131.77,0,0,0-8.34,12.79c-2.68,5.09,5.17,7.35,5.17,7.35s3.61-5.24,4.66-9.12.68-10.56.68-10.56Z"/><path class="cls-36" d="M278.43,221.17s1.43-12.62,1.8-19.18c.54-9.54.39-21.12,2.29-24.85,3.2-6.3,9.06-7,15.1-5.93s7,18.33,4.65,48.07C299.2,218.35,278.43,221.17,278.43,221.17Z"/><path class="cls-37" d="M262,168a.42.42,0,0,1-.39.55.69.69,0,0,1-.65-.52.41.41,0,0,1,.39-.55A.69.69,0,0,1,262,168Z"/><path class="cls-35" d="M300.92,172c.18.1,3.77,2.27,3.89,2.36a3.33,3.33,0,0,1,.26.24l.51.5c.33.33.64.65.94,1,.61.68,1.21,1.36,1.76,2.07a33,33,0,0,1,2.88,4.47,28.68,28.68,0,0,1,1.92,4.84c.13.42.22.83.31,1.24s.18.85.24,1.24.17.91.23,1.23a5.55,5.55,0,0,1,.08.7c0,.23.05.51.06.68a29.78,29.78,0,0,1-.17,5.27,21.88,21.88,0,0,1-1,5,21.08,21.08,0,0,1-5.16,8.33,3.56,3.56,0,0,1-4.75.29c-1.44-1.15-1.23-2.6-.35-4,0,0,0,0,0,0a14.48,14.48,0,0,0,3.69-6.1,17.17,17.17,0,0,0,.48-3.78,22.35,22.35,0,0,0-.21-3.74l-.08-.44c0-.17,0-.27-.08-.5s-.1-.66-.17-1-.15-.61-.24-.92-.16-.65-.26-1a18.34,18.34,0,0,0-1.59-3.53,17.2,17.2,0,0,0-2.36-3.14c-.45-.47-.93-.91-1.4-1.36-.23-.22-.5-.43-.72-.64l-.35-.3-.18-.15c-.06,0-.09,0-.14-.11-1.48-1.88-1.73-3.9-.17-5.86S298.86,170.85,300.92,172Z"/><path class="cls-32" d="M301.91,214.88c-2.19,1.46-4.79.57-6.26-1.47s-1.74-3.78.91-4.27c3.84-.72.11-3.1,1.18-3.41,1.35-.38,4.66,1.6,5.6,2.81C305,210.72,304.09,213.43,301.91,214.88Z"/><path class="cls-24" d="M297.74,171.19a17.64,17.64,0,0,0-9.35.4c.17,3.21.76,5.44,4,5.44C296.15,177,297.37,174.83,297.74,171.19Z"/><path class="cls-32" d="M297.09,164.86A55.26,55.26,0,0,1,297,171c-.32,3.14-1.37,5-4.57,5-5.56,0-2.47-9.16-4.35-12.47C290.5,163.67,297.09,164.86,297.09,164.86Z"/><path class="cls-24" d="M284,157.52a3.94,3.94,0,1,1,4.08,3.8A3.94,3.94,0,0,1,284,157.52Z"/><path class="cls-24" d="M286,149.76a3.94,3.94,0,1,1,4.07,3.8A3.95,3.95,0,0,1,286,149.76Z"/><path class="cls-24" d="M290.36,149.84a3.94,3.94,0,1,1,4.07,3.8A3.93,3.93,0,0,1,290.36,149.84Z"/><path class="cls-24" d="M293.72,153.79a3.94,3.94,0,1,1,4.07,3.8A3.93,3.93,0,0,1,293.72,153.79Z"/><path class="cls-24" d="M294.21,160.36a3.94,3.94,0,1,1,4.07,3.8A3.94,3.94,0,0,1,294.21,160.36Z"/><path class="cls-32" d="M295.42,163.38a2.3,2.3,0,0,1,2.21-2.35,2.25,2.25,0,0,1,2.33,2.19,2.29,2.29,0,0,1-2.21,2.35A2.24,2.24,0,0,1,295.42,163.38Z"/><path class="cls-32" d="M290.13,169.54l2.05-.07a5.84,5.84,0,0,0,5.62-6l-.11-4.4a6,6,0,0,0-6.2-5.83l-6.15.22.3,11.83A4.33,4.33,0,0,0,290.13,169.54Z"/><path class="cls-24" d="M283.19,152.53a3.94,3.94,0,1,1,4.07,3.8A3.93,3.93,0,0,1,283.19,152.53Z"/><path class="cls-24" d="M296,148.18a17.77,17.77,0,0,1-5.09-.09c1.51-.17,3.17-.38,4.81-.43l.78.51A1.69,1.69,0,0,0,296,148.18Z"/><path class="cls-24" d="M288.13,151.49a26.73,26.73,0,0,0,8,.5,2.13,2.13,0,0,0,1.57-3,5,5,0,0,1,1.48,1.7c1.18,2.93-.83,7.52-.83,7.52l-1.61-.27s.35-3.79-2-4a77.08,77.08,0,0,0-9.28.47l-.14,0s0-1.57,0-3.49C286.24,151.17,287.19,151.34,288.13,151.49Z"/><path class="cls-24" d="M297.34,163.14c-.34-.33-.62-1.34-.94-1.69.54-1.45.78-1.83.33-3.45,1.36-1.91.5-1.38,1-.83s0,3.84,0,3.84S297.47,162.32,297.34,163.14Z"/></g><ellipse class="cls-38" cx="262.82" cy="157.99" rx="4.8" ry="4.56"/><path class="cls-38" d="M261.83,156c0,1.87-3.71,5.59-5.58,5.59a3.38,3.38,0,1,1,0-6.76C258.12,154.85,261.83,154.16,261.83,156Z"/><path class="cls-38" d="M270.6,158.87a3.64,3.64,0,1,1-4.54-2.74A3.76,3.76,0,0,1,270.6,158.87Z"/><circle class="cls-39" cx="266.89" cy="170.77" r="4.44"/><path class="cls-38" d="M271.89,168.62c0,4.23-1.24,7.65-3.51,7.65s-4.1-3.42-4.1-7.65,1.83-7.66,4.1-7.66S271.89,164.39,271.89,168.62Z"/><path class="cls-38" d="M270.66,176.49a3.63,3.63,0,1,1-3.62-3.38A3.5,3.5,0,0,1,270.66,176.49Z"/><path class="cls-38" d="M272.61,178.13c0,2.7-1.81,4.88-4.05,4.88s-4.06-2.18-4.06-4.88,1.82-4.89,4.06-4.89S272.61,175.43,272.61,178.13Z"/><ellipse class="cls-38" cx="255.7" cy="172.37" rx="4.42" ry="4.12"/><path class="cls-38" d="M263.22,175.82a4.44,4.44,0,1,1-4.42-4.12A4.28,4.28,0,0,1,263.22,175.82Z"/><path class="cls-38" d="M257.83,165.2c-.93,3.39-3.43,5.65-5.6,5.06s-3.17-3.82-2.25-7.21,3.43-5.65,5.6-5.05S258.76,161.81,257.83,165.2Z"/><path class="cls-40" d="M256.44,178.29s-2.68.39-6.92,6.28-3.94,6.07-5.72,6.82-12.49.45-12.49.45l-.22,2.88s11.12,2,14.55.75,11.05-11.74,11.8-13.61S258.56,177.82,256.44,178.29Z"/><path class="cls-40" d="M233.52,193.44c-.09,1.06-1.63,1.8-3.46,1.66s-3.23-1.12-3.15-2.18,1.63-1.8,3.46-1.65S233.6,192.39,233.52,193.44Z"/><path class="cls-41" d="M248.87,183.56l5.07,3.55s6.25-6,3.68-9.05C254.35,176.8,248.87,183.56,248.87,183.56Z"/><rect class="cls-42" x="224.5" y="192.98" width="8.92" height="1.18" rx="0.31" ry="0.31" transform="translate(162.36 -98.76) rotate(36.95)"/><path class="cls-42" d="M225.69,191.57l-24-18a.09.09,0,0,1,0-.12l.34-.45s.07,0,.11,0l24,18a.08.08,0,0,1,0,.11l-.35.46A.08.08,0,0,1,225.69,191.57Z"/><g class="cls-2"><path class="cls-42" d="M197.46,166.76l1.23,0-1.21,0Z"/><path class="cls-42" d="M209,167.35l-10.29-.56-1.23,0,10.29.57a.56.56,0,0,1,.48.61l-.25,5.57a.54.54,0,0,1-.51.56l1.23,0a.54.54,0,0,0,.51-.56l.25-5.56A.57.57,0,0,0,209,167.35Z"/><path class="cls-43" d="M207.77,167.33a.56.56,0,0,1,.48.61l-.25,5.57a.53.53,0,0,1-.53.56l-10.29-.56a.57.57,0,0,1-.48-.62l.25-5.56a.55.55,0,0,1,.53-.57Z"/></g><path class="cls-44" d="M232,193.46a2.59,2.59,0,1,1-2.56-2.21A2.41,2.41,0,0,1,232,193.46Z"/><path class="cls-45" d="M263.85,169.87l1,6.25s-5.56,7.31-6.5,8.13a27.13,27.13,0,0,1,.39-7.73c.17-.82.11-8.77.11-8.77Z"/><path class="cls-45" d="M260.63,173.17h-2a4.3,4.3,0,0,1-4.29-4.31l0-10.13,11.27,0,0,9.49A4.93,4.93,0,0,1,260.63,173.17Z"/><path class="cls-46" d="M257.63,163.1a19.72,19.72,0,0,1-2.77-1.27,11.85,11.85,0,0,1-.83,2.43,4.65,4.65,0,0,1-1.29,1.17c-.68.39-1.06-.44-1.2-1a10.83,10.83,0,0,1,.34-4.52c.21-1,1.29-.91,1.6-1.84l14.14-.42s-2.47,8.93-2.52,8.81a7.27,7.27,0,0,0-3.57-2.78A33,33,0,0,1,257.63,163.1Z"/><path class="cls-45" d="M267.4,167.67a1.71,1.71,0,1,1-1.7-1.7A1.71,1.71,0,0,1,267.4,167.67Z"/><path class="cls-47" d="M265,168.32a.76.76,0,0,0,.85.67.77.77,0,1,0-.85-.67Z"/><path class="cls-48" d="M267.6,278.35a4.87,4.87,0,0,1,0,2.15,21.33,21.33,0,0,1-1.54,3.19l3.31-1.25,1-1.25,0-2.84-2.41-.81Z"/><path class="cls-48" d="M253.54,278.28a6.64,6.64,0,0,1-.13,2.22,21.33,21.33,0,0,1-1.54,3.19l3.3-1.25,1-1.25,0-2.84-2.42-.81Z"/><path class="cls-49" d="M250.11,284.38h6.19a.71.71,0,0,0,.7-.7V283c0-.34-.61-2.12-.8-1.83-1.11,1.68-3.41.78-3.41.78a9.63,9.63,0,0,0-3.65,1.23.68.68,0,0,0,.47,1.18Z"/><path class="cls-49" d="M264.43,284.56l6.18-.41a.7.7,0,0,0,.65-.74l0-.65c0-.35-.75-2.08-.92-1.78-1,1.75-3.35,1-3.35,1a9.49,9.49,0,0,0-3.56,1.47.68.68,0,0,0,.55,1.14Z"/><path class="cls-24" d="M253.1,211.53l-1.17,12.24-1.47,19.67a51.26,51.26,0,0,0,.16,9.27l2.84,26h2.76s4.43-17.34,4.43-24.24-.46-5.74.13-8.2c1.57-6.43,7-39.83,7-39.83Z"/><path class="cls-33" d="M261,207.8l1,41.74,5.41,29.11h3.19s3.1-17.73,2.49-23.58-2.38-7.95-2.46-9.7,3.7-23,1.06-32.15c-1.45-5-1.39-7-1.39-7Z"/><path class="cls-47" d="M265,176.15c-.55,0-6,7.79-6.5,7.82-1,.06-.34-6.67.1-7.42-3.61,1.23-5.84,4.7-6,9.8,0,3.83,2.5,4.71,2.5,4.71s-1.8,15.32-2.68,22.05a53.88,53.88,0,0,0,9.38.78c3.31,0,10.74-1,10.74-1a113.25,113.25,0,0,1-2-11.28c-.22-3.31,1.22-11.47,1.22-14.64C271.77,184.63,273.35,176.15,265,176.15Z"/><path class="cls-32" d="M254.86,177.91c.64.46-.84.72-.79,1.26.12,1.45.2,1.39-.71,2.3-1.19,1.19-3.93.66-4.05-1a2.81,2.81,0,0,1,1.87-3A3.59,3.59,0,0,1,254.86,177.91Z"/><path class="cls-3" d="M258.51,183.76c1.34-1.45,5.35-6.5,6.26-7.65l.48.09c-.54.69-5.86,7.41-6.77,8.22a.2.2,0,0,1-.15.06l-.07,0a.2.2,0,0,1-.14-.18,31.18,31.18,0,0,1,.11-7.56,4.14,4.14,0,0,1,.49-.19A29.83,29.83,0,0,0,258.51,183.76Z"/><path class="cls-48" d="M269.56,181.72s-3.68-.37-4.72,6.7c-1.12,7.61-2,11.21-2.27,12.54-.57,2.47-10.86,8.59-10.86,8.59l.41,3.16s13.66-6.64,15.17-10.35c1.67-4.09,4-15.77,4.12-17.49C271.58,182.89,271.42,180.73,269.56,181.72Z"/><path class="cls-48" d="M253.8,209.94c.55.92-.29,2.42-1.87,3.36s-3.31,1-3.85,0,.3-2.42,1.88-3.36S253.26,209,253.8,209.94Z"/><path class="cls-47" d="M264.84,186.2l6.51,1.73s4-8.62-.86-10.32C265.6,175.46,264.84,186.2,264.84,186.2Z"/><ellipse class="cls-21" cx="41.75" cy="278.89" rx="37.37" ry="2.28"/><path class="cls-47" d="M51.38,225.8s3.8,19.5-5.27,38.94-19.26,13.69-19.26,13.69-11-4.11-1.9-23.56S51.38,225.8,51.38,225.8Z"/><path class="cls-3" d="M26.74,278.65a.16.16,0,0,0,.22-.07l22.35-47.95a.16.16,0,0,0-.07-.22.16.16,0,0,0-.22.08L26.66,278.44A.16.16,0,0,0,26.74,278.65Z"/><path class="cls-3" d="M43.68,242.19a18.79,18.79,0,0,1-4-7.37l.27-.26a18.41,18.41,0,0,0,4,7.41Z"/><path class="cls-3" d="M47.86,233.23a20.42,20.42,0,0,1-2.42-3.38l.26-.2A20.47,20.47,0,0,0,48.09,233Z"/><path class="cls-3" d="M41.48,246.91s-4-4.38-4.66-9.28l.29-.3c.5,4.89,4.56,9.3,4.6,9.36Z"/><path class="cls-3" d="M32,267.24c-.07-.07-5.85-6.35-6.58-13.36l.28-.56c.46,7.1,6.47,13.63,6.53,13.7Z"/><path class="cls-3" d="M28.73,274.54l-.24.22c-.06-.07-5.16-5.61-6.39-12.08l.2-.77C23.25,268.58,28.66,274.47,28.73,274.54Z"/><path class="cls-3" d="M37.82,254.87c-.06-.06-4.86-5.28-6-11.36l.26-.35c1,6.11,5.91,11.43,6,11.49Z"/><path class="cls-3" d="M52.16,237.59a20.21,20.21,0,0,1-6.69,1l0-.33a19.58,19.58,0,0,0,6.67-1Z"/><path class="cls-3" d="M42.78,244.35l0-.32a20.25,20.25,0,0,0,9.13-1.89c0,.13,0,.25,0,.38A20.75,20.75,0,0,1,42.78,244.35Z"/><path class="cls-3" d="M34.39,262.33l0-.32c.1,0,8.44.38,14.17-3.44,0,.17-.11.33-.17.5C42.6,262.7,34.49,262.34,34.39,262.33Z"/><path class="cls-3" d="M29.7,272.12c.1,0,8.76.4,14.5-3.66-.13.22-.25.44-.38.64-5.82,3.73-14,3.35-14.14,3.35Z"/><path class="cls-3" d="M51,249.49c0,.14-.05.27-.08.4a27.25,27.25,0,0,1-11.82,2.32l0-.32C39.16,251.89,45.72,252.19,51,249.49Z"/><path class="cls-50" d="M21,209.59s-13.8,19.3-13.6,44.91,14.13,24.43,14.13,24.43,14,1,13.75-24.64S21,209.59,21,209.59Z"/><path class="cls-3" d="M21.52,279.23a.21.21,0,0,1-.2-.2l-.48-63.17a.21.21,0,0,1,.19-.2.2.2,0,0,1,.2.2L21.71,279A.19.19,0,0,1,21.52,279.23Z"/><path class="cls-3" d="M21.22,231.22a22.52,22.52,0,0,0,8.06-6c-.06-.13-.11-.27-.17-.41a22,22,0,0,1-8,6.05Z"/><path class="cls-3" d="M21.13,219.41a25,25,0,0,0,4.3-2.47l-.18-.35A23.85,23.85,0,0,1,21,219.05Z"/><path class="cls-3" d="M21.27,237.43c.08,0,6.55-2.76,9.67-7.76-.06-.16-.11-.32-.17-.47-3,5.06-9.57,7.84-9.65,7.87Z"/><path class="cls-3" d="M21.48,264.22c.11,0,9.5-4,13.77-11.24,0-.25,0-.5,0-.75-4,7.48-13.79,11.59-13.9,11.63Z"/><path class="cls-3" d="M21.41,273.77l.14.36c.11-.05,8.39-3.54,12.94-9.95.06-.31.11-.62.16-.94C30.32,270,21.51,273.72,21.41,273.77Z"/><path class="cls-3" d="M21.29,247.9c.1,0,7.89-3.33,12.15-9.37l-.12-.5c-4.13,6.12-12.08,9.47-12.18,9.51Z"/><path class="cls-3" d="M14.3,222a23.74,23.74,0,0,0,6.77,4.38l.14-.36a23.41,23.41,0,0,1-6.75-4.4C14.4,221.77,14.35,221.89,14.3,222Z"/><path class="cls-3" d="M21.13,234l.14-.36c-.07,0-5.71-2.31-9-6.58,0,.14-.1.29-.16.43A24.84,24.84,0,0,0,21.13,234Z"/><path class="cls-3" d="M21.31,257.7l.14-.36c-.11,0-9.36-3.77-13.69-10.76l-.06.62C12.21,254,21.2,257.66,21.31,257.7Z"/><path class="cls-3" d="M21.55,270.66c-.11,0-9.71-3.91-13.93-11.16l.09.88C12.18,267.31,21.3,271,21.41,271Z"/><path class="cls-3" d="M9.7,235.54c0,.16-.07.32-.11.47,4.43,5.47,11.59,8.35,11.68,8.39l.14-.36C21.32,244,14,241.07,9.7,235.54Z"/><path class="cls-51" d="M70.71,279.23a6,6,0,0,0,2.55-5.76A5.7,5.7,0,0,0,69,269.08c-1.23-.26-2.51-.1-3.76-.25a3.54,3.54,0,0,1-3-1.93c-.57-1.52.59-3.28,0-4.8s-2.65-2-4.19-1.42-2.77,1.71-4.14,2.59a11.93,11.93,0,0,1-5.51,1.85,42,42,0,0,0-4.78.23c-1.57.31-3.17,1.3-3.52,2.86-.29,1.29.32,2.76-.33,3.92s-2.25,1.41-3.32,2.23a3.54,3.54,0,0,0-.56,4.87Z"/><path class="cls-3" d="M51,279.18c.06-.14,5.05-13,9.89-18.41l.25.12c-4.68,5.16-9.53,17.48-9.87,18.34h-.14Z"/><path class="cls-3" d="M72.91,272.36C68,275.49,60.58,276,56.19,276c-2.17,0-3.61-.13-3.65-.13l0-.27c.14,0,13,1.15,20.23-3.5Z"/><path class="cls-3" d="M41.85,267.82c-.43-.27-.83-.55-1.2-.82l.18-.22A19.19,19.19,0,0,0,55,270.32l0,.27a21.73,21.73,0,0,1-2.84.19A19.36,19.36,0,0,1,41.85,267.82Z"/><path class="cls-3" d="M35.22,276.26c2.61.19,9.13,0,13.4-6l.22.15a14.86,14.86,0,0,1-12.42,6.15c-.48,0-.9,0-1.25-.05C35.18,276.44,35.2,276.35,35.22,276.26Z"/><path class="cls-3" d="M66.26,268.9a18.28,18.28,0,0,0-2,6.44l-.27,0A18.51,18.51,0,0,1,66,268.89Z"/><path class="cls-3" d="M56.42,261.47l.28-.17a11.76,11.76,0,0,0,1.11,4.12l-.24.12A11.93,11.93,0,0,1,56.42,261.47Z"/><path class="cls-3" d="M60.76,279.23h-.43a10.91,10.91,0,0,1-2.64-3.29l.24-.11A11,11,0,0,0,60.76,279.23Z"/><path class="cls-3" d="M62.93,267.94a11.83,11.83,0,0,1-4.87,1.17,5.68,5.68,0,0,1-2.19-.36l.11-.24s2.54,1.07,6.73-.77Z"/><path class="cls-3" d="M52.11,270.62A5.61,5.61,0,0,0,49.54,265l.38-.08a6.08,6.08,0,0,1,2.46,5.78Z"/><path class="cls-3" d="M46.3,273l.24-.12c0,.05,2,4.16-.14,6.39H46C48.36,277.2,46.32,273,46.3,273Z"/></g></g></g></svg>