<svg xmlns="http://www.w3.org/2000/svg" xmlns:xlink="http://www.w3.org/1999/xlink" viewBox="0 0 370.08 310"><defs><style>.cls-1{mask:url(#mask);filter:url(#luminosity-noclip-7);}.cls-10,.cls-12,.cls-2,.cls-4,.cls-47,.cls-49,.cls-6,.cls-8{mix-blend-mode:multiply;}.cls-2{fill:url(#linear-gradient);}.cls-3{mask:url(#mask-2);filter:url(#luminosity-noclip-12);}.cls-4{fill:url(#linear-gradient-2);}.cls-5{mask:url(#mask-3);filter:url(#luminosity-noclip-8);}.cls-6{fill:url(#linear-gradient-3);}.cls-7{mask:url(#mask-4);filter:url(#luminosity-noclip-9);}.cls-8{fill:url(#linear-gradient-4);}.cls-9{mask:url(#mask-5);filter:url(#luminosity-noclip-10);}.cls-10{fill:url(#linear-gradient-5);}.cls-11{mask:url(#mask-6);filter:url(#luminosity-noclip-11);}.cls-12{fill:url(#linear-gradient-6);}.cls-13{isolation:isolate;}.cls-14,.cls-39{fill:#fff;}.cls-15{opacity:0.05;}.cls-16{mask:url(#mask-7);}.cls-17{fill:url(#linear-gradient-7);}.cls-18{mask:url(#mask-8);}.cls-19{fill:url(#linear-gradient-8);}.cls-20{mask:url(#mask-9);}.cls-21{fill:url(#linear-gradient-9);}.cls-22{mask:url(#mask-10);}.cls-23{fill:url(#linear-gradient-10);}.cls-24{mask:url(#mask-11);}.cls-25{fill:url(#linear-gradient-11);}.cls-26{mask:url(#mask-12);}.cls-27{fill:url(#linear-gradient-12);}.cls-28{fill:#d6e0f7;}.cls-29{fill:url(#linear-gradient-13);}.cls-30{fill:url(#linear-gradient-14);}.cls-31{fill:#a3c3e6;}.cls-32{fill:url(#linear-gradient-15);}.cls-33{fill:url(#linear-gradient-16);}.cls-34{fill:#0d1a38;}.cls-35{fill:url(#linear-gradient-17);}.cls-36{fill:#f77a4b;}.cls-37{fill:#304269;}.cls-38{fill:#f60;}.cls-39{opacity:0.5;mix-blend-mode:overlay;}.cls-40{fill:#c5cdeb;}.cls-41{fill:#e3e8fc;}.cls-42{fill:#7f9edd;}.cls-43{fill:#9db1e0;}.cls-44{fill:#b5c1e5;}.cls-45{fill:#e06a46;}.cls-46{opacity:0.41;}.cls-48{fill:url(#linear-gradient-18);}.cls-49{fill:url(#linear-gradient-19);}.cls-50{fill:#efbfa5;}.cls-51{fill:#e1e6fb;}.cls-52{fill:#ea9e7c;}.cls-53{fill:#282828;}.cls-54{fill:#39517c;}.cls-55{fill:#bac5f4;}.cls-56{fill:url(#linear-gradient-20);}.cls-57{fill:#2b1a12;}.cls-58{fill:#4a2b1e;}.cls-59{fill:#140c09;}.cls-60{fill:#807976;}.cls-61{fill:#db9474;}.cls-62{fill:#ff714d;}.cls-63{fill:#422d11;}.cls-64{fill:url(#Безымянный_градиент_73);}.cls-65{fill:url(#Безымянный_градиент_73-2);}.cls-66{fill:url(#Безымянный_градиент_73-3);}.cls-67{filter:url(#luminosity-noclip-6);}.cls-68{filter:url(#luminosity-noclip-5);}.cls-69{filter:url(#luminosity-noclip-4);}.cls-70{filter:url(#luminosity-noclip-3);}.cls-71{filter:url(#luminosity-noclip-2);}.cls-72{filter:url(#luminosity-noclip);}</style><filter id="luminosity-noclip" x="257.08" y="-9482.42" width="48.95" height="32766" filterUnits="userSpaceOnUse" color-interpolation-filters="sRGB"><feFlood flood-color="#fff" result="bg"/><feBlend in="SourceGraphic" in2="bg"/></filter><mask id="mask" x="257.08" y="-9482.42" width="48.95" height="32766" maskUnits="userSpaceOnUse"><g class="cls-72"/></mask><linearGradient id="linear-gradient" x1="291.42" y1="73.61" x2="282.32" y2="108.54" gradientUnits="userSpaceOnUse"><stop offset="0" stop-color="#4d4d4d"/><stop offset="0.99" stop-color="#b3b3b3"/></linearGradient><filter id="luminosity-noclip-2" x="25.24" y="-9482.42" width="23.61" height="32766" filterUnits="userSpaceOnUse" color-interpolation-filters="sRGB"><feFlood flood-color="#fff" result="bg"/><feBlend in="SourceGraphic" in2="bg"/></filter><mask id="mask-2" x="25.24" y="-9482.42" width="23.61" height="32766" maskUnits="userSpaceOnUse"><g class="cls-71"/></mask><linearGradient id="linear-gradient-2" x1="3147.32" y1="157.14" x2="3082.9" y2="169.24" gradientTransform="matrix(-1, 0, 0, 1, 3140.41, 0)" xlink:href="#linear-gradient"/><filter id="luminosity-noclip-3" x="300.41" y="-9482.42" width="70.02" height="32766" filterUnits="userSpaceOnUse" color-interpolation-filters="sRGB"><feFlood flood-color="#fff" result="bg"/><feBlend in="SourceGraphic" in2="bg"/></filter><mask id="mask-3" x="300.41" y="-9482.42" width="70.02" height="32766" maskUnits="userSpaceOnUse"><g class="cls-70"/></mask><linearGradient id="linear-gradient-3" x1="382.88" y1="148.9" x2="300.19" y2="164.43" xlink:href="#linear-gradient"/><filter id="luminosity-noclip-4" x="312.18" y="-9482.42" width="30.32" height="32766" filterUnits="userSpaceOnUse" color-interpolation-filters="sRGB"><feFlood flood-color="#fff" result="bg"/><feBlend in="SourceGraphic" in2="bg"/></filter><mask id="mask-4" x="312.18" y="-9482.42" width="30.32" height="32766" maskUnits="userSpaceOnUse"><g class="cls-69"/></mask><linearGradient id="linear-gradient-4" x1="383.81" y1="153.67" x2="301.07" y2="169.21" xlink:href="#linear-gradient"/><filter id="luminosity-noclip-5" x="62.43" y="-9482.42" width="38.11" height="32766" filterUnits="userSpaceOnUse" color-interpolation-filters="sRGB"><feFlood flood-color="#fff" result="bg"/><feBlend in="SourceGraphic" in2="bg"/></filter><mask id="mask-5" x="62.43" y="-9482.42" width="38.11" height="32766" maskUnits="userSpaceOnUse"><g class="cls-68"/></mask><linearGradient id="linear-gradient-5" x1="3066.6" y1="98.07" x2="3059.51" y2="125.27" gradientTransform="matrix(-1, 0, 0, 1, 3140.41, 0)" xlink:href="#linear-gradient"/><filter id="luminosity-noclip-6" x="3.5" y="-9482.42" width="54.52" height="32766" filterUnits="userSpaceOnUse" color-interpolation-filters="sRGB"><feFlood flood-color="#fff" result="bg"/><feBlend in="SourceGraphic" in2="bg"/></filter><mask id="mask-6" x="3.5" y="-9482.42" width="54.52" height="32766" maskUnits="userSpaceOnUse"><g class="cls-67"/></mask><linearGradient id="linear-gradient-6" x1="3146.6" y1="153.42" x2="3082.22" y2="165.51" gradientTransform="matrix(-1, 0, 0, 1, 3140.41, 0)" xlink:href="#linear-gradient"/><filter id="luminosity-noclip-7" x="257.08" y="57.58" width="48.95" height="73.07" filterUnits="userSpaceOnUse" color-interpolation-filters="sRGB"><feFlood flood-color="#fff" result="bg"/><feBlend in="SourceGraphic" in2="bg"/></filter><mask id="mask-7" x="257.08" y="57.58" width="48.95" height="73.07" maskUnits="userSpaceOnUse"><g class="cls-1"><path class="cls-2" d="M257.5,130.16l.12-.12a78.11,78.11,0,0,1,7.44-30.4,113,113,0,0,1,18.86-27.89c.76-.84,1.52-1.66,2.29-2.48-.11,2.79,0,5.61,1.57,8-.68,1.8-1.32,3.62-1.93,5.44a.31.31,0,0,0-.07.2c-.75,2.27-1.46,4.55-2.15,6.82-.16.52-.31,1-.46,1.56-2.6-3.61-3.31-8.08-3.53-12.44a.34.34,0,0,0-.68,0c.23,4.65,1,9.44,4,13.21q-1.89,6.5-3.36,13.12a28.46,28.46,0,0,1-6.12-18.48c0-.44-.67-.39-.69,0a29,29,0,0,0,6.63,19.28q-.9,4.09-1.63,8.22a91.7,91.7,0,0,1,8.54-3.8,44.84,44.84,0,0,0,5.24-4.59c4.26-4.25,8.12-8.88,12-13.5.28-.34-.24-.78-.52-.44-3.57,4.28-7.15,8.57-11.05,12.56-3.72,3.82-7.92,7.71-13.32,8.83.42-2.31.87-4.61,1.37-6.9a.31.31,0,0,0,.18-.5l-.06-.07q.64-2.88,1.35-5.75l.1,0c7.66-4.53,12.3-12.28,16.66-19.75.22-.38-.4-.67-.62-.29-4.2,7.2-8.66,14.65-15.91,19.16q2.07-8.16,4.8-16.13a40.23,40.23,0,0,0,12.89-13.6c.22-.38-.4-.67-.62-.29A39.44,39.44,0,0,1,286.85,82c.43-1.21.86-2.43,1.31-3.63.09-.26.19-.51.28-.76a.34.34,0,0,0,.14-.36,74.41,74.41,0,0,1,7.07-14.45c.24-.36-.28-.81-.52-.44a75,75,0,0,0-7,14.08c-1.32-2.38-1.3-5.14-1.17-7.82a.27.27,0,0,0,0-.13c3.39-3.56,6.93-7,10.58-10.25,3.27,3.89,4.58,8.91,5.5,13.8a140.64,140.64,0,0,1,2.33,16.45,87.25,87.25,0,0,1,0,12.73l.52-.17a87.79,87.79,0,0,0,.14-10.88,133.8,133.8,0,0,0-2.2-16.93c-1-5.43-2.25-11.08-5.9-15.39,0-.21-.22-.42-.41-.25A157.32,157.32,0,0,0,274.2,83a94.39,94.39,0,0,0-14.59,30.07,73.44,73.44,0,0,0-2.53,17.57Z"/></g></mask><linearGradient id="linear-gradient-7" x1="291.42" y1="73.61" x2="282.32" y2="108.54" gradientUnits="userSpaceOnUse"><stop offset="0" stop-color="#fff"/><stop offset="0.99" stop-color="#fff"/></linearGradient><filter id="luminosity-noclip-8" x="300.41" y="139.43" width="70.02" height="43.2" filterUnits="userSpaceOnUse" color-interpolation-filters="sRGB"><feFlood flood-color="#fff" result="bg"/><feBlend in="SourceGraphic" in2="bg"/></filter><mask id="mask-8" x="300.41" y="139.43" width="70.02" height="43.2" maskUnits="userSpaceOnUse"><g class="cls-5"><path class="cls-6" d="M370.28,150.48a158.55,158.55,0,0,0-32.75-9.7,108.86,108.86,0,0,0-12.08-1.35c-.06.16-.12.33-.19.49a119.38,119.38,0,0,1,26.55,4.65q1.6.47,3.21,1c-2.53,1.1-5,2.42-6.43,4.82q-2.85.24-5.68.62a.27.27,0,0,0-.2,0c-2.35.3-4.69.65-7,1l-1.59.26c2.06-3.84,5.71-6.38,9.49-8.43.38-.21,0-.79-.35-.59-4,2.19-7.92,4.95-10,9.15q-6.6,1.11-13.12,2.64a27.58,27.58,0,0,1,13.7-13.32c.4-.17.05-.76-.35-.58a28.18,28.18,0,0,0-14.19,14.1q-2.85.68-5.69,1.43c-.26.31-.53.61-.8.92q3.19-.89,6.43-1.66a.31.31,0,0,0,.52,0l0-.08q2.83-.67,5.7-1.27a.23.23,0,0,0,.07.07c7.4,4.85,16.33,5.63,24.88,6.3.44,0,.42-.64,0-.67-8.25-.64-16.82-1.4-24-5.88q8.15-1.67,16.42-2.65a40.69,40.69,0,0,0,17.75,5.59c.44,0,.42-.65,0-.68a39.76,39.76,0,0,1-16.62-5c1.26-.14,2.53-.28,3.8-.4l.8-.07a.33.33,0,0,0,.38,0,73.87,73.87,0,0,1,15.94.09c.43.05.59-.6.16-.65a75.3,75.3,0,0,0-15.6-.21c1.53-2.18,4-3.35,6.42-4.38a.3.3,0,0,0,.11-.07c4.65,1.47,9.24,3.16,13.77,5-2,4.55-5.89,7.85-9.83,10.76a138.77,138.77,0,0,1-13.56,9.09,87.65,87.65,0,0,1-28.74,10.22,88.58,88.58,0,0,1-17,1.22c-.32,0-.27.49.05.5A89.18,89.18,0,0,0,331.12,178a87.69,87.69,0,0,0,14-6.1,131.34,131.34,0,0,0,14.05-9.18c4.38-3.18,8.84-6.72,11.05-11.8A.24.24,0,0,0,370.28,150.48Z"/></g></mask><linearGradient id="linear-gradient-8" x1="382.88" y1="148.9" x2="300.19" y2="164.43" xlink:href="#linear-gradient-7"/><filter id="luminosity-noclip-9" x="312.18" y="157.79" width="30.32" height="12.94" filterUnits="userSpaceOnUse" color-interpolation-filters="sRGB"><feFlood flood-color="#fff" result="bg"/><feBlend in="SourceGraphic" in2="bg"/></filter><mask id="mask-9" x="312.18" y="157.79" width="30.32" height="12.94" maskUnits="userSpaceOnUse"><g class="cls-7"><path class="cls-8" d="M324.83,165.9c5.66,2,11.47,3.39,17.27,4.82a.33.33,0,0,0,.16-.65c-5.38-1.33-10.76-2.66-16-4.4-5-1.65-10.23-3.67-13.61-7.88l-.45.5C315.4,162.2,320.13,164.28,324.83,165.9Z"/></g></mask><linearGradient id="linear-gradient-9" x1="383.81" y1="153.67" x2="301.07" y2="169.21" xlink:href="#linear-gradient-7"/><filter id="luminosity-noclip-10" x="62.43" y="85.59" width="38.11" height="56.89" filterUnits="userSpaceOnUse" color-interpolation-filters="sRGB"><feFlood flood-color="#fff" result="bg"/><feBlend in="SourceGraphic" in2="bg"/></filter><mask id="mask-10" x="62.43" y="85.59" width="38.11" height="56.89" maskUnits="userSpaceOnUse"><g class="cls-9"><path class="cls-10" d="M100.22,142.1l-.09-.09a60.58,60.58,0,0,0-5.79-23.67A88,88,0,0,0,79.65,96.62c-.58-.65-1.18-1.29-1.78-1.93a10.47,10.47,0,0,1-1.22,6.25q.8,2.1,1.5,4.23a.24.24,0,0,1,0,.16c.59,1.77,1.14,3.54,1.68,5.31l.36,1.21c2-2.81,2.58-6.29,2.74-9.69a.27.27,0,0,1,.53,0c-.17,3.62-.8,7.35-3.08,10.29q1.47,5.07,2.62,10.21a22.16,22.16,0,0,0,4.76-14.39c0-.34.53-.3.54,0a22.62,22.62,0,0,1-5.16,15c.47,2.12.89,4.26,1.27,6.4a70.47,70.47,0,0,0-6.65-3,34.65,34.65,0,0,1-4.08-3.57c-3.32-3.32-6.33-6.92-9.32-10.52-.22-.26.18-.61.4-.34,2.78,3.33,5.57,6.67,8.6,9.78s6.17,6,10.38,6.88c-.33-1.8-.68-3.59-1.07-5.38a.24.24,0,0,1-.14-.39l0,0c-.32-1.5-.67-3-1-4.48a.11.11,0,0,1-.08,0c-6-3.52-9.58-9.56-13-15.38-.17-.29.32-.52.49-.22,3.27,5.6,6.74,11.41,12.39,14.92q-1.62-6.36-3.74-12.56a31.5,31.5,0,0,1-10-10.59c-.17-.3.32-.52.49-.23a30.73,30.73,0,0,0,9.26,10c-.33-1-.67-1.89-1-2.83-.07-.2-.14-.4-.22-.6a.25.25,0,0,1-.1-.28,58.07,58.07,0,0,0-5.51-11.25c-.19-.28.22-.63.4-.34a57.85,57.85,0,0,1,5.48,11,11.16,11.16,0,0,0,.92-6.08.16.16,0,0,1,0-.1c-2.64-2.77-5.4-5.43-8.24-8-2.54,3-3.56,6.94-4.28,10.75A110.76,110.76,0,0,0,63,109.68a68.43,68.43,0,0,0,0,9.92l-.41-.13a70.55,70.55,0,0,1-.1-8.48,104.44,104.44,0,0,1,1.71-13.18c.76-4.23,1.75-8.62,4.59-12,0-.16.17-.33.32-.19a121.79,121.79,0,0,1,18.08,19.75A73.6,73.6,0,0,1,98.58,128.8a56.56,56.56,0,0,1,2,13.68Z"/></g></mask><linearGradient id="linear-gradient-10" x1="3066.6" y1="98.07" x2="3059.51" y2="125.27" gradientTransform="matrix(-1, 0, 0, 1, 3140.41, 0)" xlink:href="#linear-gradient-7"/><filter id="luminosity-noclip-11" x="3.5" y="146.05" width="54.52" height="33.64" filterUnits="userSpaceOnUse" color-interpolation-filters="sRGB"><feFlood flood-color="#fff" result="bg"/><feBlend in="SourceGraphic" in2="bg"/></filter><mask id="mask-11" x="3.5" y="146.05" width="54.52" height="33.64" maskUnits="userSpaceOnUse"><g class="cls-11"><path class="cls-12" d="M3.62,154.65a123.48,123.48,0,0,1,25.5-7.55,84.72,84.72,0,0,1,9.4-1l.15.38A92.64,92.64,0,0,0,18,150.05c-.84.24-1.67.49-2.5.75a10.17,10.17,0,0,1,5,3.75c1.48.13,3,.29,4.43.48a.29.29,0,0,1,.16,0c1.83.24,3.64.51,5.45.79l1.23.2c-1.6-3-4.44-5-7.38-6.57-.3-.16,0-.61.27-.45,3.13,1.7,6.16,3.85,7.76,7.12q5.14.87,10.22,2.05A21.46,21.46,0,0,0,32,147.83c-.31-.14,0-.59.27-.46a21.94,21.94,0,0,1,11,11c1.48.35,3,.72,4.43,1.12.2.24.41.47.62.71q-2.49-.69-5-1.29a.24.24,0,0,1-.41,0l0-.06q-2.22-.53-4.44-1l-.06.06c-5.76,3.77-12.71,4.38-19.37,4.9-.34,0-.33-.5,0-.52,6.42-.5,13.1-1.09,18.7-4.59q-6.34-1.28-12.79-2.06a31.53,31.53,0,0,1-13.82,4.35c-.34,0-.32-.49,0-.52a31,31,0,0,0,13-3.93l-3-.31-.63-.06a.23.23,0,0,1-.29,0,57.3,57.3,0,0,0-12.42.07c-.33,0-.46-.47-.12-.51a58,58,0,0,1,12.15-.16,10.94,10.94,0,0,0-5-3.41l-.08-.06c-3.63,1.15-7.2,2.46-10.73,3.88,1.58,3.55,4.59,6.11,7.66,8.38a105.58,105.58,0,0,0,10.56,7.07,68.46,68.46,0,0,0,35.6,8.91c.25,0,.21.39,0,.39a68.83,68.83,0,0,1-34.61-8.31,101.36,101.36,0,0,1-10.95-7.15C8.84,161.72,5.37,159,3.65,155A.2.2,0,0,1,3.62,154.65Z"/></g></mask><linearGradient id="linear-gradient-11" x1="3146.6" y1="153.42" x2="3082.22" y2="165.51" gradientTransform="matrix(-1, 0, 0, 1, 3140.41, 0)" xlink:href="#linear-gradient-7"/><filter id="luminosity-noclip-12" x="25.24" y="160.35" width="23.61" height="10.08" filterUnits="userSpaceOnUse" color-interpolation-filters="sRGB"><feFlood flood-color="#fff" result="bg"/><feBlend in="SourceGraphic" in2="bg"/></filter><mask id="mask-12" x="25.24" y="160.35" width="23.61" height="10.08" maskUnits="userSpaceOnUse"><g class="cls-3"><path class="cls-4" d="M39,166.66c-4.4,1.52-8.92,2.64-13.44,3.75a.26.26,0,0,1-.12-.5c4.18-1,8.37-2.07,12.47-3.43,3.88-1.28,8-2.86,10.59-6.13.12.13.24.25.35.38C46.35,163.78,42.67,165.4,39,166.66Z"/></g></mask><linearGradient id="linear-gradient-12" x1="3147.32" y1="157.14" x2="3082.9" y2="169.24" gradientTransform="matrix(-1, 0, 0, 1, 3140.41, 0)" xlink:href="#linear-gradient-7"/><linearGradient id="linear-gradient-13" x1="230.75" y1="213.79" x2="370.08" y2="213.79" gradientUnits="userSpaceOnUse"><stop offset="0" stop-color="#eaedfc"/><stop offset="0.84" stop-color="#aed1fc"/></linearGradient><linearGradient id="linear-gradient-14" x1="239.63" y1="196.15" x2="270.96" y2="40.82" xlink:href="#linear-gradient-13"/><linearGradient id="linear-gradient-15" x1="142.11" y1="239.34" x2="-3.89" y2="176.68" xlink:href="#linear-gradient-13"/><linearGradient id="linear-gradient-16" x1="131.96" y1="203.3" x2="97.96" y2="35.3" xlink:href="#linear-gradient-13"/><linearGradient id="linear-gradient-17" x1="184.07" y1="60.2" x2="184.07" y2="300.33" gradientUnits="userSpaceOnUse"><stop offset="0.02" stop-color="#fff"/><stop offset="1" stop-color="#dcd6e8"/></linearGradient><linearGradient id="linear-gradient-18" x1="205.94" y1="241.93" x2="187.6" y2="223.59" xlink:href="#linear-gradient-17"/><linearGradient id="linear-gradient-19" x1="235.71" y1="257.9" x2="235.71" y2="241.17" xlink:href="#linear-gradient-17"/><linearGradient id="linear-gradient-20" x1="32.47" y1="147.15" x2="47.16" y2="147.15" gradientTransform="matrix(1, 0, -0.05, 1, 84.42, -0.69)" gradientUnits="userSpaceOnUse"><stop offset="0" stop-color="#eaedfc"/><stop offset="0.84" stop-color="#cae0fc"/></linearGradient><linearGradient id="Безымянный_градиент_73" x1="69.23" y1="63.01" x2="69.23" y2="24.77" gradientUnits="userSpaceOnUse"><stop offset="0.07" stop-color="#fff"/><stop offset="0.73" stop-color="#e2e2e2"/><stop offset="1" stop-color="#cfcfcf"/></linearGradient><linearGradient id="Безымянный_градиент_73-2" x1="348.32" y1="106.38" x2="348.32" y2="68.14" xlink:href="#Безымянный_градиент_73"/><linearGradient id="Безымянный_градиент_73-3" x1="23.85" y1="122.94" x2="23.85" y2="91.92" xlink:href="#Безымянный_градиент_73"/></defs><title>4</title><g class="cls-13"><g id="User"><g id="_1-3" data-name="1"><rect class="cls-14" x="-0.1" width="370.52" height="310"/><g class="cls-15"><path d="M57.75,242.78a138.55,138.55,0,0,0,17.14,16.81,216.08,216.08,0,0,0,230.56,30.15c9.67-4.52,16.69-14.55,20.45-24.55,2.1-5.55,1.85-12.4-2.17-16.77-4.21-4.59-12.18-6.44-13.1-12.6-1-6.68,7.1-10.45,13.22-13.3,33.76-15.67,65-107.54,27.29-116.21-39.5-9.08,3.91-39.7-15.72-81.39-15.3-32.5-271.7,29.27-280,76.31-3,17-16.73,15.17-28.5,27.75-12.12,13-6.88,33.73-.9,50.43C35.31,205.26,42.25,224.51,57.75,242.78Z"/></g><g id="bg_obj"><g class="cls-16"><path class="cls-17" d="M257.5,130.16l.12-.12a78.11,78.11,0,0,1,7.44-30.4,113,113,0,0,1,18.86-27.89c.76-.84,1.52-1.66,2.29-2.48-.11,2.79,0,5.61,1.57,8-.68,1.8-1.32,3.62-1.93,5.44a.31.31,0,0,0-.07.2c-.75,2.27-1.46,4.55-2.15,6.82-.16.52-.31,1-.46,1.56-2.6-3.61-3.31-8.08-3.53-12.44a.34.34,0,0,0-.68,0c.23,4.65,1,9.44,4,13.21q-1.89,6.5-3.36,13.12a28.46,28.46,0,0,1-6.12-18.48c0-.44-.67-.39-.69,0a29,29,0,0,0,6.63,19.28q-.9,4.09-1.63,8.22a91.7,91.7,0,0,1,8.54-3.8,44.84,44.84,0,0,0,5.24-4.59c4.26-4.25,8.12-8.88,12-13.5.28-.34-.24-.78-.52-.44-3.57,4.28-7.15,8.57-11.05,12.56-3.72,3.82-7.92,7.71-13.32,8.83.42-2.31.87-4.61,1.37-6.9a.31.31,0,0,0,.18-.5l-.06-.07q.64-2.88,1.35-5.75l.1,0c7.66-4.53,12.3-12.28,16.66-19.75.22-.38-.4-.67-.62-.29-4.2,7.2-8.66,14.65-15.91,19.16q2.07-8.16,4.8-16.13a40.23,40.23,0,0,0,12.89-13.6c.22-.38-.4-.67-.62-.29A39.44,39.44,0,0,1,286.85,82c.43-1.21.86-2.43,1.31-3.63.09-.26.19-.51.28-.76a.34.34,0,0,0,.14-.36,74.41,74.41,0,0,1,7.07-14.45c.24-.36-.28-.81-.52-.44a75,75,0,0,0-7,14.08c-1.32-2.38-1.3-5.14-1.17-7.82a.27.27,0,0,0,0-.13c3.39-3.56,6.93-7,10.58-10.25,3.27,3.89,4.58,8.91,5.5,13.8a140.64,140.64,0,0,1,2.33,16.45,87.25,87.25,0,0,1,0,12.73l.52-.17a87.79,87.79,0,0,0,.14-10.88,133.8,133.8,0,0,0-2.2-16.93c-1-5.43-2.25-11.08-5.9-15.39,0-.21-.22-.42-.41-.25A157.32,157.32,0,0,0,274.2,83a94.39,94.39,0,0,0-14.59,30.07,73.44,73.44,0,0,0-2.53,17.57Z"/></g><path class="cls-14" d="M353.28,91.35c.21-.23.09-.7-.29-.65C336,93,319.18,96.46,303.11,102.35c-15.66,5.73-30.55,13.79-43.26,24.63a108.27,108.27,0,0,0-18.59,20.37c-.28.4.3.9.58.5,9.38-13.45,22-24.39,36-32.78,14.43-8.59,30.37-14.42,46.66-18.38,1.63-.4,3.27-.77,4.9-1.13-2.49,3.33-4.71,6.91-4.84,11.16-2.36,1.63-4.68,3.32-7,5a.41.41,0,0,0-.25.19c-2.84,2.15-5.64,4.35-8.4,6.56L307.1,120c-.13-6.59,2.76-12.67,6.18-18.2.35-.56-.53-1.07-.88-.51-3.65,5.89-6.69,12.44-6.29,19.52q-7.8,6.39-15.19,13.27a42.26,42.26,0,0,1,8.09-27.8c.38-.53-.5-1-.89-.51A43.19,43.19,0,0,0,290,135c-4.57,4.29-9,8.71-13.33,13.26-.7.74-1.4,1.48-2.09,2.23,3.11-8.24,2.52-17.3,4.2-25.88.13-.64-.86-.91-1-.27-1.81,9.25-.91,19.17-5,27.87a.62.62,0,0,0-.05.32q-6.56,7.2-12.66,14.78c-.41.5.31,1.23.72.72a319.89,319.89,0,0,1,21.4-24l.07,0c7.28,3.1,15.24,2.3,22.82.89,8.81-1.65,17.45-4.09,26.07-6.52a.51.51,0,0,0-.27-1c-8,2.25-16,4.51-24.14,6.14-7.79,1.56-16.23,2.82-23.8-.34q3.71-3.72,7.52-7.32a.45.45,0,0,0,.63-.46.49.49,0,0,0,0-.12q3.21-3,6.51-5.92a.57.57,0,0,0,.15,0c13.22.87,25.45-4.75,37.1-10.25.59-.28.08-1.16-.51-.88-11.23,5.3-23,10.71-35.68,10.16q9.42-8.27,19.49-15.75a60.37,60.37,0,0,0,27.28-5.87c.59-.29.08-1.16-.51-.88a59.15,59.15,0,0,1-25.41,5.75c1.55-1.14,3.1-2.26,4.67-3.37l1-.69a.51.51,0,0,0,.47-.33A111.12,111.12,0,0,1,346.44,95.6c.6-.25.33-1.23-.27-1A111.67,111.67,0,0,0,325.66,106c.38-4,2.73-7.39,5.16-10.56a.48.48,0,0,0,.08-.18c7.16-1.52,14.38-2.73,21.63-3.7.72,7.52-1.91,14.75-4.91,21.54a211.68,211.68,0,0,1-11,22.11,132.83,132.83,0,0,1-51.27,49.22c-.43.24,0,.86.44.63a133.58,133.58,0,0,0,50.16-47.27,199,199,0,0,0,11.59-22.61C350.91,107.69,354.13,99.7,353.28,91.35Z"/><g class="cls-18"><path class="cls-19" d="M370.28,150.48a158.55,158.55,0,0,0-32.75-9.7,108.86,108.86,0,0,0-12.08-1.35c-.06.16-.12.33-.19.49a119.38,119.38,0,0,1,26.55,4.65q1.6.47,3.21,1c-2.53,1.1-5,2.42-6.43,4.82q-2.85.24-5.68.62a.27.27,0,0,0-.2,0c-2.35.3-4.69.65-7,1l-1.59.26c2.06-3.84,5.71-6.38,9.49-8.43.38-.21,0-.79-.35-.59-4,2.19-7.92,4.95-10,9.15q-6.6,1.11-13.12,2.64a27.58,27.58,0,0,1,13.7-13.32c.4-.17.05-.76-.35-.58a28.18,28.18,0,0,0-14.19,14.1q-2.85.68-5.69,1.43c-.26.31-.53.61-.8.92q3.19-.89,6.43-1.66a.31.31,0,0,0,.52,0l0-.08q2.83-.67,5.7-1.27a.23.23,0,0,0,.07.07c7.4,4.85,16.33,5.63,24.88,6.3.44,0,.42-.64,0-.67-8.25-.64-16.82-1.4-24-5.88q8.15-1.67,16.42-2.65a40.69,40.69,0,0,0,17.75,5.59c.44,0,.42-.65,0-.68a39.76,39.76,0,0,1-16.62-5c1.26-.14,2.53-.28,3.8-.4l.8-.07a.33.33,0,0,0,.38,0,73.87,73.87,0,0,1,15.94.09c.43.05.59-.6.16-.65a75.3,75.3,0,0,0-15.6-.21c1.53-2.18,4-3.35,6.42-4.38a.3.3,0,0,0,.11-.07c4.65,1.47,9.24,3.16,13.77,5-2,4.55-5.89,7.85-9.83,10.76a138.77,138.77,0,0,1-13.56,9.09,87.65,87.65,0,0,1-28.74,10.22,88.58,88.58,0,0,1-17,1.22c-.32,0-.27.49.05.5A89.18,89.18,0,0,0,331.12,178a87.69,87.69,0,0,0,14-6.1,131.34,131.34,0,0,0,14.05-9.18c4.38-3.18,8.84-6.72,11.05-11.8A.24.24,0,0,0,370.28,150.48Z"/></g><g class="cls-20"><path class="cls-21" d="M324.83,165.9c5.66,2,11.47,3.39,17.27,4.82a.33.33,0,0,0,.16-.65c-5.38-1.33-10.76-2.66-16-4.4-5-1.65-10.23-3.67-13.61-7.88l-.45.5C315.4,162.2,320.13,164.28,324.83,165.9Z"/></g><g class="cls-22"><path class="cls-23" d="M100.22,142.1l-.09-.09a60.58,60.58,0,0,0-5.79-23.67A88,88,0,0,0,79.65,96.62c-.58-.65-1.18-1.29-1.78-1.93a10.47,10.47,0,0,1-1.22,6.25q.8,2.1,1.5,4.23a.24.24,0,0,1,0,.16c.59,1.77,1.14,3.54,1.68,5.31l.36,1.21c2-2.81,2.58-6.29,2.74-9.69a.27.27,0,0,1,.53,0c-.17,3.62-.8,7.35-3.08,10.29q1.47,5.07,2.62,10.21a22.16,22.16,0,0,0,4.76-14.39c0-.34.53-.3.54,0a22.62,22.62,0,0,1-5.16,15c.47,2.12.89,4.26,1.27,6.4a70.47,70.47,0,0,0-6.65-3,34.65,34.65,0,0,1-4.08-3.57c-3.32-3.32-6.33-6.92-9.32-10.52-.22-.26.18-.61.4-.34,2.78,3.33,5.57,6.67,8.6,9.78s6.17,6,10.38,6.88c-.33-1.8-.68-3.59-1.07-5.38a.24.24,0,0,1-.14-.39l0,0c-.32-1.5-.67-3-1-4.48a.11.11,0,0,1-.08,0c-6-3.52-9.58-9.56-13-15.38-.17-.29.32-.52.49-.22,3.27,5.6,6.74,11.41,12.39,14.92q-1.62-6.36-3.74-12.56a31.5,31.5,0,0,1-10-10.59c-.17-.3.32-.52.49-.23a30.73,30.73,0,0,0,9.26,10c-.33-1-.67-1.89-1-2.83-.07-.2-.14-.4-.22-.6a.25.25,0,0,1-.1-.28,58.07,58.07,0,0,0-5.51-11.25c-.19-.28.22-.63.4-.34a57.85,57.85,0,0,1,5.48,11,11.16,11.16,0,0,0,.92-6.08.16.16,0,0,1,0-.1c-2.64-2.77-5.4-5.43-8.24-8-2.54,3-3.56,6.94-4.28,10.75A110.76,110.76,0,0,0,63,109.68a68.43,68.43,0,0,0,0,9.92l-.41-.13a70.55,70.55,0,0,1-.1-8.48,104.44,104.44,0,0,1,1.71-13.18c.76-4.23,1.75-8.62,4.59-12,0-.16.17-.33.32-.19a121.79,121.79,0,0,1,18.08,19.75A73.6,73.6,0,0,1,98.58,128.8a56.56,56.56,0,0,1,2,13.68Z"/></g><path class="cls-14" d="M25.64,111.88a.29.29,0,0,1,.24-.5,183.24,183.24,0,0,1,38.83,9.06,109.91,109.91,0,0,1,33.68,19.19,84.18,84.18,0,0,1,14.48,15.86c.22.31-.23.7-.45.38a90.11,90.11,0,0,0-28-25.51A131.45,131.45,0,0,0,48,116c-1.27-.31-2.54-.6-3.82-.88,1.95,2.6,3.67,5.38,3.78,8.69,1.83,1.27,3.64,2.59,5.42,3.93a.36.36,0,0,1,.19.15c2.21,1.67,4.39,3.39,6.54,5.1l1.46,1.19c.1-5.14-2.15-9.87-4.81-14.18-.27-.43.42-.83.69-.4,2.84,4.59,5.21,9.69,4.89,15.21q6.09,5,11.83,10.33a33,33,0,0,0-6.29-21.65c-.3-.41.38-.8.68-.4a33.58,33.58,0,0,1,6.35,22.74q5.34,5,10.38,10.32L87,157.93c-2.42-6.41-2-13.47-3.27-20.15-.1-.49.66-.71.76-.21,1.41,7.21.71,14.93,3.93,21.7a.45.45,0,0,1,0,.25q5.1,5.59,9.86,11.51c.32.39-.24.95-.56.56a247.76,247.76,0,0,0-16.66-18.67L81,153c-5.66,2.41-11.87,1.79-17.77.69-6.86-1.28-13.59-3.18-20.3-5.08a.39.39,0,0,1,.21-.76c6.23,1.76,12.46,3.52,18.8,4.79,6.07,1.21,12.64,2.18,18.53-.27q-2.88-2.9-5.85-5.7c-.24.07-.53,0-.5-.36a.31.31,0,0,0,0-.1c-1.66-1.56-3.35-3.09-5.06-4.61l-.12,0c-10.3.68-19.81-3.7-28.89-8-.46-.22-.06-.9.4-.68,8.75,4.12,17.9,8.33,27.78,7.9q-7.34-6.44-15.18-12.26A47,47,0,0,1,31.81,124c-.46-.22,0-.9.4-.69A46,46,0,0,0,52,127.78c-1.21-.88-2.42-1.76-3.64-2.62l-.77-.54a.38.38,0,0,1-.37-.26A87.2,87.2,0,0,0,31,115.19c-.46-.19-.26-1,.22-.76a87.5,87.5,0,0,1,16,8.85c-.31-3.13-2.13-5.76-4-8.23a.31.31,0,0,1-.07-.14c-5.57-1.18-11.19-2.12-16.84-2.88-.56,5.85,1.49,11.49,3.82,16.77A164.36,164.36,0,0,0,38.63,146a103.28,103.28,0,0,0,39.91,38.32c.34.19,0,.68-.33.49A103.86,103.86,0,0,1,39.15,148a154.6,154.6,0,0,1-9-17.61C27.49,124.61,25,118.39,25.64,111.88Z"/><g class="cls-24"><path class="cls-25" d="M3.62,154.65a123.48,123.48,0,0,1,25.5-7.55,84.72,84.72,0,0,1,9.4-1l.15.38A92.64,92.64,0,0,0,18,150.05c-.84.24-1.67.49-2.5.75a10.17,10.17,0,0,1,5,3.75c1.48.13,3,.29,4.43.48a.29.29,0,0,1,.16,0c1.83.24,3.64.51,5.45.79l1.23.2c-1.6-3-4.44-5-7.38-6.57-.3-.16,0-.61.27-.45,3.13,1.7,6.16,3.85,7.76,7.12q5.14.87,10.22,2.05A21.46,21.46,0,0,0,32,147.83c-.31-.14,0-.59.27-.46a21.94,21.94,0,0,1,11,11c1.48.35,3,.72,4.43,1.12.2.24.41.47.62.71q-2.49-.69-5-1.29a.24.24,0,0,1-.41,0l0-.06q-2.22-.53-4.44-1l-.06.06c-5.76,3.77-12.71,4.38-19.37,4.9-.34,0-.33-.5,0-.52,6.42-.5,13.1-1.09,18.7-4.59q-6.34-1.28-12.79-2.06a31.53,31.53,0,0,1-13.82,4.35c-.34,0-.32-.49,0-.52a31,31,0,0,0,13-3.93l-3-.31-.63-.06a.23.23,0,0,1-.29,0,57.3,57.3,0,0,0-12.42.07c-.33,0-.46-.47-.12-.51a58,58,0,0,1,12.15-.16,10.94,10.94,0,0,0-5-3.41l-.08-.06c-3.63,1.15-7.2,2.46-10.73,3.88,1.58,3.55,4.59,6.11,7.66,8.38a105.58,105.58,0,0,0,10.56,7.07,68.46,68.46,0,0,0,35.6,8.91c.25,0,.21.39,0,.39a68.83,68.83,0,0,1-34.61-8.31,101.36,101.36,0,0,1-10.95-7.15C8.84,161.72,5.37,159,3.65,155A.2.2,0,0,1,3.62,154.65Z"/></g><g class="cls-26"><path class="cls-27" d="M39,166.66c-4.4,1.52-8.92,2.64-13.44,3.75a.26.26,0,0,1-.12-.5c4.18-1,8.37-2.07,12.47-3.43,3.88-1.28,8-2.86,10.59-6.13.12.13.24.25.35.38C46.35,163.78,42.67,165.4,39,166.66Z"/></g></g><path id="floor" class="cls-28" d="M350.47,251.69c0,5.49-54.12,9.93-165.42,9.93s-165.41-4.44-165.41-9.93,54.11-9.93,165.41-9.93S350.47,246.21,350.47,251.69Z"/><g id="leafs"><path class="cls-29" d="M235.94,251.63c3,.16,77.16,10.27,134.14-69.29-19.44-8.7-74.12-16.19-129.66,24.14C221.68,235.58,235.94,251.63,235.94,251.63Z"/><path class="cls-14" d="M289.49,209.13a114.57,114.57,0,0,0,28.32,22.54L319,231a113.06,113.06,0,0,1-28.32-22.32q2.6-1,5.21-2.07a.6.6,0,0,0,.62-.2l.05-.06c2.83-1.1,5.68-2.16,8.54-3.2,6.51,9.42,17.17,14.43,27.69,18.37l1.12-.87c-10.44-3.85-21.08-8.7-27.62-17.93q9.84-3.53,19.86-6.62c4.06,7.08,11.57,11.49,19.27,14.67l1.06-1q-3-1.29-6-2.79c-5.2-2.66-10.17-6.1-13.15-11.24l1.08-.33,10-3a.56.56,0,0,0,.47-.14l11.72-3.57a45.43,45.43,0,0,0,9.1,7.1l.78-.92a44,44,0,0,1-8.57-6.58l9.06-2.77c.76-.23.29-1.35-.46-1.13-7.11,2.18-14.26,4.28-21.4,6.43.5-5.56,2.95-10.29,6.3-14.48l-1.42-.15a27.41,27.41,0,0,0-6.13,15c-11.51,3.47-23,7-34.26,11.18q-2.64,1-5.25,2a375.46,375.46,0,0,1,27.47-28.67l-1.87.09a378.9,378.9,0,0,0-28,29.51q-3.12,1.23-6.21,2.51a.69.69,0,0,0-.81.34c-4.26,1.78-8.48,3.62-12.67,5.56a222,222,0,0,1,24.39-34.73l-1.95.44a224.64,224.64,0,0,0-24.33,35.16q-10.9,5.13-21.47,11Q241.68,231.6,231,238.57c0,.46.12.9.18,1.34q2.31-1.5,4.63-3c3.35,5,6,10.13,10.34,14.41l.79.76,1.75,0c-.42-.39-.85-.78-1.26-1.18a40.5,40.5,0,0,1-6.13-7.32c-1.55-2.4-2.88-4.92-4.46-7.3q9.57-6,19.5-11.37c3.51,9.62,9.89,17.62,17.61,24.16l1.5-.33c-7.92-6.55-14.48-14.62-18-24.42q6.86-3.68,13.85-7.05c5.46,11.17,16,18.59,26.71,24.34q.72-.28,1.44-.6c-10.83-5.66-21.6-13.07-27.06-24.27l3.25-1.54Q282.47,212,289.49,209.13Z"/><path class="cls-30" d="M259.29,199.66c1.62-2.51,46.92-61.92,5.41-150.48-17.16,12.59-50.58,56.36-42.65,124.4C238.26,204.15,259.29,199.66,259.29,199.66Z"/><path class="cls-14" d="M248.49,132.29a114.79,114.79,0,0,0,33.62-13.49c0-.46,0-.93-.05-1.39A113.27,113.27,0,0,1,248.64,131c.24-1.85.49-3.69.75-5.54a.58.58,0,0,0,.13-.63l0-.07c.43-3,.91-6,1.41-9,11.43-1,21-7.8,29.66-15l-.21-1.4c-8.49,7.17-18,14-29.24,15.16q1.75-10.29,4-20.5c8.17,0,15.72-4.39,22.28-9.51-.11-.47-.23-.94-.35-1.41-1.76,1.34-3.55,2.62-5.39,3.82-4.88,3.21-10.33,5.83-16.28,5.89l.24-1.1q1.11-5.07,2.24-10.15a.54.54,0,0,0,.1-.47l2.64-11.93a45.68,45.68,0,0,0,10.68-4.4l-.42-1.14a43.84,43.84,0,0,1-10,4.21c.68-3.08,1.37-6.16,2.05-9.23.16-.77-1.05-.91-1.22-.16-1.6,7.25-3.27,14.49-4.91,21.74a27.09,27.09,0,0,1-9.55-12.58c-.27.38-.55.76-.82,1.15a27.38,27.38,0,0,0,10.09,12.7c-2.63,11.7-5.14,23.42-7.08,35.23-.3,1.84-.59,3.69-.86,5.53A375.18,375.18,0,0,1,237,84.29L236.17,86a379.39,379.39,0,0,0,12,38.82c-.3,2.2-.59,4.41-.85,6.62a.69.69,0,0,0-.11.88c-.54,4.56-1,9.13-1.37,13.71a222,222,0,0,1-18.36-38.23c-.19.63-.38,1.27-.56,1.91a223.6,223.6,0,0,0,18.75,38.4q-.88,12-1,24-.1,12.76.72,25.49c.42.18.84.34,1.25.5-.11-1.83-.22-3.65-.31-5.47,6-.45,11.79-.21,17.68-1.89l1.06-.32.83-1.52c-.54.17-1.09.35-1.64.51a40.92,40.92,0,0,1-9.42,1.72c-2.85.17-5.71.08-8.57.28q-.51-11.25-.34-22.51c10.13,1.68,20.26.08,29.76-3.4l.45-1.47c-9.61,3.66-19.89,5.38-30.19,3.64q.15-7.75.64-15.49c12.44.75,24.09-4.71,34.4-11.21.06-.51.13-1,.19-1.54-10.28,6.61-22,12.32-34.52,11.54.08-1.19.17-2.38.26-3.57C247.35,142.33,247.87,137.3,248.49,132.29Z"/><path class="cls-31" d="M242.6,256.82c2.48-1.68,67.55-38.57,64.3-136.27-20.74,4.86-68.74,32-88.26,97.7C221.49,252.7,242.6,256.82,242.6,256.82Z"/><path class="cls-14" d="M259.23,190.63a115,115,0,0,0,36.23.76l.51-1.29a113.6,113.6,0,0,1-36.1-.59c.95-1.6,1.9-3.21,2.87-4.8a.57.57,0,0,0,.37-.53v-.08q2.38-3.89,4.84-7.71c10.91,3.54,22.43,1.06,33.19-2.18l.36-1.37c-10.64,3.27-22.05,5.86-32.86,2.49q5.66-8.76,11.73-17.29c7.54,3.17,16.19,2.12,24.24,0,.08-.47.16-1,.23-1.44-2.13.55-4.29,1-6.45,1.41-5.76,1-11.8,1.32-17.3-1l.65-.92,6.06-8.45a.59.59,0,0,0,.29-.4l7.12-9.93a45.67,45.67,0,0,0,11.56.13l.06-1.21a44,44,0,0,1-10.82,0l5.52-7.69c.45-.64-.6-1.25-1.06-.62-4.33,6-8.72,12-13.08,18.07a26.85,26.85,0,0,1-3.82-15.31l-1.22.73A27.34,27.34,0,0,0,286.63,147c-7,9.73-14,19.53-20.4,29.63-1,1.57-2,3.16-3,4.75A375,375,0,0,1,267.6,142l-1.43,1.2a377.54,377.54,0,0,0-4.25,40.41q-1.73,2.85-3.4,5.75a.67.67,0,0,0-.44.76q-3.45,6-6.67,12.08a220.56,220.56,0,0,1-1.8-42.35c-.43.51-.86,1-1.28,1.54A223.07,223.07,0,0,0,250.44,204q-5.55,10.68-10.37,21.71-5.12,11.7-9.38,23.72c.32.33.64.65,1,.95q.91-2.58,1.87-5.15c5.71,1.94,10.92,4.43,17,5.19l1.1.12c.45-.34.9-.7,1.37-1.08-.57-.05-1.14-.1-1.71-.17a41.43,41.43,0,0,1-9.34-2.1c-2.69-1-5.29-2.17-8-3.1q4-10.55,8.56-20.84c8.65,5.52,18.59,8,28.71,8.53l1-1.17c-10.28-.41-20.41-2.84-29.2-8.48q3.19-7.07,6.69-14c11.15,5.56,24,5.1,36.06,3.16l.78-1.35c-12.06,2.06-25.12,2.7-36.29-2.89.54-1.07,1.09-2.13,1.64-3.19C254.23,199.41,256.69,195,259.23,190.63Z"/><path class="cls-32" d="M134.29,251.63c-3,.16-77.16,10.27-134.14-69.29,19.44-8.7,74.12-16.19,129.66,24.14C148.55,235.58,134.29,251.63,134.29,251.63Z"/><path class="cls-14" d="M80.74,209.13a114.57,114.57,0,0,1-28.32,22.54L51.23,231a113.06,113.06,0,0,0,28.32-22.32c-1.74-.7-3.47-1.39-5.21-2.07a.6.6,0,0,1-.62-.2l0-.06c-2.83-1.1-5.68-2.16-8.54-3.2-6.51,9.42-17.17,14.43-27.69,18.37l-1.12-.87c10.44-3.85,21.08-8.7,27.62-17.93q-9.86-3.53-19.86-6.62c-4.06,7.08-11.57,11.49-19.27,14.67l-1.06-1q3-1.29,6-2.79c5.2-2.66,10.17-6.1,13.15-11.24l-1.08-.33-10-3a.56.56,0,0,1-.47-.14l-11.72-3.57a45.43,45.43,0,0,1-9.1,7.1l-.78-.92a44,44,0,0,0,8.57-6.58l-9.07-2.77c-.75-.23-.28-1.35.47-1.13,7.11,2.18,14.26,4.28,21.4,6.43-.5-5.56-2.95-10.29-6.3-14.48l1.42-.15a27.41,27.41,0,0,1,6.13,15c11.51,3.47,23,7,34.26,11.18q2.64,1,5.25,2a375.46,375.46,0,0,0-27.47-28.67l1.87.09a378.9,378.9,0,0,1,28,29.51c2.08.82,4.14,1.66,6.21,2.51a.69.69,0,0,1,.81.34c4.26,1.78,8.48,3.62,12.67,5.56a222,222,0,0,0-24.39-34.73l2,.44a224.64,224.64,0,0,1,24.33,35.16q10.9,5.13,21.47,11,11.19,6.18,21.91,13.15c-.06.46-.12.9-.18,1.34q-2.31-1.5-4.63-3c-3.36,5-6,10.13-10.34,14.41-.26.26-.53.51-.8.76l-1.74,0c.42-.39.85-.78,1.26-1.18A40.5,40.5,0,0,0,129,243.6c1.55-2.4,2.88-4.92,4.46-7.3q-9.57-6-19.5-11.37c-3.51,9.62-9.89,17.62-17.61,24.16l-1.5-.33c7.92-6.55,14.48-14.62,18-24.42Q106,220.66,99,217.29c-5.46,11.17-16,18.59-26.71,24.34q-.72-.28-1.44-.6c10.83-5.66,21.6-13.07,27.06-24.27l-3.25-1.54Q87.76,212,80.74,209.13Z"/><path class="cls-33" d="M110.81,199.66c-1.62-2.51-46.92-61.92-5.41-150.48,17.16,12.59,50.58,56.36,42.65,124.4C131.84,204.15,110.81,199.66,110.81,199.66Z"/><path class="cls-14" d="M121.61,132.29A114.79,114.79,0,0,1,88,118.8c0-.46,0-.93.05-1.39A113.27,113.27,0,0,0,121.46,131c-.24-1.85-.49-3.69-.75-5.54a.58.58,0,0,1-.13-.63l0-.07c-.43-3-.91-6-1.41-9-11.43-1-21-7.8-29.66-15l.21-1.4c8.49,7.17,18,14,29.24,15.16q-1.76-10.29-4-20.5c-8.17,0-15.72-4.39-22.28-9.51.11-.47.23-.94.35-1.41,1.76,1.34,3.55,2.62,5.39,3.82,4.88,3.21,10.33,5.83,16.28,5.89l-.24-1.1q-1.11-5.07-2.24-10.15a.54.54,0,0,1-.1-.47l-2.64-11.93a45.68,45.68,0,0,1-10.68-4.4l.42-1.14a43.84,43.84,0,0,0,10,4.21c-.68-3.08-1.37-6.16-2-9.23-.16-.77,1-.91,1.22-.16,1.6,7.25,3.27,14.49,4.91,21.74a27.09,27.09,0,0,0,9.55-12.58c.27.38.55.76.82,1.15a27.38,27.38,0,0,1-10.09,12.7c2.63,11.7,5.14,23.42,7.08,35.23.3,1.84.59,3.69.86,5.53a375.18,375.18,0,0,0,11.55-37.94l.84,1.66a379.39,379.39,0,0,1-12,38.82c.3,2.2.59,4.41.85,6.62a.69.69,0,0,1,.11.88c.54,4.56,1,9.13,1.37,13.71a222,222,0,0,0,18.36-38.23c.19.63.38,1.27.56,1.91a223.6,223.6,0,0,1-18.75,38.4q.89,12,1,24,.11,12.76-.72,25.49c-.42.18-.84.34-1.25.5.11-1.83.22-3.65.31-5.47-6-.45-11.79-.21-17.68-1.89l-1.06-.32-.83-1.52c.54.17,1.09.35,1.64.51a40.92,40.92,0,0,0,9.42,1.72c2.85.17,5.71.08,8.57.28q.51-11.25.34-22.51c-10.13,1.68-20.26.08-29.76-3.4L93.91,164c9.61,3.66,19.89,5.38,30.19,3.64q-.15-7.75-.64-15.49c-12.44.75-24.09-4.71-34.4-11.21-.06-.51-.13-1-.19-1.54,10.28,6.61,22,12.32,34.52,11.54-.08-1.19-.17-2.38-.26-3.57C122.75,142.33,122.23,137.3,121.61,132.29Z"/><path class="cls-31" d="M127.5,256.82C125,255.14,60,218.25,63.2,120.55c20.74,4.86,68.74,32,88.26,97.7C148.61,252.7,127.5,256.82,127.5,256.82Z"/><path class="cls-14" d="M110.87,190.63a115,115,0,0,1-36.23.76l-.51-1.29a113.6,113.6,0,0,0,36.1-.59c-1-1.6-1.9-3.21-2.87-4.8a.57.57,0,0,1-.37-.53v-.08q-2.38-3.89-4.84-7.71c-10.91,3.54-22.43,1.06-33.19-2.18l-.36-1.37c10.64,3.27,22.05,5.86,32.86,2.49Q95.81,166.57,89.73,158c-7.54,3.17-16.19,2.12-24.24,0-.08-.47-.16-1-.23-1.44,2.13.55,4.29,1,6.45,1.41,5.76,1,11.8,1.32,17.3-1l-.65-.92-6.06-8.45a.59.59,0,0,1-.29-.4l-7.12-9.93a45.67,45.67,0,0,1-11.56.13l-.06-1.21a44,44,0,0,0,10.82,0l-5.52-7.69c-.45-.64.6-1.25,1.06-.62C74,134,78.35,140,82.71,146a26.85,26.85,0,0,0,3.82-15.31l1.22.73A27.34,27.34,0,0,1,83.47,147c7,9.73,14,19.53,20.4,29.63,1,1.57,2,3.16,3,4.75A375,375,0,0,0,102.5,142l1.43,1.2a377.54,377.54,0,0,1,4.25,40.41q1.72,2.85,3.4,5.75a.67.67,0,0,1,.44.76q3.45,6,6.67,12.08a220.56,220.56,0,0,0,1.8-42.35c.43.51.86,1,1.28,1.54A223.07,223.07,0,0,1,119.66,204q5.55,10.68,10.37,21.71,5.11,11.7,9.38,23.72c-.32.33-.64.65-1,.95q-.91-2.58-1.87-5.15c-5.71,1.94-10.92,4.43-17,5.19l-1.1.12c-.45-.34-.9-.7-1.37-1.08.57-.05,1.14-.1,1.71-.17a41.43,41.43,0,0,0,9.34-2.1c2.69-1,5.29-2.17,8-3.1q-4-10.55-8.56-20.84c-8.65,5.52-18.59,8-28.71,8.53l-1-1.17c10.28-.41,20.41-2.84,29.2-8.48q-3.19-7.07-6.69-14c-11.15,5.56-24,5.1-36.06,3.16L83.57,210c12.06,2.06,25.12,2.7,36.29-2.89-.54-1.07-1.09-2.13-1.64-3.19C115.87,199.41,113.41,195,110.87,190.63Z"/></g><g id="phone"><path class="cls-34" d="M124.74,93.76h0a2.26,2.26,0,0,1-2.26-2.26V78.59a2.26,2.26,0,0,1,2.26-2.25h0A2.26,2.26,0,0,1,127,78.59V91.5A2.27,2.27,0,0,1,124.74,93.76Z"/><path class="cls-34" d="M124.74,113.31h0a2.26,2.26,0,0,1-2.26-2.26V98.14a2.26,2.26,0,0,1,2.26-2.26h0A2.27,2.27,0,0,1,127,98.14v12.91A2.27,2.27,0,0,1,124.74,113.31Z"/><rect class="cls-34" x="124.4" y="51.76" width="119.34" height="234" rx="22.12" ry="22.12"/><path class="cls-35" d="M126.06,65V261a8.33,8.33,0,0,0,8.33,8.33h99.36a8.33,8.33,0,0,0,8.33-8.33V72.1a7.67,7.67,0,0,0-7.64-7.62H133.62A7.55,7.55,0,0,0,126.06,72Z"/><path class="cls-34" d="M211.29,67.78H156.84a6,6,0,0,1-6-6h0a6,6,0,0,1,6-6h54.45a6,6,0,0,1,6,6h0A6,6,0,0,1,211.29,67.78Z"/><path class="cls-28" d="M181.86,261.41c21,0,41.25-.12,60.23-.34V240.84c-19-.22-39.22-.34-60.23-.34-19.41,0-38.17.1-55.87.29v20.32C143.69,261.31,162.45,261.41,181.86,261.41Z"/><g id="guys"><path class="cls-36" d="M216.73,211.67a2.89,2.89,0,0,1,1.64-.06c.91.22,10-.61,9.41-5s-6.75-1.51-7.13-1.31a6.43,6.43,0,0,0-2.17,2.85c-.36,1.26-2.32.91-2.32.91Z"/><rect class="cls-37" x="153.73" y="241.99" width="58.6" height="3.03"/><rect class="cls-37" x="141.29" y="227.5" width="17.33" height="21.42" rx="4.38" ry="4.38"/><rect class="cls-37" x="210.16" y="227.5" width="17.33" height="21.42" rx="4.38" ry="4.38" transform="translate(437.66 476.42) rotate(180)"/><path class="cls-38" d="M225.86,239.48c.08-.48,1.12-16.71,1.07-19a2.93,2.93,0,0,0-1.79-2.88c-.34-.34-.36-1-.46-1.4s-2.7-1.52-4.06-2a4,4,0,0,1-2.07-1.53,2,2,0,0,0-1.16-.54l-11.3-4.16-21.77.21-21.77-.21-11.3,4.16a2,2,0,0,0-1.16.54,4,4,0,0,1-2.07,1.53c-1.36.49-4,1.6-4.06,2s-.12,1.06-.46,1.4a2.91,2.91,0,0,0-1.79,2.88c-.05,2.33,1,18.56,1.07,19s-.77,3.37,4.54,4.07c5.16.68,35.18.58,37,.57s31.84.11,37-.57C226.63,242.85,225.79,240,225.86,239.48Z"/><path class="cls-39" d="M218.55,212.62a4,4,0,0,0,2.07,1.53c1.36.49,4,1.6,4.06,2a8.51,8.51,0,0,1-4.29,5.21C217,223,203.52,225.06,204,224.69s8.71-5.26,13.37-12.61A2,2,0,0,1,218.55,212.62Z"/><path class="cls-14" d="M204,225c0-.34,4.34-1.9,8.69-3.08,3.81-1,6.61-1.75,7.4-1.08,1.68,1.45,1.71,5.27,1,6s-1.45,1.3-3.8,1.27-8.28-.06-9.17-.39S204.11,226.34,204,225Z"/><path class="cls-39" d="M150.09,212.62a4,4,0,0,1-2.07,1.53c-1.36.49-4,1.6-4.06,2a8.51,8.51,0,0,0,4.29,5.21c3.43,1.63,16.87,3.69,16.37,3.32s-8.71-5.26-13.37-12.61A2,2,0,0,0,150.09,212.62Z"/><path class="cls-39" d="M208.4,211c-.51,0-22-2.62-24.14-2.88v0h-.17v0c-2.15.26-23.63,2.88-24.14,2.88s-8,1.11-8,1.11S163,224,167,225.3c5.42.33,16.13,0,17.19,0s11.78.33,17.19,0c4-1.34,15.07-13.16,15.07-13.16S208.93,211,208.4,211Z"/><path class="cls-37" d="M152.06,212.14s10.95,2.62,30.42,2.62a206.41,206.41,0,0,0,33.91-2.6c-.81.05-13.57-.34-16.58,0s-16.15.44-16.15.44-11.64-.9-13.33-1-7.56,0-7.56,0Z"/><path class="cls-36" d="M208.17,193.15c-4.25-2.05-23.32-1.9-23.76-1.9s-19.52-.15-23.77,1.9-9.39,18.93-9.39,18.93S179.07,214,184.41,214s33.15-1.89,33.15-1.89S212.43,195.21,208.17,193.15Z"/><path class="cls-40" d="M152.06,212.14c4.61.31,27.55,1.83,32.35,1.83s27.72-1.52,32.35-1.83c-.86-2.59-5.58-16.35-9.34-18.16-4.14-2-22.59-1.85-23-1.85s-18.87-.14-23,1.85C157.63,195.79,152.92,209.55,152.06,212.14Z"/><path class="cls-41" d="M184.41,214c3.53,0,16.81-.84,26-1.46-1.56-4.8-4.39-12.56-6.76-13.86-3.47-1.89-18.9-1.75-19.25-1.75s-15.79-.14-19.26,1.75c-2.37,1.3-5.2,9.07-6.75,13.86C167.57,213.13,180.81,214,184.41,214Z"/><path class="cls-42" d="M184.41,214c3.15,0,14.05-.67,22.9-1.25l-.67-4a4.73,4.73,0,0,0-4.67-3.95H165.75a4.72,4.72,0,0,0-4.66,3.95l-.66,4C169.42,213.25,181.06,214,184.41,214Z"/><path class="cls-43" d="M191.3,213.72a19.87,19.87,0,0,0,2.88-5.13c1.32-3.72,2.49-6.79,5.31-6.82s4,3.1,5.32,6.82a6.36,6.36,0,0,0,5,4C204.18,213,196.76,213.44,191.3,213.72Z"/><path class="cls-43" d="M177.83,213.72a19.58,19.58,0,0,1-2.88-5.13c-1.32-3.72-2.5-6.79-5.32-6.82s-4,3.1-5.32,6.82a6.35,6.35,0,0,1-5,4C164.94,213,172.36,213.44,177.83,213.72Z"/><path class="cls-42" d="M195.39,212.91a4.56,4.56,0,0,1,0-.54,4.38,4.38,0,0,1,8.76,0c0,.14,0,.29,0,.43.48-.05,1-.09,1.46-.11v-.32a5.82,5.82,0,0,0-11.64,0q0,.3,0,.6C194.42,212.93,194.9,212.92,195.39,212.91Z"/><path class="cls-44" d="M215.49,212.22h.26l.53,0h.48l-.07-.2c0-.08-.05-.16-.08-.24v0c-1.16-3.43-5.6-16-9.18-17.7-4.14-2-22.59-1.85-23-1.85s-18.87-.14-23,1.85c-3.76,1.81-8.47,15.57-9.33,18.16l1.46.09h0c6.74.45,26.48,1.74,30.89,1.74S208.93,212.66,215.49,212.22Zm-60.9-3.16c1.78-5,5-13.16,7.76-14.52,4-2,21.65-1.84,22.06-1.84s18.08-.14,22.06,1.84c2.78,1.39,6.11,9.87,7.86,14.84a5.6,5.6,0,0,1-2.79,1.72c-3.29,1.05-5.95-1.49-11.4-1.49s-6.76,3.15-9.77,3.23-30.6-1.59-33.5-2.13A2.93,2.93,0,0,1,154.59,209.06Z"/><rect class="cls-42" x="183.38" y="192.13" width="1.96" height="2.67"/><path class="cls-42" d="M186.94,197.64h-5a1.84,1.84,0,0,1-1.83-2l0-.46a.82.82,0,0,1,.82-.73h6.89a.81.81,0,0,1,.81.73l.06.46A1.85,1.85,0,0,1,186.94,197.64Z"/><path class="cls-36" d="M151.9,211.67a2.86,2.86,0,0,0-1.63-.06c-.92.22-10-.61-9.42-5s6.75-1.51,7.13-1.31a6.43,6.43,0,0,1,2.17,2.85c.36,1.26,2.33.91,2.33.91Z"/><path class="cls-45" d="M191.32,224.25c-2.77,0-5.3,0-6.38.06h-1.07c-1.08,0-3.61-.06-6.38-.06-9.84,0-10.39.49-10.65.72s-.5.71-.43,2.63a38,38,0,0,0,.48,4.49,16.87,16.87,0,0,0,2.39,6.37c.5.91,2.27,1.58,5.43,2.06a77.35,77.35,0,0,0,19.39,0c3.16-.48,4.93-1.15,5.43-2.06a17,17,0,0,0,2.4-6.37,42.81,42.81,0,0,0,.48-4.49c.06-1.92-.19-2.41-.44-2.63s-.81-.72-10.65-.72Z"/><path class="cls-14" d="M164.62,225c0-.63-15.4-5.61-17.09-4.16s-1.72,5.27-1,6,2.45,1.3,4.8,1.27,8.28-.06,9.17-.39S164.53,226.34,164.62,225Z"/><g class="cls-46"><path class="cls-14" d="M166.4,213.06l2.33.15c3.61-6.57,7.78-14.16,11.56-21.06l-2.63,0Z"/><path class="cls-14" d="M183.55,192.13h-1.39l-11.44,21.19,1.25.07C175.58,206.78,179.76,199.1,183.55,192.13Z"/><path class="cls-14" d="M200.21,192.66c-.81-.07-1.65-.13-2.5-.18l-11.58,21.46,2.44-.1C192.18,207.29,196.38,199.65,200.21,192.66Z"/><path class="cls-14" d="M203.27,193l-1.29-.16-11.28,20.9,1.32-.07C195.51,207.26,199.56,199.83,203.27,193Z"/></g><path class="cls-14" d="M183.74,227.11a4.35,4.35,0,0,0-3.59,4.51,4.19,4.19,0,0,0,.37,1.52,27.38,27.38,0,0,0,3.76,5.57.25.25,0,0,0,.18.08.27.27,0,0,0,.19-.08,33.36,33.36,0,0,0,2.62-3.51l-1.42-1.42a2.72,2.72,0,0,1-1.9.33,2.69,2.69,0,0,1-2.12-2,2.71,2.71,0,1,1,5.34-.84,2.68,2.68,0,0,1-.36,1.59L188,234c.15-.28.3-.57.43-.85a4.23,4.23,0,0,0,.38-1.77A4.33,4.33,0,0,0,183.74,227.11Z"/><path class="cls-36" d="M186.5,231.44a2,2,0,1,1-2-2A2,2,0,0,1,186.5,231.44Z"/><path class="cls-14" d="M182.89,231.44h.45a1.14,1.14,0,0,1,1.13-1.13v-.45A1.58,1.58,0,0,0,182.89,231.44Z"/></g></g><g id="shadow_" class="cls-47"><path class="cls-48" d="M139.24,163.33c-.07-1.25-.19-2.49-.36-3.73l.37-.09-.13-.75-.35.09-.12-.78c-.11-.58-.23-1.15-.35-1.72,0-.14-.07-.28-.1-.42-.23-1-.49-2-.8-3-.13-.43-.27-.85-.41-1.27s-.31-.85-.47-1.27-.33-.85-.52-1.27c-.09-.22-.18-.43-.29-.65l-.16-.34-.09-.18-.05-.1a.67.67,0,0,1-.06-.12,4.45,4.45,0,0,0-2.11-1.84c-2.21-2.5-3.9-2.68-4.3-2.7l-.2-.13-.27-.13-.26-.13-.2-.07h0l-.22-.06-.16-.06-.07,0-.54-.11-.51-.08a27.53,27.53,0,0,0,1.35-5.94,1.5,1.5,0,0,0,0-.2v-.08a1.41,1.41,0,0,0,0-.18v-.31h.33a3,3,0,0,0,3.15-2.64,2.33,2.33,0,0,0-.74-1.84,12.34,12.34,0,0,0,.38-5.65c-.52-4-2.21-7.17-3.78-7.17a1,1,0,0,0-.39.08,1.64,1.64,0,0,0-.7-.65,17,17,0,0,0-1.8-.8v88.9c1.55-3.69,3.1-7.59,4.26-11a5.05,5.05,0,0,0,1.23-1,4.72,4.72,0,0,0,1.2-4.08,3.78,3.78,0,0,0,.89-1.06,77.49,77.49,0,0,0,4.45-9.63c.62-1.65,1.19-3.33,1.66-5.06a33,33,0,0,0,1-5.39l.06-.72c0-.24,0-.48,0-.7l0-1.33c0-.44,0-.88,0-1.33S139.26,163.77,139.24,163.33Z"/></g><path id="shadow_2" data-name="shadow_" class="cls-49" d="M243.74,192.41c-.35.11-.63.21-.81.28a3.24,3.24,0,0,0-.68.06c-2.71.5-5.22,3.27-7.76,6.23a19.37,19.37,0,0,0-3.27,4.63l0,0h0a6.73,6.73,0,0,0-.63,2.2c-.24,3.28,1.55,8.28,1.21,12.27a14.53,14.53,0,0,1-1.4,5.79c-.73,1.1-5.06,9.14-.95,14.86,2.24,3.12,8.75,5.28,14.31,5.54Z"/><g id="guy_02"><path class="cls-34" d="M109.75,127.58a4.41,4.41,0,0,1-1.47-5.33c3.06-.11,3.78-.87,3.34.31s-1,2.32-1,2.32l-.61,1.41Z"/><path class="cls-50" d="M104.3,173.55h-.5l-.35,0-.57-.07c-.38,0-.7-.12-1-.19a16.66,16.66,0,0,1-1.85-.56l-.44-.16c-.15,0-.28-.12-.42-.18l-.83-.37q-.8-.41-1.56-.84a24,24,0,0,1-5.14-4.2l-.55-.58-.28-.29-.25-.31-1-1.22c-.34-.41-.62-.84-.92-1.26L87.7,162c-.53-.88-1.06-1.75-1.57-2.63l-1.4-2.69a3.48,3.48,0,0,1,1.51-4.58,3.28,3.28,0,0,1,4.36,1l.12.19,1.44,2.22c.51.7,1,1.39,1.55,2.09l.83,1c.28.32.54.66.85.95l.88.88.21.23.24.2.46.39a16.17,16.17,0,0,0,3.87,2.59l1,.42.5.16.24.08.24,0a6.77,6.77,0,0,0,.92.18c.12,0,.28,0,.38,0h.16s0,0,0,0h-.13a4.17,4.17,0,0,1,4.43,4.21A4.73,4.73,0,0,1,104.3,173.55Z"/><path class="cls-50" d="M106,149.52a139.23,139.23,0,0,0-4.77,15.09c-1.25,5.82,5.36,6.95,5.36,6.95s4-7.3,4-11.46-2.27-10.73-2.27-10.73Z"/><path class="cls-51" d="M106,149.52s-1.8,4.74-3.28,9.56c2.34,1.75,5.93,4.53,7,5.36a14,14,0,0,0,.85-4.34c0-4.16-2.27-10.73-2.27-10.73Z"/><path class="cls-34" d="M120.55,125.54c.45,4,2,7.17,3.34,7.17s2.16-3.21,1.71-7.17-1.95-7.17-3.35-7.17S120.1,121.58,120.55,125.54Z"/><path class="cls-52" d="M120.62,133a2.82,2.82,0,0,1,2.79-2.64,2.48,2.48,0,0,1,2.51,2.64,2.82,2.82,0,0,1-2.79,2.64A2.48,2.48,0,0,1,120.62,133Z"/><path class="cls-53" d="M122.84,241.24a14.2,14.2,0,0,0,.12,3.46c.24,2.11.77,4.89,1.09,5.12a6.72,6.72,0,0,0,1.91.28s.68-9,.52-9.37S122.84,241.24,122.84,241.24Z"/><path class="cls-37" d="M114.07,186.19l-1.09.46c-.93.4-8.78.68-9.7,1l-1.9,66.09,2.93.12,0,.24.06-.24.9,0s.59-3.59,1.49-9.22c1.51-5.95,3.23-12.91,3.54-15.09.56-4,.59-9.07.89-12.36.28-3.12,3.59-25.57,3.33-31.24Z"/><path class="cls-54" d="M124.81,244.36a2,2,0,0,0,1.1-2.47c-2.1-5.71-4.82-11.59-5.93-15.69a11.24,11.24,0,0,0-5.6-6.7s11.11-26.85,10.76-32.39c-.47-7.58-10.88-3.45-12.44-3.59C111.58,193.1,107,210,104.9,216a11.56,11.56,0,0,0-.61,3.41c0,1.25,2.55,4.77,3.26,5.79,2.74,3.92,10.28,11.36,14.92,18.53a1.85,1.85,0,0,0,2.33.64Z"/><path class="cls-53" d="M105.49,253.94a8.48,8.48,0,0,0-3.84-.16c-2.15.34-5,.81-5.28,1.15a1.64,1.64,0,0,0-.29.84s8.69-.1,9.09-.28S105.49,253.94,105.49,253.94Z"/><path class="cls-55" d="M103.23,187.86s.34-6.73.72-13.52c.56-9.88.41-21.87,2.38-25.74,3.33-6.52,9.42-7.25,15.69-6.14s5.76,14.57,3.27,45.38C122.11,186.87,103.23,187.86,103.23,187.86Z"/><path class="cls-56" d="M123.91,143.33a3.87,3.87,0,0,0-1.89-.87c-4.79-.85-9.46-.62-12.89,2.43,0,2.82,1,6.05,5.91,6.05S122.58,146.81,123.91,143.33Z"/><path class="cls-50" d="M122.84,135.64s-.76,12.81-7,12.81-1.29-10.52-2.86-14.32C115.66,134.28,122.84,135.64,122.84,135.64Z"/><path class="cls-50" d="M122,142.46c-4.12-.73-8.16-.67-11.39,1.31-.24,2.44-.09,6.23,4.71,6.23,4.54,0,6.65-4.33,7.56-7.29A4.24,4.24,0,0,0,122,142.46Z"/><path class="cls-52" d="M113.89,140h2.4a7.18,7.18,0,0,0,7.09-6.71l.27-5.12a6.6,6.6,0,0,0-6.67-7H109.8l-.74,13.77A4.78,4.78,0,0,0,113.89,140Z"/><path class="cls-50" d="M113.89,140h2.4a7.18,7.18,0,0,0,7.09-6.71l.27-5.12a6.6,6.6,0,0,0-6.67-7H109.8l-.74,13.77A4.78,4.78,0,0,0,113.89,140Z"/><path class="cls-34" d="M122.42,133.59s-1.62-5.56-1.54-6,.68-2.78.68-2.78-8.17,1.8-10.13,1.56-4.62-3.87-4.25-6.42a2.9,2.9,0,0,1,3.74-2.61c1.32.35,4.12-3.13,10.37.48,1.34.77.72,2.88,1.34,3.23s1.64,9.55,1.64,9.55Z"/><path class="cls-57" d="M84.29,147.44l4.94,13.3a1.15,1.15,0,0,0,1.42.69l5.25-1.49a.82.82,0,0,0,.56-1.07l-4.94-13.3a1.14,1.14,0,0,0-1.42-.69l-5.25,1.49A.83.83,0,0,0,84.29,147.44Z"/><path class="cls-58" d="M83.74,147.55l4.94,13.3a1.17,1.17,0,0,0,1.43.7l5.24-1.5a.82.82,0,0,0,.57-1.06L91,145.68a1.16,1.16,0,0,0-1.43-.69l-5.24,1.49A.83.83,0,0,0,83.74,147.55Z"/><path class="cls-59" d="M84.21,147.49l1,2.64a.25.25,0,0,0,.29.14l1-.3a.16.16,0,0,0,.11-.21l-1-2.64a.23.23,0,0,0-.28-.14l-1,.3A.16.16,0,0,0,84.21,147.49Z"/><path class="cls-50" d="M83.5,154.12a5.4,5.4,0,0,1,5.33-5,4.74,4.74,0,0,1,4.79,5,5.39,5.39,0,0,1-5.33,5A4.74,4.74,0,0,1,83.5,154.12Z"/><path class="cls-55" d="M121.63,154.92s-1.61,5.24,0-.47a61.84,61.84,0,0,0,2-11.27c.31,0,2.92.1,6,6.12-.77,6.9.47,6.49-1,10.95"/><path class="cls-50" d="M129.39,147.72c.08.19.12.27.18.4l.14.34.26.65c.16.42.31.84.46,1.27.28.84.55,1.69.77,2.54a47.68,47.68,0,0,1,1.11,5.15c.26,1.74.43,3.49.52,5.26,0,.44,0,.88,0,1.32s0,.89,0,1.33l0,1.33c0,.22,0,.46,0,.7l-.05.72a37.86,37.86,0,0,1-.93,5.39c-.42,1.73-.92,3.41-1.48,5.06a80.4,80.4,0,0,1-3.94,9.63,3.53,3.53,0,0,1-4.52,1.76,3.21,3.21,0,0,1-1.61-4.24v0a73.27,73.27,0,0,0,3.1-8.9c.41-1.49.77-3,1.05-4.47a29.13,29.13,0,0,0,.5-4.3v-.5c0-.17,0-.33,0-.52l0-1.1c0-.37,0-.74-.06-1.1s0-.74-.09-1.1a41.51,41.51,0,0,0-.68-4.33,39.41,39.41,0,0,0-1.15-4.2c-.22-.68-.47-1.35-.74-2-.13-.32-.26-.64-.4-1-.07-.15-.14-.31-.21-.45l-.11-.21s-.07-.15-.07-.14a4.58,4.58,0,0,1,2-6A4.3,4.3,0,0,1,129.39,147.72Z"/><path class="cls-50" d="M124.55,194c-1.77,2.25-4.85,2.2-7,.56a4.36,4.36,0,0,1-.83-6.51,5.17,5.17,0,0,1,7.13-1.1A5,5,0,0,1,124.55,194Z"/><path class="cls-51" d="M132.31,158.07a47.68,47.68,0,0,0-1.11-5.15c-.22-.85-.49-1.7-.77-2.54-.15-.43-.3-.85-.46-1.27l-.26-.65-.14-.34c-.06-.13-.1-.21-.18-.4a4.3,4.3,0,0,0-5.95-1.72,4.58,4.58,0,0,0-2,6s0,.09.07.14l.11.21c.07.14.14.3.21.45.14.31.27.63.4,1,.27.66.52,1.33.74,2a39.41,39.41,0,0,1,1.15,4.2c.11.52.21,1.05.3,1.57,1.72-.45,5.24-1.39,8.11-2.25C132.42,158.89,132.37,158.48,132.31,158.07Z"/><path class="cls-37" d="M115.82,188.65c.4.41,4.33,6.22,7.45,6.35a15.58,15.58,0,0,0-.8,3s-7.67-1.48-7.73-1.66a19.81,19.81,0,0,1-.16-4A34.47,34.47,0,0,1,115.82,188.65Z"/><path class="cls-60" d="M85.6,147.86a.43.43,0,0,1-.42.56.72.72,0,0,1-.66-.56.43.43,0,0,1,.42-.55A.72.72,0,0,1,85.6,147.86Z"/><path class="cls-60" d="M86.05,149.46a.36.36,0,0,1-.35.47.6.6,0,0,1-.55-.47.36.36,0,0,1,.35-.47A.59.59,0,0,1,86.05,149.46Z"/></g><g id="grl"><path class="cls-34" d="M236.79,223.61c-.83,1.19-5.9,10-2.32,16.21s21.86,9,23,1.78S255.88,227,255.88,227a34.61,34.61,0,0,0-2.84-5.8c-1.12-1.41-5.44-2.9-5.44-2.9s-5.37,1.12-5.74,1.71S236.79,223.61,236.79,223.61Z"/><path class="cls-61" d="M274.59,240.94h-.12c-4-.14-10.49-2.52-21.09-21.56-.21-.38-.44-.79-.56-1a3.44,3.44,0,0,1,5-4.67,7,7,0,0,1,1.59,2.32c9,16.12,13.7,18,15.31,18a3.43,3.43,0,0,1-.11,6.86ZM253.39,219Zm0,0Z"/><path class="cls-62" d="M259.39,216.05a7,7,0,0,0-1.59-2.32,3.44,3.44,0,0,0-5,4.67c.12.19.35.6.55,1a101.84,101.84,0,0,0,7.3,11.5l.2-.22,3.66-6.16C263,222.24,261.29,219.47,259.39,216.05Z"/><path class="cls-34" d="M259.35,197.59l-7-2.49-8.59.78s-4.53,4.44-5.08,8,.79,9,.08,13.39a18.18,18.18,0,0,1-1.94,6.32l6,.24c-.07-.89.26.14,1.41.14h4.93a4.75,4.75,0,0,0,1.21-1.56s4.77-1.4,6.17-4.36,3.75-12.53,3.75-12.53Z"/><path class="cls-34" d="M262.75,198.53l-3.26-3.14-3.38-2.24-1.91.95-3.71,5.43-9,1.3c-.2,2.14,0,4.33,0,6.47l0,1.93a8.14,8.14,0,0,1,6.36,3.36c2.92,4,2.75,3.64,6.4,3s5.51-.28,8.77-5.26S262.75,198.53,262.75,198.53Z"/><path class="cls-38" d="M258.94,215.06a3.83,3.83,0,0,0-3.15-1.77l-4.58,0-2.21.09-2.85,1.14c-3.08,1.23-4.5,4.56-3.42,8s5.76,11.78,5.76,11.78,1.63,12.82,1.75,13.19c4.89.26,10.34-1.67,15.39-1.53C266,245.19,259.88,216.5,258.94,215.06Z"/><path class="cls-34" d="M249,213.41s3.3,5.35,5.83,5.47c1.75-1.28,1.07-5.47,1.07-5.47s-1.15,3.14-1.26,3.14-1.6-.5-1.6-.5Z"/><path class="cls-62" d="M255,225.75a4.57,4.57,0,0,1,3.12-5.17,3.67,3.67,0,0,1,4.43,3.28,4.55,4.55,0,0,1-3.11,5.17A3.69,3.69,0,0,1,255,225.75Z"/><path class="cls-52" d="M244.15,235.56a4.51,4.51,0,0,1-3.46-1.22,3.73,3.73,0,0,1-.87-3.82c.52-1.57,2.27-8.68,3.32-13.07a3.44,3.44,0,0,1,6.69,1.58c-.18.75-1.28,5.35-2.24,9.1,3.21-.72,7.88-2,11.89-3.31a3.42,3.42,0,1,1,2.1,6.52c-.17.06-4.16,1.33-8.37,2.46S246.14,235.56,244.15,235.56Z"/><rect class="cls-54" x="258.2" y="218.86" width="7.43" height="11.15" rx="1.97" ry="1.97" transform="translate(523.83 448.87) rotate(180)"/><path class="cls-52" d="M266.7,227.39a5.06,5.06,0,0,0-5-4.74,4.45,4.45,0,0,0-4.5,4.74,5.07,5.07,0,0,0,5,4.74A4.46,4.46,0,0,0,266.7,227.39Z"/><path class="cls-52" d="M248.63,206.5l.35,6.91s5,4.3,5.45,4.43,1.75-3.42,1.45-4.43-.65-3.82-.75-4.16.15-4.09.15-4.89a14.63,14.63,0,0,0-.15-1.81Z"/><ellipse class="cls-52" cx="254.62" cy="200.57" rx="7" ry="11.3"/><path class="cls-52" d="M249.88,205.76a2.16,2.16,0,0,0-.11-3,2.13,2.13,0,0,0-3,.11,2.15,2.15,0,1,0,3.13,2.94Z"/><path class="cls-34" d="M255,192s-.63-2.92-3.43-2.36-5.62,3.66-8.48,7c-.87,1-1.24,1.95-3.58,4.91.42,3.09.59,3,1,6.13,3.58-2.89,6.61-5.35,7.1-5.45.93-.18,4.73.62,6.73-3A9.4,9.4,0,0,0,255,192Z"/><path class="cls-34" d="M254,194.66c.5,0,2.81-.73,5.56,2.13s1.92,5.62,1.74,7.11c.62.34,6.86-9.52,2.64-13.61s-12-.61-12-.61Z"/><path class="cls-34" d="M254.1,196.61c.65.16,7.89,1.44,8.22,7.38.37-5.88.1-7.28.1-7.28L258.5,193l-4.51-.48L253,194Z"/><path class="cls-62" d="M248.39,205.9h0a1.27,1.27,0,0,0-1.8,0h0a1.28,1.28,0,0,0,0,1.81h0a1.27,1.27,0,0,0,1.8,0h0A1.26,1.26,0,0,0,248.39,205.9Z"/><path class="cls-63" d="M260.59,247.26v-.84a1.27,1.27,0,0,1,.37-.92,1.3,1.3,0,0,1,.93-.38h4.19a1,1,0,0,1,1,1v1.15a1.31,1.31,0,0,1-1.3,1.31h-3.88A1.32,1.32,0,0,1,260.59,247.26Zm1.29-1.7a.85.85,0,0,0-.86.86v.84a.88.88,0,0,0,.88.86h3.88a.88.88,0,0,0,.61-.25.85.85,0,0,0,.24-.61v-1.14a.56.56,0,0,0-.56-.56Z"/><path class="cls-63" d="M260.83,247.09h3.27a.22.22,0,0,0,.22-.23.22.22,0,0,0-.22-.22h-3.27a.22.22,0,0,0-.22.22A.22.22,0,0,0,260.83,247.09Z"/><path class="cls-37" d="M278.21,248.26l.79,0c3.37.07,6.11,2.37,6.11,5.13v2.73a35.09,35.09,0,0,0-7.84,2.46c-.24.1-.47.22-.7.34l.19.86c-1.48.23-7.47.24-13.26.53-7.21.38-13.29-4.4-13.29-10.36v-2.38Z"/><path class="cls-37" d="M266.32,260.08a22.06,22.06,0,0,0-3.2-8.78l.76-.68,20.64.59s8.15,15-12.2,39.56a20.4,20.4,0,0,0-2.62-1.4s4.18-8.95,6.71-29.93A77.73,77.73,0,0,0,266.32,260.08Z"/><path class="cls-54" d="M283.69,237.79h0a7.12,7.12,0,0,0-.57-.51h0a6.46,6.46,0,0,0-6.21-.51l-.73.3-25.94,10.52.06,3.51a9.68,9.68,0,0,0,8.85,9.52,14.39,14.39,0,0,0,7.54-1.5c4.83-2.4,10.65-9.08,12.45-10.64,5.94,19.94,5.69,29.67,5.69,29.67a20.89,20.89,0,0,1,3,.24C295.47,251.61,286.17,240.23,283.69,237.79Z"/><path class="cls-61" d="M274.26,242.87a4.68,4.68,0,0,1-3.54-5.61,4.73,4.73,0,0,1,5.61-3.58,4.71,4.71,0,0,1-2.07,9.19Z"/><path class="cls-53" d="M270.26,287.11a12.25,12.25,0,0,1,3.41,4.17c.48.93.93,1.74,1.32,2.42a4.06,4.06,0,0,1-.06,4.15h0a1.14,1.14,0,0,1-1.85.14c-1.92-2.32-5.9-7.16-6-7.62S270.26,287.11,270.26,287.11Z"/><path class="cls-53" d="M287.8,278.34l-2.59-.25a1.68,1.68,0,0,0-1.8,2.08c.6,2.44,1.6,6.13,2.21,8.34a2.05,2.05,0,0,0,2.78,1.39.94.94,0,0,0,.32-.22c.37-.49,0-4.53-.29-7.58A13,13,0,0,0,287.8,278.34Z"/><path class="cls-38" d="M247.83,227.3c.9-3.57,1.85-7.57,2-8.27a3.44,3.44,0,0,0-6.69-1.58c-.62,2.59-1.47,6.11-2.18,8.9A64.64,64.64,0,0,0,247.83,227.3Z"/></g><path class="cls-14" d="M76.4,90.55a10.1,10.1,0,0,1,3,1,8.66,8.66,0,0,1,2.12,1.52,6.49,6.49,0,0,1,1.31,1.8,5,5,0,0,1,.51,1.77.74.74,0,0,1-.25.67,1,1,0,0,1-.67.26H80a1.39,1.39,0,0,1-.87-.22,2.23,2.23,0,0,1-.53-.6A4.54,4.54,0,0,0,77,95.23a6.09,6.09,0,0,0-3.1-.63,7.2,7.2,0,0,0-1.7.19,4.72,4.72,0,0,0-1.41.55,2.93,2.93,0,0,0-.94.87,2,2,0,0,0-.35,1.17,2.12,2.12,0,0,0,.38,1.29,3,3,0,0,0,1.22.85,12.72,12.72,0,0,0,2.16.67q1.32.32,3.21.72A20.07,20.07,0,0,1,80,102a8,8,0,0,1,2.33,1.44,4.92,4.92,0,0,1,1.31,1.94,7.47,7.47,0,0,1,.39,2.51,6.14,6.14,0,0,1-.51,2.5,6.65,6.65,0,0,1-1.5,2.1A8.21,8.21,0,0,1,79.6,114a12,12,0,0,1-3.2.86v2.33a.91.91,0,0,1-.27.66.89.89,0,0,1-.65.27H72.7a.92.92,0,0,1-.93-.93v-2.33a12.28,12.28,0,0,1-2.9-.81,9.14,9.14,0,0,1-2.37-1.39,6.68,6.68,0,0,1-1.63-1.9,5.4,5.4,0,0,1-.69-2.39.8.8,0,0,1,.26-.67,1,1,0,0,1,.67-.25h2.4a1.62,1.62,0,0,1,.9.2,1.69,1.69,0,0,1,.51.62,5.88,5.88,0,0,0,.58.89,3.19,3.19,0,0,0,.93.79,5.7,5.7,0,0,0,1.46.57,8.93,8.93,0,0,0,2.18.22,12.85,12.85,0,0,0,2-.15,6,6,0,0,0,1.68-.52,3.7,3.7,0,0,0,1.17-.89,2,2,0,0,0,.45-1.32,1.67,1.67,0,0,0-.48-1.24,4,4,0,0,0-1.46-.82,19.48,19.48,0,0,0-2.42-.65c-1-.21-2.08-.47-3.33-.79a18,18,0,0,1-3-1A7.34,7.34,0,0,1,66.53,102,5.31,5.31,0,0,1,65.28,100a7.79,7.79,0,0,1-.41-2.66,5.93,5.93,0,0,1,.51-2.47,7,7,0,0,1,1.43-2A7.84,7.84,0,0,1,69,91.35a11,11,0,0,1,2.78-.87V88.14a.92.92,0,0,1,.93-.92h2.78a.89.89,0,0,1,.65.27.91.91,0,0,1,.27.65Z"/><path class="cls-14" d="M318.53,39.18A11.82,11.82,0,0,1,322,40.31a9.86,9.86,0,0,1,2.47,1.78A7.47,7.47,0,0,1,326,44.18a6.34,6.34,0,0,1,.6,2,.92.92,0,0,1-.3.78,1.16,1.16,0,0,1-.78.3h-2.79a1.7,1.7,0,0,1-1-.26,2.5,2.5,0,0,1-.61-.7,5.24,5.24,0,0,0-1.82-1.73,7.08,7.08,0,0,0-3.61-.74,8.38,8.38,0,0,0-2,.22,5.72,5.72,0,0,0-1.63.64,3.47,3.47,0,0,0-1.1,1,2.39,2.39,0,0,0-.4,1.36,2.45,2.45,0,0,0,.44,1.5,3.42,3.42,0,0,0,1.42,1,15.13,15.13,0,0,0,2.51.78l3.72.84a23,23,0,0,1,4.05,1.21,9.35,9.35,0,0,1,2.71,1.68,5.73,5.73,0,0,1,1.52,2.25,8.72,8.72,0,0,1,.45,2.91,7.24,7.24,0,0,1-.59,2.91A7.56,7.56,0,0,1,325,64.61a9.38,9.38,0,0,1-2.77,1.79,13.43,13.43,0,0,1-3.71,1v2.71a1,1,0,0,1-.32.76,1,1,0,0,1-.75.32h-3.23a1.09,1.09,0,0,1-1.08-1.08V67.4a14.22,14.22,0,0,1-3.37-.94A10.88,10.88,0,0,1,307,64.85a8.08,8.08,0,0,1-1.89-2.21,6.23,6.23,0,0,1-.8-2.77.92.92,0,0,1,.3-.78,1.16,1.16,0,0,1,.78-.3h2.79a1.55,1.55,0,0,1,1.63,1,7.61,7.61,0,0,0,.68,1,3.65,3.65,0,0,0,1.08.92,6.21,6.21,0,0,0,1.69.66,10.58,10.58,0,0,0,2.53.26,14.63,14.63,0,0,0,2.32-.18,6.76,6.76,0,0,0,1.95-.6,4,4,0,0,0,1.35-1,2.27,2.27,0,0,0,.52-1.53,1.93,1.93,0,0,0-.56-1.44,4.37,4.37,0,0,0-1.69-.95,22.82,22.82,0,0,0-2.81-.76c-1.12-.24-2.41-.54-3.87-.92a20.76,20.76,0,0,1-3.49-1.13,8.27,8.27,0,0,1-2.47-1.62,6.1,6.1,0,0,1-1.45-2.25,8.88,8.88,0,0,1-.48-3.09,6.83,6.83,0,0,1,.6-2.87,8,8,0,0,1,1.65-2.37,9.08,9.08,0,0,1,2.53-1.76,13.11,13.11,0,0,1,3.23-1V36.39a1,1,0,0,1,.32-.76,1.05,1.05,0,0,1,.76-.32h3.23a1,1,0,0,1,.75.32,1,1,0,0,1,.32.76Z"/><path class="cls-64" d="M70.6,35.39a5.87,5.87,0,0,1,1.73.58,5.47,5.47,0,0,1,1.25.89,3.87,3.87,0,0,1,.76,1.06,2.81,2.81,0,0,1,.3,1,.41.41,0,0,1-.15.39.56.56,0,0,1-.39.15H72.69a.8.8,0,0,1-.51-.13,1.18,1.18,0,0,1-.31-.35,2.69,2.69,0,0,0-.92-.88,3.56,3.56,0,0,0-1.82-.37,4.57,4.57,0,0,0-1,.11,2.82,2.82,0,0,0-.83.32,1.62,1.62,0,0,0-.55.52,1.16,1.16,0,0,0-.2.68,1.22,1.22,0,0,0,.22.76,1.75,1.75,0,0,0,.71.5,7.79,7.79,0,0,0,1.27.39l1.89.43a11.93,11.93,0,0,1,2,.61,4.78,4.78,0,0,1,1.37.85,2.93,2.93,0,0,1,.77,1.13,4.51,4.51,0,0,1,.23,1.48,3.65,3.65,0,0,1-.3,1.47,4.16,4.16,0,0,1-.88,1.23,4.82,4.82,0,0,1-1.4.9,7.31,7.31,0,0,1-1.87.51V51a.53.53,0,0,1-.17.38.49.49,0,0,1-.38.16H68.42a.49.49,0,0,1-.38-.16.52.52,0,0,1-.16-.38V49.66a7.69,7.69,0,0,1-1.71-.48,5.71,5.71,0,0,1-1.39-.81,4.2,4.2,0,0,1-1-1.12,3.08,3.08,0,0,1-.41-1.4.49.49,0,0,1,.15-.4.6.6,0,0,1,.4-.15h1.41a.93.93,0,0,1,.52.12,1,1,0,0,1,.3.37,4,4,0,0,0,.35.52,1.65,1.65,0,0,0,.54.46,3.15,3.15,0,0,0,.86.34,5.61,5.61,0,0,0,1.28.13,7.27,7.27,0,0,0,1.16-.09,3.11,3.11,0,0,0,1-.31,2.16,2.16,0,0,0,.69-.52,1.19,1.19,0,0,0,.26-.77,1,1,0,0,0-.28-.73,2.23,2.23,0,0,0-.86-.48A10.73,10.73,0,0,0,69.77,44c-.56-.12-1.22-.27-2-.46a10.54,10.54,0,0,1-1.77-.57,4.44,4.44,0,0,1-1.25-.82A3,3,0,0,1,64.07,41a4.49,4.49,0,0,1-.24-1.56,3.48,3.48,0,0,1,.3-1.45,4.23,4.23,0,0,1,.83-1.2,4.69,4.69,0,0,1,1.28-.88,6.43,6.43,0,0,1,1.64-.52V34A.51.51,0,0,1,68,33.6a.49.49,0,0,1,.38-.16h1.63a.49.49,0,0,1,.38.16.52.52,0,0,1,.17.38Z"/><path class="cls-65" d="M349.68,78.76a6,6,0,0,1,1.73.58,5.06,5.06,0,0,1,1.25.89,3.91,3.91,0,0,1,.77,1.06,3.25,3.25,0,0,1,.3,1,.46.46,0,0,1-.15.39.6.6,0,0,1-.39.15h-1.41a.85.85,0,0,1-.52-.13,1.19,1.19,0,0,1-.31-.35,2.6,2.6,0,0,0-.92-.88,3.64,3.64,0,0,0-1.82-.37,4.64,4.64,0,0,0-1,.11,3,3,0,0,0-.82.32,1.88,1.88,0,0,0-.56.52,1.34,1.34,0,0,0,0,1.44,1.79,1.79,0,0,0,.72.5,8.79,8.79,0,0,0,1.27.4l1.88.42a11.79,11.79,0,0,1,2,.61,4.92,4.92,0,0,1,1.37.85,2.86,2.86,0,0,1,.76,1.14,4.2,4.2,0,0,1,.23,1.47,3.65,3.65,0,0,1-.3,1.47,3.72,3.72,0,0,1-.88,1.23,4.82,4.82,0,0,1-1.4.9,6.82,6.82,0,0,1-1.87.51V94.4a.51.51,0,0,1-.16.38.52.52,0,0,1-.38.16H347.5a.52.52,0,0,1-.38-.16.51.51,0,0,1-.16-.38V93a7.24,7.24,0,0,1-1.7-.48,5.52,5.52,0,0,1-1.39-.81,3.92,3.92,0,0,1-1-1.12,3.16,3.16,0,0,1-.4-1.4.43.43,0,0,1,.15-.39.56.56,0,0,1,.39-.15h1.41a1,1,0,0,1,.53.12.91.91,0,0,1,.3.36,3.85,3.85,0,0,0,.34.52,1.93,1.93,0,0,0,.54.47,3.68,3.68,0,0,0,.86.33,5.15,5.15,0,0,0,1.28.13,7.49,7.49,0,0,0,1.17-.09,3.59,3.59,0,0,0,1-.3,2,2,0,0,0,.68-.53,1.11,1.11,0,0,0,.26-.77,1,1,0,0,0-.28-.73,2.16,2.16,0,0,0-.86-.48,12.16,12.16,0,0,0-1.42-.38c-.56-.12-1.21-.28-2-.47a10.41,10.41,0,0,1-1.76-.57,3.93,3.93,0,0,1-1.25-.82,3,3,0,0,1-.74-1.14,4.49,4.49,0,0,1-.24-1.56,3.52,3.52,0,0,1,.3-1.45,4.07,4.07,0,0,1,.84-1.2,4.54,4.54,0,0,1,1.28-.88,6.48,6.48,0,0,1,1.63-.52V77.35a.55.55,0,0,1,.54-.54h1.64a.55.55,0,0,1,.54.54Z"/><path class="cls-66" d="M25,100.54a4.68,4.68,0,0,1,1.41.47,4.14,4.14,0,0,1,1,.72,3.21,3.21,0,0,1,.62.86,2.48,2.48,0,0,1,.25.84.37.37,0,0,1-.12.32.49.49,0,0,1-.32.12H26.65a.67.67,0,0,1-.41-.1,1.05,1.05,0,0,1-.26-.29,2.11,2.11,0,0,0-.74-.71,2.92,2.92,0,0,0-1.48-.3,3.59,3.59,0,0,0-.81.09,2.53,2.53,0,0,0-.67.26,1.3,1.3,0,0,0-.45.42,1.07,1.07,0,0,0,0,1.16,1.33,1.33,0,0,0,.58.41,6.05,6.05,0,0,0,1,.32l1.53.35a9.38,9.38,0,0,1,1.65.49,3.68,3.68,0,0,1,1.12.69,2.46,2.46,0,0,1,.62.92,3.68,3.68,0,0,1,.19,1.2,3,3,0,0,1-.25,1.19,3.11,3.11,0,0,1-.71,1,4.06,4.06,0,0,1-1.14.73,5.54,5.54,0,0,1-1.52.41v1.11a.42.42,0,0,1-.13.31.4.4,0,0,1-.31.13H23.19a.44.44,0,0,1-.44-.44v-1.11a6.1,6.1,0,0,1-1.38-.38,4.33,4.33,0,0,1-1.13-.67,3.33,3.33,0,0,1-.78-.9,2.59,2.59,0,0,1-.32-1.14.37.37,0,0,1,.12-.32.47.47,0,0,1,.32-.12h1.14a.74.74,0,0,1,.43.1.71.71,0,0,1,.24.29,3.49,3.49,0,0,0,.28.43,1.63,1.63,0,0,0,.44.37,2.76,2.76,0,0,0,.69.27,4.36,4.36,0,0,0,1,.11,7.19,7.19,0,0,0,.95-.07,2.89,2.89,0,0,0,.8-.25,1.75,1.75,0,0,0,.56-.42,1,1,0,0,0,.21-.63.81.81,0,0,0-.23-.59,1.72,1.72,0,0,0-.69-.39,8.23,8.23,0,0,0-1.16-.31l-1.58-.38a8.27,8.27,0,0,1-1.43-.47,3.28,3.28,0,0,1-1-.66,2.45,2.45,0,0,1-.6-.92,3.72,3.72,0,0,1-.2-1.27,2.7,2.7,0,0,1,.25-1.17,3.26,3.26,0,0,1,.68-1,3.72,3.72,0,0,1,1-.72,5.16,5.16,0,0,1,1.33-.41V99.4a.4.4,0,0,1,.13-.31.42.42,0,0,1,.31-.13h1.32a.44.44,0,0,1,.44.44Z"/><path class="cls-14" d="M250.34,30.5a6.06,6.06,0,0,1,1.73.57,5,5,0,0,1,1.25.9,3.68,3.68,0,0,1,.76,1.05,3,3,0,0,1,.31,1,.46.46,0,0,1-.15.39.61.61,0,0,1-.4.16h-1.41a.8.8,0,0,1-.51-.14,1.07,1.07,0,0,1-.31-.35,2.58,2.58,0,0,0-.92-.87,3.55,3.55,0,0,0-1.82-.38,4.57,4.57,0,0,0-1,.11,2.82,2.82,0,0,0-.83.33,1.69,1.69,0,0,0-.55.51,1.16,1.16,0,0,0-.2.68,1.2,1.2,0,0,0,.22.76,1.72,1.72,0,0,0,.71.5,8,8,0,0,0,1.27.4l1.89.42a11.66,11.66,0,0,1,2,.61,4.65,4.65,0,0,1,1.37.85,2.89,2.89,0,0,1,.77,1.14,4.45,4.45,0,0,1,.23,1.47,3.65,3.65,0,0,1-.3,1.47,3.76,3.76,0,0,1-.88,1.23,5.05,5.05,0,0,1-1.4.91,6.82,6.82,0,0,1-1.87.5v1.37a.55.55,0,0,1-.16.38.53.53,0,0,1-.39.16h-1.63a.55.55,0,0,1-.54-.54V44.76a7.1,7.1,0,0,1-1.7-.47,5.67,5.67,0,0,1-1.39-.82,3.92,3.92,0,0,1-1-1.12,3,3,0,0,1-.4-1.4.41.41,0,0,1,.15-.39.56.56,0,0,1,.39-.15h1.41a.93.93,0,0,1,.52.12,1,1,0,0,1,.31.36,2.73,2.73,0,0,0,.34.52,1.8,1.8,0,0,0,.54.47,3.68,3.68,0,0,0,.86.33,5.15,5.15,0,0,0,1.28.13,7.49,7.49,0,0,0,1.17-.09,3.42,3.42,0,0,0,1-.3,2.2,2.2,0,0,0,.69-.52,1.2,1.2,0,0,0,.26-.78,1,1,0,0,0-.28-.73,2.37,2.37,0,0,0-.86-.48,12.16,12.16,0,0,0-1.42-.38c-.56-.12-1.21-.28-1.95-.47a10.85,10.85,0,0,1-1.77-.57,3.88,3.88,0,0,1-1.24-.82,3,3,0,0,1-.74-1.13,4.59,4.59,0,0,1-.24-1.57,3.52,3.52,0,0,1,.3-1.45,3.91,3.91,0,0,1,.84-1.19A4.25,4.25,0,0,1,246,31a6,6,0,0,1,1.63-.51V29.09a.53.53,0,0,1,.16-.39.55.55,0,0,1,.38-.16h1.63a.55.55,0,0,1,.55.55Z"/><g id="card"><path class="cls-37" d="M219.23,95.49l-69.47-.24a8.17,8.17,0,0,0-8.18,8.13l-.12,35.19a8.17,8.17,0,0,0,8.13,8.18l69.46.24a8.17,8.17,0,0,0,8.18-8.12l.12-35.2a8.17,8.17,0,0,0-8.12-8.18Z"/><path class="cls-38" d="M155.21,98.88a6.75,6.75,0,1,0,6.73,6.77,6.75,6.75,0,0,0-6.73-6.77Z"/><path class="cls-55" d="M162.68,98.9a6.76,6.76,0,1,0,6.73,6.78,6.76,6.76,0,0,0-6.73-6.78Z"/><path class="cls-14" d="M160.62,121.7a1.74,1.74,0,1,1,0,3.47l-11.38,0a1.74,1.74,0,0,1,0-3.47l11.38,0Z"/><path class="cls-14" d="M180.43,121.77a1.74,1.74,0,0,1,0,3.47l-11.38,0a1.74,1.74,0,0,1,0-3.47l11.39,0Z"/><path class="cls-14" d="M200.23,121.84a1.74,1.74,0,1,1,0,3.47l-11.38,0a1.74,1.74,0,1,1,0-3.47l11.39,0Z"/><path class="cls-14" d="M220,121.91a1.73,1.73,0,1,1,0,3.46l-11.39,0a1.74,1.74,0,1,1,0-3.47l11.39,0Z"/><path class="cls-14" d="M170.9,129a1.75,1.75,0,0,1,1.73,1.74,1.73,1.73,0,0,1-1.74,1.73l-21.69-.07a1.74,1.74,0,0,1,0-3.47l21.68.07Z"/><path class="cls-14" d="M178.29,136a1.74,1.74,0,0,1,0,3.47l-29.1-.1a1.74,1.74,0,0,1,0-3.47l29.1.1Z"/><path class="cls-14" d="M189.6,136a1.74,1.74,0,1,1,0,3.47l-5.39,0a1.74,1.74,0,0,1,0-3.47l5.38,0Z"/></g><polygon class="cls-38" points="184.46 253.66 185.98 256.75 189.39 257.25 186.92 259.65 187.5 263.05 184.46 261.44 181.41 263.05 181.99 259.65 179.52 257.25 182.93 256.75 184.46 253.66"/><polygon class="cls-38" points="197.02 253.66 198.55 256.75 201.96 257.25 199.49 259.65 200.07 263.05 197.02 261.44 193.97 263.05 194.56 259.65 192.09 257.25 195.5 256.75 197.02 253.66"/><polygon class="cls-38" points="211.84 253.66 213.36 256.75 216.77 257.25 214.3 259.65 214.88 263.05 211.84 261.44 208.79 263.05 209.37 259.65 206.9 257.25 210.31 256.75 211.84 253.66"/><polygon class="cls-38" points="171.44 253.66 172.96 256.75 176.37 257.25 173.91 259.65 174.49 263.05 171.44 261.44 168.39 263.05 168.97 259.65 166.51 257.25 169.91 256.75 171.44 253.66"/><polygon class="cls-38" points="158.65 253.66 160.17 256.75 163.58 257.25 161.11 259.65 161.7 263.05 158.65 261.44 155.6 263.05 156.18 259.65 153.72 257.25 157.12 256.75 158.65 253.66"/></g></g></g></svg>